<svg width="350" height="200" viewBox="0 0 350 200" fill="none" xmlns="http://www.w3.org/2000/svg">
<g clip-path="url(#clip0_439_2)">
<rect width="350" height="200" rx="11.2" fill="white"/>
<mask id="path-2-outside-1_439_2" maskUnits="userSpaceOnUse" x="-4.80005" y="82.6924" width="357" height="120" fill="black">
<rect fill="white" x="-4.80005" y="82.6924" width="357" height="120"/>
<path d="M-1.95088 198.096C-2.41685 196.853 -1.76959 195.47 -0.516538 195.031L2.00688 194.147C2.72646 193.895 3.52339 194.005 4.14786 194.442L8.67501 197.613C8.95906 197.812 9.28336 197.946 9.62497 198.006L13.4203 198.671C14.4038 198.843 15.3896 198.38 15.8847 197.513L19.5763 191.048C20.3185 189.748 22.0657 189.455 23.1919 190.441L25.7434 192.675C26.4799 193.32 27.5375 193.445 28.4042 192.99L32.3645 190.909C32.7279 190.718 33.0354 190.436 33.2569 190.09L39.648 180.115C40.0773 179.445 40.9781 179.267 41.63 179.724L46.0197 182.799C46.2593 182.967 46.4404 183.206 46.5373 183.482L52.3414 200L55.4763 199.256C56.2589 199.07 56.8936 198.5 57.1616 197.741L63.629 179.443C63.939 178.566 65.0025 178.229 65.7606 178.769L69.3734 181.339C69.984 181.773 70.8284 181.65 71.2891 181.059L75.2622 175.962C75.7495 175.337 76.6583 175.241 77.2658 175.75L80.9411 178.831C81.6563 179.431 82.747 179.176 83.1223 178.322L87.3343 168.733C87.7711 167.738 89.1246 167.598 89.7556 168.482L94.1833 174.685C94.2462 174.774 94.3191 174.854 94.4005 174.925L99.1278 179.065C99.8038 179.656 100.757 179.815 101.588 179.473L105.92 177.692L111.111 175.293C111.76 174.993 112.51 175.002 113.152 175.318L122.5 179.93L129.611 180.025C129.867 180.029 130.12 180.074 130.361 180.158L134.089 181.464C135.167 181.842 136.361 181.396 136.928 180.404L141.903 171.69L146.657 165.031C147.344 164.068 148.637 163.76 149.685 164.311L152.532 165.807C153.317 166.219 154.266 166.158 154.992 165.65L157.436 163.938C158.647 163.089 160.331 163.546 160.947 164.89L165.24 174.256C165.38 174.56 165.582 174.831 165.833 175.051L168.073 177.012C169.496 178.258 171.734 177.414 171.98 175.538L175.606 147.842C175.722 146.956 176.327 146.21 177.171 145.915L180.862 144.622C181.431 144.423 181.903 144.014 182.181 143.478L185.92 136.276C186.735 134.706 188.921 134.552 189.948 135.991L192.788 139.97C193.318 140.712 194.226 141.084 195.124 140.927L197.969 140.429C198.952 140.256 199.938 140.72 200.433 141.587L202.882 145.875C203.905 147.667 206.571 147.384 207.195 145.417L210.082 136.316C210.672 134.456 213.132 134.068 214.266 135.656L217.325 139.942C217.42 140.075 217.5 140.217 217.566 140.366L222.259 151.051C222.86 152.419 224.562 152.895 225.785 152.038L228.831 149.905C229.186 149.656 229.466 149.314 229.64 148.918L233.652 139.785C234.39 138.103 236.679 137.867 237.746 139.361L240.717 143.522C241.078 144.028 241.623 144.372 242.235 144.479L245.674 145.081C246.618 145.246 247.568 144.827 248.081 144.017L250.588 140.067C251.644 138.402 254.154 138.683 254.817 140.54L257.509 148.084C258.172 149.941 260.682 150.221 261.738 148.556L264.79 143.746C264.989 143.432 265.111 143.077 265.148 142.708L266.19 132.051C266.382 130.091 268.742 129.208 270.173 130.561L274.633 134.778C275.802 135.882 277.707 135.526 278.398 134.075L282.952 124.504L287.178 111.182C287.816 109.172 290.565 108.935 291.537 110.807L292.757 113.158C293.641 114.861 296.076 114.861 296.96 113.158L299.52 108.226C300.196 106.925 301.879 106.544 303.048 107.428L305.566 109.329C306.298 109.882 307.283 109.962 308.094 109.536L312.201 107.378C312.541 107.2 312.918 107.107 313.302 107.107H317.248C318.124 107.107 318.928 106.623 319.339 105.85L323.505 98.0077C324.122 96.8462 325.567 96.4102 326.723 97.0367L334.188 101.081C335.141 101.598 336.323 101.401 337.058 100.603L341.389 95.8996L350 87.6924V198.958V200H344.047H338.094H332.14H326.187H320.234H314.281H308.328H302.375H296.421H290.468H284.515H278.562H272.609H266.656H260.702H254.749H248.796H242.843H236.89H230.937H224.983H219.03H213.077H207.124H201.171H195.217H189.264H183.311H177.358H171.405H165.452H159.498H153.545H147.592H141.639H135.686H129.733L123.779 200L117.826 200H111.873H105.92H99.9667H94.0136H88.0604H82.1072H76.1541H70.2009H64.2477H58.2945H52.3414H46.3882H40.435H34.4819H28.5287H22.5755H16.6223H10.6692H4.716H-1.23717L-1.95088 198.096Z"/>
</mask>
<path d="M-1.95088 198.096C-2.41685 196.853 -1.76959 195.47 -0.516538 195.031L2.00688 194.147C2.72646 193.895 3.52339 194.005 4.14786 194.442L8.67501 197.613C8.95906 197.812 9.28336 197.946 9.62497 198.006L13.4203 198.671C14.4038 198.843 15.3896 198.38 15.8847 197.513L19.5763 191.048C20.3185 189.748 22.0657 189.455 23.1919 190.441L25.7434 192.675C26.4799 193.32 27.5375 193.445 28.4042 192.99L32.3645 190.909C32.7279 190.718 33.0354 190.436 33.2569 190.09L39.648 180.115C40.0773 179.445 40.9781 179.267 41.63 179.724L46.0197 182.799C46.2593 182.967 46.4404 183.206 46.5373 183.482L52.3414 200L55.4763 199.256C56.2589 199.07 56.8936 198.5 57.1616 197.741L63.629 179.443C63.939 178.566 65.0025 178.229 65.7606 178.769L69.3734 181.339C69.984 181.773 70.8284 181.65 71.2891 181.059L75.2622 175.962C75.7495 175.337 76.6583 175.241 77.2658 175.75L80.9411 178.831C81.6563 179.431 82.747 179.176 83.1223 178.322L87.3343 168.733C87.7711 167.738 89.1246 167.598 89.7556 168.482L94.1833 174.685C94.2462 174.774 94.3191 174.854 94.4005 174.925L99.1278 179.065C99.8038 179.656 100.757 179.815 101.588 179.473L105.92 177.692L111.111 175.293C111.76 174.993 112.51 175.002 113.152 175.318L122.5 179.93L129.611 180.025C129.867 180.029 130.12 180.074 130.361 180.158L134.089 181.464C135.167 181.842 136.361 181.396 136.928 180.404L141.903 171.69L146.657 165.031C147.344 164.068 148.637 163.76 149.685 164.311L152.532 165.807C153.317 166.219 154.266 166.158 154.992 165.65L157.436 163.938C158.647 163.089 160.331 163.546 160.947 164.89L165.24 174.256C165.38 174.56 165.582 174.831 165.833 175.051L168.073 177.012C169.496 178.258 171.734 177.414 171.98 175.538L175.606 147.842C175.722 146.956 176.327 146.21 177.171 145.915L180.862 144.622C181.431 144.423 181.903 144.014 182.181 143.478L185.92 136.276C186.735 134.706 188.921 134.552 189.948 135.991L192.788 139.97C193.318 140.712 194.226 141.084 195.124 140.927L197.969 140.429C198.952 140.256 199.938 140.72 200.433 141.587L202.882 145.875C203.905 147.667 206.571 147.384 207.195 145.417L210.082 136.316C210.672 134.456 213.132 134.068 214.266 135.656L217.325 139.942C217.42 140.075 217.5 140.217 217.566 140.366L222.259 151.051C222.86 152.419 224.562 152.895 225.785 152.038L228.831 149.905C229.186 149.656 229.466 149.314 229.64 148.918L233.652 139.785C234.39 138.103 236.679 137.867 237.746 139.361L240.717 143.522C241.078 144.028 241.623 144.372 242.235 144.479L245.674 145.081C246.618 145.246 247.568 144.827 248.081 144.017L250.588 140.067C251.644 138.402 254.154 138.683 254.817 140.54L257.509 148.084C258.172 149.941 260.682 150.221 261.738 148.556L264.79 143.746C264.989 143.432 265.111 143.077 265.148 142.708L266.19 132.051C266.382 130.091 268.742 129.208 270.173 130.561L274.633 134.778C275.802 135.882 277.707 135.526 278.398 134.075L282.952 124.504L287.178 111.182C287.816 109.172 290.565 108.935 291.537 110.807L292.757 113.158C293.641 114.861 296.076 114.861 296.96 113.158L299.52 108.226C300.196 106.925 301.879 106.544 303.048 107.428L305.566 109.329C306.298 109.882 307.283 109.962 308.094 109.536L312.201 107.378C312.541 107.2 312.918 107.107 313.302 107.107H317.248C318.124 107.107 318.928 106.623 319.339 105.85L323.505 98.0077C324.122 96.8462 325.567 96.4102 326.723 97.0367L334.188 101.081C335.141 101.598 336.323 101.401 337.058 100.603L341.389 95.8996L350 87.6924V198.958V200H344.047H338.094H332.14H326.187H320.234H314.281H308.328H302.375H296.421H290.468H284.515H278.562H272.609H266.656H260.702H254.749H248.796H242.843H236.89H230.937H224.983H219.03H213.077H207.124H201.171H195.217H189.264H183.311H177.358H171.405H165.452H159.498H153.545H147.592H141.639H135.686H129.733L123.779 200L117.826 200H111.873H105.92H99.9667H94.0136H88.0604H82.1072H76.1541H70.2009H64.2477H58.2945H52.3414H46.3882H40.435H34.4819H28.5287H22.5755H16.6223H10.6692H4.716H-1.23717L-1.95088 198.096Z" fill="#3985ED" fill-opacity="0.25"/>
<path d="M121.502 179.993L122.781 200.064L124.777 199.937L123.498 179.866L121.502 179.993ZM105.92 177.692L106.68 179.542L106.72 179.526L106.759 179.508L105.92 177.692ZM122.5 179.93L121.615 181.723L122.021 181.923L122.473 181.929L122.5 179.93ZM123.779 200L123.779 198L123.779 198L123.779 200ZM141.903 171.69L140.275 170.529L140.217 170.611L140.167 170.699L141.903 171.69ZM282.952 124.504L284.758 125.363L284.817 125.239L284.859 125.109L282.952 124.504ZM341.389 95.8996L340.009 94.4518L339.962 94.4968L339.918 94.5448L341.389 95.8996ZM350 87.6924H352V83.0233L348.62 86.2446L350 87.6924ZM350 200V202H352V200H350ZM129.733 200L129.733 202H129.733V200ZM117.826 200L117.826 202L117.826 202L117.826 200ZM-1.23717 200L-3.10995 200.702L-2.62342 202H-1.23717V200ZM334.188 101.081L333.235 102.84L334.188 101.081ZM337.058 100.603L335.586 99.2484L337.058 100.603ZM323.505 98.0077L325.271 98.946L323.505 98.0077ZM326.723 97.0367L327.676 95.2782L326.723 97.0367ZM312.201 107.378L313.131 109.149L312.201 107.378ZM266.19 132.051L268.181 132.245L266.19 132.051ZM270.173 130.561L268.799 132.014L270.173 130.561ZM264.79 143.746L263.102 142.674L264.79 143.746ZM265.148 142.708L263.157 142.513L265.148 142.708ZM257.509 148.084L255.625 148.756L257.509 148.084ZM261.738 148.556L263.427 149.628L261.738 148.556ZM250.588 140.067L252.276 141.139L250.588 140.067ZM254.817 140.54L252.933 141.212L254.817 140.54ZM245.674 145.081L245.329 147.051L245.674 145.081ZM248.081 144.017L246.393 142.946L248.081 144.017ZM240.717 143.522L239.089 144.684L240.717 143.522ZM242.235 144.479L241.89 146.449L242.235 144.479ZM233.652 139.785L235.483 140.589L233.652 139.785ZM237.746 139.361L236.119 140.523L237.746 139.361ZM228.831 149.905L227.683 148.266L228.831 149.905ZM229.64 148.918L231.471 149.722L229.64 148.918ZM222.259 151.051L220.428 151.855L222.259 151.051ZM225.785 152.038L226.933 153.676L225.785 152.038ZM217.325 139.942L215.697 141.104L217.325 139.942ZM217.566 140.366L219.397 139.561L217.566 140.366ZM210.082 136.316L211.988 136.921L210.082 136.316ZM214.266 135.656L212.638 136.818L212.638 136.818L214.266 135.656ZM202.882 145.875L204.619 144.884L202.882 145.875ZM207.195 145.417L209.101 146.022L207.195 145.417ZM197.969 140.429L197.624 138.459L197.969 140.429ZM200.433 141.587L202.17 140.595L200.433 141.587ZM185.92 136.276L184.145 135.355L185.92 136.276ZM189.948 135.991L188.32 137.153L189.948 135.991ZM180.862 144.622L180.201 142.735L180.862 144.622ZM182.181 143.478L180.406 142.557L182.181 143.478ZM175.606 147.842L173.623 147.582L175.606 147.842ZM177.171 145.915L177.832 147.803L177.171 145.915ZM168.073 177.012L169.39 175.507L168.073 177.012ZM171.98 175.538L169.997 175.278L171.98 175.538ZM165.24 174.256L167.058 173.423L165.24 174.256ZM165.833 175.051L167.15 173.546L165.833 175.051ZM130.361 180.158L131.023 178.271L130.361 180.158ZM129.611 180.025L129.638 178.026L129.611 180.025ZM111.111 175.293L111.95 177.108L111.111 175.293ZM113.152 175.318L112.267 177.112L113.152 175.318ZM99.1278 179.065L100.445 177.56L99.1278 179.065ZM101.588 179.473L102.348 181.323L101.588 179.473ZM94.1833 174.685L95.8112 173.523L94.1833 174.685ZM94.4005 174.925L93.083 176.43L94.4005 174.925ZM87.3343 168.733L89.1655 169.537L87.3343 168.733ZM89.7556 168.482L88.1278 169.644L89.7556 168.482ZM80.9411 178.831L79.6562 180.364L80.9411 178.831ZM75.2622 175.962L73.6848 174.733L75.2622 175.962ZM77.2658 175.75L75.9808 177.283L77.2658 175.75ZM69.3734 181.339L68.214 182.969L69.3734 181.339ZM71.2891 181.059L69.7117 179.829L71.2891 181.059ZM55.4763 199.256L55.0143 197.31L55.4763 199.256ZM57.1616 197.741L55.2759 197.075L57.1616 197.741ZM46.0197 182.799L44.8723 184.437L46.0197 182.799ZM46.5373 183.482L48.4243 182.819L46.5373 183.482ZM39.648 180.115L37.964 179.037L39.648 180.115ZM41.63 179.724L42.7774 178.086L41.63 179.724ZM32.3645 190.909L33.2947 192.68L32.3645 190.909ZM33.2569 190.09L34.9409 191.169L33.2569 190.09ZM305.566 109.329L306.772 107.733L305.566 109.329ZM308.094 109.536L307.164 107.765L308.094 109.536ZM25.7434 192.675L24.4258 194.18L25.7434 192.675ZM28.4042 192.99L29.3344 194.76L28.4042 192.99ZM160.947 164.89L162.765 164.057L160.947 164.89ZM299.52 108.226L301.295 109.148L299.52 108.226ZM303.048 107.428L304.254 105.832L303.048 107.428ZM19.5763 191.048L17.8395 190.056L19.5763 191.048ZM23.1919 190.441L21.8744 191.946L23.1919 190.441ZM152.532 165.807L151.602 167.577L152.532 165.807ZM154.992 165.65L156.139 167.288L154.992 165.65ZM292.757 113.158L290.982 114.08L292.757 113.158ZM296.96 113.158L295.185 112.237L296.96 113.158ZM13.4203 198.671L13.0753 200.641L13.4203 198.671ZM146.657 165.031L148.284 166.193L146.657 165.031ZM149.685 164.311L148.755 166.081L149.685 164.311ZM287.178 111.182L289.085 111.787L287.178 111.182ZM291.537 110.807L293.312 109.885L291.537 110.807ZM8.67501 197.613L7.52755 199.251L8.67501 197.613ZM9.62497 198.006L9.27998 199.976L9.62497 198.006ZM2.00688 194.147L2.668 196.034L2.00688 194.147ZM4.14786 194.442L3.0004 196.08L4.14786 194.442ZM63.629 179.443L61.7433 178.776L63.629 179.443ZM65.7606 178.769L64.6012 180.398L65.7606 178.769ZM136.928 180.404L135.191 179.412L136.928 180.404ZM274.633 134.778L276.007 133.324L274.633 134.778ZM278.398 134.075L280.204 134.934L278.398 134.075ZM-0.516538 195.031L-1.17766 193.143L-0.516538 195.031ZM0.144583 196.918L2.668 196.034L1.34576 192.259L-1.17766 193.143L0.144583 196.918ZM3.0004 196.08L7.52755 199.251L9.82247 195.975L5.29532 192.804L3.0004 196.08ZM9.27998 199.976L13.0753 200.641L13.7653 196.701L9.96996 196.036L9.27998 199.976ZM17.6214 198.505L21.313 192.04L17.8395 190.056L14.1479 196.521L17.6214 198.505ZM21.8744 191.946L24.4258 194.18L27.0609 191.17L24.5095 188.936L21.8744 191.946ZM29.3344 194.76L33.2947 192.68L31.4343 189.138L27.474 191.219L29.3344 194.76ZM34.9409 191.169L41.332 181.194L37.964 179.037L31.5729 189.011L34.9409 191.169ZM40.4825 181.362L44.8723 184.437L47.1672 181.161L42.7774 178.086L40.4825 181.362ZM44.6504 184.145L50.4545 200.663L54.2283 199.337L48.4243 182.819L44.6504 184.145ZM52.8034 201.946L55.9383 201.202L55.0143 197.31L51.8794 198.054L52.8034 201.946ZM59.0473 198.408L65.5147 180.109L61.7433 178.776L55.2759 197.075L59.0473 198.408ZM64.6012 180.398L68.214 182.969L70.5328 179.709L66.92 177.139L64.6012 180.398ZM72.8665 182.289L76.8395 177.192L73.6848 174.733L69.7117 179.829L72.8665 182.289ZM75.9808 177.283L79.6562 180.364L82.226 177.299L78.5507 174.217L75.9808 177.283ZM84.9535 179.126L89.1655 169.537L85.5032 167.928L81.2912 177.517L84.9535 179.126ZM88.1278 169.644L92.5555 175.847L95.8112 173.523L91.3835 167.32L88.1278 169.644ZM93.083 176.43L97.8103 180.569L100.445 177.56L95.7181 173.421L93.083 176.43ZM102.348 181.323L106.68 179.542L105.16 175.843L100.827 177.623L102.348 181.323ZM106.759 179.508L111.95 177.108L110.272 173.477L105.081 175.877L106.759 179.508ZM112.267 177.112L121.615 181.723L123.385 178.136L114.036 173.525L112.267 177.112ZM129.7 182.046L133.428 183.352L134.75 179.576L131.023 178.271L129.7 182.046ZM138.665 181.395L143.64 172.682L140.167 170.699L135.191 179.412L138.665 181.395ZM143.531 172.852L148.284 166.193L145.029 163.869L140.275 170.529L143.531 172.852ZM148.755 166.081L151.602 167.577L153.462 164.036L150.615 162.54L148.755 166.081ZM156.139 167.288L158.584 165.576L156.289 162.299L153.844 164.012L156.139 167.288ZM159.129 165.724L163.422 175.09L167.058 173.423L162.765 164.057L159.129 165.724ZM164.515 176.555L166.755 178.517L169.39 175.507L167.15 173.546L164.515 176.555ZM173.963 175.798L177.589 148.102L173.623 147.582L169.997 175.278L173.963 175.798ZM177.832 147.803L181.523 146.51L180.201 142.735L176.51 144.027L177.832 147.803ZM183.956 144.4L187.695 137.198L184.145 135.355L180.406 142.557L183.956 144.4ZM188.32 137.153L191.16 141.132L194.416 138.808L191.576 134.829L188.32 137.153ZM195.469 142.897L198.314 142.399L197.624 138.459L194.779 138.957L195.469 142.897ZM198.696 142.578L201.145 146.867L204.619 144.884L202.17 140.595L198.696 142.578ZM209.101 146.022L211.988 136.921L208.176 135.711L205.288 144.812L209.101 146.022ZM212.638 136.818L215.697 141.104L218.953 138.78L215.894 134.494L212.638 136.818ZM215.735 141.17L220.428 151.855L224.09 150.247L219.397 139.561L215.735 141.17ZM226.933 153.676L229.978 151.543L227.683 148.266L224.638 150.4L226.933 153.676ZM231.471 149.722L235.483 140.589L231.821 138.98L227.809 148.113L231.471 149.722ZM236.119 140.523L239.089 144.684L242.344 142.36L239.374 138.199L236.119 140.523ZM241.89 146.449L245.329 147.051L246.019 143.111L242.58 142.509L241.89 146.449ZM249.77 145.089L252.276 141.139L248.899 138.996L246.393 142.946L249.77 145.089ZM252.933 141.212L255.625 148.756L259.393 147.411L256.7 139.867L252.933 141.212ZM263.427 149.628L266.479 144.817L263.102 142.674L260.049 147.485L263.427 149.628ZM267.138 142.902L268.181 132.245L264.2 131.856L263.157 142.513L267.138 142.902ZM268.799 132.014L273.259 136.231L276.007 133.324L271.547 129.107L268.799 132.014ZM280.204 134.934L284.758 125.363L281.146 123.644L276.592 133.215L280.204 134.934ZM284.859 125.109L289.085 111.787L285.272 110.577L281.046 123.899L284.859 125.109ZM289.761 111.728L290.982 114.08L294.532 112.237L293.312 109.885L289.761 111.728ZM298.735 114.08L301.295 109.148L297.745 107.305L295.185 112.237L298.735 114.08ZM301.843 109.024L304.361 110.925L306.772 107.733L304.254 105.832L301.843 109.024ZM309.025 111.306L313.131 109.149L311.271 105.608L307.164 107.765L309.025 111.306ZM313.302 109.107H317.248V105.107H313.302V109.107ZM321.105 106.788L325.271 98.946L321.738 97.0695L317.573 104.911L321.105 106.788ZM325.771 98.7952L333.235 102.84L335.141 99.3226L327.676 95.2782L325.771 98.7952ZM338.529 101.958L342.86 97.2543L339.918 94.5448L335.586 99.2484L338.529 101.958ZM342.769 97.3473L351.38 89.1401L348.62 86.2446L340.009 94.4518L342.769 97.3473ZM348 87.6924V198.958H352V87.6924H348ZM348 198.958V200H352V198.958H348ZM350 198H344.047V202H350V198ZM344.047 198H338.094V202H344.047V198ZM338.094 198H332.14V202H338.094V198ZM332.14 198H326.187V202H332.14V198ZM326.187 198H320.234V202H326.187V198ZM320.234 198H314.281V202H320.234V198ZM314.281 198H308.328V202H314.281V198ZM308.328 198H302.375V202H308.328V198ZM302.375 198H296.421V202H302.375V198ZM296.421 198H290.468V202H296.421V198ZM290.468 198H284.515V202H290.468V198ZM284.515 198H278.562V202H284.515V198ZM278.562 198H272.609V202H278.562V198ZM272.609 198H266.656V202H272.609V198ZM266.656 198H260.702V202H266.656V198ZM260.702 198H254.749V202H260.702V198ZM254.749 198H248.796V202H254.749V198ZM248.796 198H242.843V202H248.796V198ZM242.843 198H236.89V202H242.843V198ZM236.89 198H230.937V202H236.89V198ZM230.937 198H224.983V202H230.937V198ZM224.983 198H219.03V202H224.983V198ZM219.03 198H213.077V202H219.03V198ZM213.077 198H207.124V202H213.077V198ZM207.124 198H201.171V202H207.124V198ZM201.171 198H195.217V202H201.171V198ZM195.217 198H189.264V202H195.217V198ZM189.264 198H183.311V202H189.264V198ZM183.311 198H177.358V202H183.311V198ZM177.358 198H171.405V202H177.358V198ZM171.405 198H165.452V202H171.405V198ZM165.452 198H159.498V202H165.452V198ZM159.498 198H153.545V202H159.498V198ZM153.545 198H147.592V202H153.545V198ZM147.592 198H141.639V202H147.592V198ZM141.639 198H135.686V202H141.639V198ZM135.686 198H129.733V202H135.686V198ZM129.733 198L123.779 198L123.779 202L129.733 202L129.733 198ZM123.779 198L117.826 198L117.826 202L123.779 202L123.779 198ZM117.826 198H111.873V202H117.826V198ZM111.873 198H105.92V202H111.873V198ZM105.92 198H99.9667V202H105.92V198ZM99.9667 198H94.0136V202H99.9667V198ZM94.0136 198H88.0604V202H94.0136V198ZM88.0604 198H82.1072V202H88.0604V198ZM82.1072 198H76.1541V202H82.1072V198ZM76.1541 198H70.2009V202H76.1541V198ZM70.2009 198H64.2477V202H70.2009V198ZM64.2477 198H58.2945V202H64.2477V198ZM58.2945 198H52.3414V202H58.2945V198ZM52.3414 198H46.3882V202H52.3414V198ZM46.3882 198H40.435V202H46.3882V198ZM40.435 198H34.4819V202H40.435V198ZM34.4819 198H28.5287V202H34.4819V198ZM28.5287 198H22.5755V202H28.5287V198ZM22.5755 198H16.6223V202H22.5755V198ZM16.6223 198H10.6692V202H16.6223V198ZM10.6692 198H4.716V202H10.6692V198ZM4.716 198H-1.23717V202H4.716V198ZM0.63561 199.298L-0.0781047 197.394L-3.82366 198.798L-3.10995 200.702L0.63561 199.298ZM122.473 181.929L129.584 182.025L129.638 178.026L122.527 177.93L122.473 181.929ZM333.235 102.84C334.994 103.792 337.174 103.429 338.529 101.958L335.586 99.2484C335.472 99.3723 335.289 99.4028 335.141 99.3226L333.235 102.84ZM325.271 98.946C325.367 98.7656 325.591 98.698 325.771 98.7952L327.676 95.2782C325.543 94.1225 322.876 94.9268 321.738 97.0695L325.271 98.946ZM317.248 109.107C318.864 109.107 320.347 108.215 321.105 106.788L317.573 104.911C317.509 105.032 317.384 105.107 317.248 105.107V109.107ZM313.131 109.149C313.184 109.121 313.243 109.107 313.302 109.107V105.107C312.594 105.107 311.897 105.279 311.271 105.608L313.131 109.149ZM268.181 132.245C268.21 131.941 268.577 131.804 268.799 132.014L271.547 129.107C268.908 126.612 264.553 128.241 264.2 131.856L268.181 132.245ZM266.479 144.817C266.846 144.239 267.071 143.583 267.138 142.902L263.157 142.513C263.151 142.57 263.132 142.625 263.102 142.674L266.479 144.817ZM255.625 148.756C256.848 152.182 261.478 152.699 263.427 149.628L260.049 147.485C259.885 147.743 259.496 147.7 259.393 147.411L255.625 148.756ZM252.276 141.139C252.44 140.88 252.83 140.924 252.933 141.212L256.7 139.867C255.478 136.441 250.848 135.924 248.899 138.996L252.276 141.139ZM245.329 147.051C247.07 147.356 248.823 146.581 249.77 145.089L246.393 142.946C246.313 143.072 246.165 143.137 246.019 143.111L245.329 147.051ZM239.089 144.684C239.755 145.617 240.761 146.251 241.89 146.449L242.58 142.509C242.485 142.492 242.4 142.439 242.344 142.36L239.089 144.684ZM235.483 140.589C235.598 140.328 235.953 140.291 236.119 140.523L239.374 138.199C237.406 135.442 233.183 135.878 231.821 138.98L235.483 140.589ZM229.978 151.543C230.633 151.084 231.15 150.454 231.471 149.722L227.809 148.113C227.782 148.175 227.739 148.228 227.683 148.266L229.978 151.543ZM220.428 151.855C221.536 154.378 224.676 155.257 226.933 153.676L224.638 150.4C224.448 150.533 224.184 150.459 224.09 150.247L220.428 151.855ZM215.697 141.104C215.712 141.125 215.724 141.147 215.735 141.17L219.397 139.561C219.276 139.287 219.127 139.025 218.953 138.78L215.697 141.104ZM211.988 136.921C212.08 136.632 212.462 136.572 212.638 136.818L215.894 134.494C213.802 131.565 209.264 132.28 208.176 135.711L211.988 136.921ZM201.145 146.867C203.032 150.172 207.95 149.65 209.101 146.022L205.288 144.812C205.256 144.913 205.212 144.962 205.173 144.992C205.127 145.028 205.059 145.058 204.977 145.067C204.894 145.076 204.822 145.06 204.769 145.035C204.725 145.014 204.671 144.975 204.619 144.884L201.145 146.867ZM198.314 142.399C198.466 142.372 198.619 142.444 198.696 142.578L202.17 140.595C201.256 138.996 199.438 138.141 197.624 138.459L198.314 142.399ZM191.16 141.132C192.137 142.501 193.813 143.187 195.469 142.897L194.779 138.957C194.639 138.981 194.498 138.924 194.416 138.808L191.16 141.132ZM187.695 137.198C187.821 136.954 188.161 136.93 188.32 137.153L191.576 134.829C189.68 132.174 185.648 132.459 184.145 135.355L187.695 137.198ZM181.523 146.51C182.573 146.142 183.443 145.387 183.956 144.4L180.406 142.557C180.363 142.64 180.289 142.704 180.201 142.735L181.523 146.51ZM177.589 148.102C177.607 147.964 177.701 147.848 177.832 147.803L176.51 144.027C174.953 144.572 173.837 145.947 173.623 147.582L177.589 148.102ZM166.755 178.517C169.381 180.816 173.51 179.258 173.963 175.798L169.997 175.278C169.959 175.57 169.611 175.701 169.39 175.507L166.755 178.517ZM163.422 175.09C163.679 175.65 164.052 176.149 164.515 176.555L167.15 173.546C167.111 173.512 167.08 173.47 167.058 173.423L163.422 175.09ZM131.023 178.271C130.577 178.115 130.11 178.032 129.638 178.026L129.584 182.025C129.624 182.026 129.663 182.033 129.7 182.046L131.023 178.271ZM111.95 177.108C112.051 177.061 112.167 177.063 112.267 177.112L114.036 173.525C112.853 172.941 111.469 172.924 110.272 173.477L111.95 177.108ZM97.8103 180.569C99.0573 181.661 100.815 181.953 102.348 181.323L100.827 177.623C100.698 177.676 100.55 177.652 100.445 177.56L97.8103 180.569ZM92.5555 175.847C92.7082 176.061 92.8852 176.257 93.083 176.43L95.7181 173.421C95.753 173.451 95.7842 173.486 95.8112 173.523L92.5555 175.847ZM89.1655 169.537C88.9783 169.963 88.3982 170.023 88.1278 169.644L91.3835 167.32C89.8511 165.174 86.564 165.513 85.5032 167.928L89.1655 169.537ZM79.6562 180.364C81.3932 181.82 84.0419 181.201 84.9535 179.126L81.2912 177.517C81.4521 177.151 81.9195 177.042 82.226 177.299L79.6562 180.364ZM76.8395 177.192C76.6306 177.46 76.2412 177.501 75.9808 177.283L78.5507 174.217C77.0754 172.981 74.8684 173.214 73.6848 174.733L76.8395 177.192ZM68.214 182.969C69.6969 184.024 71.7476 183.724 72.8665 182.289L69.7117 179.829C69.9092 179.576 70.2711 179.523 70.5328 179.709L68.214 182.969ZM55.9383 201.202C57.382 200.859 58.5529 199.807 59.0473 198.408L55.2759 197.075C55.2343 197.193 55.1358 197.281 55.0143 197.31L55.9383 201.202ZM44.8723 184.437C44.7696 184.365 44.692 184.263 44.6504 184.145L48.4243 182.819C48.1887 182.148 47.7491 181.569 47.1672 181.161L44.8723 184.437ZM41.332 181.194C41.148 181.482 40.7619 181.558 40.4825 181.362L42.7774 178.086C41.1944 176.977 39.0066 177.409 37.964 179.037L41.332 181.194ZM33.2947 192.68C33.9651 192.327 34.5323 191.807 34.9409 191.169L31.5729 189.011C31.5385 189.065 31.4908 189.109 31.4343 189.138L33.2947 192.68ZM304.361 110.925C305.711 111.944 307.527 112.093 309.025 111.306L307.164 107.765C307.038 107.831 306.885 107.819 306.772 107.733L304.361 110.925ZM24.4258 194.18C25.7846 195.369 27.7356 195.6 29.3344 194.76L27.474 191.219C27.3395 191.29 27.1753 191.27 27.0609 191.17L24.4258 194.18ZM158.584 165.576C158.772 165.444 159.033 165.515 159.129 165.724L162.765 164.057C161.628 161.577 158.523 160.735 156.289 162.299L158.584 165.576ZM301.295 109.148C301.4 108.946 301.662 108.886 301.843 109.024L304.254 105.832C302.096 104.202 298.991 104.905 297.745 107.305L301.295 109.148ZM21.313 192.04C21.4283 191.838 21.6995 191.792 21.8744 191.946L24.5095 188.936C22.4319 187.117 19.2088 187.658 17.8395 190.056L21.313 192.04ZM151.602 167.577C153.049 168.338 154.8 168.226 156.139 167.288L153.844 164.012C153.731 164.091 153.584 164.1 153.462 164.036L151.602 167.577ZM290.982 114.08C292.612 117.22 297.105 117.22 298.735 114.08L295.185 112.237C295.048 112.501 294.669 112.501 294.532 112.237L290.982 114.08ZM13.0753 200.641C14.8895 200.959 16.7081 200.104 17.6214 198.505L14.1479 196.521C14.071 196.656 13.918 196.728 13.7653 196.701L13.0753 200.641ZM148.284 166.193C148.391 166.044 148.592 165.996 148.755 166.081L150.615 162.54C148.682 161.525 146.297 162.093 145.029 163.869L148.284 166.193ZM289.085 111.787C289.118 111.682 289.164 111.633 289.202 111.604C289.249 111.569 289.319 111.539 289.404 111.531C289.489 111.524 289.563 111.542 289.615 111.569C289.657 111.591 289.711 111.631 289.761 111.728L293.312 109.885C291.519 106.433 286.448 106.869 285.272 110.577L289.085 111.787ZM7.52755 199.251C8.05156 199.618 8.6498 199.866 9.27998 199.976L9.96996 196.036C9.91692 196.027 9.86657 196.006 9.82247 195.975L7.52755 199.251ZM2.668 196.034C2.77972 195.995 2.90345 196.012 3.0004 196.08L5.29532 192.804C4.14332 191.997 2.6732 191.794 1.34576 192.259L2.668 196.034ZM65.5147 180.109C65.3818 180.485 64.9261 180.629 64.6012 180.398L66.92 177.139C65.079 175.829 62.4962 176.646 61.7433 178.776L65.5147 180.109ZM133.428 183.352C135.417 184.048 137.62 183.225 138.665 181.395L135.191 179.412C135.103 179.566 134.918 179.635 134.75 179.576L133.428 183.352ZM273.259 136.231C275.414 138.268 278.93 137.612 280.204 134.934L276.592 133.215C276.485 133.441 276.189 133.496 276.007 133.324L273.259 136.231ZM-1.17766 193.143C-3.48922 193.953 -4.68326 196.505 -3.82366 198.798L-0.0781047 197.394C-0.150449 197.201 -0.0499571 196.986 0.144583 196.918L-1.17766 193.143Z" fill="#3985ED" mask="url(#path-2-outside-1_439_2)"/>
<rect x="17" y="16" width="114" height="32" rx="6.44002" fill="#E3E3E3"/>
<path d="M26.1876 38.1538L22.8636 25.6269H24.5641L26.4696 33.8386C26.6747 34.6988 26.8513 35.5533 26.9994 36.4021C27.3184 35.0634 27.5064 34.2915 27.5634 34.0864L29.9474 25.6269H31.9469L33.7414 31.9673C34.1914 33.5395 34.5161 35.0178 34.7155 36.4021C34.875 35.6103 35.0829 34.7017 35.3393 33.6763L37.3046 25.6269H38.9709L35.5358 38.1538H33.9379L31.2975 28.6091C31.0753 27.8116 30.9443 27.3217 30.9044 27.1394C30.7734 27.7147 30.6509 28.2046 30.537 28.6091L27.8795 38.1538H26.1876ZM39.4323 33.6164C39.4323 31.9359 39.8994 30.6912 40.8337 29.8823C41.6141 29.2101 42.5654 28.874 43.6877 28.874C44.9352 28.874 45.9549 29.2842 46.7468 30.1045C47.5386 30.9191 47.9345 32.047 47.9345 33.4883C47.9345 34.6561 47.7579 35.5761 47.4047 36.2483C47.0572 36.9148 46.5474 37.4332 45.8752 37.8035C45.2087 38.1737 44.4795 38.3589 43.6877 38.3589C42.4173 38.3589 41.3891 37.9516 40.603 37.137C39.8225 36.3223 39.4323 35.1488 39.4323 33.6164ZM41.0131 33.6164C41.0131 34.7786 41.2666 35.6501 41.7736 36.2312C42.2806 36.8066 42.9186 37.0942 43.6877 37.0942C44.451 37.0942 45.0862 36.8037 45.5932 36.2227C46.1002 35.6416 46.3537 34.7558 46.3537 33.5652C46.3537 32.4429 46.0974 31.5941 45.5847 31.0188C45.0777 30.4377 44.4453 30.1472 43.6877 30.1472C42.9186 30.1472 42.2806 30.4349 41.7736 31.0102C41.2666 31.5856 41.0131 32.4543 41.0131 33.6164ZM49.1735 33.6164C49.1735 31.9359 49.6407 30.6912 50.5749 29.8823C51.3553 29.2101 52.3067 28.874 53.4289 28.874C54.6765 28.874 55.6962 29.2842 56.488 30.1045C57.2798 30.9191 57.6758 32.047 57.6758 33.4883C57.6758 34.6561 57.4992 35.5761 57.146 36.2483C56.7985 36.9148 56.2886 37.4332 55.6164 37.8035C54.9499 38.1737 54.2207 38.3589 53.4289 38.3589C52.1586 38.3589 51.1303 37.9516 50.3442 37.137C49.5638 36.3223 49.1735 35.1488 49.1735 33.6164ZM50.7543 33.6164C50.7543 34.7786 51.0078 35.6501 51.5148 36.2312C52.0218 36.8066 52.6599 37.0942 53.4289 37.0942C54.1923 37.0942 54.8274 36.8037 55.3344 36.2227C55.8414 35.6416 56.0949 34.7558 56.0949 33.5652C56.0949 32.4429 55.8386 31.5941 55.3259 31.0188C54.8189 30.4377 54.1866 30.1472 53.4289 30.1472C52.6599 30.1472 52.0218 30.4349 51.5148 31.0102C51.0078 31.5856 50.7543 32.4543 50.7543 33.6164ZM59.4531 38.1538V25.6269H60.9912V38.1538H59.4531ZM67.605 34.5991L69.1003 34.394C69.1402 35.3511 69.3197 36.0062 69.6387 36.3594C69.9577 36.7126 70.3992 36.8892 70.9631 36.8892C71.379 36.8892 71.7379 36.7952 72.0398 36.6072C72.3417 36.4135 72.5497 36.1543 72.6636 35.8296C72.7775 35.4992 72.8345 34.9751 72.8345 34.2573V25.6269H74.4922V34.1633C74.4922 35.2115 74.364 36.0233 74.1077 36.5986C73.857 37.174 73.4554 37.6126 72.9028 37.9146C72.356 38.2165 71.7122 38.3674 70.9717 38.3674C69.8722 38.3674 69.0291 38.0513 68.4424 37.4189C67.8613 36.7866 67.5822 35.8467 67.605 34.5991ZM82.9261 37.0344C82.3564 37.5186 81.8067 37.8604 81.2769 38.0598C80.7528 38.2592 80.1888 38.3589 79.585 38.3589C78.5881 38.3589 77.8219 38.1168 77.2864 37.6326C76.7509 37.1427 76.4832 36.5189 76.4832 35.7612C76.4832 35.3169 76.5829 34.9124 76.7822 34.5478C76.9873 34.1776 77.2522 33.8813 77.5769 33.6592C77.9073 33.437 78.2776 33.2689 78.6878 33.155C78.9897 33.0753 79.4454 32.9984 80.055 32.9243C81.2968 32.7762 82.2111 32.5996 82.7979 32.3945C82.8036 32.1837 82.8064 32.0499 82.8064 31.9929C82.8064 31.3663 82.6612 30.9248 82.3706 30.6684C81.9776 30.3209 81.3937 30.1472 80.6189 30.1472C79.8955 30.1472 79.36 30.2754 79.0125 30.5317C78.6707 30.7824 78.4172 31.2296 78.252 31.8733L76.7481 31.6682C76.8848 31.0245 77.1098 30.5061 77.4231 30.113C77.7364 29.7143 78.1893 29.4095 78.7818 29.1987C79.3742 28.9822 80.0607 28.874 80.8411 28.874C81.6158 28.874 82.2453 28.9651 82.7295 29.1474C83.2137 29.3297 83.5698 29.5604 83.7976 29.8396C84.0255 30.113 84.185 30.4605 84.2762 30.8821C84.3274 31.1441 84.3531 31.6169 84.3531 32.3005V34.3513C84.3531 35.7812 84.3844 36.6869 84.4471 37.0686C84.5154 37.4446 84.6464 37.8063 84.8401 38.1538H83.2337C83.0742 37.8348 82.9716 37.4617 82.9261 37.0344ZM82.7979 33.5994C82.2396 33.8272 81.4022 34.0209 80.2857 34.1804C79.6533 34.2716 79.2062 34.3741 78.9441 34.488C78.6821 34.602 78.4798 34.77 78.3374 34.9922C78.195 35.2087 78.1238 35.4508 78.1238 35.7185C78.1238 36.1287 78.2776 36.4705 78.5852 36.7439C78.8985 37.0173 79.3543 37.1541 79.9524 37.1541C80.5449 37.1541 81.0718 37.0259 81.5332 36.7695C81.9947 36.5075 82.3336 36.1514 82.5501 35.7014C82.7153 35.3539 82.7979 34.8412 82.7979 34.1633V33.5994ZM92.6673 34.8298L94.1798 35.0264C94.0145 36.0688 93.5902 36.8863 92.9066 37.4788C92.2287 38.0655 91.3941 38.3589 90.4029 38.3589C89.161 38.3589 88.1613 37.9544 87.4036 37.1455C86.6517 36.3309 86.2757 35.1659 86.2757 33.6506C86.2757 32.6708 86.438 31.8135 86.7627 31.0786C87.0874 30.3437 87.5802 29.794 88.241 29.4294C88.9075 29.0591 89.631 28.874 90.4114 28.874C91.3969 28.874 92.203 29.1247 92.8297 29.626C93.4563 30.1216 93.8579 30.8279 94.0345 31.7451L92.5391 31.9758C92.3967 31.3663 92.1432 30.9077 91.7786 30.6001C91.4197 30.2925 90.9839 30.1387 90.4712 30.1387C89.6965 30.1387 89.067 30.4178 88.5828 30.9761C88.0986 31.5286 87.8565 32.4059 87.8565 33.6079C87.8565 34.827 88.0901 35.7128 88.5572 36.2654C89.0243 36.8179 89.6338 37.0942 90.3858 37.0942C90.9896 37.0942 91.4938 36.9091 91.8983 36.5388C92.3027 36.1685 92.5591 35.5989 92.6673 34.8298ZM95.5042 38.1538V25.6269H97.0423V32.7705L100.682 29.0791H102.673L99.2042 32.4458L103.024 38.1538H101.127L98.1275 33.5139L97.0423 34.5564V38.1538H95.5042ZM110.458 35.2314L112.047 35.428C111.797 36.3565 111.332 37.0771 110.654 37.5898C109.977 38.1025 109.111 38.3589 108.057 38.3589C106.729 38.3589 105.676 37.9516 104.895 37.137C104.12 36.3166 103.733 35.1688 103.733 33.6933C103.733 32.1667 104.126 30.9818 104.912 30.1387C105.698 29.2955 106.718 28.874 107.971 28.874C109.185 28.874 110.176 29.287 110.945 30.113C111.714 30.939 112.099 32.1011 112.099 33.5994C112.099 33.6905 112.096 33.8272 112.09 34.0095H105.322C105.379 35.0064 105.661 35.7698 106.168 36.2996C106.675 36.8293 107.308 37.0942 108.065 37.0942C108.629 37.0942 109.111 36.9461 109.509 36.6499C109.908 36.3537 110.224 35.8809 110.458 35.2314ZM105.408 32.7449H110.475C110.407 31.9815 110.213 31.409 109.894 31.0273C109.404 30.4349 108.769 30.1387 107.988 30.1387C107.282 30.1387 106.687 30.3751 106.202 30.8479C105.724 31.3207 105.459 31.953 105.408 32.7449ZM117.345 36.7781L117.567 38.1367C117.134 38.2279 116.747 38.2734 116.405 38.2734C115.847 38.2734 115.414 38.1851 115.106 38.0085C114.799 37.8319 114.582 37.6012 114.457 37.3164C114.332 37.0259 114.269 36.4192 114.269 35.4963V30.2754H113.141V29.0791H114.269V26.8318L115.798 25.9089V29.0791H117.345V30.2754H115.798V35.5818C115.798 36.0204 115.824 36.3024 115.875 36.4277C115.932 36.5531 116.021 36.6527 116.14 36.7268C116.266 36.8009 116.442 36.8379 116.67 36.8379C116.841 36.8379 117.066 36.8179 117.345 36.7781ZM118.242 35.4451L119.763 35.2058C119.849 35.8153 120.085 36.2825 120.473 36.6072C120.866 36.9319 121.412 37.0942 122.113 37.0942C122.82 37.0942 123.344 36.9518 123.685 36.667C124.027 36.3765 124.198 36.0375 124.198 35.6501C124.198 35.3026 124.047 35.0292 123.745 34.8298C123.534 34.6931 123.01 34.5194 122.173 34.3086C121.045 34.0238 120.262 33.7788 119.823 33.5737C119.39 33.3629 119.06 33.0753 118.832 32.7107C118.61 32.3404 118.499 31.9331 118.499 31.4888C118.499 31.0843 118.59 30.7112 118.772 30.3694C118.96 30.0219 119.214 29.7342 119.533 29.5063C119.772 29.3297 120.097 29.1816 120.507 29.062C120.923 28.9367 121.367 28.874 121.84 28.874C122.552 28.874 123.176 28.9765 123.711 29.1816C124.252 29.3867 124.651 29.6658 124.907 30.019C125.164 30.3665 125.34 30.8336 125.437 31.4204L123.933 31.6255C123.865 31.1583 123.666 30.7938 123.335 30.5317C123.01 30.2697 122.549 30.1387 121.951 30.1387C121.244 30.1387 120.74 30.2554 120.438 30.489C120.136 30.7226 119.985 30.996 119.985 31.3093C119.985 31.5087 120.048 31.6881 120.173 31.8476C120.299 32.0128 120.495 32.1496 120.763 32.2578C120.917 32.3148 121.37 32.4458 122.122 32.6509C123.21 32.9414 123.967 33.1807 124.395 33.3686C124.828 33.5509 125.167 33.8187 125.412 34.1719C125.656 34.5251 125.779 34.9637 125.779 35.4878C125.779 36.0005 125.628 36.4847 125.326 36.9404C125.03 37.3905 124.6 37.7408 124.036 37.9915C123.472 38.2364 122.834 38.3589 122.122 38.3589C120.943 38.3589 120.042 38.1139 119.422 37.624C118.806 37.1341 118.413 36.4078 118.242 35.4451Z" fill="#5B5B5B"/>
<g filter="url(#filter0_d_439_2)">
<path d="M154 83.9942C154 80.6837 156.684 78 159.994 78H243.006C246.316 78 249 80.6837 249 83.9942V116.333C249 119.644 246.316 122.327 243.006 122.327H196.046C194.268 122.327 192.581 123.117 191.442 124.484L186.011 131L180.58 124.484C179.441 123.117 177.754 122.327 175.975 122.327H159.994C156.684 122.327 154 119.644 154 116.333V83.9942Z" fill="#3985ED" fill-opacity="0.1" shape-rendering="crispEdges"/>
</g>
<path d="M169.506 96.6484V98H161.935C161.925 97.6615 161.98 97.3359 162.099 97.0234C162.292 96.5078 162.599 96 163.021 95.5C163.448 95 164.063 94.4219 164.865 93.7656C166.11 92.7448 166.951 91.9375 167.388 91.3438C167.826 90.7448 168.045 90.1797 168.045 89.6484C168.045 89.0911 167.844 88.6224 167.443 88.2422C167.047 87.8568 166.529 87.6641 165.888 87.6641C165.211 87.6641 164.67 87.8672 164.263 88.2734C163.857 88.6797 163.651 89.2422 163.646 89.9609L162.201 89.8125C162.3 88.7344 162.672 87.9141 163.318 87.3516C163.964 86.7839 164.831 86.5 165.92 86.5C167.019 86.5 167.888 86.8047 168.529 87.4141C169.17 88.0234 169.49 88.7786 169.49 89.6797C169.49 90.138 169.396 90.5885 169.209 91.0312C169.021 91.474 168.709 91.9401 168.271 92.4297C167.839 92.9193 167.118 93.5911 166.107 94.4453C165.263 95.1536 164.722 95.6354 164.482 95.8906C164.243 96.1406 164.045 96.3932 163.888 96.6484H169.506ZM171.021 92.3516C171.021 90.9974 171.159 89.9089 171.435 89.0859C171.717 88.2578 172.131 87.6198 172.677 87.1719C173.23 86.724 173.922 86.5 174.756 86.5C175.37 86.5 175.909 86.625 176.373 86.875C176.836 87.1198 177.219 87.4766 177.521 87.9453C177.823 88.4089 178.06 88.9766 178.232 89.6484C178.404 90.3151 178.49 91.2161 178.49 92.3516C178.49 93.6953 178.352 94.7812 178.076 95.6094C177.8 96.4323 177.386 97.0703 176.834 97.5234C176.287 97.9714 175.594 98.1953 174.756 98.1953C173.651 98.1953 172.784 97.7995 172.154 97.0078C171.399 96.0547 171.021 94.5026 171.021 92.3516ZM172.467 92.3516C172.467 94.2318 172.685 95.4844 173.123 96.1094C173.566 96.7292 174.11 97.0391 174.756 97.0391C175.401 97.0391 175.943 96.7266 176.381 96.1016C176.823 95.4766 177.045 94.2266 177.045 92.3516C177.045 90.4661 176.823 89.2135 176.381 88.5938C175.943 87.974 175.396 87.6641 174.74 87.6641C174.094 87.6641 173.579 87.9375 173.193 88.4844C172.709 89.1823 172.467 90.4714 172.467 92.3516ZM185.224 98H183.818V89.0391C183.48 89.362 183.034 89.6849 182.482 90.0078C181.935 90.3307 181.443 90.5729 181.006 90.7344V89.375C181.792 89.0052 182.48 88.5573 183.068 88.0312C183.657 87.5052 184.073 86.9948 184.318 86.5H185.224V98ZM189.045 95.3516L190.396 95.2266C190.511 95.862 190.73 96.3229 191.052 96.6094C191.375 96.8958 191.789 97.0391 192.295 97.0391C192.727 97.0391 193.105 96.9401 193.427 96.7422C193.756 96.5443 194.024 96.2812 194.232 95.9531C194.441 95.6198 194.615 95.1719 194.756 94.6094C194.896 94.0469 194.967 93.474 194.967 92.8906C194.967 92.8281 194.964 92.7344 194.959 92.6094C194.677 93.0573 194.292 93.4219 193.802 93.7031C193.318 93.9792 192.792 94.1172 192.224 94.1172C191.276 94.1172 190.474 93.7734 189.818 93.0859C189.162 92.3984 188.834 91.4922 188.834 90.3672C188.834 89.2057 189.175 88.2708 189.857 87.5625C190.545 86.8542 191.404 86.5 192.435 86.5C193.18 86.5 193.86 86.7005 194.474 87.1016C195.094 87.5026 195.563 88.0755 195.881 88.8203C196.204 89.5599 196.365 90.6328 196.365 92.0391C196.365 93.5026 196.206 94.6693 195.888 95.5391C195.571 96.4036 195.097 97.0625 194.467 97.5156C193.842 97.9688 193.107 98.1953 192.263 98.1953C191.368 98.1953 190.636 97.9479 190.068 97.4531C189.5 96.9531 189.159 96.2526 189.045 95.3516ZM194.802 90.2969C194.802 89.4896 194.586 88.849 194.154 88.375C193.727 87.901 193.211 87.6641 192.607 87.6641C191.982 87.6641 191.438 87.9193 190.974 88.4297C190.511 88.9401 190.279 89.6016 190.279 90.4141C190.279 91.1432 190.498 91.737 190.935 92.1953C191.378 92.6484 191.922 92.875 192.568 92.875C193.219 92.875 193.753 92.6484 194.17 92.1953C194.592 91.737 194.802 91.1042 194.802 90.2969Z" fill="#5B5B5B"/>
<path d="M163.692 116L160.058 106.619H161.401L163.839 113.434C164.036 113.98 164.2 114.492 164.332 114.97C164.477 114.458 164.646 113.946 164.838 113.434L167.372 106.619H168.639L164.966 116H163.692ZM168.447 112.602C168.447 111.344 168.797 110.411 169.496 109.806C170.081 109.302 170.793 109.051 171.633 109.051C172.568 109.051 173.331 109.358 173.924 109.972C174.517 110.582 174.814 111.427 174.814 112.506C174.814 113.381 174.682 114.07 174.417 114.573C174.157 115.072 173.775 115.46 173.272 115.738C172.773 116.015 172.226 116.154 171.633 116.154C170.682 116.154 169.912 115.849 169.323 115.239C168.739 114.628 168.447 113.75 168.447 112.602ZM169.631 112.602C169.631 113.472 169.82 114.125 170.2 114.56C170.58 114.991 171.058 115.207 171.633 115.207C172.205 115.207 172.681 114.989 173.06 114.554C173.44 114.119 173.63 113.455 173.63 112.564C173.63 111.723 173.438 111.088 173.054 110.657C172.674 110.222 172.201 110.004 171.633 110.004C171.058 110.004 170.58 110.22 170.2 110.65C169.82 111.081 169.631 111.732 169.631 112.602ZM176.145 116V106.619H177.297V116H176.145ZM183.542 116V115.002C183.013 115.77 182.294 116.154 181.386 116.154C180.985 116.154 180.609 116.077 180.259 115.923C179.914 115.77 179.656 115.578 179.485 115.347C179.319 115.113 179.201 114.827 179.133 114.49C179.086 114.264 179.063 113.905 179.063 113.415V109.204H180.215V112.973C180.215 113.575 180.238 113.98 180.285 114.189C180.358 114.492 180.511 114.731 180.746 114.906C180.98 115.076 181.27 115.162 181.616 115.162C181.962 115.162 182.286 115.074 182.589 114.899C182.892 114.72 183.105 114.479 183.229 114.176C183.357 113.869 183.421 113.425 183.421 112.845V109.204H184.572V116H183.542ZM186.383 116V109.204H187.414V110.158C187.627 109.825 187.911 109.558 188.265 109.358C188.619 109.153 189.022 109.051 189.474 109.051C189.977 109.051 190.389 109.155 190.709 109.364C191.033 109.573 191.262 109.865 191.394 110.241C191.931 109.447 192.631 109.051 193.493 109.051C194.167 109.051 194.685 109.238 195.048 109.614C195.41 109.985 195.592 110.559 195.592 111.335V116H194.446V111.719C194.446 111.258 194.408 110.928 194.331 110.727C194.258 110.522 194.124 110.358 193.928 110.234C193.732 110.111 193.501 110.049 193.237 110.049C192.759 110.049 192.362 110.209 192.046 110.529C191.731 110.844 191.573 111.352 191.573 112.052V116H190.421V111.585C190.421 111.073 190.327 110.689 190.14 110.433C189.952 110.177 189.645 110.049 189.218 110.049C188.894 110.049 188.593 110.134 188.316 110.305C188.043 110.475 187.844 110.725 187.721 111.054C187.597 111.382 187.535 111.856 187.535 112.474V116H186.383ZM201.952 113.812L203.142 113.959C202.955 114.654 202.607 115.194 202.099 115.578C201.592 115.962 200.943 116.154 200.154 116.154C199.16 116.154 198.371 115.849 197.786 115.239C197.206 114.624 196.916 113.765 196.916 112.66C196.916 111.516 197.21 110.629 197.799 109.998C198.388 109.366 199.152 109.051 200.09 109.051C200.999 109.051 201.741 109.36 202.317 109.978C202.893 110.597 203.181 111.467 203.181 112.589C203.181 112.658 203.179 112.76 203.174 112.896H198.106C198.149 113.643 198.36 114.215 198.74 114.611C199.12 115.008 199.593 115.207 200.16 115.207C200.583 115.207 200.943 115.096 201.242 114.874C201.541 114.652 201.777 114.298 201.952 113.812ZM198.17 111.949H201.965C201.914 111.378 201.769 110.949 201.53 110.663C201.163 110.22 200.687 109.998 200.103 109.998C199.574 109.998 199.128 110.175 198.765 110.529C198.407 110.883 198.209 111.356 198.17 111.949ZM204.915 110.516V109.204H206.227V110.516H204.915ZM204.915 116V114.688H206.227V116H204.915ZM214.309 114.483V111.911H211.756V110.836H214.309V108.283H215.397V110.836H217.95V111.911H215.397V114.483H214.309ZM225.277 114.893V116H219.076C219.068 115.723 219.112 115.456 219.21 115.2C219.368 114.778 219.62 114.362 219.966 113.952C220.315 113.543 220.819 113.069 221.476 112.532C222.495 111.696 223.184 111.034 223.543 110.548C223.901 110.057 224.08 109.595 224.08 109.159C224.08 108.703 223.916 108.319 223.587 108.008C223.263 107.692 222.839 107.534 222.314 107.534C221.759 107.534 221.316 107.7 220.983 108.033C220.65 108.366 220.482 108.827 220.477 109.415L219.294 109.294C219.375 108.411 219.68 107.739 220.209 107.278C220.738 106.813 221.448 106.581 222.34 106.581C223.24 106.581 223.952 106.83 224.477 107.329C225.002 107.828 225.264 108.447 225.264 109.185C225.264 109.56 225.187 109.929 225.034 110.292C224.88 110.655 224.624 111.036 224.266 111.437C223.912 111.838 223.321 112.389 222.493 113.088C221.802 113.669 221.358 114.063 221.162 114.272C220.966 114.477 220.804 114.684 220.676 114.893H225.277ZM226.518 111.373C226.518 110.264 226.631 109.373 226.857 108.699C227.088 108.02 227.427 107.498 227.875 107.131C228.327 106.764 228.894 106.581 229.577 106.581C230.08 106.581 230.522 106.683 230.902 106.888C231.281 107.088 231.595 107.38 231.842 107.764C232.09 108.144 232.284 108.609 232.424 109.159C232.565 109.705 232.636 110.443 232.636 111.373C232.636 112.474 232.523 113.364 232.297 114.042C232.07 114.716 231.731 115.239 231.279 115.61C230.831 115.977 230.264 116.16 229.577 116.16C228.673 116.16 227.962 115.836 227.446 115.187C226.827 114.407 226.518 113.135 226.518 111.373ZM227.702 111.373C227.702 112.914 227.881 113.94 228.24 114.451C228.602 114.959 229.048 115.213 229.577 115.213C230.106 115.213 230.55 114.957 230.908 114.445C231.271 113.933 231.452 112.909 231.452 111.373C231.452 109.829 231.271 108.803 230.908 108.296C230.55 107.788 230.102 107.534 229.564 107.534C229.035 107.534 228.613 107.758 228.297 108.206C227.9 108.778 227.702 109.833 227.702 111.373ZM234.229 116V106.619H235.47V111.271L240.129 106.619H241.812L237.876 110.42L241.985 116H240.347L237.006 111.252L235.47 112.749V116H234.229Z" fill="#5B5B5B"/>
<g filter="url(#filter1_d_439_2)">
<ellipse cx="239.136" cy="34.7531" rx="19.1358" ry="18.5185" fill="white"/>
<path d="M258.056 34.7531C258.056 44.8551 249.592 53.0563 239.136 53.0563C228.68 53.0563 220.215 44.8551 220.215 34.7531C220.215 24.6512 228.68 16.45 239.136 16.45C249.592 16.45 258.056 24.6512 258.056 34.7531Z" stroke="#B8B8B8" stroke-width="0.430781"/>
</g>
<path fill-rule="evenodd" clip-rule="evenodd" d="M239.466 35.9468C239.096 36.67 238.461 37.1356 237.775 37.2927C237.671 37.2927 237.512 37.3436 237.353 37.3436C236.193 37.3436 235.506 36.4647 235.506 35.1726C235.506 33.5167 236.509 32.7425 237.775 32.3788C238.461 32.2245 239.255 32.1722 240.047 32.1722V32.7935C240.047 33.9823 240.099 34.9122 239.466 35.9468ZM240.047 29.7958C239.36 29.8468 238.567 29.8978 237.775 29.9997C236.561 30.1568 235.347 30.3634 234.346 30.829C232.392 31.6046 231.072 33.2591 231.072 35.6878C231.072 38.7405 233.077 40.2903 235.613 40.2903C236.457 40.2903 237.143 40.1856 237.775 40.0327C238.781 39.7213 239.623 39.1524 240.626 38.1178C241.207 38.8934 241.367 39.2571 242.369 40.0836C242.633 40.1856 242.898 40.1856 243.107 40.0327C243.741 39.5147 244.851 38.5835 245.431 38.0669C245.695 37.8602 245.643 37.5489 245.483 37.2927C244.903 36.5681 244.321 35.9468 244.321 34.5513V29.8978C244.321 27.9334 244.481 26.1232 243.003 24.7801C241.789 23.6959 239.888 23.2812 238.409 23.2812H237.775C235.084 23.4342 232.235 24.572 231.599 27.83C231.493 28.2447 231.811 28.399 232.022 28.4499L234.979 28.8123C235.295 28.7599 235.454 28.5009 235.506 28.2447C235.769 27.1068 236.72 26.5379 237.775 26.4332H237.987C238.622 26.4332 239.308 26.6921 239.677 27.2101C240.099 27.83 240.047 28.658 240.047 29.3826V29.7958Z" fill="#343B45"/>
<path fill-rule="evenodd" clip-rule="evenodd" d="M250.725 40.8193V40.818C250.714 40.5741 250.662 40.3882 250.557 40.2339L250.546 40.2187L250.534 40.2036C250.428 40.0906 250.327 40.0479 250.217 40.0011C249.889 39.8771 249.413 39.8109 248.839 39.8096C248.427 39.8096 247.972 39.8481 247.515 39.946L247.514 39.9156L247.054 40.0658L247.045 40.0699L246.785 40.1526V40.1636C246.48 40.2876 246.203 40.4419 245.945 40.6251C245.785 40.7422 245.653 40.8979 245.646 41.1362C245.642 41.2657 245.709 41.4145 245.82 41.5026C245.931 41.5908 246.061 41.6211 246.175 41.6211C246.201 41.6211 246.227 41.6197 246.249 41.6156L246.272 41.6142L246.289 41.6115C246.514 41.5646 246.841 41.5329 247.225 41.4806C247.555 41.4448 247.903 41.4186 248.206 41.4186C248.42 41.4172 248.612 41.4324 248.744 41.4599C248.811 41.4737 248.86 41.4902 248.886 41.504C248.896 41.5068 248.903 41.5109 248.908 41.5136C248.913 41.5316 248.922 41.5784 248.92 41.6431C248.923 41.8911 248.816 42.3512 248.668 42.8003C248.525 43.2494 248.351 43.6999 248.235 43.9988C248.207 44.0677 248.189 44.1435 248.189 44.2261C248.186 44.346 248.237 44.492 248.344 44.5884C248.448 44.6848 248.583 44.7234 248.695 44.7234H248.701C248.87 44.722 249.013 44.6559 249.137 44.5609C250.304 43.5332 250.711 41.8911 250.728 40.9667L250.725 40.8193ZM247.263 42.2438C247.144 42.2424 247.021 42.2699 246.908 42.3223C246.78 42.3719 246.649 42.4297 246.525 42.4807L246.344 42.5551L246.107 42.6474V42.6501C243.54 43.6696 240.844 44.2674 238.349 44.3198C238.257 44.3225 238.165 44.3225 238.076 44.3225C234.152 44.3253 230.951 42.5427 227.721 40.7863C227.609 40.7284 227.492 40.6981 227.379 40.6981C227.235 40.6981 227.085 40.7518 226.977 40.851C226.869 40.9516 226.804 41.0962 226.806 41.2436C226.804 41.4351 226.91 41.6115 227.057 41.7258C230.088 44.3033 233.411 46.6975 237.879 46.7002C237.966 46.7002 238.055 46.6975 238.144 46.6961C240.986 46.6341 244.2 45.6932 246.695 44.1586L246.711 44.149C247.037 43.9575 247.363 43.7398 247.671 43.4987C247.863 43.3596 247.995 43.1419 247.995 42.916C247.986 42.5151 247.639 42.2438 247.263 42.2438Z" fill="#FF9A00"/>
<g filter="url(#filter2_d_439_2)">
<ellipse cx="270.617" cy="34.1358" rx="18.5185" ry="19.1358" fill="white"/>
<path d="M270.617 53.487C280.97 53.487 289.351 44.8165 289.351 34.1358C289.351 23.4551 280.97 14.7846 270.617 14.7846C260.264 14.7846 251.883 23.4551 251.883 34.1358C251.883 44.8165 260.264 53.487 270.617 53.487Z" stroke="#B8B8B8" stroke-width="0.430781"/>
</g>
<path d="M274.316 39.9471C273.056 40.0322 273.178 39.3805 273.926 38.4341C275.634 36.2335 278.794 33.2437 278.936 31.0595C279.133 28.2236 276.182 27.3459 273.144 27.3459C271.03 27.3983 268.842 27.9649 267.351 28.479C262.216 30.231 258.998 32.9817 256.955 36.0763C254.841 39.1349 255.499 42.0756 260.065 42.1608C263.513 42.0232 265.84 41.0965 268.185 39.9274C268.202 39.9274 261.664 41.7318 259.245 40.4088C258.977 40.2713 258.713 40.0813 258.642 39.5508C258.642 38.4669 260.492 37.3338 261.576 36.9736V35.1168C263.761 35.8569 266.338 35.6506 268.544 34.0689C268.615 34.2589 268.686 34.4979 268.669 34.7566H269.042C269.13 34.0165 268.615 33.2961 267.761 33.2437C268.008 33.4336 268.188 33.5876 268.276 33.7251L268.242 33.7578L268.225 33.7742C265.383 35.6997 262.626 34.8058 262.362 34.7534L263.943 33.2568L263.5 32.1729C266.647 31.1086 269.242 30.3325 273.557 29.5957L272.592 28.8425L273.09 28.551C275.647 29.2387 277.371 29.7529 277.283 31.0595C277.25 31.2822 277.158 31.5409 277.016 31.8159C276.254 33.2765 274.014 35.631 273.107 36.6461C272.521 37.3175 271.935 37.9364 271.525 38.5553C271.064 39.1906 270.83 39.7768 270.813 40.3073C270.901 44.6233 284.072 38.2802 286.667 36.6101C282.883 38.1754 278.777 39.672 274.316 39.9471ZM277.195 30.0279C277.29 30.1982 277.334 30.4078 277.334 30.6534C277.331 30.4307 277.287 30.2179 277.195 30.0279Z" fill="#F35325"/>
<g filter="url(#filter3_d_439_2)">
<ellipse cx="301.481" cy="35.3704" rx="18.5185" ry="19.1358" fill="white"/>
<path d="M301.481 54.7216C311.834 54.7216 320.215 46.0511 320.215 35.3704C320.215 24.6898 311.834 16.0192 301.481 16.0192C291.128 16.0192 282.748 24.6898 282.748 35.3704C282.748 46.0511 291.128 54.7216 301.481 54.7216Z" stroke="#B8B8B8" stroke-width="0.430781"/>
</g>
<path d="M294.892 40.4574C295.053 39.1771 295.601 38.4603 296.633 37.7255C298.109 36.7303 299.953 37.2932 299.953 37.2932V33.9536C300.401 33.9425 300.85 33.968 301.293 34.0297V38.3275C301.293 38.3275 299.45 37.7646 297.973 38.7603C296.942 39.4946 296.394 40.212 296.233 41.4923C296.228 42.1875 296.364 43.0963 296.99 43.882C296.835 43.8058 296.678 43.719 296.517 43.6217C295.137 42.7329 294.885 41.3997 294.892 40.4574ZM308.908 27.7785C307.892 26.7112 307.508 25.6337 307.369 24.8767H308.647C308.647 24.8767 308.392 26.8615 310.248 28.8133L310.274 28.8396C309.774 28.5377 309.315 28.1815 308.908 27.7785ZM315.062 30.8042V35.0156C315.062 35.0156 313.432 34.9545 312.225 34.6601C310.541 34.2484 309.458 33.617 309.458 33.617C309.458 33.617 308.71 33.1667 308.649 33.1354V41.8319C308.649 42.3161 308.511 43.5254 308.09 44.534C307.539 45.8535 306.69 46.7195 306.534 46.8965C306.534 46.8965 305.501 48.0672 303.679 48.8556C302.036 49.5667 300.594 49.5487 300.163 49.5667C300.163 49.5667 297.67 49.6614 295.427 48.2633C294.942 47.955 294.489 47.6061 294.074 47.2206L294.085 47.2284C296.329 48.6265 298.821 48.5318 298.821 48.5318C299.253 48.5138 300.695 48.5318 302.337 47.8207C304.158 47.0323 305.192 45.8617 305.192 45.8617C305.347 45.6847 306.2 44.8186 306.748 43.4987C307.169 42.4906 307.308 41.2807 307.308 40.7966V32.1011C307.369 32.1329 308.116 32.5831 308.116 32.5831C308.116 32.5831 309.199 33.2151 310.884 33.6263C312.091 33.9206 313.72 33.9819 313.72 33.9819V30.6818C314.278 30.8017 314.753 30.8341 315.062 30.8042Z" fill="#EE1D52"/>
<path d="M313.827 30.6325V33.9035C313.827 33.9035 312.187 33.8428 310.973 33.551C309.278 33.1428 308.187 32.5168 308.187 32.5168C308.187 32.5168 307.435 32.0704 307.375 32.0387V40.6625C307.375 41.1426 307.235 42.3421 306.811 43.3416C306.257 44.6504 305.403 45.5091 305.246 45.6846C305.246 45.6846 304.206 46.8453 302.373 47.6271C300.72 48.3322 299.269 48.3143 298.835 48.3322C298.835 48.3322 296.327 48.4261 294.069 47.0398L294.058 47.0321C293.819 46.8139 293.595 46.5837 293.385 46.3423C292.665 45.5121 292.223 44.5304 292.112 44.2503V44.2468C291.934 43.7601 291.558 42.5911 291.61 41.4589C291.7 39.4614 292.444 38.2354 292.641 37.9282C293.161 37.0906 293.839 36.3412 294.642 35.7134C295.351 35.1715 296.155 34.7404 297.021 34.4377C297.956 34.0824 298.958 33.8919 299.973 33.8766V37.1878C299.973 37.1878 298.117 36.6318 296.632 37.6165C295.594 38.345 295.043 39.0557 294.881 40.3252C294.874 41.2595 295.127 42.5814 296.514 43.4631C296.676 43.56 296.835 43.6461 296.991 43.7212C297.233 44.019 297.528 44.2785 297.864 44.4891C299.219 45.2999 300.355 45.3565 301.808 44.83C302.776 44.4779 303.505 43.6845 303.843 42.8054C304.055 42.2565 304.053 41.7038 304.053 41.1324V24.8767H307.433C307.572 25.6272 307.959 26.6957 308.981 27.7538C309.391 28.1534 309.852 28.5067 310.356 28.8059C310.505 28.9513 311.265 29.6702 312.241 30.1116C312.746 30.3397 313.278 30.5145 313.827 30.6325Z" fill="black"/>
<path d="M297.243 33.9372C296.364 34.2535 295.547 34.7039 294.826 35.2698C294.009 35.9272 293.32 36.7118 292.792 37.5884C292.592 37.9083 291.836 39.1901 291.744 41.2769C291.692 42.4596 292.073 43.6808 292.255 44.1893V44.193C292.369 44.483 292.817 45.5084 293.549 46.3784C293.762 46.6305 293.99 46.8712 294.232 47.099C293.456 46.5991 292.763 45.995 292.177 45.3059C291.451 44.4462 291.004 43.4313 290.887 43.1318C290.887 43.1296 290.887 43.1275 290.887 43.1254V43.1216C290.705 42.6137 290.322 41.392 290.375 40.2077C290.468 38.1209 291.223 36.8401 291.423 36.5192C291.952 35.6424 292.64 34.8578 293.457 34.2007C294.178 33.6344 294.995 33.184 295.875 32.8681C296.424 32.6561 296.995 32.4998 297.58 32.4017C298.461 32.2585 299.361 32.246 300.247 32.3649V33.351C299.215 33.3667 298.195 33.5657 297.243 33.9372Z" fill="#69C9D0"/>
<path d="M307.734 24.6525H304.512V40.6531C304.512 41.2155 304.512 41.7579 304.312 42.2998C303.987 43.1646 303.294 43.9455 302.372 44.292C300.987 44.8123 299.904 44.7546 298.612 43.9566C298.292 43.7501 298.01 43.4956 297.778 43.2033C298.878 43.7521 299.863 43.7426 301.083 43.2847C302.005 42.9381 302.699 42.1572 303.023 41.2919C303.226 40.7515 303.223 40.2077 303.223 39.6457V23.6421H307.673C307.673 23.6421 307.623 24.0398 307.734 24.6525ZM313.827 29.4274V30.3178C313.305 30.2015 312.799 30.0294 312.318 29.8051C311.388 29.3707 310.662 28.6631 310.521 28.5199C310.685 28.621 310.856 28.7129 311.032 28.7952C312.163 29.3235 313.278 29.4812 313.827 29.4274Z" fill="#69C9D0"/>
</g>
<defs>
<filter id="filter0_d_439_2" x="154" y="78" width="95" height="54.6288" filterUnits="userSpaceOnUse" color-interpolation-filters="sRGB">
<feFlood flood-opacity="0" result="BackgroundImageFix"/>
<feColorMatrix in="SourceAlpha" type="matrix" values="0 0 0 0 0 0 0 0 0 0 0 0 0 0 0 0 0 0 127 0" result="hardAlpha"/>
<feOffset dy="1.62885"/>
<feComposite in2="hardAlpha" operator="out"/>
<feColorMatrix type="matrix" values="0 0 0 0 0.223529 0 0 0 0 0.521569 0 0 0 0 0.929412 0 0 0 0.25 0"/>
<feBlend mode="normal" in2="BackgroundImageFix" result="effect1_dropShadow_439_2"/>
<feBlend mode="normal" in="SourceGraphic" in2="effect1_dropShadow_439_2" result="shape"/>
</filter>
<filter id="filter1_d_439_2" x="213.538" y="11.9268" width="46.8872" height="45.6527" filterUnits="userSpaceOnUse" color-interpolation-filters="sRGB">
<feFlood flood-opacity="0" result="BackgroundImageFix"/>
<feColorMatrix in="SourceAlpha" type="matrix" values="0 0 0 0 0 0 0 0 0 0 0 0 0 0 0 0 0 0 127 0" result="hardAlpha"/>
<feOffset dx="-2.1539"/>
<feGaussianBlur stdDeviation="2.1539"/>
<feComposite in2="hardAlpha" operator="out"/>
<feColorMatrix type="matrix" values="0 0 0 0 0 0 0 0 0 0 0 0 0 0 0 0 0 0 0.25 0"/>
<feBlend mode="normal" in2="BackgroundImageFix" result="effect1_dropShadow_439_2"/>
<feBlend mode="normal" in="SourceGraphic" in2="effect1_dropShadow_439_2" result="shape"/>
</filter>
<filter id="filter2_d_439_2" x="245.206" y="10.2615" width="46.5142" height="47.7487" filterUnits="userSpaceOnUse" color-interpolation-filters="sRGB">
<feFlood flood-opacity="0" result="BackgroundImageFix"/>
<feColorMatrix in="SourceAlpha" type="matrix" values="0 0 0 0 0 0 0 0 0 0 0 0 0 0 0 0 0 0 127 0" result="hardAlpha"/>
<feOffset dx="-2.1539"/>
<feGaussianBlur stdDeviation="2.1539"/>
<feComposite in2="hardAlpha" operator="out"/>
<feColorMatrix type="matrix" values="0 0 0 0 0 0 0 0 0 0 0 0 0 0 0 0 0 0 0.25 0"/>
<feBlend mode="normal" in2="BackgroundImageFix" result="effect1_dropShadow_439_2"/>
<feBlend mode="normal" in="SourceGraphic" in2="effect1_dropShadow_439_2" result="shape"/>
</filter>
<filter id="filter3_d_439_2" x="276.07" y="11.4961" width="46.5142" height="47.7487" filterUnits="userSpaceOnUse" color-interpolation-filters="sRGB">
<feFlood flood-opacity="0" result="BackgroundImageFix"/>
<feColorMatrix in="SourceAlpha" type="matrix" values="0 0 0 0 0 0 0 0 0 0 0 0 0 0 0 0 0 0 127 0" result="hardAlpha"/>
<feOffset dx="-2.1539"/>
<feGaussianBlur stdDeviation="2.1539"/>
<feComposite in2="hardAlpha" operator="out"/>
<feColorMatrix type="matrix" values="0 0 0 0 0 0 0 0 0 0 0 0 0 0 0 0 0 0 0.25 0"/>
<feBlend mode="normal" in2="BackgroundImageFix" result="effect1_dropShadow_439_2"/>
<feBlend mode="normal" in="SourceGraphic" in2="effect1_dropShadow_439_2" result="shape"/>
</filter>
<clipPath id="clip0_439_2">
<rect width="350" height="200" rx="11.2" fill="white"/>
</clipPath>
</defs>
</svg>
