<svg width="350" height="200" viewBox="0 0 350 200" fill="none" xmlns="http://www.w3.org/2000/svg">
<g clip-path="url(#clip0_445_2)">
<rect width="350" height="200" rx="11.2" fill="white"/>
<mask id="path-2-outside-1_445_2" maskUnits="userSpaceOnUse" x="-4.80005" y="82.6924" width="357" height="120" fill="black">
<rect fill="white" x="-4.80005" y="82.6924" width="357" height="120"/>
<path d="M-1.95088 198.096C-2.41685 196.853 -1.76959 195.47 -0.516539 195.031L2.00688 194.147C2.72647 193.895 3.52339 194.005 4.14786 194.442L8.67501 197.613C8.95906 197.812 9.28336 197.946 9.62497 198.006L13.4203 198.671C14.4038 198.843 15.3896 198.38 15.8847 197.513L19.5763 191.048C20.3185 189.748 22.0657 189.455 23.1919 190.441L25.7434 192.675C26.4799 193.32 27.5375 193.445 28.4042 192.99L32.3645 190.909C32.7279 190.718 33.0354 190.436 33.2569 190.09L39.648 180.115C40.0773 179.445 40.9781 179.267 41.63 179.724L46.0197 182.799C46.2593 182.967 46.4404 183.206 46.5373 183.482L52.3414 200L55.3397 199.288C56.1956 199.085 56.8683 198.424 57.0864 197.572L63.5059 172.494C63.8359 171.205 65.6088 171.06 66.1439 172.278L69.2344 179.314C69.7165 180.411 71.2652 180.435 71.7804 179.352L75.2671 172.025C75.753 171.004 77.1863 170.95 77.7471 171.932L80.9925 177.616C81.5629 178.614 83.0275 178.538 83.4901 177.484L87.3343 168.733C87.7711 167.738 89.1246 167.598 89.7556 168.482L94.1833 174.685C94.2462 174.774 94.3191 174.854 94.4005 174.925L99.1278 179.065C99.8038 179.656 100.757 179.815 101.588 179.473L105.92 177.692L111.111 175.293C111.76 174.993 112.51 175.002 113.152 175.318L122.5 179.93L129.611 180.025C129.867 180.029 130.12 180.074 130.361 180.158L134.089 181.464C135.167 181.842 136.361 181.396 136.928 180.404L141.903 171.69L146.657 165.031C147.344 164.068 148.637 163.76 149.685 164.311L152.532 165.807C153.317 166.219 154.266 166.158 154.992 165.65L157.436 163.938C158.647 163.089 160.331 163.546 160.947 164.89L165.24 174.256C165.38 174.56 165.582 174.831 165.833 175.051L168.073 177.012C169.496 178.258 171.734 177.414 171.98 175.538L175.606 147.842C175.722 146.956 176.327 146.21 177.171 145.915L180.862 144.622C181.431 144.423 181.903 144.014 182.181 143.478L185.92 136.276C186.735 134.706 188.921 134.552 189.948 135.991L192.788 139.97C193.318 140.712 194.226 141.084 195.124 140.927L197.969 140.429C198.952 140.256 199.938 140.72 200.433 141.587L202.882 145.875C203.905 147.667 206.571 147.384 207.195 145.417L210.082 136.316C210.672 134.456 213.132 134.068 214.266 135.656L217.325 139.942C217.42 140.075 217.5 140.217 217.566 140.366L222.259 151.051C222.86 152.419 224.562 152.895 225.785 152.038L228.831 149.905C229.186 149.656 229.466 149.314 229.64 148.918L233.652 139.785C234.39 138.103 236.679 137.867 237.746 139.361L240.717 143.522C241.078 144.028 241.623 144.372 242.235 144.479L245.674 145.081C246.618 145.246 247.568 144.827 248.081 144.017L250.588 140.067C251.644 138.402 254.154 138.683 254.817 140.54L257.509 148.084C258.172 149.941 260.682 150.221 261.738 148.556L264.79 143.746C264.989 143.432 265.111 143.077 265.148 142.708L266.19 132.051C266.382 130.091 268.742 129.208 270.173 130.561L274.633 134.778C275.802 135.882 277.707 135.526 278.398 134.075L282.952 124.504L287.178 111.182C287.816 109.172 290.565 108.935 291.537 110.807L292.757 113.158C293.641 114.861 296.076 114.861 296.96 113.158L299.52 108.226C300.196 106.925 301.879 106.544 303.048 107.428L305.566 109.329C306.298 109.882 307.283 109.962 308.094 109.536L312.201 107.378C312.541 107.2 312.918 107.107 313.302 107.107H317.248C318.124 107.107 318.928 106.623 319.339 105.85L323.505 98.0077C324.122 96.8462 325.567 96.4102 326.723 97.0367L334.188 101.081C335.141 101.598 336.323 101.401 337.058 100.603L341.389 95.8996L350 87.6924V198.958V200H344.047H338.094H332.14H326.187H320.234H314.281H308.328H302.375H296.421H290.468H284.515H278.562H272.609H266.656H260.702H254.749H248.796H242.843H236.89H230.937H224.983H219.03H213.077H207.124H201.171H195.217H189.264H183.311H177.358H171.405H165.452H159.498H153.545H147.592H141.639H135.686H129.733L123.779 200L117.826 200H111.873H105.92H99.9667H94.0136H88.0604H82.1072H76.1541H70.2009H64.2477H58.2945H52.3414H46.3882H40.435H34.4819H28.5287H22.5755H16.6223H10.6692H4.716H-1.23717L-1.95088 198.096Z"/>
</mask>
<path d="M-1.95088 198.096C-2.41685 196.853 -1.76959 195.47 -0.516539 195.031L2.00688 194.147C2.72647 193.895 3.52339 194.005 4.14786 194.442L8.67501 197.613C8.95906 197.812 9.28336 197.946 9.62497 198.006L13.4203 198.671C14.4038 198.843 15.3896 198.38 15.8847 197.513L19.5763 191.048C20.3185 189.748 22.0657 189.455 23.1919 190.441L25.7434 192.675C26.4799 193.32 27.5375 193.445 28.4042 192.99L32.3645 190.909C32.7279 190.718 33.0354 190.436 33.2569 190.09L39.648 180.115C40.0773 179.445 40.9781 179.267 41.63 179.724L46.0197 182.799C46.2593 182.967 46.4404 183.206 46.5373 183.482L52.3414 200L55.3397 199.288C56.1956 199.085 56.8683 198.424 57.0864 197.572L63.5059 172.494C63.8359 171.205 65.6088 171.06 66.1439 172.278L69.2344 179.314C69.7165 180.411 71.2652 180.435 71.7804 179.352L75.2671 172.025C75.753 171.004 77.1863 170.95 77.7471 171.932L80.9925 177.616C81.5629 178.614 83.0275 178.538 83.4901 177.484L87.3343 168.733C87.7711 167.738 89.1246 167.598 89.7556 168.482L94.1833 174.685C94.2462 174.774 94.3191 174.854 94.4005 174.925L99.1278 179.065C99.8038 179.656 100.757 179.815 101.588 179.473L105.92 177.692L111.111 175.293C111.76 174.993 112.51 175.002 113.152 175.318L122.5 179.93L129.611 180.025C129.867 180.029 130.12 180.074 130.361 180.158L134.089 181.464C135.167 181.842 136.361 181.396 136.928 180.404L141.903 171.69L146.657 165.031C147.344 164.068 148.637 163.76 149.685 164.311L152.532 165.807C153.317 166.219 154.266 166.158 154.992 165.65L157.436 163.938C158.647 163.089 160.331 163.546 160.947 164.89L165.24 174.256C165.38 174.56 165.582 174.831 165.833 175.051L168.073 177.012C169.496 178.258 171.734 177.414 171.98 175.538L175.606 147.842C175.722 146.956 176.327 146.21 177.171 145.915L180.862 144.622C181.431 144.423 181.903 144.014 182.181 143.478L185.92 136.276C186.735 134.706 188.921 134.552 189.948 135.991L192.788 139.97C193.318 140.712 194.226 141.084 195.124 140.927L197.969 140.429C198.952 140.256 199.938 140.72 200.433 141.587L202.882 145.875C203.905 147.667 206.571 147.384 207.195 145.417L210.082 136.316C210.672 134.456 213.132 134.068 214.266 135.656L217.325 139.942C217.42 140.075 217.5 140.217 217.566 140.366L222.259 151.051C222.86 152.419 224.562 152.895 225.785 152.038L228.831 149.905C229.186 149.656 229.466 149.314 229.64 148.918L233.652 139.785C234.39 138.103 236.679 137.867 237.746 139.361L240.717 143.522C241.078 144.028 241.623 144.372 242.235 144.479L245.674 145.081C246.618 145.246 247.568 144.827 248.081 144.017L250.588 140.067C251.644 138.402 254.154 138.683 254.817 140.54L257.509 148.084C258.172 149.941 260.682 150.221 261.738 148.556L264.79 143.746C264.989 143.432 265.111 143.077 265.148 142.708L266.19 132.051C266.382 130.091 268.742 129.208 270.173 130.561L274.633 134.778C275.802 135.882 277.707 135.526 278.398 134.075L282.952 124.504L287.178 111.182C287.816 109.172 290.565 108.935 291.537 110.807L292.757 113.158C293.641 114.861 296.076 114.861 296.96 113.158L299.52 108.226C300.196 106.925 301.879 106.544 303.048 107.428L305.566 109.329C306.298 109.882 307.283 109.962 308.094 109.536L312.201 107.378C312.541 107.2 312.918 107.107 313.302 107.107H317.248C318.124 107.107 318.928 106.623 319.339 105.85L323.505 98.0077C324.122 96.8462 325.567 96.4102 326.723 97.0367L334.188 101.081C335.141 101.598 336.323 101.401 337.058 100.603L341.389 95.8996L350 87.6924V198.958V200H344.047H338.094H332.14H326.187H320.234H314.281H308.328H302.375H296.421H290.468H284.515H278.562H272.609H266.656H260.702H254.749H248.796H242.843H236.89H230.937H224.983H219.03H213.077H207.124H201.171H195.217H189.264H183.311H177.358H171.405H165.452H159.498H153.545H147.592H141.639H135.686H129.733L123.779 200L117.826 200H111.873H105.92H99.9667H94.0136H88.0604H82.1072H76.1541H70.2009H64.2477H58.2945H52.3414H46.3882H40.435H34.4819H28.5287H22.5755H16.6223H10.6692H4.716H-1.23717L-1.95088 198.096Z" fill="#3985ED" fill-opacity="0.25"/>
<path d="M121.502 179.993L122.781 200.064L124.777 199.937L123.498 179.866L121.502 179.993ZM105.92 177.692L106.68 179.542L106.72 179.526L106.759 179.508L105.92 177.692ZM122.5 179.93L121.615 181.723L122.021 181.923L122.473 181.929L122.5 179.93ZM123.779 200L123.779 198L123.779 198L123.779 200ZM141.903 171.69L140.275 170.529L140.217 170.611L140.167 170.699L141.903 171.69ZM282.952 124.504L284.758 125.363L284.817 125.239L284.859 125.109L282.952 124.504ZM341.389 95.8996L340.009 94.4518L339.962 94.4968L339.918 94.5448L341.389 95.8996ZM350 87.6924H352V83.0233L348.62 86.2446L350 87.6924ZM350 200V202H352V200H350ZM129.733 200L129.733 202H129.733V200ZM117.826 200L117.826 202L117.826 202L117.826 200ZM-1.23717 200L-3.10995 200.702L-2.62342 202H-1.23717V200ZM334.188 101.081L333.235 102.84L334.188 101.081ZM337.058 100.603L335.586 99.2484L337.058 100.603ZM323.505 98.0077L321.738 97.0695L323.505 98.0077ZM326.723 97.0367L327.676 95.2782L326.723 97.0367ZM319.339 105.85L317.573 104.911L319.339 105.85ZM312.201 107.378L311.271 105.608L312.201 107.378ZM270.173 130.561L268.799 132.014L270.173 130.561ZM264.79 143.746L266.479 144.817L264.79 143.746ZM265.148 142.708L267.138 142.902L265.148 142.708ZM257.509 148.084L259.393 147.411L257.509 148.084ZM261.738 148.556L260.049 147.485L261.738 148.556ZM250.588 140.067L248.899 138.996L250.588 140.067ZM254.817 140.54L252.933 141.212L254.817 140.54ZM245.674 145.081L246.019 143.111L245.674 145.081ZM248.081 144.017L249.77 145.089L248.081 144.017ZM240.717 143.522L239.089 144.684L240.717 143.522ZM242.235 144.479L241.89 146.449L242.235 144.479ZM233.652 139.785L235.483 140.589L233.652 139.785ZM237.746 139.361L236.119 140.523L237.746 139.361ZM228.831 149.905L227.683 148.266L228.831 149.905ZM229.64 148.918L227.809 148.113L229.64 148.918ZM222.259 151.051L220.428 151.855L222.259 151.051ZM225.785 152.038L226.933 153.676L225.785 152.038ZM217.325 139.942L215.697 141.104L217.325 139.942ZM217.566 140.366L215.735 141.17L217.566 140.366ZM210.082 136.316L208.176 135.711L210.082 136.316ZM214.266 135.656L215.894 134.494L214.266 135.656ZM202.882 145.875L201.145 146.867L201.145 146.867L202.882 145.875ZM207.195 145.417L209.101 146.022L207.195 145.417ZM197.969 140.429L198.314 142.399L197.969 140.429ZM200.433 141.587L198.696 142.578L200.433 141.587ZM192.788 139.97L194.416 138.808L192.788 139.97ZM195.124 140.927L195.469 142.897L195.124 140.927ZM185.92 136.276L184.145 135.355L185.92 136.276ZM189.948 135.991L188.32 137.153L189.948 135.991ZM180.862 144.622L181.523 146.51L180.862 144.622ZM182.181 143.478L183.956 144.4L182.181 143.478ZM175.606 147.842L173.623 147.582L175.606 147.842ZM177.171 145.915L177.832 147.803L177.171 145.915ZM168.073 177.012L169.39 175.507L168.073 177.012ZM171.98 175.538L169.997 175.278L171.98 175.538ZM165.24 174.256L163.422 175.09L165.24 174.256ZM165.833 175.051L167.15 173.546L165.833 175.051ZM130.361 180.158L131.023 178.271L130.361 180.158ZM129.611 180.025L129.584 182.025L129.611 180.025ZM111.111 175.293L110.272 173.477L111.111 175.293ZM113.152 175.318L112.267 177.112L113.152 175.318ZM101.588 179.473L102.348 181.323L101.588 179.473ZM94.1833 174.685L95.8111 173.523L94.1833 174.685ZM94.4005 174.925L95.7181 173.421L94.4005 174.925ZM89.7556 168.482L91.3835 167.32L89.7556 168.482ZM80.9925 177.616L79.2557 178.607L80.9925 177.616ZM83.4901 177.484L85.3212 178.289L83.4901 177.484ZM75.2671 172.025L73.4612 171.165L75.2671 172.025ZM77.7471 171.932L76.0103 172.924L77.7471 171.932ZM69.2344 179.314L67.4033 180.118L69.2344 179.314ZM71.7804 179.352L73.5863 180.212L71.7804 179.352ZM55.3397 199.288L54.8777 197.342L55.3397 199.288ZM57.0864 197.572L59.024 198.068L57.0864 197.572ZM46.0197 182.799L47.1672 181.161L46.0197 182.799ZM46.5373 183.482L44.6504 184.145L46.5373 183.482ZM39.648 180.115L37.964 179.037L39.648 180.115ZM41.63 179.724L40.4825 181.362L41.63 179.724ZM32.3645 190.909L33.2947 192.68L32.3645 190.909ZM33.2569 190.09L31.5729 189.011L33.2569 190.09ZM305.566 109.329L304.361 110.925L305.566 109.329ZM308.094 109.536L309.025 111.306L308.094 109.536ZM25.7434 192.675L27.0609 191.17L25.7434 192.675ZM28.4042 192.99L27.474 191.219L28.4042 192.99ZM157.436 163.938L158.584 165.576L157.436 163.938ZM160.947 164.89L159.129 165.724L160.947 164.89ZM299.52 108.226L301.295 109.148L299.52 108.226ZM303.048 107.428L301.843 109.024L303.048 107.428ZM19.5763 191.048L21.313 192.04L19.5763 191.048ZM23.1919 190.441L24.5095 188.936L23.1919 190.441ZM152.532 165.807L153.462 164.036L152.532 165.807ZM154.992 165.65L153.844 164.012L154.992 165.65ZM292.757 113.158L290.982 114.08L292.757 113.158ZM296.96 113.158L298.735 114.08L296.96 113.158ZM13.4203 198.671L13.0753 200.641L13.4203 198.671ZM15.8847 197.513L17.6214 198.505L15.8847 197.513ZM146.657 165.031L145.029 163.869L146.657 165.031ZM149.685 164.311L148.755 166.081L149.685 164.311ZM287.178 111.182L289.085 111.787L287.178 111.182ZM291.537 110.807L293.312 109.885L291.537 110.807ZM8.67501 197.613L7.52756 199.251L8.67501 197.613ZM9.62497 198.006L9.96996 196.036L9.62497 198.006ZM2.00688 194.147L2.66801 196.034L2.00688 194.147ZM4.14786 194.442L3.0004 196.08L4.14786 194.442ZM63.5059 172.494L65.4434 172.99L63.5059 172.494ZM66.1439 172.278L64.3128 173.082L66.1439 172.278ZM134.089 181.464L134.75 179.576L134.089 181.464ZM136.928 180.404L138.665 181.395L136.928 180.404ZM274.633 134.778L276.007 133.324L274.633 134.778ZM278.398 134.075L280.204 134.934L278.398 134.075ZM-0.516539 195.031L-1.17766 193.143L-0.516539 195.031ZM-1.95088 198.096L-3.82366 198.798L-1.95088 198.096ZM0.144584 196.918L2.66801 196.034L1.34576 192.259L-1.17766 193.143L0.144584 196.918ZM3.0004 196.08L7.52756 199.251L9.82247 195.975L5.29532 192.804L3.0004 196.08ZM9.27998 199.976L13.0753 200.641L13.7653 196.701L9.96996 196.036L9.27998 199.976ZM17.6214 198.505L21.313 192.04L17.8395 190.056L14.1479 196.521L17.6214 198.505ZM21.8744 191.946L24.4258 194.18L27.0609 191.17L24.5095 188.936L21.8744 191.946ZM29.3344 194.76L33.2947 192.68L31.4343 189.138L27.474 191.219L29.3344 194.76ZM34.9409 191.169L41.332 181.194L37.964 179.037L31.5729 189.011L34.9409 191.169ZM40.4825 181.362L44.8723 184.437L47.1672 181.161L42.7774 178.086L40.4825 181.362ZM44.6504 184.145L50.4545 200.663L54.2283 199.337L48.4243 182.819L44.6504 184.145ZM52.8034 201.946L55.8017 201.234L54.8777 197.342L51.8794 198.054L52.8034 201.946ZM59.024 198.068L65.4434 172.99L61.5684 171.998L55.1489 197.076L59.024 198.068ZM64.3128 173.082L67.4033 180.118L71.0655 178.509L67.9751 171.474L64.3128 173.082ZM73.5863 180.212L77.0731 172.884L73.4612 171.165L69.9744 178.493L73.5863 180.212ZM76.0103 172.924L79.2557 178.607L82.7293 176.624L79.4838 170.94L76.0103 172.924ZM85.3212 178.289L89.1655 169.537L85.5032 167.928L81.6589 176.68L85.3212 178.289ZM88.1278 169.644L92.5555 175.847L95.8111 173.523L91.3835 167.32L88.1278 169.644ZM93.083 176.43L97.8103 180.569L100.445 177.56L95.7181 173.421L93.083 176.43ZM102.348 181.323L106.68 179.542L105.16 175.843L100.827 177.623L102.348 181.323ZM106.759 179.508L111.95 177.108L110.272 173.477L105.081 175.877L106.759 179.508ZM112.267 177.112L121.615 181.723L123.385 178.136L114.036 173.525L112.267 177.112ZM129.7 182.046L133.428 183.352L134.75 179.576L131.023 178.271L129.7 182.046ZM138.665 181.395L143.64 172.682L140.167 170.699L135.191 179.412L138.665 181.395ZM143.531 172.852L148.284 166.193L145.029 163.869L140.275 170.529L143.531 172.852ZM148.755 166.081L151.602 167.577L153.462 164.036L150.615 162.54L148.755 166.081ZM156.139 167.288L158.584 165.576L156.289 162.299L153.844 164.012L156.139 167.288ZM159.129 165.724L163.422 175.09L167.058 173.423L162.765 164.057L159.129 165.724ZM164.515 176.555L166.755 178.517L169.39 175.507L167.15 173.546L164.515 176.555ZM173.963 175.798L177.589 148.102L173.623 147.582L169.997 175.278L173.963 175.798ZM177.832 147.803L181.523 146.51L180.201 142.735L176.51 144.027L177.832 147.803ZM183.956 144.4L187.695 137.198L184.145 135.355L180.406 142.557L183.956 144.4ZM188.32 137.153L191.16 141.132L194.416 138.808L191.576 134.829L188.32 137.153ZM195.469 142.897L198.314 142.399L197.624 138.459L194.779 138.957L195.469 142.897ZM198.696 142.578L201.145 146.867L204.619 144.884L202.17 140.595L198.696 142.578ZM209.101 146.022L211.988 136.921L208.176 135.711L205.288 144.812L209.101 146.022ZM212.638 136.818L215.697 141.104L218.953 138.78L215.894 134.494L212.638 136.818ZM215.735 141.17L220.428 151.855L224.09 150.247L219.397 139.561L215.735 141.17ZM226.933 153.676L229.978 151.543L227.683 148.266L224.638 150.4L226.933 153.676ZM231.471 149.722L235.483 140.589L231.821 138.98L227.809 148.113L231.471 149.722ZM236.119 140.523L239.089 144.684L242.344 142.36L239.374 138.199L236.119 140.523ZM241.89 146.449L245.329 147.051L246.019 143.111L242.58 142.509L241.89 146.449ZM249.77 145.089L252.276 141.139L248.899 138.996L246.393 142.946L249.77 145.089ZM252.933 141.212L255.625 148.756L259.393 147.411L256.7 139.867L252.933 141.212ZM263.427 149.628L266.479 144.817L263.102 142.674L260.049 147.485L263.427 149.628ZM267.138 142.902L268.181 132.245L264.2 131.856L263.157 142.513L267.138 142.902ZM268.799 132.014L273.259 136.231L276.007 133.324L271.547 129.107L268.799 132.014ZM280.204 134.934L284.758 125.363L281.146 123.644L276.592 133.215L280.204 134.934ZM284.859 125.109L289.085 111.787L285.272 110.577L281.046 123.899L284.859 125.109ZM289.761 111.728L290.982 114.08L294.532 112.237L293.312 109.885L289.761 111.728ZM298.735 114.08L301.295 109.148L297.745 107.305L295.185 112.237L298.735 114.08ZM301.843 109.024L304.361 110.925L306.772 107.733L304.254 105.832L301.843 109.024ZM309.025 111.306L313.131 109.149L311.271 105.608L307.164 107.765L309.025 111.306ZM313.302 109.107H317.248V105.107H313.302V109.107ZM321.105 106.788L325.271 98.946L321.738 97.0695L317.573 104.911L321.105 106.788ZM325.771 98.7952L333.235 102.84L335.141 99.3226L327.676 95.2782L325.771 98.7952ZM338.529 101.958L342.86 97.2543L339.918 94.5448L335.586 99.2484L338.529 101.958ZM342.769 97.3473L351.38 89.1401L348.62 86.2446L340.009 94.4518L342.769 97.3473ZM348 87.6924V198.958H352V87.6924H348ZM348 198.958V200H352V198.958H348ZM350 198H344.047V202H350V198ZM344.047 198H338.094V202H344.047V198ZM338.094 198H332.14V202H338.094V198ZM332.14 198H326.187V202H332.14V198ZM326.187 198H320.234V202H326.187V198ZM320.234 198H314.281V202H320.234V198ZM314.281 198H308.328V202H314.281V198ZM308.328 198H302.375V202H308.328V198ZM302.375 198H296.421V202H302.375V198ZM296.421 198H290.468V202H296.421V198ZM290.468 198H284.515V202H290.468V198ZM284.515 198H278.562V202H284.515V198ZM278.562 198H272.609V202H278.562V198ZM272.609 198H266.656V202H272.609V198ZM266.656 198H260.702V202H266.656V198ZM260.702 198H254.749V202H260.702V198ZM254.749 198H248.796V202H254.749V198ZM248.796 198H242.843V202H248.796V198ZM242.843 198H236.89V202H242.843V198ZM236.89 198H230.937V202H236.89V198ZM230.937 198H224.983V202H230.937V198ZM224.983 198H219.03V202H224.983V198ZM219.03 198H213.077V202H219.03V198ZM213.077 198H207.124V202H213.077V198ZM207.124 198H201.171V202H207.124V198ZM201.171 198H195.217V202H201.171V198ZM195.217 198H189.264V202H195.217V198ZM189.264 198H183.311V202H189.264V198ZM183.311 198H177.358V202H183.311V198ZM177.358 198H171.405V202H177.358V198ZM171.405 198H165.452V202H171.405V198ZM165.452 198H159.498V202H165.452V198ZM159.498 198H153.545V202H159.498V198ZM153.545 198H147.592V202H153.545V198ZM147.592 198H141.639V202H147.592V198ZM141.639 198H135.686V202H141.639V198ZM135.686 198H129.733V202H135.686V198ZM129.733 198L123.779 198L123.779 202L129.733 202L129.733 198ZM123.779 198L117.826 198L117.826 202L123.779 202L123.779 198ZM117.826 198H111.873V202H117.826V198ZM111.873 198H105.92V202H111.873V198ZM105.92 198H99.9667V202H105.92V198ZM99.9667 198H94.0136V202H99.9667V198ZM94.0136 198H88.0604V202H94.0136V198ZM88.0604 198H82.1072V202H88.0604V198ZM82.1072 198H76.1541V202H82.1072V198ZM76.1541 198H70.2009V202H76.1541V198ZM70.2009 198H64.2477V202H70.2009V198ZM64.2477 198H58.2945V202H64.2477V198ZM58.2945 198H52.3414V202H58.2945V198ZM52.3414 198H46.3882V202H52.3414V198ZM46.3882 198H40.435V202H46.3882V198ZM40.435 198H34.4819V202H40.435V198ZM34.4819 198H28.5287V202H34.4819V198ZM28.5287 198H22.5755V202H28.5287V198ZM22.5755 198H16.6223V202H22.5755V198ZM16.6223 198H10.6692V202H16.6223V198ZM10.6692 198H4.716V202H10.6692V198ZM4.716 198H-1.23717V202H4.716V198ZM0.63561 199.298L-0.0781051 197.394L-3.82366 198.798L-3.10995 200.702L0.63561 199.298ZM122.473 181.929L129.584 182.025L129.638 178.026L122.527 177.93L122.473 181.929ZM333.235 102.84C334.994 103.792 337.174 103.429 338.529 101.958L335.586 99.2484C335.472 99.3723 335.289 99.4028 335.141 99.3226L333.235 102.84ZM325.271 98.946C325.367 98.7656 325.591 98.698 325.771 98.7952L327.676 95.2782C325.543 94.1225 322.876 94.9268 321.738 97.0695L325.271 98.946ZM317.248 109.107C318.864 109.107 320.347 108.215 321.105 106.788L317.573 104.911C317.509 105.032 317.384 105.107 317.248 105.107V109.107ZM313.131 109.149C313.184 109.121 313.243 109.107 313.302 109.107V105.107C312.594 105.107 311.897 105.279 311.271 105.608L313.131 109.149ZM268.181 132.245C268.21 131.941 268.577 131.804 268.799 132.014L271.547 129.107C268.908 126.612 264.553 128.241 264.2 131.856L268.181 132.245ZM266.479 144.817C266.846 144.239 267.071 143.583 267.138 142.902L263.157 142.513C263.151 142.57 263.132 142.625 263.102 142.674L266.479 144.817ZM255.625 148.756C256.848 152.182 261.478 152.699 263.427 149.628L260.049 147.485C259.885 147.743 259.496 147.7 259.393 147.411L255.625 148.756ZM252.276 141.139C252.44 140.88 252.83 140.924 252.933 141.212L256.7 139.867C255.478 136.441 250.848 135.924 248.899 138.996L252.276 141.139ZM245.329 147.051C247.07 147.356 248.823 146.581 249.77 145.089L246.393 142.946C246.313 143.072 246.165 143.137 246.019 143.111L245.329 147.051ZM239.089 144.684C239.755 145.617 240.761 146.251 241.89 146.449L242.58 142.509C242.485 142.492 242.4 142.439 242.344 142.36L239.089 144.684ZM235.483 140.589C235.598 140.328 235.953 140.291 236.119 140.523L239.374 138.199C237.406 135.442 233.183 135.878 231.821 138.98L235.483 140.589ZM229.978 151.543C230.633 151.084 231.15 150.454 231.471 149.722L227.809 148.113C227.782 148.175 227.738 148.228 227.683 148.266L229.978 151.543ZM220.428 151.855C221.536 154.378 224.676 155.257 226.933 153.676L224.638 150.4C224.448 150.533 224.184 150.459 224.09 150.247L220.428 151.855ZM215.697 141.104C215.712 141.125 215.724 141.147 215.735 141.17L219.397 139.561C219.276 139.287 219.127 139.025 218.953 138.78L215.697 141.104ZM211.988 136.921C212.08 136.632 212.462 136.572 212.638 136.818L215.894 134.494C213.802 131.565 209.264 132.28 208.176 135.711L211.988 136.921ZM201.145 146.867C203.032 150.172 207.95 149.65 209.101 146.022L205.288 144.812C205.256 144.913 205.212 144.962 205.173 144.992C205.127 145.028 205.059 145.058 204.977 145.067C204.894 145.076 204.822 145.06 204.769 145.035C204.725 145.014 204.671 144.976 204.619 144.884L201.145 146.867ZM198.314 142.399C198.466 142.372 198.619 142.444 198.696 142.578L202.17 140.595C201.256 138.996 199.438 138.141 197.624 138.459L198.314 142.399ZM191.16 141.132C192.137 142.501 193.813 143.187 195.469 142.897L194.779 138.957C194.639 138.981 194.498 138.924 194.416 138.808L191.16 141.132ZM187.695 137.198C187.821 136.954 188.161 136.93 188.32 137.153L191.576 134.829C189.68 132.174 185.648 132.459 184.145 135.355L187.695 137.198ZM181.523 146.51C182.573 146.142 183.443 145.387 183.956 144.4L180.406 142.557C180.363 142.64 180.289 142.704 180.201 142.735L181.523 146.51ZM177.589 148.102C177.607 147.964 177.701 147.848 177.832 147.803L176.51 144.027C174.953 144.572 173.837 145.947 173.623 147.582L177.589 148.102ZM166.755 178.517C169.381 180.816 173.51 179.258 173.963 175.798L169.997 175.278C169.959 175.57 169.611 175.701 169.39 175.507L166.755 178.517ZM163.422 175.09C163.679 175.65 164.052 176.149 164.515 176.555L167.15 173.546C167.111 173.512 167.08 173.47 167.058 173.423L163.422 175.09ZM131.023 178.271C130.577 178.115 130.11 178.032 129.638 178.026L129.584 182.025C129.624 182.026 129.663 182.033 129.7 182.046L131.023 178.271ZM111.95 177.108C112.051 177.061 112.167 177.063 112.267 177.112L114.036 173.525C112.853 172.941 111.469 172.924 110.272 173.477L111.95 177.108ZM97.8103 180.569C99.0573 181.661 100.815 181.953 102.348 181.323L100.827 177.623C100.698 177.676 100.55 177.652 100.445 177.56L97.8103 180.569ZM92.5555 175.847C92.7082 176.061 92.8852 176.257 93.083 176.43L95.7181 173.421C95.753 173.451 95.7842 173.486 95.8111 173.523L92.5555 175.847ZM89.1655 169.537C88.9783 169.963 88.3982 170.023 88.1278 169.644L91.3835 167.32C89.8511 165.174 86.5639 165.513 85.5032 167.928L89.1655 169.537ZM79.2557 178.607C80.6409 181.033 84.1978 180.846 85.3212 178.289L81.6589 176.68C81.8572 176.229 82.4849 176.196 82.7293 176.624L79.2557 178.607ZM77.0731 172.884C76.8649 173.322 76.2506 173.345 76.0103 172.924L79.4838 170.94C78.1221 168.556 74.6412 168.686 73.4612 171.165L77.0731 172.884ZM67.4033 180.118C68.5741 182.784 72.3353 182.84 73.5863 180.212L69.9744 178.493C70.1952 178.029 70.8589 178.039 71.0655 178.509L67.4033 180.118ZM55.8017 201.234C57.3806 200.859 58.6215 199.64 59.024 198.068L55.1489 197.076C55.115 197.208 55.0106 197.311 54.8777 197.342L55.8017 201.234ZM44.8723 184.437C44.7696 184.365 44.692 184.263 44.6504 184.145L48.4243 182.819C48.1887 182.148 47.7491 181.569 47.1672 181.161L44.8723 184.437ZM41.332 181.194C41.148 181.482 40.7619 181.558 40.4825 181.362L42.7774 178.086C41.1944 176.977 39.0066 177.409 37.964 179.037L41.332 181.194ZM33.2947 192.68C33.9651 192.327 34.5323 191.807 34.9409 191.169L31.5729 189.011C31.5385 189.065 31.4908 189.109 31.4343 189.138L33.2947 192.68ZM304.361 110.925C305.711 111.944 307.527 112.093 309.025 111.306L307.164 107.765C307.038 107.831 306.885 107.819 306.772 107.733L304.361 110.925ZM24.4258 194.18C25.7846 195.369 27.7356 195.6 29.3344 194.76L27.474 191.219C27.3395 191.29 27.1753 191.27 27.0609 191.17L24.4258 194.18ZM158.584 165.576C158.772 165.444 159.033 165.515 159.129 165.724L162.765 164.057C161.628 161.577 158.522 160.735 156.289 162.299L158.584 165.576ZM301.295 109.148C301.4 108.946 301.662 108.886 301.843 109.024L304.254 105.832C302.096 104.202 298.991 104.905 297.745 107.305L301.295 109.148ZM21.313 192.04C21.4283 191.838 21.6995 191.792 21.8744 191.946L24.5095 188.936C22.4319 187.117 19.2088 187.658 17.8395 190.056L21.313 192.04ZM151.602 167.577C153.049 168.338 154.8 168.226 156.139 167.288L153.844 164.012C153.731 164.091 153.584 164.1 153.462 164.036L151.602 167.577ZM290.982 114.08C292.612 117.22 297.105 117.22 298.735 114.08L295.185 112.237C295.048 112.501 294.669 112.501 294.532 112.237L290.982 114.08ZM13.0753 200.641C14.8895 200.959 16.7081 200.104 17.6214 198.505L14.1479 196.521C14.071 196.656 13.918 196.728 13.7653 196.701L13.0753 200.641ZM148.284 166.193C148.391 166.044 148.592 165.996 148.755 166.081L150.615 162.54C148.682 161.525 146.297 162.093 145.029 163.869L148.284 166.193ZM289.085 111.787C289.118 111.682 289.164 111.633 289.202 111.604C289.249 111.569 289.319 111.539 289.404 111.531C289.489 111.524 289.563 111.542 289.615 111.569C289.657 111.591 289.711 111.631 289.761 111.728L293.312 109.885C291.519 106.433 286.448 106.869 285.272 110.577L289.085 111.787ZM7.52756 199.251C8.05156 199.618 8.6498 199.866 9.27998 199.976L9.96996 196.036C9.91692 196.027 9.86657 196.006 9.82247 195.975L7.52756 199.251ZM2.66801 196.034C2.77972 195.995 2.90345 196.012 3.0004 196.08L5.29532 192.804C4.14332 191.997 2.67321 191.794 1.34576 192.259L2.66801 196.034ZM65.4434 172.99C65.302 173.542 64.5421 173.604 64.3128 173.082L67.9751 171.474C66.6755 168.515 62.3697 168.867 61.5684 171.998L65.4434 172.99ZM133.428 183.352C135.417 184.048 137.62 183.225 138.665 181.395L135.191 179.412C135.103 179.566 134.918 179.635 134.75 179.576L133.428 183.352ZM273.259 136.231C275.414 138.268 278.93 137.612 280.204 134.934L276.592 133.215C276.485 133.441 276.189 133.496 276.007 133.324L273.259 136.231ZM-1.17766 193.143C-3.48922 193.953 -4.68326 196.505 -3.82366 198.798L-0.0781051 197.394C-0.150449 197.201 -0.0499596 196.986 0.144584 196.918L-1.17766 193.143Z" fill="#3985ED" mask="url(#path-2-outside-1_445_2)"/>
<rect x="17" y="16" width="114" height="32" rx="6.44002" fill="#E3E3E3"/>
<g filter="url(#filter0_d_445_2)">
<path d="M55 115.994C55 112.684 57.6837 110 60.9942 110H151.006C154.316 110 157 112.684 157 115.994V148.333C157 151.644 154.316 154.327 151.006 154.327H99.8102C98.105 154.327 96.4805 155.054 95.3434 156.324L89.3696 163L83.3957 156.324C82.2586 155.054 80.6341 154.327 78.9289 154.327H60.9942C57.6837 154.327 55 151.644 55 148.333V115.994Z" fill="#3985ED" fill-opacity="0.1" shape-rendering="crispEdges"/>
</g>
<path d="M23.9489 38.1538V25.6269H26.444L29.4091 34.4966C29.6825 35.3226 29.8819 35.9407 30.0072 36.3508C30.1496 35.8951 30.3718 35.2257 30.6737 34.3428L33.673 25.6269H35.9032V38.1538H34.3053V27.6692L30.6652 38.1538H29.1698L25.5468 27.4897V38.1538H23.9489ZM44.3285 38.1538V36.8208C43.6222 37.8462 42.6623 38.3589 41.4489 38.3589C40.9134 38.3589 40.4121 38.2563 39.945 38.0513C39.4836 37.8462 39.1389 37.5898 38.9111 37.2822C38.6889 36.9689 38.5322 36.5872 38.4411 36.1372C38.3784 35.8353 38.3471 35.3568 38.3471 34.7017V29.0791H39.8852V34.112C39.8852 34.9153 39.9165 35.4565 39.9792 35.7356C40.076 36.1401 40.2811 36.4591 40.5944 36.6926C40.9077 36.9205 41.2951 37.0344 41.7565 37.0344C42.2179 37.0344 42.6509 36.9176 43.0554 36.6841C43.4598 36.4448 43.7446 36.123 43.9098 35.7185C44.0807 35.3083 44.1662 34.7159 44.1662 33.9412V29.0791H45.7043V38.1538H44.3285ZM47.5073 35.4451L49.0283 35.2058C49.1137 35.8153 49.3501 36.2825 49.7375 36.6072C50.1306 36.9319 50.6774 37.0942 51.3781 37.0942C52.0845 37.0942 52.6086 36.9518 52.9504 36.667C53.2922 36.3765 53.4631 36.0375 53.4631 35.6501C53.4631 35.3026 53.3121 35.0292 53.0102 34.8298C52.7994 34.6931 52.2753 34.5194 51.4379 34.3086C50.31 34.0238 49.5267 33.7788 49.0881 33.5737C48.6551 33.3629 48.3247 33.0753 48.0969 32.7107C47.8747 32.3404 47.7636 31.9331 47.7636 31.4888C47.7636 31.0843 47.8548 30.7112 48.0371 30.3694C48.225 30.0219 48.4785 29.7342 48.7976 29.5063C49.0368 29.3297 49.3615 29.1816 49.7717 29.062C50.1875 28.9367 50.6319 28.874 51.1047 28.874C51.8168 28.874 52.4405 28.9765 52.976 29.1816C53.5172 29.3867 53.916 29.6658 54.1723 30.019C54.4287 30.3665 54.6053 30.8336 54.7021 31.4204L53.1982 31.6255C53.1298 31.1583 52.9305 30.7938 52.6001 30.5317C52.2753 30.2697 51.8139 30.1387 51.2158 30.1387C50.5094 30.1387 50.0052 30.2554 49.7033 30.489C49.4014 30.7226 49.2504 30.996 49.2504 31.3093C49.2504 31.5087 49.3131 31.6881 49.4384 31.8476C49.5638 32.0128 49.7603 32.1496 50.028 32.2578C50.1818 32.3148 50.6347 32.4458 51.3867 32.6509C52.4747 32.9414 53.2324 33.1807 53.6596 33.3686C54.0926 33.5509 54.4315 33.8187 54.6765 34.1719C54.9214 34.5251 55.0439 34.9637 55.0439 35.4878C55.0439 36.0005 54.8929 36.4847 54.591 36.9404C54.2948 37.3905 53.8647 37.7408 53.3007 37.9915C52.7368 38.2364 52.0988 38.3589 51.3867 38.3589C50.2075 38.3589 49.3074 38.1139 48.6865 37.624C48.0712 37.1341 47.6782 36.4078 47.5073 35.4451ZM56.8811 27.3957V25.6269H58.4192V27.3957H56.8811ZM56.8811 38.1538V29.0791H58.4192V38.1538H56.8811ZM66.6907 34.8298L68.2031 35.0264C68.0379 36.0688 67.6135 36.8863 66.9299 37.4788C66.252 38.0655 65.4175 38.3589 64.4263 38.3589C63.1844 38.3589 62.1846 37.9544 61.427 37.1455C60.675 36.3309 60.299 35.1659 60.299 33.6506C60.299 32.6708 60.4614 31.8135 60.7861 31.0786C61.1108 30.3437 61.6036 29.794 62.2644 29.4294C62.9309 29.0591 63.6544 28.874 64.4348 28.874C65.4203 28.874 66.2264 29.1247 66.853 29.626C67.4796 30.1216 67.8813 30.8279 68.0579 31.7451L66.5625 31.9758C66.4201 31.3663 66.1666 30.9077 65.802 30.6001C65.4431 30.2925 65.0073 30.1387 64.4946 30.1387C63.7199 30.1387 63.0904 30.4178 62.6062 30.9761C62.122 31.5286 61.8799 32.4059 61.8799 33.6079C61.8799 34.827 62.1134 35.7128 62.5805 36.2654C63.0477 36.8179 63.6572 37.0942 64.4092 37.0942C65.013 37.0942 65.5172 36.9091 65.9216 36.5388C66.3261 36.1685 66.5824 35.5989 66.6907 34.8298ZM77.4488 38.1538V27.1052H73.3215V25.6269H83.2508V27.1052H79.1065V38.1538H77.4488ZM84.0967 38.1538V29.0791H85.481V30.4548C85.8342 29.8111 86.1589 29.3867 86.4551 29.1816C86.757 28.9765 87.0875 28.874 87.4463 28.874C87.9647 28.874 88.4917 29.0392 89.0272 29.3696L88.4974 30.7966C88.1214 30.5744 87.7454 30.4634 87.3694 30.4634C87.0333 30.4634 86.7314 30.5659 86.4637 30.771C86.1959 30.9704 86.0051 31.2495 85.8912 31.6084C85.7203 32.1553 85.6348 32.7534 85.6348 33.4028V38.1538H84.0967ZM96.1536 35.2314L97.743 35.428C97.4923 36.3565 97.0281 37.0771 96.3502 37.5898C95.6723 38.1025 94.8064 38.3589 93.7525 38.3589C92.4252 38.3589 91.3713 37.9516 90.5909 37.137C89.8161 36.3166 89.4288 35.1688 89.4288 33.6933C89.4288 32.1667 89.8218 30.9818 90.608 30.1387C91.3941 29.2955 92.4138 28.874 93.6671 28.874C94.8804 28.874 95.8717 29.287 96.6407 30.113C97.4097 30.939 97.7943 32.1011 97.7943 33.5994C97.7943 33.6905 97.7914 33.8272 97.7857 34.0095H91.0181C91.0751 35.0064 91.3571 35.7698 91.8641 36.2996C92.3711 36.8293 93.0034 37.0942 93.7611 37.0942C94.325 37.0942 94.8064 36.9461 95.2051 36.6499C95.6039 36.3537 95.9201 35.8809 96.1536 35.2314ZM91.1036 32.7449H96.1707C96.1024 31.9815 95.9087 31.409 95.5897 31.0273C95.0998 30.4349 94.4646 30.1387 93.6841 30.1387C92.9778 30.1387 92.3825 30.3751 91.8983 30.8479C91.4197 31.3207 91.1548 31.953 91.1036 32.7449ZM99.6827 38.1538V29.0791H101.067V30.3694C101.733 29.3725 102.696 28.874 103.955 28.874C104.502 28.874 105.003 28.9737 105.459 29.1731C105.921 29.3668 106.265 29.6231 106.493 29.9421C106.721 30.2611 106.88 30.64 106.972 31.0786C107.029 31.3634 107.057 31.8619 107.057 32.574V38.1538H105.519V32.6338C105.519 32.0071 105.459 31.54 105.339 31.2324C105.22 30.9191 105.006 30.6713 104.699 30.489C104.397 30.301 104.041 30.207 103.63 30.207C102.975 30.207 102.409 30.4149 101.93 30.8308C101.457 31.2466 101.221 32.0356 101.221 33.1977V38.1538H99.6827ZM115.311 38.1538V37.0088C114.736 37.9089 113.89 38.3589 112.774 38.3589C112.05 38.3589 111.384 38.1595 110.774 37.7607C110.17 37.362 109.7 36.8066 109.364 36.0945C109.034 35.3767 108.869 34.5535 108.869 33.625C108.869 32.7192 109.019 31.8989 109.321 31.164C109.623 30.4235 110.076 29.8567 110.68 29.4636C111.284 29.0705 111.959 28.874 112.705 28.874C113.252 28.874 113.739 28.9908 114.166 29.2243C114.594 29.4522 114.941 29.7513 115.209 30.1216V25.6269H116.738V38.1538H115.311ZM110.449 33.625C110.449 34.7871 110.694 35.6558 111.184 36.2312C111.674 36.8066 112.252 37.0942 112.919 37.0942C113.591 37.0942 114.161 36.8208 114.628 36.2739C115.101 35.7213 115.337 34.8811 115.337 33.7532C115.337 32.5113 115.098 31.5998 114.619 31.0188C114.141 30.4377 113.551 30.1472 112.85 30.1472C112.167 30.1472 111.594 30.4263 111.133 30.9846C110.677 31.5429 110.449 32.423 110.449 33.625ZM118.55 35.4451L120.071 35.2058C120.156 35.8153 120.393 36.2825 120.78 36.6072C121.173 36.9319 121.72 37.0942 122.421 37.0942C123.127 37.0942 123.651 36.9518 123.993 36.667C124.335 36.3765 124.506 36.0375 124.506 35.6501C124.506 35.3026 124.355 35.0292 124.053 34.8298C123.842 34.6931 123.318 34.5194 122.481 34.3086C121.353 34.0238 120.569 33.7788 120.131 33.5737C119.698 33.3629 119.367 33.0753 119.14 32.7107C118.917 32.3404 118.806 31.9331 118.806 31.4888C118.806 31.0843 118.897 30.7112 119.08 30.3694C119.268 30.0219 119.521 29.7342 119.84 29.5063C120.079 29.3297 120.404 29.1816 120.814 29.062C121.23 28.9367 121.675 28.874 122.147 28.874C122.859 28.874 123.483 28.9765 124.019 29.1816C124.56 29.3867 124.959 29.6658 125.215 30.019C125.471 30.3665 125.648 30.8336 125.745 31.4204L124.241 31.6255C124.173 31.1583 123.973 30.7938 123.643 30.5317C123.318 30.2697 122.857 30.1387 122.258 30.1387C121.552 30.1387 121.048 30.2554 120.746 30.489C120.444 30.7226 120.293 30.996 120.293 31.3093C120.293 31.5087 120.356 31.6881 120.481 31.8476C120.606 32.0128 120.803 32.1496 121.071 32.2578C121.225 32.3148 121.677 32.4458 122.429 32.6509C123.517 32.9414 124.275 33.1807 124.702 33.3686C125.135 33.5509 125.474 33.8187 125.719 34.1719C125.964 34.5251 126.087 34.9637 126.087 35.4878C126.087 36.0005 125.936 36.4847 125.634 36.9404C125.337 37.3905 124.907 37.7408 124.343 37.9915C123.779 38.2364 123.141 38.3589 122.429 38.3589C121.25 38.3589 120.35 38.1139 119.729 37.624C119.114 37.1341 118.721 36.4078 118.55 35.4451Z" fill="#5B5B5B"/>
<path d="M71.0547 128.648V130H63.4844C63.474 129.661 63.5286 129.336 63.6484 129.023C63.8411 128.508 64.1484 128 64.5703 127.5C64.9974 127 65.612 126.422 66.4141 125.766C67.6589 124.745 68.5 123.938 68.9375 123.344C69.375 122.745 69.5938 122.18 69.5938 121.648C69.5938 121.091 69.3932 120.622 68.9922 120.242C68.5964 119.857 68.0781 119.664 67.4375 119.664C66.7604 119.664 66.2188 119.867 65.8125 120.273C65.4062 120.68 65.2005 121.242 65.1953 121.961L63.75 121.812C63.849 120.734 64.2214 119.914 64.8672 119.352C65.513 118.784 66.3802 118.5 67.4688 118.5C68.5677 118.5 69.4375 118.805 70.0781 119.414C70.7188 120.023 71.0391 120.779 71.0391 121.68C71.0391 122.138 70.9453 122.589 70.7578 123.031C70.5703 123.474 70.2578 123.94 69.8203 124.43C69.388 124.919 68.6667 125.591 67.6562 126.445C66.8125 127.154 66.2708 127.635 66.0312 127.891C65.7917 128.141 65.5938 128.393 65.4375 128.648H71.0547ZM72.5703 124.352C72.5703 122.997 72.7083 121.909 72.9844 121.086C73.2656 120.258 73.6797 119.62 74.2266 119.172C74.7786 118.724 75.4714 118.5 76.3047 118.5C76.9193 118.5 77.4583 118.625 77.9219 118.875C78.3854 119.12 78.7682 119.477 79.0703 119.945C79.3724 120.409 79.6094 120.977 79.7812 121.648C79.9531 122.315 80.0391 123.216 80.0391 124.352C80.0391 125.695 79.901 126.781 79.625 127.609C79.349 128.432 78.9349 129.07 78.3828 129.523C77.8359 129.971 77.1432 130.195 76.3047 130.195C75.2005 130.195 74.3333 129.799 73.7031 129.008C72.9479 128.055 72.5703 126.503 72.5703 124.352ZM74.0156 124.352C74.0156 126.232 74.2344 127.484 74.6719 128.109C75.1146 128.729 75.6589 129.039 76.3047 129.039C76.9505 129.039 77.4922 128.727 77.9297 128.102C78.3724 127.477 78.5938 126.227 78.5938 124.352C78.5938 122.466 78.3724 121.214 77.9297 120.594C77.4922 119.974 76.9453 119.664 76.2891 119.664C75.6432 119.664 75.1276 119.938 74.7422 120.484C74.2578 121.182 74.0156 122.471 74.0156 124.352ZM88.8672 128.648V130H81.2969C81.2865 129.661 81.3411 129.336 81.4609 129.023C81.6536 128.508 81.9609 128 82.3828 127.5C82.8099 127 83.4245 126.422 84.2266 125.766C85.4714 124.745 86.3125 123.938 86.75 123.344C87.1875 122.745 87.4062 122.18 87.4062 121.648C87.4062 121.091 87.2057 120.622 86.8047 120.242C86.4089 119.857 85.8906 119.664 85.25 119.664C84.5729 119.664 84.0312 119.867 83.625 120.273C83.2188 120.68 83.013 121.242 83.0078 121.961L81.5625 121.812C81.6615 120.734 82.0339 119.914 82.6797 119.352C83.3255 118.784 84.1927 118.5 85.2812 118.5C86.3802 118.5 87.25 118.805 87.8906 119.414C88.5312 120.023 88.8516 120.779 88.8516 121.68C88.8516 122.138 88.7578 122.589 88.5703 123.031C88.3828 123.474 88.0703 123.94 87.6328 124.43C87.2005 124.919 86.4792 125.591 85.4688 126.445C84.625 127.154 84.0833 127.635 83.8438 127.891C83.6042 128.141 83.4062 128.393 83.25 128.648H88.8672ZM97.7734 128.648V130H90.2031C90.1927 129.661 90.2474 129.336 90.3672 129.023C90.5599 128.508 90.8672 128 91.2891 127.5C91.7161 127 92.3307 126.422 93.1328 125.766C94.3776 124.745 95.2188 123.938 95.6562 123.344C96.0938 122.745 96.3125 122.18 96.3125 121.648C96.3125 121.091 96.112 120.622 95.7109 120.242C95.3151 119.857 94.7969 119.664 94.1562 119.664C93.4792 119.664 92.9375 119.867 92.5312 120.273C92.125 120.68 91.9193 121.242 91.9141 121.961L90.4688 121.812C90.5677 120.734 90.9401 119.914 91.5859 119.352C92.2318 118.784 93.099 118.5 94.1875 118.5C95.2865 118.5 96.1562 118.805 96.7969 119.414C97.4375 120.023 97.7578 120.779 97.7578 121.68C97.7578 122.138 97.6641 122.589 97.4766 123.031C97.2891 123.474 96.9766 123.94 96.5391 124.43C96.1068 124.919 95.3854 125.591 94.375 126.445C93.5312 127.154 92.9896 127.635 92.75 127.891C92.5104 128.141 92.3125 128.393 92.1562 128.648H97.7734Z" fill="#5B5B5B"/>
<path d="M64.3809 148L61.0527 139.41H62.2832L64.5156 145.65C64.6953 146.15 64.8457 146.619 64.9668 147.057C65.0996 146.588 65.2539 146.119 65.4297 145.65L67.75 139.41H68.9102L65.5469 148H64.3809ZM68.7344 144.889C68.7344 143.736 69.0547 142.883 69.6953 142.328C70.2305 141.867 70.8828 141.637 71.6523 141.637C72.5078 141.637 73.207 141.918 73.75 142.48C74.293 143.039 74.5645 143.812 74.5645 144.801C74.5645 145.602 74.4434 146.232 74.2012 146.693C73.9629 147.15 73.6133 147.506 73.1523 147.76C72.6953 148.014 72.1953 148.141 71.6523 148.141C70.7812 148.141 70.0762 147.861 69.5371 147.303C69.002 146.744 68.7344 145.939 68.7344 144.889ZM69.8184 144.889C69.8184 145.686 69.9922 146.283 70.3398 146.682C70.6875 147.076 71.125 147.273 71.6523 147.273C72.1758 147.273 72.6113 147.074 72.959 146.676C73.3066 146.277 73.4805 145.67 73.4805 144.854C73.4805 144.084 73.3047 143.502 72.9531 143.107C72.6055 142.709 72.1719 142.51 71.6523 142.51C71.125 142.51 70.6875 142.707 70.3398 143.102C69.9922 143.496 69.8184 144.092 69.8184 144.889ZM75.7832 148V139.41H76.8379V148H75.7832ZM82.5566 148V147.086C82.0723 147.789 81.4141 148.141 80.582 148.141C80.2148 148.141 79.8711 148.07 79.5508 147.93C79.2344 147.789 78.998 147.613 78.8418 147.402C78.6895 147.188 78.582 146.926 78.5195 146.617C78.4766 146.41 78.4551 146.082 78.4551 145.633V141.777H79.5098V145.229C79.5098 145.779 79.5312 146.15 79.5742 146.342C79.6406 146.619 79.7812 146.838 79.9961 146.998C80.2109 147.154 80.4766 147.232 80.793 147.232C81.1094 147.232 81.4062 147.152 81.6836 146.992C81.9609 146.828 82.1562 146.607 82.2695 146.33C82.3867 146.049 82.4453 145.643 82.4453 145.111V141.777H83.5V148H82.5566ZM85.1582 148V141.777H86.1016V142.65C86.2969 142.346 86.5566 142.102 86.8809 141.918C87.2051 141.73 87.5742 141.637 87.9883 141.637C88.4492 141.637 88.8262 141.732 89.1191 141.924C89.416 142.115 89.625 142.383 89.7461 142.727C90.2383 142 90.8789 141.637 91.668 141.637C92.2852 141.637 92.7598 141.809 93.0918 142.152C93.4238 142.492 93.5898 143.018 93.5898 143.729V148H92.541V144.08C92.541 143.658 92.5059 143.355 92.4355 143.172C92.3691 142.984 92.2461 142.834 92.0664 142.721C91.8867 142.607 91.6758 142.551 91.4336 142.551C90.9961 142.551 90.6328 142.697 90.3438 142.99C90.0547 143.279 89.9102 143.744 89.9102 144.385V148H88.8555V143.957C88.8555 143.488 88.7695 143.137 88.5977 142.902C88.4258 142.668 88.1445 142.551 87.7539 142.551C87.457 142.551 87.1816 142.629 86.9277 142.785C86.6777 142.941 86.4961 143.17 86.3828 143.471C86.2695 143.771 86.2129 144.205 86.2129 144.771V148H85.1582ZM99.4141 145.996L100.504 146.131C100.332 146.768 100.014 147.262 99.5488 147.613C99.084 147.965 98.4902 148.141 97.7676 148.141C96.8574 148.141 96.1348 147.861 95.5996 147.303C95.0684 146.74 94.8027 145.953 94.8027 144.941C94.8027 143.895 95.0723 143.082 95.6113 142.504C96.1504 141.926 96.8496 141.637 97.709 141.637C98.541 141.637 99.2207 141.92 99.748 142.486C100.275 143.053 100.539 143.85 100.539 144.877C100.539 144.939 100.537 145.033 100.533 145.158H95.8926C95.9316 145.842 96.125 146.365 96.4727 146.729C96.8203 147.092 97.2539 147.273 97.7734 147.273C98.1602 147.273 98.4902 147.172 98.7637 146.969C99.0371 146.766 99.2539 146.441 99.4141 145.996ZM95.9512 144.291H99.4258C99.3789 143.768 99.2461 143.375 99.0273 143.113C98.6914 142.707 98.2559 142.504 97.7207 142.504C97.2363 142.504 96.8281 142.666 96.4961 142.99C96.168 143.314 95.9863 143.748 95.9512 144.291ZM102.127 142.979V141.777H103.328V142.979H102.127ZM102.127 148V146.799H103.328V148H102.127ZM110.729 146.611V144.256H108.391V143.271H110.729V140.934H111.725V143.271H114.062V144.256H111.725V146.611H110.729ZM115.229 145.75L116.336 145.656C116.418 146.195 116.607 146.602 116.904 146.875C117.205 147.145 117.566 147.279 117.988 147.279C118.496 147.279 118.926 147.088 119.277 146.705C119.629 146.322 119.805 145.814 119.805 145.182C119.805 144.58 119.635 144.105 119.295 143.758C118.959 143.41 118.518 143.236 117.971 143.236C117.631 143.236 117.324 143.314 117.051 143.471C116.777 143.623 116.562 143.822 116.406 144.068L115.416 143.939L116.248 139.527H120.52V140.535H117.092L116.629 142.844C117.145 142.484 117.686 142.305 118.252 142.305C119.002 142.305 119.635 142.564 120.15 143.084C120.666 143.604 120.924 144.271 120.924 145.088C120.924 145.865 120.697 146.537 120.244 147.104C119.693 147.799 118.941 148.146 117.988 148.146C117.207 148.146 116.568 147.928 116.072 147.49C115.58 147.053 115.299 146.473 115.229 145.75ZM121.908 143.764C121.908 142.748 122.012 141.932 122.219 141.314C122.43 140.693 122.74 140.215 123.15 139.879C123.564 139.543 124.084 139.375 124.709 139.375C125.17 139.375 125.574 139.469 125.922 139.656C126.27 139.84 126.557 140.107 126.783 140.459C127.01 140.807 127.188 141.232 127.316 141.736C127.445 142.236 127.51 142.912 127.51 143.764C127.51 144.771 127.406 145.586 127.199 146.207C126.992 146.824 126.682 147.303 126.268 147.643C125.857 147.979 125.338 148.146 124.709 148.146C123.881 148.146 123.23 147.85 122.758 147.256C122.191 146.541 121.908 145.377 121.908 143.764ZM122.992 143.764C122.992 145.174 123.156 146.113 123.484 146.582C123.816 147.047 124.225 147.279 124.709 147.279C125.193 147.279 125.6 147.045 125.928 146.576C126.26 146.107 126.426 145.17 126.426 143.764C126.426 142.35 126.26 141.41 125.928 140.945C125.6 140.48 125.189 140.248 124.697 140.248C124.213 140.248 123.826 140.453 123.537 140.863C123.174 141.387 122.992 142.354 122.992 143.764ZM128.588 143.764C128.588 142.748 128.691 141.932 128.898 141.314C129.109 140.693 129.42 140.215 129.83 139.879C130.244 139.543 130.764 139.375 131.389 139.375C131.85 139.375 132.254 139.469 132.602 139.656C132.949 139.84 133.236 140.107 133.463 140.459C133.689 140.807 133.867 141.232 133.996 141.736C134.125 142.236 134.189 142.912 134.189 143.764C134.189 144.771 134.086 145.586 133.879 146.207C133.672 146.824 133.361 147.303 132.947 147.643C132.537 147.979 132.018 148.146 131.389 148.146C130.561 148.146 129.91 147.85 129.438 147.256C128.871 146.541 128.588 145.377 128.588 143.764ZM129.672 143.764C129.672 145.174 129.836 146.113 130.164 146.582C130.496 147.047 130.904 147.279 131.389 147.279C131.873 147.279 132.279 147.045 132.607 146.576C132.939 146.107 133.105 145.17 133.105 143.764C133.105 142.35 132.939 141.41 132.607 140.945C132.279 140.48 131.869 140.248 131.377 140.248C130.893 140.248 130.506 140.453 130.217 140.863C129.854 141.387 129.672 142.354 129.672 143.764ZM135.648 148V139.41H136.785V143.67L141.051 139.41H142.592L138.988 142.891L142.75 148H141.25L138.191 143.652L136.785 145.023V148H135.648Z" fill="#5B5B5B"/>
<g filter="url(#filter1_d_445_2)">
<ellipse cx="301.481" cy="35.3704" rx="18.5185" ry="19.1358" fill="white"/>
<path d="M301.481 54.7216C311.834 54.7216 320.215 46.0511 320.215 35.3704C320.215 24.6898 311.834 16.0192 301.481 16.0192C291.128 16.0192 282.748 24.6898 282.748 35.3704C282.748 46.0511 291.128 54.7216 301.481 54.7216Z" stroke="#B8B8B8" stroke-width="0.430781"/>
</g>
<path d="M294.892 40.4574C295.053 39.1771 295.601 38.4603 296.633 37.7255C298.109 36.7303 299.953 37.2932 299.953 37.2932V33.9536C300.401 33.9425 300.85 33.968 301.293 34.0297V38.3275C301.293 38.3275 299.45 37.7646 297.973 38.7603C296.942 39.4946 296.394 40.212 296.233 41.4923C296.228 42.1875 296.364 43.0963 296.99 43.882C296.835 43.8058 296.678 43.719 296.517 43.6217C295.137 42.7329 294.885 41.3997 294.892 40.4574ZM308.908 27.7785C307.892 26.7112 307.508 25.6337 307.369 24.8767H308.647C308.647 24.8767 308.392 26.8615 310.248 28.8133L310.274 28.8396C309.774 28.5377 309.315 28.1815 308.908 27.7785ZM315.062 30.8042V35.0156C315.062 35.0156 313.432 34.9545 312.225 34.6601C310.541 34.2484 309.458 33.617 309.458 33.617C309.458 33.617 308.71 33.1667 308.649 33.1354V41.8319C308.649 42.3161 308.511 43.5254 308.09 44.534C307.539 45.8535 306.69 46.7195 306.534 46.8965C306.534 46.8965 305.501 48.0672 303.679 48.8556C302.036 49.5667 300.594 49.5487 300.163 49.5667C300.163 49.5667 297.67 49.6614 295.427 48.2633C294.942 47.955 294.489 47.6061 294.074 47.2206L294.085 47.2284C296.329 48.6265 298.821 48.5318 298.821 48.5318C299.253 48.5138 300.695 48.5318 302.337 47.8207C304.158 47.0323 305.192 45.8617 305.192 45.8617C305.347 45.6847 306.2 44.8186 306.748 43.4987C307.169 42.4906 307.308 41.2807 307.308 40.7966V32.1011C307.369 32.1329 308.116 32.5831 308.116 32.5831C308.116 32.5831 309.199 33.2151 310.884 33.6263C312.091 33.9206 313.72 33.9819 313.72 33.9819V30.6818C314.278 30.8017 314.753 30.8341 315.062 30.8042Z" fill="#EE1D52"/>
<path d="M313.827 30.6325V33.9035C313.827 33.9035 312.187 33.8428 310.973 33.551C309.278 33.1428 308.187 32.5168 308.187 32.5168C308.187 32.5168 307.435 32.0704 307.375 32.0387V40.6625C307.375 41.1426 307.235 42.3421 306.811 43.3416C306.257 44.6504 305.403 45.5091 305.246 45.6846C305.246 45.6846 304.206 46.8453 302.373 47.6271C300.72 48.3322 299.269 48.3143 298.835 48.3322C298.835 48.3322 296.327 48.4261 294.069 47.0398L294.058 47.0321C293.819 46.8139 293.595 46.5837 293.385 46.3423C292.665 45.5121 292.223 44.5304 292.112 44.2503V44.2468C291.934 43.7601 291.558 42.5911 291.61 41.4589C291.7 39.4614 292.444 38.2354 292.641 37.9282C293.161 37.0906 293.839 36.3412 294.642 35.7134C295.351 35.1715 296.155 34.7404 297.021 34.4377C297.956 34.0824 298.958 33.8919 299.973 33.8766V37.1878C299.973 37.1878 298.117 36.6318 296.632 37.6165C295.594 38.345 295.043 39.0557 294.881 40.3252C294.874 41.2595 295.127 42.5814 296.514 43.4631C296.676 43.56 296.835 43.6461 296.991 43.7212C297.233 44.019 297.528 44.2785 297.864 44.4891C299.219 45.2999 300.355 45.3565 301.808 44.83C302.776 44.4779 303.505 43.6845 303.843 42.8054C304.055 42.2565 304.053 41.7038 304.053 41.1324V24.8767H307.433C307.572 25.6272 307.959 26.6957 308.981 27.7538C309.391 28.1534 309.852 28.5067 310.356 28.8059C310.505 28.9513 311.265 29.6702 312.241 30.1116C312.746 30.3397 313.278 30.5145 313.827 30.6325Z" fill="black"/>
<path d="M297.243 33.9372C296.364 34.2535 295.547 34.7039 294.826 35.2698C294.009 35.9272 293.32 36.7118 292.792 37.5884C292.592 37.9083 291.836 39.1901 291.744 41.2769C291.692 42.4596 292.073 43.6808 292.255 44.1893V44.193C292.369 44.483 292.817 45.5084 293.549 46.3784C293.762 46.6305 293.99 46.8712 294.232 47.099C293.456 46.5991 292.763 45.995 292.177 45.3059C291.451 44.4462 291.004 43.4313 290.887 43.1318C290.887 43.1296 290.887 43.1275 290.887 43.1254V43.1216C290.705 42.6137 290.322 41.392 290.375 40.2077C290.468 38.1209 291.223 36.8401 291.423 36.5192C291.952 35.6424 292.64 34.8578 293.457 34.2007C294.178 33.6344 294.995 33.184 295.875 32.8681C296.424 32.6561 296.995 32.4998 297.58 32.4017C298.461 32.2585 299.361 32.246 300.247 32.3649V33.351C299.215 33.3667 298.195 33.5657 297.243 33.9372Z" fill="#69C9D0"/>
<path d="M307.734 24.6525H304.512V40.6531C304.512 41.2155 304.512 41.7579 304.312 42.2998C303.987 43.1646 303.294 43.9455 302.372 44.292C300.987 44.8123 299.904 44.7546 298.612 43.9566C298.292 43.7501 298.01 43.4956 297.778 43.2033C298.878 43.7521 299.863 43.7426 301.083 43.2847C302.005 42.9381 302.699 42.1572 303.023 41.2919C303.226 40.7515 303.223 40.2077 303.223 39.6457V23.6421H307.673C307.673 23.6421 307.623 24.0398 307.734 24.6525ZM313.827 29.4274V30.3178C313.305 30.2015 312.799 30.0294 312.318 29.8051C311.388 29.3707 310.662 28.6631 310.521 28.5199C310.685 28.621 310.856 28.7129 311.032 28.7952C312.163 29.3235 313.278 29.4812 313.827 29.4274Z" fill="#69C9D0"/>
</g>
<defs>
<filter id="filter0_d_445_2" x="55" y="110" width="102" height="54.6288" filterUnits="userSpaceOnUse" color-interpolation-filters="sRGB">
<feFlood flood-opacity="0" result="BackgroundImageFix"/>
<feColorMatrix in="SourceAlpha" type="matrix" values="0 0 0 0 0 0 0 0 0 0 0 0 0 0 0 0 0 0 127 0" result="hardAlpha"/>
<feOffset dy="1.62885"/>
<feComposite in2="hardAlpha" operator="out"/>
<feColorMatrix type="matrix" values="0 0 0 0 0.223529 0 0 0 0 0.521569 0 0 0 0 0.929412 0 0 0 0.25 0"/>
<feBlend mode="normal" in2="BackgroundImageFix" result="effect1_dropShadow_445_2"/>
<feBlend mode="normal" in="SourceGraphic" in2="effect1_dropShadow_445_2" result="shape"/>
</filter>
<filter id="filter1_d_445_2" x="276.07" y="11.4961" width="46.5142" height="47.7487" filterUnits="userSpaceOnUse" color-interpolation-filters="sRGB">
<feFlood flood-opacity="0" result="BackgroundImageFix"/>
<feColorMatrix in="SourceAlpha" type="matrix" values="0 0 0 0 0 0 0 0 0 0 0 0 0 0 0 0 0 0 127 0" result="hardAlpha"/>
<feOffset dx="-2.1539"/>
<feGaussianBlur stdDeviation="2.1539"/>
<feComposite in2="hardAlpha" operator="out"/>
<feColorMatrix type="matrix" values="0 0 0 0 0 0 0 0 0 0 0 0 0 0 0 0 0 0 0.25 0"/>
<feBlend mode="normal" in2="BackgroundImageFix" result="effect1_dropShadow_445_2"/>
<feBlend mode="normal" in="SourceGraphic" in2="effect1_dropShadow_445_2" result="shape"/>
</filter>
<clipPath id="clip0_445_2">
<rect width="350" height="200" rx="11.2" fill="white"/>
</clipPath>
</defs>
</svg>
