<svg width="350" height="200" viewBox="0 0 350 200" fill="none" xmlns="http://www.w3.org/2000/svg">
<g clip-path="url(#clip0_445_46)">
<rect width="350" height="200" rx="11.2" fill="white"/>
<mask id="path-2-outside-1_445_46" maskUnits="userSpaceOnUse" x="-4.80005" y="133.796" width="359" height="69" fill="black">
<rect fill="white" x="-4.80005" y="133.796" width="359" height="69"/>
<path d="M-1.95088 198.096C-2.41685 196.853 -1.76959 195.47 -0.516538 195.031L2.00688 194.147C2.72646 193.895 3.52338 194.005 4.14786 194.442L8.67501 197.613C8.95906 197.812 9.28336 197.946 9.62497 198.006L13.4203 198.671C14.4038 198.843 15.3896 198.38 15.8847 197.513L19.5763 191.048C20.3185 189.748 22.0657 189.455 23.1919 190.441L25.7434 192.675C26.4799 193.32 27.5375 193.445 28.4042 192.99L32.3645 190.909C32.7279 190.718 33.0354 190.436 33.2569 190.09L39.648 180.116C40.0773 179.445 40.9781 179.268 41.63 179.724L46.0197 182.799C46.2593 182.967 46.4404 183.206 46.5373 183.482L52.3414 200L55.3397 199.288C56.1956 199.085 56.8683 198.424 57.0864 197.572L63.5059 172.494C63.8358 171.205 65.6088 171.06 66.1439 172.278L69.2344 179.314C69.7165 180.411 71.2652 180.435 71.7804 179.352L75.2671 172.025C75.753 171.004 77.1863 170.95 77.7471 171.932L80.9925 177.616C81.5629 178.615 83.0275 178.538 83.4901 177.485L87.3343 168.733C87.7711 167.738 89.1246 167.598 89.7556 168.482L94.1833 174.685C94.2462 174.774 94.3191 174.854 94.4005 174.925L99.1278 179.065C99.8038 179.657 100.757 179.815 101.588 179.473L105.92 177.692L111.111 175.293C111.76 174.993 112.51 175.002 113.152 175.318L122.5 179.93L129.611 180.026C129.867 180.029 130.12 180.074 130.361 180.158L134.089 181.464C135.167 181.842 136.361 181.396 136.928 180.404L141.903 171.691L146.657 165.031C147.344 164.068 148.637 163.76 149.685 164.311L152.532 165.807C153.317 166.219 154.266 166.158 154.992 165.65L157.436 163.938C158.647 163.089 160.331 163.546 160.947 164.89L165.24 174.256C165.38 174.56 165.582 174.831 165.833 175.051L169.579 178.331C170.58 179.207 172.106 179.087 172.958 178.064L178.924 170.898C179.198 170.569 179.557 170.32 179.961 170.178L184.41 168.62C184.979 168.421 185.451 168.012 185.729 167.476L189.468 160.274C190.282 158.704 192.468 158.55 193.496 159.989L196.336 163.968C196.865 164.71 197.774 165.082 198.671 164.925L201.516 164.427C202.5 164.254 203.486 164.718 203.981 165.585L206.43 169.873C207.453 171.665 210.119 171.382 210.742 169.415L213.63 160.314C214.22 158.454 216.68 158.066 217.814 159.654L220.873 163.94C220.967 164.073 221.048 164.215 221.114 164.364L225.807 175.049C226.408 176.417 228.11 176.893 229.333 176.036L232.379 173.902C232.734 173.654 233.014 173.312 233.188 172.916L237.2 163.783C237.938 162.101 240.227 161.864 241.294 163.359L244.264 167.52C244.625 168.026 245.171 168.37 245.783 168.477L249.222 169.079C250.165 169.244 251.116 168.824 251.629 168.015L254.136 164.065C255.192 162.4 257.702 162.681 258.364 164.538L261.057 172.082C261.72 173.939 264.229 174.219 265.286 172.554L268.338 167.744C268.537 167.43 268.659 167.075 268.695 166.706L269.738 156.049C269.93 154.089 272.29 153.206 273.721 154.559L278.181 158.776C279.349 159.88 281.255 159.524 281.946 158.073L284.362 152.995C285.219 151.194 287.781 151.194 288.638 152.995L290.468 156.842L294.32 164.262C295.204 165.964 297.639 165.964 298.523 164.262L301.083 159.33C301.758 158.029 303.442 157.648 304.611 158.531L307.129 160.433C307.861 160.985 308.846 161.066 309.657 160.64L313.764 158.482C314.103 158.304 314.481 158.21 314.865 158.21H318.811C319.687 158.21 320.491 157.727 320.902 156.953L325.067 149.111C325.684 147.95 327.13 147.514 328.286 148.14L335.751 152.185C336.704 152.701 337.886 152.504 338.62 151.707L342.952 147.003L351.563 138.796L350 198.958V200H344.047H338.094H332.14H326.187H320.234H314.281H308.328H302.375H296.421H290.468H284.515H278.562H272.609H266.656H260.702H254.749H248.796H242.843H236.89H230.937H224.983H219.03H213.077H207.124H201.171H195.217H189.264H183.311H177.358H171.405H165.452H159.498H153.545H147.592H141.639H135.686H129.733L123.779 200L117.826 200H111.873H105.92H99.9667H94.0136H88.0604H82.1072H76.1541H70.2009H64.2477H58.2945H52.3414H46.3882H40.435H34.4819H28.5287H22.5755H16.6223H10.6692H4.716H-1.23717L-1.95088 198.096Z"/>
</mask>
<path d="M-1.95088 198.096C-2.41685 196.853 -1.76959 195.47 -0.516538 195.031L2.00688 194.147C2.72646 193.895 3.52338 194.005 4.14786 194.442L8.67501 197.613C8.95906 197.812 9.28336 197.946 9.62497 198.006L13.4203 198.671C14.4038 198.843 15.3896 198.38 15.8847 197.513L19.5763 191.048C20.3185 189.748 22.0657 189.455 23.1919 190.441L25.7434 192.675C26.4799 193.32 27.5375 193.445 28.4042 192.99L32.3645 190.909C32.7279 190.718 33.0354 190.436 33.2569 190.09L39.648 180.116C40.0773 179.445 40.9781 179.268 41.63 179.724L46.0197 182.799C46.2593 182.967 46.4404 183.206 46.5373 183.482L52.3414 200L55.3397 199.288C56.1956 199.085 56.8683 198.424 57.0864 197.572L63.5059 172.494C63.8358 171.205 65.6088 171.06 66.1439 172.278L69.2344 179.314C69.7165 180.411 71.2652 180.435 71.7804 179.352L75.2671 172.025C75.753 171.004 77.1863 170.95 77.7471 171.932L80.9925 177.616C81.5629 178.615 83.0275 178.538 83.4901 177.485L87.3343 168.733C87.7711 167.738 89.1246 167.598 89.7556 168.482L94.1833 174.685C94.2462 174.774 94.3191 174.854 94.4005 174.925L99.1278 179.065C99.8038 179.657 100.757 179.815 101.588 179.473L105.92 177.692L111.111 175.293C111.76 174.993 112.51 175.002 113.152 175.318L122.5 179.93L129.611 180.026C129.867 180.029 130.12 180.074 130.361 180.158L134.089 181.464C135.167 181.842 136.361 181.396 136.928 180.404L141.903 171.691L146.657 165.031C147.344 164.068 148.637 163.76 149.685 164.311L152.532 165.807C153.317 166.219 154.266 166.158 154.992 165.65L157.436 163.938C158.647 163.089 160.331 163.546 160.947 164.89L165.24 174.256C165.38 174.56 165.582 174.831 165.833 175.051L169.579 178.331C170.58 179.207 172.106 179.087 172.958 178.064L178.924 170.898C179.198 170.569 179.557 170.32 179.961 170.178L184.41 168.62C184.979 168.421 185.451 168.012 185.729 167.476L189.468 160.274C190.282 158.704 192.468 158.55 193.496 159.989L196.336 163.968C196.865 164.71 197.774 165.082 198.671 164.925L201.516 164.427C202.5 164.254 203.486 164.718 203.981 165.585L206.43 169.873C207.453 171.665 210.119 171.382 210.742 169.415L213.63 160.314C214.22 158.454 216.68 158.066 217.814 159.654L220.873 163.94C220.967 164.073 221.048 164.215 221.114 164.364L225.807 175.049C226.408 176.417 228.11 176.893 229.333 176.036L232.379 173.902C232.734 173.654 233.014 173.312 233.188 172.916L237.2 163.783C237.938 162.101 240.227 161.864 241.294 163.359L244.264 167.52C244.625 168.026 245.171 168.37 245.783 168.477L249.222 169.079C250.165 169.244 251.116 168.824 251.629 168.015L254.136 164.065C255.192 162.4 257.702 162.681 258.364 164.538L261.057 172.082C261.72 173.939 264.229 174.219 265.286 172.554L268.338 167.744C268.537 167.43 268.659 167.075 268.695 166.706L269.738 156.049C269.93 154.089 272.29 153.206 273.721 154.559L278.181 158.776C279.349 159.88 281.255 159.524 281.946 158.073L284.362 152.995C285.219 151.194 287.781 151.194 288.638 152.995L290.468 156.842L294.32 164.262C295.204 165.964 297.639 165.964 298.523 164.262L301.083 159.33C301.758 158.029 303.442 157.648 304.611 158.531L307.129 160.433C307.861 160.985 308.846 161.066 309.657 160.64L313.764 158.482C314.103 158.304 314.481 158.21 314.865 158.21H318.811C319.687 158.21 320.491 157.727 320.902 156.953L325.067 149.111C325.684 147.95 327.13 147.514 328.286 148.14L335.751 152.185C336.704 152.701 337.886 152.504 338.62 151.707L342.952 147.003L351.563 138.796L350 198.958V200H344.047H338.094H332.14H326.187H320.234H314.281H308.328H302.375H296.421H290.468H284.515H278.562H272.609H266.656H260.702H254.749H248.796H242.843H236.89H230.937H224.983H219.03H213.077H207.124H201.171H195.217H189.264H183.311H177.358H171.405H165.452H159.498H153.545H147.592H141.639H135.686H129.733L123.779 200L117.826 200H111.873H105.92H99.9667H94.0136H88.0604H82.1072H76.1541H70.2009H64.2477H58.2945H52.3414H46.3882H40.435H34.4819H28.5287H22.5755H16.6223H10.6692H4.716H-1.23717L-1.95088 198.096Z" fill="#3985ED" fill-opacity="0.25"/>
<path d="M121.502 179.993L122.781 200.064L124.777 199.937L123.498 179.866L121.502 179.993ZM105.92 177.692L106.68 179.542L106.72 179.526L106.759 179.508L105.92 177.692ZM122.5 179.93L121.615 181.723L122.021 181.923L122.473 181.929L122.5 179.93ZM123.779 200L123.779 198L123.779 198L123.779 200ZM141.903 171.691L140.275 170.529L140.217 170.611L140.167 170.699L141.903 171.691ZM290.468 156.842L288.662 157.701L288.677 157.733L288.693 157.764L290.468 156.842ZM342.952 147.003L341.572 145.556L341.525 145.601L341.48 145.649L342.952 147.003ZM351.563 138.796L353.562 138.848L353.688 134.008L350.183 137.348L351.563 138.796ZM350 198.958L348.001 198.906L348 198.932V198.958H350ZM350 200V202H352V200H350ZM129.733 200L129.733 202H129.733V200ZM117.826 200L117.826 202L117.826 202L117.826 200ZM-1.23717 200L-3.10995 200.702L-2.62342 202H-1.23717V200ZM335.751 152.185L334.798 153.943L335.751 152.185ZM338.62 151.707L337.149 150.352L338.62 151.707ZM325.067 149.111L326.834 150.05L325.067 149.111ZM328.286 148.14L329.239 146.382L328.286 148.14ZM313.764 158.482L314.694 160.253L313.764 158.482ZM269.738 156.049L267.747 155.854L269.738 156.049ZM273.721 154.559L275.095 153.105L273.721 154.559ZM268.338 167.744L266.649 166.672L268.338 167.744ZM268.695 166.706L266.705 166.511L268.695 166.706ZM261.057 172.082L262.941 171.409L261.057 172.082ZM265.286 172.554L266.975 173.626L265.286 172.554ZM254.136 164.065L252.447 162.994L254.136 164.065ZM258.364 164.538L260.248 163.865L258.364 164.538ZM251.629 168.015L249.94 166.944L251.629 168.015ZM244.264 167.52L242.637 168.682L244.264 167.52ZM245.783 168.477L246.128 166.507L245.783 168.477ZM237.2 163.783L239.031 164.587L237.2 163.783ZM241.294 163.359L242.922 162.197L241.294 163.359ZM232.379 173.902L231.231 172.264L232.379 173.902ZM233.188 172.916L235.019 173.72L233.188 172.916ZM225.807 175.049L223.976 175.853L225.807 175.049ZM229.333 176.036L230.481 177.674L229.333 176.036ZM220.873 163.94L219.245 165.102L220.873 163.94ZM221.114 164.364L222.945 163.559L221.114 164.364ZM213.63 160.314L215.536 160.919L213.63 160.314ZM217.814 159.654L216.186 160.816L217.814 159.654ZM206.43 169.873L208.167 168.882L206.43 169.873ZM210.742 169.415L212.649 170.02L210.742 169.415ZM201.516 164.427L201.171 162.457L201.516 164.427ZM203.981 165.585L202.244 166.576L203.981 165.585ZM196.336 163.968L194.708 165.13L196.336 163.968ZM189.468 160.274L187.693 159.353L189.468 160.274ZM193.496 159.989L191.868 161.151L193.496 159.989ZM184.41 168.62L183.749 166.732L184.41 168.62ZM185.729 167.476L187.504 168.398L185.729 167.476ZM178.924 170.898L177.387 169.618L178.924 170.898ZM179.961 170.178L179.3 168.291L179.961 170.178ZM169.579 178.331L170.896 176.826L169.579 178.331ZM172.958 178.064L174.495 179.344L172.958 178.064ZM165.24 174.256L167.058 173.423L165.24 174.256ZM165.833 175.051L167.15 173.546L165.833 175.051ZM130.361 180.158L131.023 178.271L130.361 180.158ZM129.611 180.026L129.638 178.026L129.611 180.026ZM111.111 175.293L110.272 173.477L111.111 175.293ZM113.152 175.318L114.036 173.525L113.152 175.318ZM99.1278 179.065L97.8103 180.569L99.1278 179.065ZM101.588 179.473L102.348 181.323L101.588 179.473ZM94.1833 174.685L95.8112 173.524L94.1833 174.685ZM94.4005 174.925L93.083 176.43L94.4005 174.925ZM87.3343 168.733L89.1655 169.537L87.3343 168.733ZM89.7556 168.482L88.1278 169.644L89.7556 168.482ZM80.9925 177.616L79.2557 178.607L80.9925 177.616ZM83.4901 177.485L85.3212 178.289L83.4901 177.485ZM75.2671 172.025L73.4612 171.165L75.2671 172.025ZM77.7471 171.932L76.0103 172.924L77.7471 171.932ZM71.7804 179.352L73.5863 180.212L71.7804 179.352ZM55.3397 199.288L55.8017 201.234L55.3397 199.288ZM57.0864 197.572L55.1489 197.076L57.0864 197.572ZM46.0197 182.799L44.8723 184.437L46.0197 182.799ZM46.5373 183.482L44.6504 184.145L46.5373 183.482ZM39.648 180.116L41.332 181.194L39.648 180.116ZM41.63 179.724L42.7774 178.086L41.63 179.724ZM32.3645 190.909L33.2947 192.68L32.3645 190.909ZM307.129 160.433L308.335 158.837L307.129 160.433ZM309.657 160.64L308.727 158.869L309.657 160.64ZM28.4042 192.99L29.3344 194.76L28.4042 192.99ZM157.436 163.938L156.289 162.3L157.436 163.938ZM160.947 164.89L162.765 164.057L160.947 164.89ZM301.083 159.33L302.858 160.251L301.083 159.33ZM304.611 158.531L305.817 156.935L304.611 158.531ZM19.5763 191.048L21.313 192.04L19.5763 191.048ZM23.1919 190.441L24.5095 188.936L23.1919 190.441ZM152.532 165.807L151.602 167.577L152.532 165.807ZM154.992 165.65L156.139 167.288L154.992 165.65ZM294.32 164.262L292.545 165.183L294.32 164.262ZM298.523 164.262L296.748 163.341L298.523 164.262ZM13.4203 198.671L13.0753 200.641L13.4203 198.671ZM15.8847 197.513L14.1479 196.521L15.8847 197.513ZM146.657 165.031L148.284 166.193L146.657 165.031ZM149.685 164.311L148.755 166.081L149.685 164.311ZM9.62497 198.006L9.27998 199.976L9.62497 198.006ZM284.362 152.995L286.168 153.854L284.362 152.995ZM288.638 152.995L286.832 153.854L288.638 152.995ZM2.00688 194.147L1.34576 192.259L2.00688 194.147ZM4.14786 194.442L3.0004 196.08L4.14786 194.442ZM63.5059 172.494L65.4434 172.99L63.5059 172.494ZM66.1439 172.278L67.9751 171.474L66.1439 172.278ZM134.089 181.464L134.75 179.576L134.089 181.464ZM136.928 180.404L135.191 179.412L136.928 180.404ZM278.181 158.776L279.555 157.322L278.181 158.776ZM281.946 158.073L283.752 158.932L281.946 158.073ZM-1.95088 198.096L-0.0781047 197.394L-1.95088 198.096ZM0.144583 196.918L2.668 196.034L1.34576 192.259L-1.17766 193.143L0.144583 196.918ZM3.0004 196.08L7.52756 199.251L9.82247 195.975L5.29532 192.804L3.0004 196.08ZM9.27998 199.976L13.0753 200.641L13.7653 196.701L9.96996 196.036L9.27998 199.976ZM17.6214 198.505L21.313 192.04L17.8395 190.056L14.1479 196.521L17.6214 198.505ZM21.8744 191.946L24.4258 194.18L27.0609 191.17L24.5095 188.936L21.8744 191.946ZM29.3344 194.76L33.2947 192.68L31.4343 189.139L27.474 191.219L29.3344 194.76ZM34.9409 191.169L41.332 181.194L37.964 179.037L31.5729 189.011L34.9409 191.169ZM40.4825 181.362L44.8723 184.437L47.1672 181.161L42.7774 178.086L40.4825 181.362ZM44.6504 184.145L50.4545 200.663L54.2283 199.337L48.4243 182.819L44.6504 184.145ZM52.8034 201.946L55.8017 201.234L54.8777 197.343L51.8794 198.054L52.8034 201.946ZM59.024 198.068L65.4434 172.99L61.5684 171.998L55.1489 197.076L59.024 198.068ZM64.3128 173.082L67.4033 180.118L71.0655 178.509L67.9751 171.474L64.3128 173.082ZM73.5863 180.212L77.0731 172.884L73.4612 171.165L69.9744 178.493L73.5863 180.212ZM76.0103 172.924L79.2557 178.607L82.7293 176.624L79.4838 170.94L76.0103 172.924ZM85.3212 178.289L89.1655 169.537L85.5032 167.928L81.6589 176.68L85.3212 178.289ZM88.1278 169.644L92.5555 175.847L95.8112 173.524L91.3835 167.32L88.1278 169.644ZM93.083 176.43L97.8103 180.569L100.445 177.56L95.7181 173.421L93.083 176.43ZM102.348 181.323L106.68 179.542L105.16 175.843L100.827 177.623L102.348 181.323ZM106.759 179.508L111.95 177.108L110.272 173.477L105.081 175.877L106.759 179.508ZM112.267 177.112L121.615 181.723L123.385 178.136L114.036 173.525L112.267 177.112ZM129.7 182.046L133.428 183.352L134.75 179.576L131.023 178.271L129.7 182.046ZM138.665 181.395L143.64 172.682L140.167 170.699L135.191 179.412L138.665 181.395ZM143.531 172.852L148.284 166.193L145.029 163.869L140.275 170.529L143.531 172.852ZM148.755 166.081L151.602 167.577L153.462 164.036L150.615 162.54L148.755 166.081ZM156.139 167.288L158.584 165.576L156.289 162.3L153.844 164.012L156.139 167.288ZM159.129 165.724L163.422 175.09L167.058 173.423L162.765 164.057L159.129 165.724ZM164.515 176.556L168.261 179.835L170.896 176.826L167.15 173.546L164.515 176.556ZM174.495 179.344L180.461 172.178L177.387 169.618L171.421 176.785L174.495 179.344ZM180.622 172.066L185.071 170.508L183.749 166.732L179.3 168.291L180.622 172.066ZM187.504 168.398L191.243 161.196L187.693 159.353L183.954 166.555L187.504 168.398ZM191.868 161.151L194.708 165.13L197.964 162.806L195.124 158.827L191.868 161.151ZM199.016 166.895L201.861 166.397L201.171 162.457L198.326 162.955L199.016 166.895ZM202.244 166.576L204.693 170.865L208.167 168.882L205.718 164.593L202.244 166.576ZM212.649 170.02L215.536 160.919L211.723 159.709L208.836 168.81L212.649 170.02ZM216.186 160.816L219.245 165.102L222.501 162.778L219.441 158.492L216.186 160.816ZM219.282 165.168L223.976 175.853L227.638 174.245L222.945 163.559L219.282 165.168ZM230.481 177.674L233.526 175.541L231.231 172.264L228.186 174.398L230.481 177.674ZM235.019 173.72L239.031 164.587L235.368 162.978L231.357 172.111L235.019 173.72ZM239.666 164.521L242.637 168.682L245.892 166.358L242.922 162.197L239.666 164.521ZM245.438 170.447L248.877 171.049L249.567 167.109L246.128 166.507L245.438 170.447ZM253.318 169.087L255.824 165.137L252.447 162.994L249.94 166.944L253.318 169.087ZM256.481 165.21L259.173 172.754L262.941 171.409L260.248 163.865L256.481 165.21ZM266.975 173.626L270.027 168.815L266.649 166.672L263.597 171.483L266.975 173.626ZM270.686 166.9L271.728 156.243L267.747 155.854L266.705 166.511L270.686 166.9ZM272.347 156.012L276.807 160.229L279.555 157.322L275.095 153.105L272.347 156.012ZM283.752 158.932L286.168 153.854L282.556 152.135L280.14 157.213L283.752 158.932ZM286.832 153.854L288.662 157.701L292.274 155.983L290.444 152.136L286.832 153.854ZM288.693 157.764L292.545 165.183L296.095 163.341L292.243 155.921L288.693 157.764ZM300.298 165.184L302.858 160.251L299.308 158.408L296.748 163.341L300.298 165.184ZM303.406 160.127L305.924 162.029L308.335 158.837L305.817 156.935L303.406 160.127ZM310.587 162.41L314.694 160.253L312.834 156.712L308.727 158.869L310.587 162.41ZM314.865 160.21H318.811V156.21H314.865V160.21ZM322.668 157.892L326.834 150.05L323.301 148.173L319.135 156.015L322.668 157.892ZM327.333 149.899L334.798 153.943L336.704 150.426L329.239 146.382L327.333 149.899ZM340.092 153.062L344.423 148.358L341.48 145.649L337.149 150.352L340.092 153.062ZM344.332 148.451L352.943 140.244L350.183 137.348L341.572 145.556L344.332 148.451ZM349.563 138.744L348.001 198.906L351.999 199.01L353.562 138.848L349.563 138.744ZM348 198.958V200H352V198.958H348ZM350 198H344.047V202H350V198ZM344.047 198H338.094V202H344.047V198ZM338.094 198H332.14V202H338.094V198ZM332.14 198H326.187V202H332.14V198ZM326.187 198H320.234V202H326.187V198ZM320.234 198H314.281V202H320.234V198ZM314.281 198H308.328V202H314.281V198ZM308.328 198H302.375V202H308.328V198ZM302.375 198H296.421V202H302.375V198ZM296.421 198H290.468V202H296.421V198ZM290.468 198H284.515V202H290.468V198ZM284.515 198H278.562V202H284.515V198ZM278.562 198H272.609V202H278.562V198ZM272.609 198H266.656V202H272.609V198ZM266.656 198H260.702V202H266.656V198ZM260.702 198H254.749V202H260.702V198ZM254.749 198H248.796V202H254.749V198ZM248.796 198H242.843V202H248.796V198ZM242.843 198H236.89V202H242.843V198ZM236.89 198H230.937V202H236.89V198ZM230.937 198H224.983V202H230.937V198ZM224.983 198H219.03V202H224.983V198ZM219.03 198H213.077V202H219.03V198ZM213.077 198H207.124V202H213.077V198ZM207.124 198H201.171V202H207.124V198ZM201.171 198H195.217V202H201.171V198ZM195.217 198H189.264V202H195.217V198ZM189.264 198H183.311V202H189.264V198ZM183.311 198H177.358V202H183.311V198ZM177.358 198H171.405V202H177.358V198ZM171.405 198H165.452V202H171.405V198ZM165.452 198H159.498V202H165.452V198ZM159.498 198H153.545V202H159.498V198ZM153.545 198H147.592V202H153.545V198ZM147.592 198H141.639V202H147.592V198ZM141.639 198H135.686V202H141.639V198ZM135.686 198H129.733V202H135.686V198ZM129.733 198L123.779 198L123.779 202L129.733 202L129.733 198ZM123.779 198L117.826 198L117.826 202L123.779 202L123.779 198ZM117.826 198H111.873V202H117.826V198ZM111.873 198H105.92V202H111.873V198ZM105.92 198H99.9667V202H105.92V198ZM99.9667 198H94.0136V202H99.9667V198ZM94.0136 198H88.0604V202H94.0136V198ZM88.0604 198H82.1072V202H88.0604V198ZM82.1072 198H76.1541V202H82.1072V198ZM76.1541 198H70.2009V202H76.1541V198ZM70.2009 198H64.2477V202H70.2009V198ZM64.2477 198H58.2945V202H64.2477V198ZM58.2945 198H52.3414V202H58.2945V198ZM52.3414 198H46.3882V202H52.3414V198ZM46.3882 198H40.435V202H46.3882V198ZM40.435 198H34.4819V202H40.435V198ZM34.4819 198H28.5287V202H34.4819V198ZM28.5287 198H22.5755V202H28.5287V198ZM22.5755 198H16.6223V202H22.5755V198ZM16.6223 198H10.6692V202H16.6223V198ZM10.6692 198H4.716V202H10.6692V198ZM4.716 198H-1.23717V202H4.716V198ZM0.63561 199.298L-0.0781047 197.394L-3.82366 198.798L-3.10995 200.702L0.63561 199.298ZM122.473 181.929L129.584 182.025L129.638 178.026L122.527 177.93L122.473 181.929ZM334.798 153.943C336.557 154.896 338.737 154.533 340.092 153.062L337.149 150.352C337.035 150.476 336.852 150.507 336.704 150.426L334.798 153.943ZM326.834 150.05C326.929 149.869 327.154 149.802 327.333 149.899L329.239 146.382C327.106 145.226 324.439 146.031 323.301 148.173L326.834 150.05ZM318.811 160.21C320.426 160.21 321.91 159.319 322.668 157.892L319.135 156.015C319.072 156.135 318.947 156.21 318.811 156.21V160.21ZM314.694 160.253C314.747 160.225 314.805 160.21 314.865 160.21V156.21C314.157 156.21 313.46 156.382 312.834 156.712L314.694 160.253ZM271.728 156.243C271.758 155.939 272.125 155.802 272.347 156.012L275.095 153.105C272.455 150.61 268.101 152.239 267.747 155.854L271.728 156.243ZM270.027 168.815C270.394 168.237 270.619 167.581 270.686 166.9L266.705 166.511C266.699 166.568 266.68 166.623 266.649 166.672L270.027 168.815ZM259.173 172.754C260.396 176.18 265.026 176.697 266.975 173.626L263.597 171.483C263.433 171.741 263.043 171.698 262.941 171.409L259.173 172.754ZM255.824 165.137C255.988 164.878 256.378 164.922 256.481 165.21L260.248 163.865C259.025 160.439 254.396 159.922 252.447 162.994L255.824 165.137ZM248.877 171.049C250.618 171.354 252.371 170.579 253.318 169.087L249.94 166.944C249.861 167.07 249.713 167.135 249.567 167.109L248.877 171.049ZM242.637 168.682C243.303 169.615 244.309 170.249 245.438 170.447L246.128 166.507C246.033 166.49 245.948 166.437 245.892 166.358L242.637 168.682ZM239.031 164.587C239.145 164.326 239.501 164.289 239.666 164.521L242.922 162.197C240.954 159.44 236.731 159.876 235.368 162.978L239.031 164.587ZM233.526 175.541C234.181 175.082 234.698 174.452 235.019 173.72L231.357 172.111C231.33 172.173 231.286 172.226 231.231 172.264L233.526 175.541ZM223.976 175.853C225.084 178.376 228.224 179.255 230.481 177.674L228.186 174.398C227.996 174.531 227.731 174.457 227.638 174.245L223.976 175.853ZM219.245 165.102C219.26 165.123 219.272 165.145 219.282 165.168L222.945 163.559C222.824 163.284 222.675 163.023 222.501 162.778L219.245 165.102ZM215.536 160.919C215.628 160.63 216.01 160.57 216.186 160.816L219.441 158.492C217.35 155.563 212.812 156.278 211.723 159.709L215.536 160.919ZM204.693 170.865C206.58 174.17 211.498 173.648 212.649 170.02L208.836 168.81C208.804 168.911 208.76 168.96 208.721 168.99C208.675 169.026 208.607 169.056 208.525 169.065C208.442 169.074 208.369 169.058 208.317 169.033C208.273 169.012 208.219 168.973 208.167 168.882L204.693 170.865ZM201.861 166.397C202.014 166.37 202.167 166.442 202.244 166.576L205.718 164.593C204.804 162.993 202.986 162.139 201.171 162.457L201.861 166.397ZM194.708 165.13C195.685 166.499 197.36 167.185 199.016 166.895L198.326 162.955C198.187 162.979 198.046 162.921 197.964 162.806L194.708 165.13ZM191.243 161.196C191.369 160.952 191.709 160.928 191.868 161.151L195.124 158.827C193.228 156.172 189.196 156.457 187.693 159.353L191.243 161.196ZM185.071 170.508C186.121 170.14 186.991 169.385 187.504 168.398L183.954 166.555C183.91 166.638 183.837 166.702 183.749 166.732L185.071 170.508ZM180.461 172.178C180.504 172.126 180.559 172.088 180.622 172.066L179.3 168.291C178.554 168.552 177.893 169.011 177.387 169.618L180.461 172.178ZM168.261 179.835C170.108 181.452 172.924 181.23 174.495 179.344L171.421 176.785C171.289 176.943 171.052 176.962 170.896 176.826L168.261 179.835ZM163.422 175.09C163.679 175.65 164.052 176.149 164.515 176.556L167.15 173.546C167.111 173.512 167.08 173.47 167.058 173.423L163.422 175.09ZM131.023 178.271C130.577 178.115 130.11 178.032 129.638 178.026L129.584 182.025C129.624 182.026 129.663 182.033 129.7 182.046L131.023 178.271ZM111.95 177.108C112.051 177.062 112.167 177.063 112.267 177.112L114.036 173.525C112.853 172.941 111.469 172.924 110.272 173.477L111.95 177.108ZM97.8103 180.569C99.0573 181.661 100.815 181.953 102.348 181.323L100.827 177.623C100.698 177.676 100.55 177.652 100.445 177.56L97.8103 180.569ZM92.5555 175.847C92.7082 176.061 92.8852 176.257 93.083 176.43L95.7181 173.421C95.753 173.451 95.7842 173.486 95.8112 173.524L92.5555 175.847ZM89.1655 169.537C88.9783 169.963 88.3982 170.023 88.1278 169.644L91.3835 167.32C89.8511 165.174 86.564 165.514 85.5032 167.928L89.1655 169.537ZM79.2557 178.607C80.6409 181.033 84.1978 180.846 85.3212 178.289L81.6589 176.68C81.8572 176.229 82.4849 176.196 82.7293 176.624L79.2557 178.607ZM77.0731 172.884C76.8649 173.322 76.2506 173.345 76.0103 172.924L79.4838 170.94C78.1221 168.556 74.6412 168.686 73.4612 171.165L77.0731 172.884ZM67.4033 180.118C68.5741 182.784 72.3353 182.841 73.5863 180.212L69.9744 178.493C70.1952 178.029 70.8589 178.039 71.0655 178.509L67.4033 180.118ZM55.8017 201.234C57.3806 200.859 58.6215 199.64 59.024 198.068L55.1489 197.076C55.115 197.208 55.0106 197.311 54.8777 197.343L55.8017 201.234ZM44.8723 184.437C44.7696 184.365 44.692 184.263 44.6504 184.145L48.4243 182.819C48.1887 182.148 47.7491 181.569 47.1672 181.161L44.8723 184.437ZM41.332 181.194C41.148 181.482 40.7619 181.558 40.4825 181.362L42.7774 178.086C41.1944 176.977 39.0066 177.409 37.964 179.037L41.332 181.194ZM33.2947 192.68C33.9651 192.327 34.5323 191.807 34.9409 191.169L31.5729 189.011C31.5385 189.065 31.4908 189.109 31.4343 189.139L33.2947 192.68ZM305.924 162.029C307.273 163.048 309.09 163.197 310.587 162.41L308.727 158.869C308.601 158.935 308.448 158.923 308.335 158.837L305.924 162.029ZM24.4258 194.18C25.7846 195.369 27.7356 195.6 29.3344 194.76L27.474 191.219C27.3395 191.29 27.1753 191.27 27.0609 191.17L24.4258 194.18ZM158.584 165.576C158.772 165.444 159.033 165.515 159.129 165.724L162.765 164.057C161.628 161.577 158.523 160.735 156.289 162.3L158.584 165.576ZM302.858 160.251C302.963 160.049 303.224 159.99 303.406 160.127L305.817 156.935C303.659 155.306 300.554 156.008 299.308 158.408L302.858 160.251ZM21.313 192.04C21.4283 191.838 21.6995 191.792 21.8744 191.946L24.5095 188.936C22.4319 187.117 19.2088 187.658 17.8395 190.056L21.313 192.04ZM151.602 167.577C153.049 168.338 154.8 168.226 156.139 167.288L153.844 164.012C153.731 164.091 153.584 164.1 153.462 164.036L151.602 167.577ZM292.545 165.183C294.175 168.324 298.667 168.324 300.298 165.184L296.748 163.341C296.61 163.605 296.232 163.605 296.095 163.341L292.545 165.183ZM13.0753 200.641C14.8895 200.959 16.7081 200.104 17.6214 198.505L14.1479 196.521C14.071 196.656 13.918 196.728 13.7653 196.701L13.0753 200.641ZM148.284 166.193C148.391 166.044 148.592 165.996 148.755 166.081L150.615 162.54C148.682 161.525 146.297 162.093 145.029 163.869L148.284 166.193ZM7.52756 199.251C8.05156 199.619 8.6498 199.866 9.27998 199.976L9.96996 196.036C9.91692 196.027 9.86657 196.006 9.82247 195.975L7.52756 199.251ZM286.168 153.854C286.301 153.575 286.699 153.575 286.832 153.854L290.444 152.136C288.864 148.814 284.136 148.814 282.556 152.135L286.168 153.854ZM2.668 196.034C2.77972 195.995 2.90345 196.012 3.0004 196.08L5.29532 192.804C4.14332 191.997 2.6732 191.794 1.34576 192.259L2.668 196.034ZM65.4434 172.99C65.302 173.542 64.5422 173.604 64.3128 173.082L67.9751 171.474C66.6755 168.515 62.3697 168.867 61.5684 171.998L65.4434 172.99ZM133.428 183.352C135.417 184.048 137.62 183.225 138.665 181.395L135.191 179.412C135.103 179.566 134.918 179.635 134.75 179.576L133.428 183.352ZM276.807 160.229C278.962 162.266 282.477 161.61 283.752 158.932L280.14 157.213C280.032 157.438 279.737 157.494 279.555 157.322L276.807 160.229ZM-1.17766 193.143C-3.48922 193.953 -4.68326 196.505 -3.82366 198.798L-0.0781047 197.394C-0.150449 197.201 -0.0499571 196.986 0.144583 196.918L-1.17766 193.143Z" fill="#3985ED" mask="url(#path-2-outside-1_445_46)"/>
<rect x="19" y="22" width="129" height="32" rx="6.44002" fill="#E3E3E3"/>
<path d="M23.7861 39.9753L25.3499 39.8386C25.4239 40.4652 25.5948 40.9808 25.8626 41.3852C26.136 41.784 26.5575 42.1087 27.1272 42.3594C27.6969 42.6043 28.3377 42.7268 29.0498 42.7268C29.6821 42.7268 30.2404 42.6328 30.7246 42.4448C31.2088 42.2568 31.5677 42.0005 31.8013 41.6758C32.0406 41.3454 32.1602 40.9865 32.1602 40.5991C32.1602 40.206 32.0462 39.8642 31.8184 39.5737C31.5905 39.2775 31.2145 39.0297 30.6904 38.8303C30.3543 38.6993 29.6109 38.4971 28.4602 38.2236C27.3095 37.9445 26.5034 37.6824 26.042 37.4375C25.4439 37.1242 24.9967 36.7368 24.7004 36.2754C24.4099 35.8082 24.2647 35.287 24.2647 34.7116C24.2647 34.0793 24.4441 33.4897 24.803 32.9428C25.1619 32.3903 25.686 31.9716 26.3753 31.6867C27.0645 31.4019 27.8307 31.2595 28.6738 31.2595C29.6024 31.2595 30.4199 31.4104 31.1262 31.7124C31.8383 32.0086 32.3852 32.4472 32.7669 33.0283C33.1485 33.6093 33.3536 34.2673 33.3821 35.0022L31.7927 35.1218C31.7073 34.33 31.4168 33.7318 30.9212 33.3274C30.4313 32.9229 29.7049 32.7207 28.7422 32.7207C27.7396 32.7207 27.0076 32.9058 26.5462 33.2761C26.0904 33.6407 25.8626 34.0822 25.8626 34.6006C25.8626 35.0506 26.0249 35.4209 26.3496 35.7114C26.6686 36.0019 27.5003 36.301 28.8447 36.6086C30.1948 36.9105 31.1205 37.1754 31.6218 37.4033C32.351 37.7394 32.8893 38.1667 33.2368 38.685C33.5843 39.1977 33.7581 39.7902 33.7581 40.4624C33.7581 41.1289 33.5672 41.7584 33.1856 42.3508C32.8039 42.9376 32.2542 43.3962 31.5364 43.7266C30.8243 44.0513 30.0211 44.2136 29.1267 44.2136C27.9931 44.2136 27.0418 44.0484 26.2727 43.718C25.5094 43.3876 24.9084 42.892 24.4697 42.2312C24.0368 41.5647 23.8089 40.8127 23.7861 39.9753ZM35.826 44V31.4731H37.3641V35.9678C38.0818 35.136 38.9876 34.7202 40.0813 34.7202C40.7535 34.7202 41.3375 34.8541 41.8331 35.1218C42.3287 35.3838 42.6819 35.7484 42.8926 36.2156C43.1091 36.6827 43.2173 37.3606 43.2173 38.2493V44H41.6792V38.2493C41.6792 37.4802 41.5112 36.9219 41.1751 36.5744C40.8447 36.2213 40.3747 36.0447 39.7652 36.0447C39.3095 36.0447 38.8794 36.1643 38.4749 36.4035C38.0761 36.6371 37.7913 36.9561 37.6204 37.3606C37.4495 37.765 37.3641 38.3233 37.3641 39.0354V44H35.826ZM51.4888 42.8806C50.9192 43.3648 50.3695 43.7066 49.8397 43.906C49.3156 44.1054 48.7516 44.2051 48.1478 44.2051C47.1509 44.2051 46.3847 43.963 45.8492 43.4788C45.3137 42.9888 45.046 42.3651 45.046 41.6074C45.046 41.1631 45.1456 40.7586 45.345 40.394C45.5501 40.0238 45.815 39.7275 46.1397 39.5054C46.4701 39.2832 46.8404 39.1151 47.2506 39.0012C47.5525 38.9215 48.0082 38.8446 48.6177 38.7705C49.8596 38.6224 50.7739 38.4458 51.3607 38.2407C51.3664 38.0299 51.3692 37.8961 51.3692 37.8391C51.3692 37.2125 51.224 36.771 50.9334 36.5146C50.5404 36.1671 49.9565 35.9934 49.1817 35.9934C48.4582 35.9934 47.9228 36.1216 47.5753 36.3779C47.2335 36.6286 46.98 37.0757 46.8148 37.7195L45.3109 37.5144C45.4476 36.8707 45.6726 36.3523 45.9859 35.9592C46.2992 35.5604 46.7521 35.2557 47.3445 35.0449C47.937 34.8284 48.6234 34.7202 49.4039 34.7202C50.1786 34.7202 50.8081 34.8113 51.2923 34.9936C51.7765 35.1759 52.1326 35.4066 52.3604 35.6858C52.5883 35.9592 52.7478 36.3067 52.8389 36.7283C52.8902 36.9903 52.9159 37.4631 52.9159 38.1467V40.1975C52.9159 41.6274 52.9472 42.5331 53.0098 42.9148C53.0782 43.2908 53.2092 43.6525 53.4029 44H51.7965C51.637 43.681 51.5344 43.3079 51.4888 42.8806ZM51.3607 39.4455C50.8024 39.6734 49.965 39.8671 48.8485 40.0266C48.2161 40.1177 47.7689 40.2203 47.5069 40.3342C47.2449 40.4482 47.0426 40.6162 46.9002 40.8384C46.7578 41.0548 46.6866 41.2969 46.6866 41.5647C46.6866 41.9748 46.8404 42.3166 47.148 42.5901C47.4613 42.8635 47.9171 43.0002 48.5152 43.0002C49.1077 43.0002 49.6346 42.8721 50.096 42.6157C50.5574 42.3537 50.8964 41.9976 51.1129 41.5476C51.2781 41.2001 51.3607 40.6874 51.3607 40.0095V39.4455ZM57.8292 44L54.377 34.9253H56.0006L57.9488 40.3599C58.1596 40.9466 58.3533 41.5561 58.5299 42.1885C58.6666 41.71 58.8574 41.1346 59.1024 40.4624L61.119 34.9253H62.6998L59.2647 44H57.8292ZM64.067 33.2419V31.4731H65.6051V33.2419H64.067ZM64.067 44V34.9253H65.6051V44H64.067ZM67.955 44V34.9253H69.3392V36.2156C70.0057 35.2186 70.9685 34.7202 72.2274 34.7202C72.7743 34.7202 73.2756 34.8199 73.7313 35.0193C74.1928 35.2129 74.5374 35.4693 74.7653 35.7883C74.9931 36.1073 75.1526 36.4861 75.2438 36.9248C75.3008 37.2096 75.3292 37.7081 75.3292 38.4202V44H73.7911V38.48C73.7911 37.8533 73.7313 37.3862 73.6117 37.0786C73.4921 36.7653 73.2785 36.5175 72.9708 36.3352C72.6689 36.1472 72.3129 36.0532 71.9027 36.0532C71.2476 36.0532 70.6808 36.2611 70.2023 36.677C69.7295 37.0928 69.493 37.8818 69.493 39.0439V44H67.955ZM77.4142 44.752L78.9096 44.9741C78.9722 45.4356 79.146 45.7717 79.4308 45.9824C79.8125 46.2673 80.3337 46.4097 80.9945 46.4097C81.7066 46.4097 82.2563 46.2673 82.6437 45.9824C83.0311 45.6976 83.2931 45.2988 83.4298 44.7861C83.5096 44.4728 83.5466 43.8149 83.5409 42.8123C82.8687 43.6041 82.0313 44 81.0287 44C79.7812 44 78.8156 43.55 78.132 42.6499C77.4484 41.7498 77.1066 40.6703 77.1066 39.4114C77.1066 38.5455 77.2632 37.7479 77.5766 37.0188C77.8899 36.2839 78.3428 35.7171 78.9352 35.3183C79.5334 34.9196 80.234 34.7202 81.0373 34.7202C82.1082 34.7202 82.9912 35.1531 83.6862 36.019V34.9253H85.1047V42.7695C85.1047 44.1823 84.9594 45.1821 84.6689 45.7688C84.384 46.3613 83.9283 46.8284 83.3017 47.1702C82.6807 47.512 81.9145 47.6829 81.0031 47.6829C79.9207 47.6829 79.0463 47.4379 78.3798 46.948C77.7133 46.4638 77.3914 45.7318 77.4142 44.752ZM78.6874 39.3003C78.6874 40.4909 78.9238 41.3596 79.3966 41.9065C79.8695 42.4534 80.4619 42.7268 81.174 42.7268C81.8804 42.7268 82.4728 42.4562 82.9513 41.915C83.4298 41.3682 83.6691 40.5137 83.6691 39.3516C83.6691 38.2407 83.4213 37.4033 82.9257 36.8393C82.4358 36.2754 81.8433 35.9934 81.1483 35.9934C80.4648 35.9934 79.8837 36.2725 79.4052 36.8308C78.9267 37.3834 78.6874 38.2065 78.6874 39.3003ZM101.443 39.6079L103.1 40.0266C102.753 41.3881 102.126 42.4277 101.22 43.1455C100.32 43.8576 99.2181 44.2136 97.9135 44.2136C96.5634 44.2136 95.464 43.9402 94.6152 43.3933C93.7721 42.8407 93.1284 42.0432 92.684 41.0007C92.2454 39.9582 92.0261 38.8389 92.0261 37.6426C92.0261 36.338 92.2739 35.2016 92.7695 34.2331C93.2708 33.259 93.98 32.5213 94.8972 32.02C95.82 31.513 96.834 31.2595 97.9392 31.2595C99.1924 31.2595 100.246 31.5785 101.101 32.2165C101.955 32.8545 102.551 33.7518 102.887 34.9082L101.255 35.2927C100.964 34.3812 100.543 33.7176 99.99 33.3017C99.4374 32.8859 98.7424 32.6779 97.905 32.6779C96.9423 32.6779 96.1362 32.9087 95.4868 33.3701C94.843 33.8315 94.3902 34.4524 94.1281 35.2329C93.8661 36.0076 93.7351 36.808 93.7351 37.634C93.7351 38.6993 93.8889 39.6307 94.1965 40.4282C94.5098 41.22 94.994 41.8125 95.6491 42.2056C96.3042 42.5986 97.0135 42.7952 97.7768 42.7952C98.7054 42.7952 99.4915 42.5274 100.135 41.9919C100.779 41.4565 101.215 40.6618 101.443 39.6079ZM104.937 44V34.9253H106.322V36.301C106.675 35.6573 107 35.2329 107.296 35.0278C107.598 34.8227 107.928 34.7202 108.287 34.7202C108.805 34.7202 109.332 34.8854 109.868 35.2158L109.338 36.6428C108.962 36.4206 108.586 36.3096 108.21 36.3096C107.874 36.3096 107.572 36.4121 107.304 36.6172C107.037 36.8166 106.846 37.0957 106.732 37.4546C106.561 38.0014 106.476 38.5996 106.476 39.249V44H104.937ZM116.994 41.0776L118.584 41.2742C118.333 42.2027 117.869 42.9233 117.191 43.436C116.513 43.9487 115.647 44.2051 114.593 44.2051C113.266 44.2051 112.212 43.7978 111.432 42.9832C110.657 42.1628 110.27 41.015 110.27 39.5395C110.27 38.0128 110.663 36.8279 111.449 35.9848C112.235 35.1417 113.255 34.7202 114.508 34.7202C115.721 34.7202 116.712 35.1332 117.481 35.9592C118.25 36.7852 118.635 37.9473 118.635 39.4455C118.635 39.5367 118.632 39.6734 118.626 39.8557H111.859C111.916 40.8526 112.198 41.616 112.705 42.1457C113.212 42.6755 113.844 42.9404 114.602 42.9404C115.166 42.9404 115.647 42.7923 116.046 42.4961C116.445 42.1999 116.761 41.727 116.994 41.0776ZM111.944 38.5911H117.011C116.943 37.8277 116.749 37.2552 116.43 36.8735C115.941 36.2811 115.305 35.9848 114.525 35.9848C113.819 35.9848 113.223 36.2213 112.739 36.6941C112.26 37.1669 111.996 37.7992 111.944 38.5911ZM126.445 42.8806C125.875 43.3648 125.326 43.7066 124.796 43.906C124.272 44.1054 123.708 44.2051 123.104 44.2051C122.107 44.2051 121.341 43.963 120.805 43.4788C120.27 42.9888 120.002 42.3651 120.002 41.6074C120.002 41.1631 120.102 40.7586 120.301 40.394C120.506 40.0238 120.771 39.7275 121.096 39.5054C121.426 39.2832 121.797 39.1151 122.207 39.0012C122.509 38.9215 122.964 38.8446 123.574 38.7705C124.816 38.6224 125.73 38.4458 126.317 38.2407C126.323 38.0299 126.325 37.8961 126.325 37.8391C126.325 37.2125 126.18 36.771 125.89 36.5146C125.497 36.1671 124.913 35.9934 124.138 35.9934C123.414 35.9934 122.879 36.1216 122.532 36.3779C122.19 36.6286 121.936 37.0757 121.771 37.7195L120.267 37.5144C120.404 36.8707 120.629 36.3523 120.942 35.9592C121.255 35.5604 121.708 35.2557 122.301 35.0449C122.893 34.8284 123.58 34.7202 124.36 34.7202C125.135 34.7202 125.764 34.8113 126.249 34.9936C126.733 35.1759 127.089 35.4066 127.317 35.6858C127.545 35.9592 127.704 36.3067 127.795 36.7283C127.846 36.9903 127.872 37.4631 127.872 38.1467V40.1975C127.872 41.6274 127.903 42.5331 127.966 42.9148C128.034 43.2908 128.165 43.6525 128.359 44H126.753C126.593 43.681 126.491 43.3079 126.445 42.8806ZM126.317 39.4455C125.759 39.6734 124.921 39.8671 123.805 40.0266C123.172 40.1177 122.725 40.2203 122.463 40.3342C122.201 40.4482 121.999 40.6162 121.856 40.8384C121.714 41.0548 121.643 41.2969 121.643 41.5647C121.643 41.9748 121.797 42.3166 122.104 42.5901C122.418 42.8635 122.873 43.0002 123.471 43.0002C124.064 43.0002 124.591 42.8721 125.052 42.6157C125.514 42.3537 125.853 41.9976 126.069 41.5476C126.234 41.2001 126.317 40.6874 126.317 40.0095V39.4455ZM130.265 44V34.9253H131.64V36.1985C131.925 35.7541 132.304 35.3981 132.777 35.1303C133.25 34.8569 133.788 34.7202 134.392 34.7202C135.064 34.7202 135.614 34.8598 136.041 35.1389C136.474 35.418 136.779 35.8082 136.955 36.3096C137.673 35.25 138.607 34.7202 139.758 34.7202C140.658 34.7202 141.35 34.9708 141.835 35.4721C142.319 35.9678 142.561 36.7339 142.561 37.7707V44H141.031V38.2834C141.031 37.6682 140.98 37.2267 140.878 36.959C140.781 36.6855 140.601 36.4662 140.339 36.301C140.077 36.1358 139.77 36.0532 139.416 36.0532C138.778 36.0532 138.249 36.2668 137.827 36.6941C137.405 37.1156 137.195 37.7935 137.195 38.7278V44H135.657V38.104C135.657 37.4204 135.531 36.9077 135.281 36.5659C135.03 36.2241 134.62 36.0532 134.05 36.0532C133.617 36.0532 133.216 36.1671 132.845 36.395C132.481 36.6229 132.216 36.9561 132.051 37.3948C131.885 37.8334 131.803 38.4657 131.803 39.2917V44H130.265Z" fill="#5B5B5B"/>
<g filter="url(#filter0_d_445_46)">
<path d="M186 107.994C186 104.684 188.684 102 191.994 102H270.006C273.316 102 276 104.684 276 107.994V140.333C276 143.644 273.316 146.327 270.006 146.327H226.078C224.244 146.327 222.511 147.167 221.374 148.607L216.326 155L211.278 148.607C210.141 147.167 208.408 146.327 206.574 146.327H191.994C188.684 146.327 186 143.644 186 140.333V107.994Z" fill="#3985ED" fill-opacity="0.1" shape-rendering="crispEdges"/>
</g>
<path d="M201.055 120.648V122H193.484C193.474 121.661 193.529 121.336 193.648 121.023C193.841 120.508 194.148 120 194.57 119.5C194.997 119 195.612 118.422 196.414 117.766C197.659 116.745 198.5 115.938 198.938 115.344C199.375 114.745 199.594 114.18 199.594 113.648C199.594 113.091 199.393 112.622 198.992 112.242C198.596 111.857 198.078 111.664 197.438 111.664C196.76 111.664 196.219 111.867 195.812 112.273C195.406 112.68 195.201 113.242 195.195 113.961L193.75 113.812C193.849 112.734 194.221 111.914 194.867 111.352C195.513 110.784 196.38 110.5 197.469 110.5C198.568 110.5 199.438 110.805 200.078 111.414C200.719 112.023 201.039 112.779 201.039 113.68C201.039 114.138 200.945 114.589 200.758 115.031C200.57 115.474 200.258 115.94 199.82 116.43C199.388 116.919 198.667 117.591 197.656 118.445C196.812 119.154 196.271 119.635 196.031 119.891C195.792 120.141 195.594 120.393 195.438 120.648H201.055ZM202.57 116.352C202.57 114.997 202.708 113.909 202.984 113.086C203.266 112.258 203.68 111.62 204.227 111.172C204.779 110.724 205.471 110.5 206.305 110.5C206.919 110.5 207.458 110.625 207.922 110.875C208.385 111.12 208.768 111.477 209.07 111.945C209.372 112.409 209.609 112.977 209.781 113.648C209.953 114.315 210.039 115.216 210.039 116.352C210.039 117.695 209.901 118.781 209.625 119.609C209.349 120.432 208.935 121.07 208.383 121.523C207.836 121.971 207.143 122.195 206.305 122.195C205.201 122.195 204.333 121.799 203.703 121.008C202.948 120.055 202.57 118.503 202.57 116.352ZM204.016 116.352C204.016 118.232 204.234 119.484 204.672 120.109C205.115 120.729 205.659 121.039 206.305 121.039C206.951 121.039 207.492 120.727 207.93 120.102C208.372 119.477 208.594 118.227 208.594 116.352C208.594 114.466 208.372 113.214 207.93 112.594C207.492 111.974 206.945 111.664 206.289 111.664C205.643 111.664 205.128 111.938 204.742 112.484C204.258 113.182 204.016 114.471 204.016 116.352ZM218.867 120.648V122H211.297C211.286 121.661 211.341 121.336 211.461 121.023C211.654 120.508 211.961 120 212.383 119.5C212.81 119 213.424 118.422 214.227 117.766C215.471 116.745 216.312 115.938 216.75 115.344C217.188 114.745 217.406 114.18 217.406 113.648C217.406 113.091 217.206 112.622 216.805 112.242C216.409 111.857 215.891 111.664 215.25 111.664C214.573 111.664 214.031 111.867 213.625 112.273C213.219 112.68 213.013 113.242 213.008 113.961L211.562 113.812C211.661 112.734 212.034 111.914 212.68 111.352C213.326 110.784 214.193 110.5 215.281 110.5C216.38 110.5 217.25 110.805 217.891 111.414C218.531 112.023 218.852 112.779 218.852 113.68C218.852 114.138 218.758 114.589 218.57 115.031C218.383 115.474 218.07 115.94 217.633 116.43C217.201 116.919 216.479 117.591 215.469 118.445C214.625 119.154 214.083 119.635 213.844 119.891C213.604 120.141 213.406 120.393 213.25 120.648H218.867ZM224.891 122V119.258H219.922V117.969L225.148 110.547H226.297V117.969H227.844V119.258H226.297V122H224.891ZM224.891 117.969V112.805L221.305 117.969H224.891Z" fill="#5B5B5B"/>
<path d="M196.44 137L193.112 128.41H194.342L196.574 134.65C196.754 135.15 196.905 135.619 197.026 136.057C197.158 135.588 197.313 135.119 197.489 134.65L199.809 128.41H200.969L197.606 137H196.44ZM200.793 133.889C200.793 132.736 201.114 131.883 201.754 131.328C202.289 130.867 202.942 130.637 203.711 130.637C204.567 130.637 205.266 130.918 205.809 131.48C206.352 132.039 206.623 132.812 206.623 133.801C206.623 134.602 206.502 135.232 206.26 135.693C206.022 136.15 205.672 136.506 205.211 136.76C204.754 137.014 204.254 137.141 203.711 137.141C202.84 137.141 202.135 136.861 201.596 136.303C201.061 135.744 200.793 134.939 200.793 133.889ZM201.877 133.889C201.877 134.686 202.051 135.283 202.399 135.682C202.746 136.076 203.184 136.273 203.711 136.273C204.235 136.273 204.67 136.074 205.018 135.676C205.365 135.277 205.539 134.67 205.539 133.854C205.539 133.084 205.364 132.502 205.012 132.107C204.664 131.709 204.231 131.51 203.711 131.51C203.184 131.51 202.746 131.707 202.399 132.102C202.051 132.496 201.877 133.092 201.877 133.889ZM207.842 137V128.41H208.897V137H207.842ZM214.615 137V136.086C214.131 136.789 213.473 137.141 212.641 137.141C212.274 137.141 211.93 137.07 211.61 136.93C211.293 136.789 211.057 136.613 210.901 136.402C210.748 136.188 210.641 135.926 210.578 135.617C210.535 135.41 210.514 135.082 210.514 134.633V130.777H211.569V134.229C211.569 134.779 211.59 135.15 211.633 135.342C211.699 135.619 211.84 135.838 212.055 135.998C212.27 136.154 212.535 136.232 212.852 136.232C213.168 136.232 213.465 136.152 213.742 135.992C214.02 135.828 214.215 135.607 214.328 135.33C214.446 135.049 214.504 134.643 214.504 134.111V130.777H215.559V137H214.615ZM217.217 137V130.777H218.16V131.65C218.356 131.346 218.615 131.102 218.94 130.918C219.264 130.73 219.633 130.637 220.047 130.637C220.508 130.637 220.885 130.732 221.178 130.924C221.475 131.115 221.684 131.383 221.805 131.727C222.297 131 222.938 130.637 223.727 130.637C224.344 130.637 224.819 130.809 225.151 131.152C225.483 131.492 225.649 132.018 225.649 132.729V137H224.6V133.08C224.6 132.658 224.565 132.355 224.494 132.172C224.428 131.984 224.305 131.834 224.125 131.721C223.946 131.607 223.735 131.551 223.492 131.551C223.055 131.551 222.692 131.697 222.403 131.99C222.114 132.279 221.969 132.744 221.969 133.385V137H220.914V132.957C220.914 132.488 220.828 132.137 220.656 131.902C220.485 131.668 220.203 131.551 219.813 131.551C219.516 131.551 219.24 131.629 218.987 131.785C218.737 131.941 218.555 132.17 218.442 132.471C218.328 132.771 218.272 133.205 218.272 133.771V137H217.217ZM231.473 134.996L232.563 135.131C232.391 135.768 232.073 136.262 231.608 136.613C231.143 136.965 230.549 137.141 229.826 137.141C228.916 137.141 228.194 136.861 227.658 136.303C227.127 135.74 226.862 134.953 226.862 133.941C226.862 132.895 227.131 132.082 227.67 131.504C228.209 130.926 228.908 130.637 229.768 130.637C230.6 130.637 231.28 130.92 231.807 131.486C232.334 132.053 232.598 132.85 232.598 133.877C232.598 133.939 232.596 134.033 232.592 134.158H227.951C227.99 134.842 228.184 135.365 228.531 135.729C228.879 136.092 229.313 136.273 229.832 136.273C230.219 136.273 230.549 136.172 230.823 135.969C231.096 135.766 231.313 135.441 231.473 134.996ZM228.01 133.291H231.485C231.438 132.768 231.305 132.375 231.086 132.113C230.75 131.707 230.315 131.504 229.78 131.504C229.295 131.504 228.887 131.666 228.555 131.99C228.227 132.314 228.045 132.748 228.01 133.291ZM234.186 131.979V130.777H235.387V131.979H234.186ZM234.186 137V135.799H235.387V137H234.186ZM242.787 135.611V133.256H240.449V132.271H242.787V129.934H243.783V132.271H246.121V133.256H243.783V135.611H242.787ZM252.83 135.986V137H247.153C247.145 136.746 247.186 136.502 247.276 136.268C247.42 135.881 247.651 135.5 247.967 135.125C248.287 134.75 248.748 134.316 249.35 133.824C250.283 133.059 250.914 132.453 251.242 132.008C251.571 131.559 251.735 131.135 251.735 130.736C251.735 130.318 251.584 129.967 251.283 129.682C250.987 129.393 250.598 129.248 250.117 129.248C249.61 129.248 249.203 129.4 248.899 129.705C248.594 130.01 248.44 130.432 248.436 130.971L247.352 130.859C247.426 130.051 247.705 129.436 248.19 129.014C248.674 128.588 249.324 128.375 250.141 128.375C250.965 128.375 251.617 128.604 252.098 129.061C252.578 129.518 252.819 130.084 252.819 130.76C252.819 131.104 252.748 131.441 252.608 131.773C252.467 132.105 252.233 132.455 251.905 132.822C251.58 133.189 251.039 133.693 250.281 134.334C249.649 134.865 249.242 135.227 249.063 135.418C248.883 135.605 248.735 135.795 248.617 135.986H252.83ZM253.967 132.764C253.967 131.748 254.071 130.932 254.278 130.314C254.489 129.693 254.799 129.215 255.209 128.879C255.623 128.543 256.143 128.375 256.768 128.375C257.229 128.375 257.633 128.469 257.981 128.656C258.328 128.84 258.615 129.107 258.842 129.459C259.069 129.807 259.246 130.232 259.375 130.736C259.504 131.236 259.569 131.912 259.569 132.764C259.569 133.771 259.465 134.586 259.258 135.207C259.051 135.824 258.74 136.303 258.326 136.643C257.916 136.979 257.397 137.146 256.768 137.146C255.94 137.146 255.289 136.85 254.817 136.256C254.25 135.541 253.967 134.377 253.967 132.764ZM255.051 132.764C255.051 134.174 255.215 135.113 255.543 135.582C255.875 136.047 256.283 136.279 256.768 136.279C257.252 136.279 257.658 136.045 257.987 135.576C258.319 135.107 258.485 134.17 258.485 132.764C258.485 131.35 258.319 130.41 257.987 129.945C257.658 129.48 257.248 129.248 256.756 129.248C256.272 129.248 255.885 129.453 255.596 129.863C255.233 130.387 255.051 131.354 255.051 132.764ZM261.039 137V128.41H262.75L264.783 134.492C264.971 135.059 265.108 135.482 265.194 135.764C265.291 135.451 265.444 134.992 265.651 134.387L267.707 128.41H269.237V137H268.141V129.811L265.645 137H264.619L262.135 129.688V137H261.039Z" fill="#5B5B5B"/>
<g filter="url(#filter1_d_445_46)">
<ellipse cx="239.136" cy="40.7531" rx="19.1358" ry="18.5185" fill="white"/>
<path d="M258.056 40.7531C258.056 50.8551 249.592 59.0563 239.136 59.0563C228.68 59.0563 220.215 50.8551 220.215 40.7531C220.215 30.6512 228.68 22.45 239.136 22.45C249.592 22.45 258.056 30.6512 258.056 40.7531Z" stroke="#B8B8B8" stroke-width="0.430781"/>
</g>
<path fill-rule="evenodd" clip-rule="evenodd" d="M239.466 41.9468C239.096 42.67 238.461 43.1356 237.775 43.2927C237.671 43.2927 237.512 43.3436 237.353 43.3436C236.193 43.3436 235.506 42.4647 235.506 41.1726C235.506 39.5167 236.509 38.7425 237.775 38.3788C238.461 38.2245 239.255 38.1722 240.047 38.1722V38.7935C240.047 39.9823 240.099 40.9122 239.466 41.9468ZM240.047 35.7958C239.36 35.8468 238.567 35.8978 237.775 35.9997C236.561 36.1568 235.347 36.3634 234.346 36.829C232.392 37.6046 231.072 39.2591 231.072 41.6878C231.072 44.7405 233.077 46.2903 235.613 46.2903C236.457 46.2903 237.143 46.1856 237.775 46.0327C238.781 45.7213 239.623 45.1524 240.626 44.1178C241.207 44.8934 241.367 45.2571 242.369 46.0836C242.633 46.1856 242.898 46.1856 243.107 46.0327C243.741 45.5147 244.851 44.5835 245.431 44.0669C245.695 43.8602 245.643 43.5489 245.483 43.2927C244.903 42.5681 244.321 41.9468 244.321 40.5513V35.8978C244.321 33.9334 244.481 32.1232 243.003 30.7801C241.789 29.6959 239.888 29.2812 238.409 29.2812H237.775C235.084 29.4342 232.235 30.572 231.599 33.83C231.493 34.2447 231.811 34.399 232.022 34.4499L234.979 34.8123C235.295 34.7599 235.454 34.5009 235.506 34.2447C235.769 33.1068 236.72 32.5379 237.775 32.4332H237.987C238.622 32.4332 239.308 32.6921 239.677 33.2101C240.099 33.83 240.047 34.658 240.047 35.3826V35.7958Z" fill="#343B45"/>
<path fill-rule="evenodd" clip-rule="evenodd" d="M250.725 46.8193V46.818C250.714 46.5741 250.662 46.3882 250.557 46.2339L250.546 46.2187L250.534 46.2036C250.428 46.0906 250.327 46.0479 250.217 46.0011C249.889 45.8771 249.413 45.8109 248.839 45.8096C248.427 45.8096 247.972 45.8481 247.515 45.946L247.514 45.9156L247.054 46.0658L247.045 46.0699L246.785 46.1526V46.1636C246.48 46.2876 246.203 46.4419 245.945 46.6251C245.785 46.7422 245.653 46.8979 245.646 47.1362C245.642 47.2657 245.709 47.4145 245.82 47.5026C245.931 47.5908 246.061 47.6211 246.175 47.6211C246.201 47.6211 246.227 47.6197 246.249 47.6156L246.272 47.6142L246.289 47.6115C246.514 47.5646 246.841 47.5329 247.225 47.4806C247.555 47.4448 247.903 47.4186 248.206 47.4186C248.42 47.4172 248.612 47.4324 248.744 47.4599C248.811 47.4737 248.86 47.4902 248.886 47.504C248.896 47.5068 248.903 47.5109 248.908 47.5136C248.913 47.5316 248.922 47.5784 248.92 47.6431C248.923 47.8911 248.816 48.3512 248.668 48.8003C248.525 49.2494 248.351 49.6999 248.235 49.9988C248.207 50.0677 248.189 50.1435 248.189 50.2261C248.186 50.346 248.237 50.492 248.344 50.5884C248.448 50.6848 248.583 50.7234 248.695 50.7234H248.701C248.87 50.722 249.013 50.6559 249.137 50.5609C250.304 49.5332 250.711 47.8911 250.728 46.9667L250.725 46.8193ZM247.263 48.2438C247.144 48.2424 247.021 48.2699 246.908 48.3223C246.78 48.3719 246.649 48.4297 246.525 48.4807L246.344 48.5551L246.107 48.6474V48.6501C243.54 49.6696 240.844 50.2674 238.349 50.3198C238.257 50.3225 238.165 50.3225 238.076 50.3225C234.152 50.3253 230.951 48.5427 227.721 46.7863C227.609 46.7284 227.492 46.6981 227.379 46.6981C227.235 46.6981 227.085 46.7518 226.977 46.851C226.869 46.9516 226.804 47.0962 226.806 47.2436C226.804 47.4351 226.91 47.6115 227.057 47.7258C230.088 50.3033 233.411 52.6975 237.879 52.7002C237.966 52.7002 238.055 52.6975 238.144 52.6961C240.986 52.6341 244.2 51.6932 246.695 50.1586L246.711 50.149C247.037 49.9575 247.363 49.7398 247.671 49.4987C247.863 49.3596 247.995 49.1419 247.995 48.916C247.986 48.5151 247.639 48.2438 247.263 48.2438Z" fill="#FF9A00"/>
<g filter="url(#filter2_d_445_46)">
<ellipse cx="270.617" cy="40.1358" rx="18.5185" ry="19.1358" fill="white"/>
<path d="M270.617 59.487C280.97 59.487 289.351 50.8165 289.351 40.1358C289.351 29.4551 280.97 20.7846 270.617 20.7846C260.264 20.7846 251.883 29.4551 251.883 40.1358C251.883 50.8165 260.264 59.487 270.617 59.487Z" stroke="#B8B8B8" stroke-width="0.430781"/>
</g>
<path d="M274.316 45.9471C273.056 46.0322 273.178 45.3805 273.926 44.4341C275.634 42.2335 278.794 39.2437 278.936 37.0595C279.133 34.2236 276.182 33.3459 273.144 33.3459C271.03 33.3983 268.842 33.9649 267.351 34.479C262.216 36.231 258.998 38.9817 256.955 42.0763C254.841 45.1349 255.499 48.0756 260.065 48.1608C263.513 48.0232 265.84 47.0965 268.185 45.9274C268.202 45.9274 261.664 47.7318 259.245 46.4088C258.977 46.2713 258.713 46.0813 258.642 45.5508C258.642 44.4669 260.492 43.3338 261.576 42.9736V41.1168C263.761 41.8569 266.338 41.6506 268.544 40.0689C268.615 40.2589 268.686 40.4979 268.669 40.7566H269.042C269.13 40.0165 268.615 39.2961 267.761 39.2437C268.008 39.4336 268.188 39.5876 268.276 39.7251L268.242 39.7578L268.225 39.7742C265.383 41.6997 262.626 40.8058 262.362 40.7534L263.943 39.2568L263.5 38.1729C266.647 37.1086 269.242 36.3325 273.557 35.5957L272.592 34.8425L273.09 34.551C275.647 35.2387 277.371 35.7529 277.283 37.0595C277.25 37.2822 277.158 37.5409 277.016 37.8159C276.254 39.2765 274.014 41.631 273.107 42.6461C272.521 43.3175 271.935 43.9364 271.525 44.5553C271.064 45.1906 270.83 45.7768 270.813 46.3073C270.901 50.6233 284.072 44.2802 286.667 42.6101C282.883 44.1754 278.777 45.672 274.316 45.9471ZM277.195 36.0279C277.29 36.1982 277.334 36.4078 277.334 36.6534C277.331 36.4307 277.287 36.2179 277.195 36.0279Z" fill="#F35325"/>
<g filter="url(#filter3_d_445_46)">
<ellipse cx="301.481" cy="41.3704" rx="18.5185" ry="19.1358" fill="white"/>
<path d="M301.481 60.7216C311.834 60.7216 320.215 52.0511 320.215 41.3704C320.215 30.6898 311.834 22.0192 301.481 22.0192C291.128 22.0192 282.748 30.6898 282.748 41.3704C282.748 52.0511 291.128 60.7216 301.481 60.7216Z" stroke="#B8B8B8" stroke-width="0.430781"/>
</g>
<path d="M294.892 46.4574C295.053 45.1771 295.601 44.4603 296.633 43.7255C298.109 42.7303 299.953 43.2932 299.953 43.2932V39.9536C300.401 39.9425 300.85 39.968 301.293 40.0297V44.3275C301.293 44.3275 299.45 43.7646 297.973 44.7603C296.942 45.4946 296.394 46.212 296.233 47.4923C296.228 48.1875 296.364 49.0963 296.99 49.882C296.835 49.8058 296.678 49.719 296.517 49.6217C295.137 48.7329 294.885 47.3997 294.892 46.4574ZM308.908 33.7785C307.892 32.7112 307.508 31.6337 307.369 30.8767H308.647C308.647 30.8767 308.392 32.8615 310.248 34.8133L310.274 34.8396C309.774 34.5377 309.315 34.1815 308.908 33.7785ZM315.062 36.8042V41.0156C315.062 41.0156 313.432 40.9545 312.225 40.6601C310.541 40.2484 309.458 39.617 309.458 39.617C309.458 39.617 308.71 39.1667 308.649 39.1354V47.8319C308.649 48.3161 308.511 49.5254 308.09 50.534C307.539 51.8535 306.69 52.7195 306.534 52.8965C306.534 52.8965 305.501 54.0672 303.679 54.8556C302.036 55.5667 300.594 55.5487 300.163 55.5667C300.163 55.5667 297.67 55.6614 295.427 54.2633C294.942 53.955 294.489 53.6061 294.074 53.2206L294.085 53.2284C296.329 54.6265 298.821 54.5318 298.821 54.5318C299.253 54.5138 300.695 54.5318 302.337 53.8207C304.158 53.0323 305.192 51.8617 305.192 51.8617C305.347 51.6847 306.2 50.8186 306.748 49.4987C307.169 48.4906 307.308 47.2807 307.308 46.7966V38.1011C307.369 38.1329 308.116 38.5831 308.116 38.5831C308.116 38.5831 309.199 39.2151 310.884 39.6263C312.091 39.9206 313.72 39.9819 313.72 39.9819V36.6818C314.278 36.8017 314.753 36.8341 315.062 36.8042Z" fill="#EE1D52"/>
<path d="M313.827 36.6325V39.9035C313.827 39.9035 312.187 39.8428 310.973 39.551C309.278 39.1428 308.187 38.5168 308.187 38.5168C308.187 38.5168 307.435 38.0704 307.375 38.0387V46.6625C307.375 47.1426 307.235 48.3421 306.811 49.3416C306.257 50.6504 305.403 51.5091 305.246 51.6846C305.246 51.6846 304.206 52.8453 302.373 53.6271C300.72 54.3322 299.269 54.3143 298.835 54.3322C298.835 54.3322 296.327 54.4261 294.069 53.0398L294.058 53.0321C293.819 52.8139 293.595 52.5837 293.385 52.3423C292.665 51.5121 292.223 50.5304 292.112 50.2503V50.2468C291.934 49.7601 291.558 48.5911 291.61 47.4589C291.7 45.4614 292.444 44.2354 292.641 43.9282C293.161 43.0906 293.839 42.3412 294.642 41.7134C295.351 41.1715 296.155 40.7404 297.021 40.4377C297.956 40.0824 298.958 39.8919 299.973 39.8766V43.1878C299.973 43.1878 298.117 42.6318 296.632 43.6165C295.594 44.345 295.043 45.0557 294.881 46.3252C294.874 47.2595 295.127 48.5814 296.514 49.4631C296.676 49.56 296.835 49.6461 296.991 49.7212C297.233 50.019 297.528 50.2785 297.864 50.4891C299.219 51.2999 300.355 51.3565 301.808 50.83C302.776 50.4779 303.505 49.6845 303.843 48.8054C304.055 48.2565 304.053 47.7038 304.053 47.1324V30.8767H307.433C307.572 31.6272 307.959 32.6957 308.981 33.7538C309.391 34.1534 309.852 34.5067 310.356 34.8059C310.505 34.9513 311.265 35.6702 312.241 36.1116C312.746 36.3397 313.278 36.5145 313.827 36.6325Z" fill="black"/>
<path d="M297.243 39.9372C296.364 40.2535 295.547 40.7039 294.826 41.2698C294.009 41.9272 293.32 42.7118 292.792 43.5884C292.592 43.9083 291.836 45.1901 291.744 47.2769C291.692 48.4596 292.073 49.6808 292.255 50.1893V50.193C292.369 50.483 292.817 51.5084 293.549 52.3784C293.762 52.6305 293.99 52.8712 294.232 53.099C293.456 52.5991 292.763 51.995 292.177 51.3059C291.451 50.4462 291.004 49.4313 290.887 49.1318C290.887 49.1296 290.887 49.1275 290.887 49.1254V49.1216C290.705 48.6137 290.322 47.392 290.375 46.2077C290.468 44.1209 291.223 42.8401 291.423 42.5192C291.952 41.6424 292.64 40.8578 293.457 40.2007C294.178 39.6344 294.995 39.184 295.875 38.8681C296.424 38.6561 296.995 38.4998 297.58 38.4017C298.461 38.2585 299.361 38.246 300.247 38.3649V39.351C299.215 39.3667 298.195 39.5657 297.243 39.9372Z" fill="#69C9D0"/>
<path d="M307.734 30.6525H304.512V46.6531C304.512 47.2155 304.512 47.7579 304.312 48.2998C303.987 49.1646 303.294 49.9455 302.372 50.292C300.987 50.8123 299.904 50.7546 298.612 49.9566C298.292 49.7501 298.01 49.4956 297.778 49.2033C298.878 49.7521 299.863 49.7426 301.083 49.2847C302.005 48.9381 302.699 48.1572 303.023 47.2919C303.226 46.7515 303.223 46.2077 303.223 45.6457V29.6421H307.673C307.673 29.6421 307.623 30.0398 307.734 30.6525ZM313.827 35.4274V36.3178C313.305 36.2015 312.799 36.0294 312.318 35.8051C311.388 35.3707 310.662 34.6631 310.521 34.5199C310.685 34.621 310.856 34.7129 311.032 34.7952C312.163 35.3235 313.278 35.4812 313.827 35.4274Z" fill="#69C9D0"/>
</g>
<defs>
<filter id="filter0_d_445_46" x="186" y="102" width="90" height="54.6288" filterUnits="userSpaceOnUse" color-interpolation-filters="sRGB">
<feFlood flood-opacity="0" result="BackgroundImageFix"/>
<feColorMatrix in="SourceAlpha" type="matrix" values="0 0 0 0 0 0 0 0 0 0 0 0 0 0 0 0 0 0 127 0" result="hardAlpha"/>
<feOffset dy="1.62885"/>
<feComposite in2="hardAlpha" operator="out"/>
<feColorMatrix type="matrix" values="0 0 0 0 0.223529 0 0 0 0 0.521569 0 0 0 0 0.929412 0 0 0 0.25 0"/>
<feBlend mode="normal" in2="BackgroundImageFix" result="effect1_dropShadow_445_46"/>
<feBlend mode="normal" in="SourceGraphic" in2="effect1_dropShadow_445_46" result="shape"/>
</filter>
<filter id="filter1_d_445_46" x="213.538" y="17.9268" width="46.8872" height="45.6527" filterUnits="userSpaceOnUse" color-interpolation-filters="sRGB">
<feFlood flood-opacity="0" result="BackgroundImageFix"/>
<feColorMatrix in="SourceAlpha" type="matrix" values="0 0 0 0 0 0 0 0 0 0 0 0 0 0 0 0 0 0 127 0" result="hardAlpha"/>
<feOffset dx="-2.1539"/>
<feGaussianBlur stdDeviation="2.1539"/>
<feComposite in2="hardAlpha" operator="out"/>
<feColorMatrix type="matrix" values="0 0 0 0 0 0 0 0 0 0 0 0 0 0 0 0 0 0 0.25 0"/>
<feBlend mode="normal" in2="BackgroundImageFix" result="effect1_dropShadow_445_46"/>
<feBlend mode="normal" in="SourceGraphic" in2="effect1_dropShadow_445_46" result="shape"/>
</filter>
<filter id="filter2_d_445_46" x="245.206" y="16.2615" width="46.5142" height="47.7487" filterUnits="userSpaceOnUse" color-interpolation-filters="sRGB">
<feFlood flood-opacity="0" result="BackgroundImageFix"/>
<feColorMatrix in="SourceAlpha" type="matrix" values="0 0 0 0 0 0 0 0 0 0 0 0 0 0 0 0 0 0 127 0" result="hardAlpha"/>
<feOffset dx="-2.1539"/>
<feGaussianBlur stdDeviation="2.1539"/>
<feComposite in2="hardAlpha" operator="out"/>
<feColorMatrix type="matrix" values="0 0 0 0 0 0 0 0 0 0 0 0 0 0 0 0 0 0 0.25 0"/>
<feBlend mode="normal" in2="BackgroundImageFix" result="effect1_dropShadow_445_46"/>
<feBlend mode="normal" in="SourceGraphic" in2="effect1_dropShadow_445_46" result="shape"/>
</filter>
<filter id="filter3_d_445_46" x="276.07" y="17.4961" width="46.5142" height="47.7487" filterUnits="userSpaceOnUse" color-interpolation-filters="sRGB">
<feFlood flood-opacity="0" result="BackgroundImageFix"/>
<feColorMatrix in="SourceAlpha" type="matrix" values="0 0 0 0 0 0 0 0 0 0 0 0 0 0 0 0 0 0 127 0" result="hardAlpha"/>
<feOffset dx="-2.1539"/>
<feGaussianBlur stdDeviation="2.1539"/>
<feComposite in2="hardAlpha" operator="out"/>
<feColorMatrix type="matrix" values="0 0 0 0 0 0 0 0 0 0 0 0 0 0 0 0 0 0 0.25 0"/>
<feBlend mode="normal" in2="BackgroundImageFix" result="effect1_dropShadow_445_46"/>
<feBlend mode="normal" in="SourceGraphic" in2="effect1_dropShadow_445_46" result="shape"/>
</filter>
<clipPath id="clip0_445_46">
<rect width="350" height="200" rx="11.2" fill="white"/>
</clipPath>
</defs>
</svg>
