<svg width="500" height="200" viewBox="0 0 500 200" fill="none" xmlns="http://www.w3.org/2000/svg">
<g clip-path="url(#clip0_500_327)">
<path d="M8.37518 114.441L26.7574 72.002C31.1744 61.8045 45.5253 61.5021 50.3679 71.5045L60.1981 91.8088C63.5911 98.8172 72.3454 101.286 78.9003 97.0834L95.5676 86.397C101.521 82.5798 109.434 84.2269 113.37 90.1025L129.674 114.441L148.394 136.65C154.705 144.139 166.718 142.215 170.375 133.13L183.574 100.345C187.304 91.0803 199.658 89.315 205.833 97.164L209.276 101.541C214.458 108.127 224.428 108.156 229.647 101.599L254.005 70.9995C259.494 64.1038 270.111 64.5605 274.987 71.9021L286.283 88.9077C288.69 92.5318 292.752 94.71 297.103 94.71H327.379C331.187 94.71 334.803 96.381 337.271 99.2809L354.847 119.934C360.9 127.047 372.256 125.638 376.388 117.263L383.455 102.939C387.262 95.221 397.387 93.2724 403.787 99.0259L431.959 124.35C435.84 127.839 441.432 128.666 446.157 126.451L491.94 104.985" stroke="url(#paint0_linear_500_327)" stroke-width="3.8968"/>
<path d="M8.37518 142.878L50.9455 128.591C55.3385 127.117 60.133 129.219 62.0248 133.449L67.8904 146.565C70.5757 152.569 78.585 153.759 82.8995 148.794L102.524 126.212C106.683 121.425 114.356 122.326 117.293 127.946L124.519 141.77C128.108 148.638 138.121 148.06 140.897 140.826L166.243 74.7818C169.442 66.4447 181.52 67.354 183.436 76.076L193.209 120.584C195.182 129.569 207.773 130.155 210.573 121.393L215.046 107.394C217.911 98.4268 230.881 99.3226 232.487 108.599L238.788 145.009C240.038 152.23 250.148 152.893 252.33 145.898V145.898C254.549 138.788 264.87 139.629 265.907 147.004L268.76 167.279C270.166 177.272 284.43 177.737 286.484 167.857L295.719 123.419C296.587 119.243 300.266 116.25 304.531 116.25H312.927C317.103 116.25 320.731 113.378 321.688 109.313L337.342 42.828C339.055 35.5531 348.376 33.4151 353.088 39.2162L372.219 62.7671C374.811 65.9578 379.236 66.9868 382.97 65.2672L428.567 44.2678C431.725 42.8133 435.438 43.3081 438.106 45.5388L492.756 91.2457" stroke="url(#paint1_linear_500_327)" stroke-width="4"/>
<g filter="url(#filter0_d_500_327)">
<path d="M141 12.9942C141 9.68368 143.684 7 146.994 7H237.006C240.316 7 243 9.68368 243 12.9942V45.3331C243 48.6436 240.316 51.3273 237.006 51.3273H185.81C184.105 51.3273 182.481 52.0535 181.343 53.3243L175.37 60L169.396 53.3243C168.259 52.0535 166.634 51.3273 164.929 51.3273H146.994C143.684 51.3273 141 48.6436 141 45.3331V12.9942Z" fill="#3985ED" fill-opacity="0.1" shape-rendering="crispEdges"/>
</g>
<path d="M157.055 25.6484V27H149.484C149.474 26.6615 149.529 26.3359 149.648 26.0234C149.841 25.5078 150.148 25 150.57 24.5C150.997 24 151.612 23.4219 152.414 22.7656C153.659 21.7448 154.5 20.9375 154.938 20.3438C155.375 19.7448 155.594 19.1797 155.594 18.6484C155.594 18.0911 155.393 17.6224 154.992 17.2422C154.596 16.8568 154.078 16.6641 153.438 16.6641C152.76 16.6641 152.219 16.8672 151.812 17.2734C151.406 17.6797 151.201 18.2422 151.195 18.9609L149.75 18.8125C149.849 17.7344 150.221 16.9141 150.867 16.3516C151.513 15.7839 152.38 15.5 153.469 15.5C154.568 15.5 155.438 15.8047 156.078 16.4141C156.719 17.0234 157.039 17.7786 157.039 18.6797C157.039 19.138 156.945 19.5885 156.758 20.0312C156.57 20.474 156.258 20.9401 155.82 21.4297C155.388 21.9193 154.667 22.5911 153.656 23.4453C152.812 24.1536 152.271 24.6354 152.031 24.8906C151.792 25.1406 151.594 25.3932 151.438 25.6484H157.055ZM158.57 21.3516C158.57 19.9974 158.708 18.9089 158.984 18.0859C159.266 17.2578 159.68 16.6198 160.227 16.1719C160.779 15.724 161.471 15.5 162.305 15.5C162.919 15.5 163.458 15.625 163.922 15.875C164.385 16.1198 164.768 16.4766 165.07 16.9453C165.372 17.4089 165.609 17.9766 165.781 18.6484C165.953 19.3151 166.039 20.2161 166.039 21.3516C166.039 22.6953 165.901 23.7812 165.625 24.6094C165.349 25.4323 164.935 26.0703 164.383 26.5234C163.836 26.9714 163.143 27.1953 162.305 27.1953C161.201 27.1953 160.333 26.7995 159.703 26.0078C158.948 25.0547 158.57 23.5026 158.57 21.3516ZM160.016 21.3516C160.016 23.2318 160.234 24.4844 160.672 25.1094C161.115 25.7292 161.659 26.0391 162.305 26.0391C162.951 26.0391 163.492 25.7266 163.93 25.1016C164.372 24.4766 164.594 23.2266 164.594 21.3516C164.594 19.4661 164.372 18.2135 163.93 17.5938C163.492 16.974 162.945 16.6641 162.289 16.6641C161.643 16.6641 161.128 16.9375 160.742 17.4844C160.258 18.1823 160.016 19.4714 160.016 21.3516ZM174.867 25.6484V27H167.297C167.286 26.6615 167.341 26.3359 167.461 26.0234C167.654 25.5078 167.961 25 168.383 24.5C168.81 24 169.424 23.4219 170.227 22.7656C171.471 21.7448 172.312 20.9375 172.75 20.3438C173.188 19.7448 173.406 19.1797 173.406 18.6484C173.406 18.0911 173.206 17.6224 172.805 17.2422C172.409 16.8568 171.891 16.6641 171.25 16.6641C170.573 16.6641 170.031 16.8672 169.625 17.2734C169.219 17.6797 169.013 18.2422 169.008 18.9609L167.562 18.8125C167.661 17.7344 168.034 16.9141 168.68 16.3516C169.326 15.7839 170.193 15.5 171.281 15.5C172.38 15.5 173.25 15.8047 173.891 16.4141C174.531 17.0234 174.852 17.7786 174.852 18.6797C174.852 19.138 174.758 19.5885 174.57 20.0312C174.383 20.474 174.07 20.9401 173.633 21.4297C173.201 21.9193 172.479 22.5911 171.469 23.4453C170.625 24.1536 170.083 24.6354 169.844 24.8906C169.604 25.1406 169.406 25.3932 169.25 25.6484H174.867ZM181.68 27H180.273V18.0391C179.935 18.362 179.49 18.6849 178.938 19.0078C178.391 19.3307 177.898 19.5729 177.461 19.7344V18.375C178.247 18.0052 178.935 17.5573 179.523 17.0312C180.112 16.5052 180.529 15.9948 180.773 15.5H181.68V27Z" fill="#5B5B5B"/>
<path d="M150.519 45L147.191 36.4102H148.422L150.654 42.6504C150.834 43.1504 150.984 43.6191 151.105 44.0566C151.238 43.5879 151.392 43.1191 151.568 42.6504L153.888 36.4102H155.049L151.685 45H150.519ZM154.873 41.8887C154.873 40.7363 155.193 39.8828 155.834 39.3281C156.369 38.8672 157.021 38.6367 157.791 38.6367C158.646 38.6367 159.345 38.918 159.888 39.4805C160.431 40.0391 160.703 40.8125 160.703 41.8008C160.703 42.6016 160.582 43.2324 160.34 43.6934C160.101 44.1504 159.752 44.5059 159.291 44.7598C158.834 45.0137 158.334 45.1406 157.791 45.1406C156.92 45.1406 156.215 44.8613 155.676 44.3027C155.14 43.7441 154.873 42.9395 154.873 41.8887ZM155.957 41.8887C155.957 42.6855 156.131 43.2832 156.478 43.6816C156.826 44.0762 157.263 44.2734 157.791 44.2734C158.314 44.2734 158.75 44.0742 159.097 43.6758C159.445 43.2773 159.619 42.6699 159.619 41.8535C159.619 41.084 159.443 40.502 159.092 40.1074C158.744 39.709 158.31 39.5098 157.791 39.5098C157.263 39.5098 156.826 39.707 156.478 40.1016C156.131 40.4961 155.957 41.0918 155.957 41.8887ZM161.922 45V36.4102H162.976V45H161.922ZM168.695 45V44.0859C168.211 44.7891 167.552 45.1406 166.72 45.1406C166.353 45.1406 166.01 45.0703 165.689 44.9297C165.373 44.7891 165.136 44.6133 164.98 44.4023C164.828 44.1875 164.72 43.9258 164.658 43.6172C164.615 43.4102 164.594 43.082 164.594 42.6328V38.7773H165.648V42.2285C165.648 42.7793 165.67 43.1504 165.713 43.3418C165.779 43.6191 165.92 43.8379 166.135 43.998C166.349 44.1543 166.615 44.2324 166.931 44.2324C167.248 44.2324 167.545 44.1523 167.822 43.9922C168.099 43.8281 168.295 43.6074 168.408 43.3301C168.525 43.0488 168.584 42.6426 168.584 42.1113V38.7773H169.638V45H168.695ZM171.297 45V38.7773H172.24V39.6504C172.435 39.3457 172.695 39.1016 173.019 38.918C173.344 38.7305 173.713 38.6367 174.127 38.6367C174.588 38.6367 174.965 38.7324 175.258 38.9238C175.554 39.1152 175.763 39.3828 175.885 39.7266C176.377 39 177.017 38.6367 177.806 38.6367C178.424 38.6367 178.898 38.8086 179.23 39.1523C179.562 39.4922 179.728 40.0176 179.728 40.7285V45H178.679V41.0801C178.679 40.6582 178.644 40.3555 178.574 40.1719C178.508 39.9844 178.385 39.834 178.205 39.7207C178.025 39.6074 177.814 39.5508 177.572 39.5508C177.135 39.5508 176.771 39.6973 176.482 39.9902C176.193 40.2793 176.049 40.7441 176.049 41.3848V45H174.994V40.957C174.994 40.4883 174.908 40.1367 174.736 39.9023C174.564 39.668 174.283 39.5508 173.892 39.5508C173.595 39.5508 173.32 39.6289 173.066 39.7852C172.816 39.9414 172.635 40.1699 172.521 40.4707C172.408 40.7715 172.351 41.2051 172.351 41.7715V45H171.297ZM185.552 42.9961L186.642 43.1309C186.47 43.7676 186.152 44.2617 185.687 44.6133C185.222 44.9648 184.629 45.1406 183.906 45.1406C182.996 45.1406 182.273 44.8613 181.738 44.3027C181.207 43.7402 180.941 42.9531 180.941 41.9414C180.941 40.8945 181.211 40.082 181.75 39.5039C182.289 38.9258 182.988 38.6367 183.847 38.6367C184.679 38.6367 185.359 38.9199 185.886 39.4863C186.414 40.0527 186.677 40.8496 186.677 41.877C186.677 41.9395 186.676 42.0332 186.672 42.1582H182.031C182.07 42.8418 182.263 43.3652 182.611 43.7285C182.959 44.0918 183.392 44.2734 183.912 44.2734C184.299 44.2734 184.629 44.1719 184.902 43.9688C185.176 43.7656 185.392 43.4414 185.552 42.9961ZM182.09 41.291H185.564C185.517 40.7676 185.385 40.375 185.166 40.1133C184.83 39.707 184.394 39.5039 183.859 39.5039C183.375 39.5039 182.967 39.666 182.635 39.9902C182.306 40.3145 182.125 40.748 182.09 41.291ZM188.265 39.9785V38.7773H189.467V39.9785H188.265ZM188.265 45V43.7988H189.467V45H188.265ZM196.867 43.6113V41.2559H194.529V40.2715H196.867V37.9336H197.863V40.2715H200.201V41.2559H197.863V43.6113H196.867ZM205.34 45H204.285V38.2793C204.031 38.5215 203.697 38.7637 203.283 39.0059C202.873 39.248 202.504 39.4297 202.176 39.5508V38.5312C202.765 38.2539 203.281 37.918 203.722 37.5234C204.164 37.1289 204.476 36.7461 204.66 36.375H205.34V45ZM213.59 43.9863V45H207.912C207.904 44.7461 207.945 44.502 208.035 44.2676C208.179 43.8809 208.41 43.5 208.726 43.125C209.047 42.75 209.508 42.3164 210.109 41.8242C211.043 41.0586 211.674 40.4531 212.002 40.0078C212.33 39.5586 212.494 39.1348 212.494 38.7363C212.494 38.3184 212.344 37.9668 212.043 37.6816C211.746 37.3926 211.357 37.248 210.877 37.248C210.369 37.248 209.963 37.4004 209.658 37.7051C209.353 38.0098 209.199 38.4316 209.195 38.9707L208.111 38.8594C208.185 38.0508 208.465 37.4355 208.949 37.0137C209.433 36.5879 210.084 36.375 210.9 36.375C211.724 36.375 212.377 36.6035 212.857 37.0605C213.338 37.5176 213.578 38.084 213.578 38.7598C213.578 39.1035 213.508 39.4414 213.367 39.7734C213.226 40.1055 212.992 40.4551 212.664 40.8223C212.34 41.1895 211.799 41.6934 211.041 42.334C210.408 42.8652 210.002 43.2266 209.822 43.418C209.642 43.6055 209.494 43.7949 209.377 43.9863H213.59ZM214.726 40.7637C214.726 39.748 214.83 38.9316 215.037 38.3145C215.248 37.6934 215.558 37.2148 215.969 36.8789C216.383 36.543 216.902 36.375 217.527 36.375C217.988 36.375 218.392 36.4688 218.74 36.6562C219.088 36.8398 219.375 37.1074 219.601 37.459C219.828 37.8066 220.006 38.2324 220.135 38.7363C220.263 39.2363 220.328 39.9121 220.328 40.7637C220.328 41.7715 220.224 42.5859 220.017 43.207C219.81 43.8242 219.5 44.3027 219.086 44.6426C218.676 44.9785 218.156 45.1465 217.527 45.1465C216.699 45.1465 216.049 44.8496 215.576 44.2559C215.01 43.541 214.726 42.377 214.726 40.7637ZM215.81 40.7637C215.81 42.1738 215.974 43.1133 216.302 43.582C216.635 44.0469 217.043 44.2793 217.527 44.2793C218.011 44.2793 218.418 44.0449 218.746 43.5762C219.078 43.1074 219.244 42.1699 219.244 40.7637C219.244 39.3496 219.078 38.4102 218.746 37.9453C218.418 37.4805 218.008 37.248 217.515 37.248C217.031 37.248 216.644 37.4531 216.355 37.8633C215.992 38.3867 215.81 39.3535 215.81 40.7637ZM221.787 45V36.4102H222.924V40.6699L227.189 36.4102H228.73L225.127 39.8906L228.888 45H227.388L224.33 40.6523L222.924 42.0234V45H221.787Z" fill="#5B5B5B"/>
<circle cx="176" cy="69" r="4" fill="#FFF9F9"/>
<circle cx="176" cy="69" r="6.5" stroke="white"/>
</g>
<defs>
<filter id="filter0_d_500_327" x="141" y="7" width="102" height="54.6288" filterUnits="userSpaceOnUse" color-interpolation-filters="sRGB">
<feFlood flood-opacity="0" result="BackgroundImageFix"/>
<feColorMatrix in="SourceAlpha" type="matrix" values="0 0 0 0 0 0 0 0 0 0 0 0 0 0 0 0 0 0 127 0" result="hardAlpha"/>
<feOffset dy="1.62885"/>
<feComposite in2="hardAlpha" operator="out"/>
<feColorMatrix type="matrix" values="0 0 0 0 0.223529 0 0 0 0 0.521569 0 0 0 0 0.929412 0 0 0 0.25 0"/>
<feBlend mode="normal" in2="BackgroundImageFix" result="effect1_dropShadow_500_327"/>
<feBlend mode="normal" in="SourceGraphic" in2="effect1_dropShadow_500_327" result="shape"/>
</filter>
<linearGradient id="paint0_linear_500_327" x1="8.37518" y1="99.581" x2="491.94" y2="99.581" gradientUnits="userSpaceOnUse">
<stop stop-color="#454545" stop-opacity="0.3"/>
<stop offset="0.49" stop-color="#454545"/>
<stop offset="1" stop-color="#454545" stop-opacity="0.3"/>
</linearGradient>
<linearGradient id="paint1_linear_500_327" x1="1.25625" y1="98" x2="495.399" y2="100.455" gradientUnits="userSpaceOnUse">
<stop stop-color="#3985ED" stop-opacity="0.3"/>
<stop offset="0.49" stop-color="#3985ED"/>
<stop offset="1" stop-color="#3985ED" stop-opacity="0.3"/>
</linearGradient>
<clipPath id="clip0_500_327">
<rect width="500" height="200" fill="white"/>
</clipPath>
</defs>
</svg>
