<svg width="300" height="260" viewBox="0 0 300 260" fill="none" xmlns="http://www.w3.org/2000/svg">
<g clip-path="url(#clip0_557_308)">
<path d="M15 12.25H285C288.176 12.25 290.75 14.8244 290.75 18V267.75H9.25V18C9.25 14.8244 11.8244 12.25 15 12.25Z" fill="white" stroke="#D9D9D9" stroke-width="0.5"/>
<path d="M25.5 31C25.5 29.067 27.067 27.5 29 27.5H86C87.933 27.5 89.5 29.067 89.5 31V47C89.5 48.933 87.933 50.5 86 50.5H29C27.067 50.5 25.5 48.933 25.5 47V31Z" fill="white" stroke="#D9D9D9"/>
<path d="M257.25 34C257.25 31.9289 258.929 30.25 261 30.25H267C269.071 30.25 270.75 31.9289 270.75 34V40C270.75 42.0711 269.071 43.75 267 43.75H261C258.929 43.75 257.25 42.0711 257.25 40V34Z" fill="white" stroke="#D9D9D9" stroke-width="0.5"/>
<path d="M35.7256 42H34.8467V36.3994C34.6351 36.6012 34.3568 36.8031 34.0117 37.0049C33.6699 37.2067 33.3623 37.3581 33.0889 37.459V36.6094C33.5804 36.3783 34.0101 36.0983 34.3779 35.7695C34.7458 35.4408 35.0062 35.1217 35.1592 34.8125H35.7256V42ZM40.9697 43.9971L40.8721 43.1719C41.0641 43.224 41.2318 43.25 41.375 43.25C41.5703 43.25 41.7266 43.2174 41.8438 43.1523C41.9609 43.0872 42.057 42.9961 42.1318 42.8789C42.1872 42.791 42.2767 42.5729 42.4004 42.2246C42.4167 42.1758 42.4427 42.1042 42.4785 42.0098L40.5107 36.8145H41.458L42.5371 39.8174C42.6771 40.1982 42.8024 40.5986 42.9131 41.0186C43.014 40.6149 43.1344 40.221 43.2744 39.8369L44.3828 36.8145H45.2617L43.2891 42.0879C43.0775 42.6576 42.9131 43.0498 42.7959 43.2646C42.6396 43.5544 42.4606 43.766 42.2588 43.8994C42.057 44.0361 41.8161 44.1045 41.5361 44.1045C41.3669 44.1045 41.1781 44.0687 40.9697 43.9971ZM49.5586 40.3301L50.4668 40.4424C50.3236 40.973 50.0583 41.3848 49.6709 41.6777C49.2835 41.9707 48.7887 42.1172 48.1865 42.1172C47.4281 42.1172 46.8258 41.8844 46.3799 41.4189C45.9372 40.9502 45.7158 40.2943 45.7158 39.4512C45.7158 38.5788 45.9404 37.9017 46.3896 37.4199C46.8389 36.9382 47.4215 36.6973 48.1377 36.6973C48.8311 36.6973 49.3975 36.9333 49.8369 37.4053C50.2764 37.8773 50.4961 38.5413 50.4961 39.3975C50.4961 39.4495 50.4945 39.5277 50.4912 39.6318H46.624C46.6566 40.2015 46.8177 40.6377 47.1074 40.9404C47.3971 41.2432 47.7585 41.3945 48.1914 41.3945C48.5137 41.3945 48.7887 41.3099 49.0166 41.1406C49.2445 40.9714 49.4251 40.7012 49.5586 40.3301ZM46.6729 38.9092H49.5684C49.5293 38.473 49.4186 38.1458 49.2363 37.9277C48.9564 37.5892 48.5934 37.4199 48.1475 37.4199C47.7438 37.4199 47.4036 37.555 47.127 37.8252C46.8535 38.0954 46.7021 38.4567 46.6729 38.9092ZM54.959 41.3604C54.6335 41.637 54.3193 41.8324 54.0166 41.9463C53.7171 42.0602 53.3949 42.1172 53.0498 42.1172C52.4801 42.1172 52.0423 41.9788 51.7363 41.7021C51.4303 41.4222 51.2773 41.0658 51.2773 40.6328C51.2773 40.3789 51.3343 40.1478 51.4482 39.9395C51.5654 39.7279 51.7168 39.5586 51.9023 39.4316C52.0911 39.3047 52.3027 39.2087 52.5371 39.1436C52.7096 39.098 52.9701 39.054 53.3184 39.0117C54.028 38.9271 54.5505 38.8262 54.8857 38.709C54.889 38.5885 54.8906 38.512 54.8906 38.4795C54.8906 38.1214 54.8076 37.8691 54.6416 37.7227C54.417 37.5241 54.0833 37.4248 53.6406 37.4248C53.2272 37.4248 52.9212 37.498 52.7227 37.6445C52.5273 37.7878 52.3825 38.0433 52.2881 38.4111L51.4287 38.2939C51.5068 37.9261 51.6354 37.6299 51.8145 37.4053C51.9935 37.1774 52.2523 37.0033 52.5908 36.8828C52.9294 36.7591 53.3216 36.6973 53.7676 36.6973C54.2103 36.6973 54.57 36.7493 54.8467 36.8535C55.1234 36.9577 55.3268 37.0895 55.457 37.249C55.5872 37.4053 55.6784 37.6038 55.7305 37.8447C55.7598 37.9945 55.7744 38.2646 55.7744 38.6553V39.8271C55.7744 40.6442 55.7923 41.1618 55.8281 41.3799C55.8672 41.5947 55.9421 41.8014 56.0527 42H55.1348C55.0436 41.8177 54.985 41.6045 54.959 41.3604ZM54.8857 39.3975C54.5667 39.5277 54.0882 39.6383 53.4502 39.7295C53.0889 39.7816 52.8333 39.8402 52.6836 39.9053C52.5339 39.9704 52.4183 40.0664 52.3369 40.1934C52.2555 40.3171 52.2148 40.4554 52.2148 40.6084C52.2148 40.8428 52.3027 41.0381 52.4785 41.1943C52.6576 41.3506 52.918 41.4287 53.2598 41.4287C53.5983 41.4287 53.8994 41.3555 54.1631 41.209C54.4268 41.0592 54.6204 40.8558 54.7441 40.5986C54.8385 40.4001 54.8857 40.1071 54.8857 39.7197V39.3975ZM57.1318 42V36.8145H57.9229V37.6006C58.1247 37.2327 58.3102 36.9902 58.4795 36.873C58.652 36.7559 58.8408 36.6973 59.0459 36.6973C59.3421 36.6973 59.6432 36.7917 59.9492 36.9805L59.6465 37.7959C59.4316 37.6689 59.2168 37.6055 59.002 37.6055C58.8099 37.6055 58.6374 37.6641 58.4844 37.7812C58.3314 37.8952 58.2223 38.0547 58.1572 38.2598C58.0596 38.5723 58.0107 38.9141 58.0107 39.2852V42H57.1318Z" fill="#393939"/>
<path d="M212.82 41V33.8418H217.649V34.6865H213.768V36.9033H217.127V37.748H213.768V41H212.82ZM218.445 38.4072C218.445 37.4469 218.712 36.7357 219.246 36.2734C219.692 35.8893 220.236 35.6973 220.877 35.6973C221.59 35.6973 222.173 35.9316 222.625 36.4004C223.077 36.8659 223.304 37.5104 223.304 38.334C223.304 39.0013 223.203 39.527 223.001 39.9111C222.802 40.292 222.511 40.5882 222.127 40.7998C221.746 41.0114 221.329 41.1172 220.877 41.1172C220.151 41.1172 219.563 40.8844 219.114 40.4189C218.668 39.9535 218.445 39.2829 218.445 38.4072ZM219.349 38.4072C219.349 39.0713 219.493 39.5693 219.783 39.9014C220.073 40.2301 220.438 40.3945 220.877 40.3945C221.313 40.3945 221.676 40.2285 221.966 39.8965C222.256 39.5645 222.4 39.0583 222.4 38.3779C222.4 37.7367 222.254 37.2516 221.961 36.9229C221.671 36.5908 221.31 36.4248 220.877 36.4248C220.438 36.4248 220.073 36.5892 219.783 36.918C219.493 37.2467 219.349 37.7432 219.349 38.4072ZM224.329 41V35.8145H225.12V36.6006C225.322 36.2327 225.507 35.9902 225.677 35.873C225.849 35.7559 226.038 35.6973 226.243 35.6973C226.539 35.6973 226.84 35.7917 227.146 35.9805L226.844 36.7959C226.629 36.6689 226.414 36.6055 226.199 36.6055C226.007 36.6055 225.835 36.6641 225.682 36.7812C225.529 36.8952 225.42 37.0547 225.354 37.2598C225.257 37.5723 225.208 37.9141 225.208 38.2852V41H224.329ZM231.219 39.3301L232.127 39.4424C231.984 39.973 231.718 40.3848 231.331 40.6777C230.944 40.9707 230.449 41.1172 229.847 41.1172C229.088 41.1172 228.486 40.8844 228.04 40.4189C227.597 39.9502 227.376 39.2943 227.376 38.4512C227.376 37.5788 227.601 36.9017 228.05 36.4199C228.499 35.9382 229.082 35.6973 229.798 35.6973C230.491 35.6973 231.058 35.9333 231.497 36.4053C231.937 36.8773 232.156 37.5413 232.156 38.3975C232.156 38.4495 232.155 38.5277 232.151 38.6318H228.284C228.317 39.2015 228.478 39.6377 228.768 39.9404C229.057 40.2432 229.419 40.3945 229.852 40.3945C230.174 40.3945 230.449 40.3099 230.677 40.1406C230.905 39.9714 231.085 39.7012 231.219 39.3301ZM228.333 37.9092H231.229C231.189 37.473 231.079 37.1458 230.896 36.9277C230.617 36.5892 230.254 36.4199 229.808 36.4199C229.404 36.4199 229.064 36.555 228.787 36.8252C228.514 37.0954 228.362 37.4567 228.333 37.9092ZM236.619 39.1006L237.483 39.2129C237.389 39.8086 237.146 40.2757 236.756 40.6143C236.368 40.9495 235.892 41.1172 235.325 41.1172C234.616 41.1172 234.044 40.8861 233.611 40.4238C233.182 39.9583 232.967 39.2926 232.967 38.4268C232.967 37.8669 233.06 37.377 233.245 36.957C233.431 36.5371 233.712 36.223 234.09 36.0146C234.471 35.8031 234.884 35.6973 235.33 35.6973C235.893 35.6973 236.354 35.8405 236.712 36.127C237.07 36.4102 237.299 36.8138 237.4 37.3379L236.546 37.4697C236.465 37.1214 236.32 36.8594 236.111 36.6836C235.906 36.5078 235.657 36.4199 235.364 36.4199C234.922 36.4199 234.562 36.5794 234.285 36.8984C234.008 37.2142 233.87 37.7155 233.87 38.4023C233.87 39.099 234.004 39.6051 234.271 39.9209C234.537 40.2367 234.886 40.3945 235.315 40.3945C235.66 40.3945 235.949 40.2887 236.18 40.0771C236.411 39.8656 236.557 39.54 236.619 39.1006ZM241.619 40.3604C241.294 40.637 240.979 40.8324 240.677 40.9463C240.377 41.0602 240.055 41.1172 239.71 41.1172C239.14 41.1172 238.702 40.9788 238.396 40.7021C238.09 40.4222 237.938 40.0658 237.938 39.6328C237.938 39.3789 237.994 39.1478 238.108 38.9395C238.226 38.7279 238.377 38.5586 238.562 38.4316C238.751 38.3047 238.963 38.2087 239.197 38.1436C239.37 38.098 239.63 38.054 239.979 38.0117C240.688 37.9271 241.211 37.8262 241.546 37.709C241.549 37.5885 241.551 37.512 241.551 37.4795C241.551 37.1214 241.468 36.8691 241.302 36.7227C241.077 36.5241 240.743 36.4248 240.301 36.4248C239.887 36.4248 239.581 36.498 239.383 36.6445C239.188 36.7878 239.043 37.0433 238.948 37.4111L238.089 37.2939C238.167 36.9261 238.296 36.6299 238.475 36.4053C238.654 36.1774 238.912 36.0033 239.251 35.8828C239.59 35.7591 239.982 35.6973 240.428 35.6973C240.87 35.6973 241.23 35.7493 241.507 35.8535C241.784 35.9577 241.987 36.0895 242.117 36.249C242.247 36.4053 242.339 36.6038 242.391 36.8447C242.42 36.9945 242.435 37.2646 242.435 37.6553V38.8271C242.435 39.6442 242.452 40.1618 242.488 40.3799C242.527 40.5947 242.602 40.8014 242.713 41H241.795C241.704 40.8177 241.645 40.6045 241.619 40.3604ZM241.546 38.3975C241.227 38.5277 240.748 38.6383 240.11 38.7295C239.749 38.7816 239.493 38.8402 239.344 38.9053C239.194 38.9704 239.078 39.0664 238.997 39.1934C238.916 39.3171 238.875 39.4554 238.875 39.6084C238.875 39.8428 238.963 40.0381 239.139 40.1943C239.318 40.3506 239.578 40.4287 239.92 40.4287C240.258 40.4287 240.56 40.3555 240.823 40.209C241.087 40.0592 241.281 39.8558 241.404 39.5986C241.499 39.4001 241.546 39.1071 241.546 38.7197V38.3975ZM243.45 39.4521L244.319 39.3154C244.368 39.6637 244.503 39.9307 244.725 40.1162C244.949 40.3018 245.262 40.3945 245.662 40.3945C246.066 40.3945 246.365 40.3132 246.561 40.1504C246.756 39.9844 246.854 39.7907 246.854 39.5693C246.854 39.3708 246.767 39.2145 246.595 39.1006C246.474 39.0225 246.175 38.9232 245.696 38.8027C245.052 38.64 244.604 38.5 244.354 38.3828C244.106 38.2624 243.917 38.098 243.787 37.8896C243.66 37.6781 243.597 37.4453 243.597 37.1914C243.597 36.9603 243.649 36.7471 243.753 36.5518C243.86 36.3532 244.005 36.1888 244.188 36.0586C244.324 35.9577 244.51 35.873 244.744 35.8047C244.982 35.7331 245.236 35.6973 245.506 35.6973C245.913 35.6973 246.269 35.7559 246.575 35.873C246.884 35.9902 247.112 36.1497 247.259 36.3516C247.405 36.5501 247.506 36.8171 247.562 37.1523L246.702 37.2695C246.663 37.0026 246.549 36.7943 246.36 36.6445C246.175 36.4948 245.911 36.4199 245.569 36.4199C245.166 36.4199 244.878 36.4867 244.705 36.6201C244.533 36.7536 244.446 36.9098 244.446 37.0889C244.446 37.2028 244.482 37.3053 244.554 37.3965C244.625 37.4909 244.738 37.569 244.891 37.6309C244.979 37.6634 245.237 37.7383 245.667 37.8555C246.289 38.0215 246.722 38.1582 246.966 38.2656C247.213 38.3698 247.407 38.5228 247.547 38.7246C247.687 38.9264 247.757 39.1771 247.757 39.4766C247.757 39.7695 247.671 40.0462 247.498 40.3066C247.329 40.5638 247.083 40.764 246.761 40.9072C246.438 41.0472 246.074 41.1172 245.667 41.1172C244.993 41.1172 244.479 40.9772 244.124 40.6973C243.772 40.4173 243.548 40.0023 243.45 39.4521ZM250.721 40.2139L250.848 40.9902C250.6 41.0423 250.379 41.0684 250.184 41.0684C249.865 41.0684 249.617 41.0179 249.441 40.917C249.266 40.8161 249.142 40.6842 249.07 40.5215C248.999 40.3555 248.963 40.0088 248.963 39.4814V36.498H248.318V35.8145H248.963V34.5303L249.837 34.0029V35.8145H250.721V36.498H249.837V39.5303C249.837 39.7809 249.852 39.9421 249.881 40.0137C249.913 40.0853 249.964 40.1423 250.032 40.1846C250.104 40.2269 250.205 40.248 250.335 40.248C250.433 40.248 250.561 40.2367 250.721 40.2139Z" fill="#393939"/>
<path fill-rule="evenodd" clip-rule="evenodd" d="M78.1464 37.1464C78.3417 36.9512 78.6583 36.9512 78.8536 37.1464L82 40.2929L85.1465 37.1464C85.3417 36.9512 85.6583 36.9512 85.8536 37.1464C86.0488 37.3417 86.0488 37.6583 85.8536 37.8536L82.3536 41.3536C82.1583 41.5488 81.8417 41.5488 81.6465 41.3536L78.1464 37.8536C77.9512 37.6583 77.9512 37.3417 78.1464 37.1464Z" fill="black"/>
<path d="M24 74H280" stroke="#01012E" stroke-opacity="0.08" stroke-width="1.28875"/>
<path d="M24 109H280" stroke="#01012E" stroke-opacity="0.08" stroke-width="1.28875"/>
<path d="M25 179H281" stroke="#01012E" stroke-opacity="0.08" stroke-width="1.28875"/>
<path d="M25 144H281" stroke="#01012E" stroke-opacity="0.08" stroke-width="1.28875"/>
<path d="M26 214H282" stroke="#01012E" stroke-opacity="0.08" stroke-width="1.28875"/>
<rect x="200" y="225" width="71" height="18.9333" rx="9.46667" fill="#00BC0D" fill-opacity="0.15"/>
<rect x="25" y="229" width="71" height="18.9333" rx="9.46667" fill="#00BC0D" fill-opacity="0.15"/>
<path d="M210.909 234.955V234.179L213.711 234.174V236.629C213.281 236.972 212.837 237.231 212.38 237.406C211.923 237.577 211.454 237.663 210.972 237.663C210.322 237.663 209.731 237.524 209.199 237.248C208.669 236.968 208.269 236.565 207.998 236.038C207.727 235.512 207.592 234.924 207.592 234.274C207.592 233.63 207.726 233.03 207.994 232.473C208.264 231.913 208.652 231.498 209.158 231.227C209.663 230.957 210.246 230.821 210.904 230.821C211.383 230.821 211.815 230.9 212.2 231.056C212.588 231.209 212.892 231.425 213.111 231.701C213.331 231.978 213.498 232.339 213.612 232.784L212.822 233.001C212.723 232.664 212.6 232.399 212.452 232.207C212.305 232.014 212.094 231.861 211.821 231.746C211.547 231.629 211.243 231.57 210.909 231.57C210.509 231.57 210.163 231.632 209.871 231.755C209.579 231.876 209.343 232.035 209.162 232.234C208.985 232.432 208.847 232.651 208.747 232.888C208.579 233.297 208.495 233.741 208.495 234.22C208.495 234.809 208.595 235.303 208.797 235.7C209.001 236.097 209.298 236.392 209.686 236.584C210.074 236.777 210.486 236.873 210.922 236.873C211.302 236.873 211.672 236.801 212.033 236.656C212.394 236.509 212.667 236.353 212.854 236.187V234.955H210.909ZM214.894 237.55V232.757H215.625V233.484C215.811 233.144 215.983 232.92 216.139 232.811C216.299 232.703 216.473 232.649 216.663 232.649C216.937 232.649 217.215 232.736 217.498 232.911L217.218 233.664C217.019 233.547 216.821 233.488 216.622 233.488C216.445 233.488 216.285 233.543 216.144 233.651C216.003 233.756 215.902 233.904 215.842 234.093C215.751 234.382 215.706 234.698 215.706 235.041V237.55H214.894ZM217.678 235.154C217.678 234.266 217.925 233.609 218.418 233.182C218.831 232.827 219.333 232.649 219.926 232.649C220.585 232.649 221.123 232.866 221.541 233.299C221.96 233.729 222.169 234.325 222.169 235.086C222.169 235.703 222.075 236.189 221.889 236.544C221.705 236.896 221.436 237.169 221.081 237.365C220.729 237.561 220.344 237.658 219.926 237.658C219.255 237.658 218.712 237.443 218.297 237.013C217.884 236.583 217.678 235.963 217.678 235.154ZM218.513 235.154C218.513 235.767 218.647 236.228 218.915 236.535C219.183 236.839 219.52 236.99 219.926 236.99C220.329 236.99 220.664 236.837 220.932 236.53C221.2 236.223 221.334 235.755 221.334 235.127C221.334 234.534 221.198 234.086 220.928 233.782C220.66 233.475 220.326 233.321 219.926 233.321C219.52 233.321 219.183 233.473 218.915 233.777C218.647 234.081 218.513 234.54 218.513 235.154ZM224.01 237.55L222.543 232.757H223.383L224.145 235.524L224.43 236.553C224.442 236.502 224.524 236.172 224.678 235.564L225.441 232.757H226.275L226.993 235.537L227.232 236.453L227.507 235.528L228.329 232.757H229.119L227.62 237.55H226.776L226.014 234.68L225.829 233.863L224.858 237.55H224.01ZM231.578 236.823L231.695 237.541C231.467 237.589 231.262 237.613 231.082 237.613C230.787 237.613 230.558 237.567 230.396 237.473C230.233 237.38 230.119 237.258 230.053 237.108C229.987 236.954 229.953 236.634 229.953 236.147V233.389H229.358V232.757H229.953V231.57L230.761 231.083V232.757H231.578V233.389H230.761V236.192C230.761 236.423 230.775 236.572 230.802 236.638C230.832 236.705 230.879 236.757 230.942 236.796C231.008 236.836 231.101 236.855 231.222 236.855C231.312 236.855 231.431 236.845 231.578 236.823ZM232.377 237.55V230.934H233.189V233.308C233.568 232.869 234.047 232.649 234.624 232.649C234.979 232.649 235.288 232.72 235.55 232.861C235.811 233 235.998 233.192 236.109 233.439C236.223 233.685 236.281 234.044 236.281 234.513V237.55H235.468V234.513C235.468 234.107 235.38 233.812 235.202 233.628C235.028 233.442 234.779 233.349 234.457 233.349C234.217 233.349 233.99 233.412 233.776 233.538C233.565 233.661 233.415 233.83 233.325 234.044C233.234 234.257 233.189 234.552 233.189 234.928V237.55H232.377ZM237.747 233.682V232.757H238.672V233.682H237.747ZM237.747 237.55V236.625H238.672V237.55H237.747ZM244.372 236.48V234.666H242.572V233.908H244.372V232.107H245.139V233.908H246.94V234.666H245.139V236.48H244.372ZM252.107 236.769V237.55H247.734C247.728 237.354 247.76 237.166 247.829 236.986C247.94 236.688 248.118 236.395 248.362 236.106C248.608 235.817 248.963 235.483 249.427 235.104C250.146 234.514 250.632 234.048 250.884 233.705C251.137 233.359 251.264 233.033 251.264 232.726C251.264 232.404 251.148 232.133 250.916 231.913C250.687 231.691 250.388 231.579 250.018 231.579C249.627 231.579 249.314 231.697 249.079 231.931C248.845 232.166 248.726 232.491 248.723 232.906L247.888 232.821C247.945 232.198 248.16 231.724 248.533 231.399C248.906 231.071 249.407 230.907 250.036 230.907C250.671 230.907 251.173 231.083 251.543 231.435C251.913 231.787 252.098 232.223 252.098 232.744C252.098 233.009 252.044 233.269 251.936 233.525C251.828 233.78 251.647 234.05 251.394 234.332C251.145 234.615 250.728 235.003 250.144 235.497C249.657 235.906 249.344 236.184 249.206 236.332C249.067 236.476 248.953 236.622 248.863 236.769H252.107ZM252.983 235.817L253.836 235.745C253.899 236.16 254.045 236.473 254.274 236.684C254.505 236.891 254.784 236.995 255.109 236.995C255.5 236.995 255.831 236.848 256.101 236.553C256.372 236.258 256.508 235.867 256.508 235.379C256.508 234.916 256.377 234.55 256.115 234.283C255.856 234.015 255.516 233.881 255.095 233.881C254.833 233.881 254.597 233.941 254.386 234.062C254.176 234.179 254.01 234.332 253.89 234.522L253.127 234.423L253.768 231.024H257.058V231.801H254.418L254.062 233.579C254.459 233.302 254.875 233.163 255.312 233.163C255.889 233.163 256.377 233.364 256.774 233.764C257.171 234.164 257.369 234.678 257.369 235.307C257.369 235.906 257.195 236.423 256.846 236.86C256.422 237.395 255.843 237.663 255.109 237.663C254.507 237.663 254.015 237.494 253.633 237.157C253.254 236.82 253.037 236.374 252.983 235.817ZM258.281 232.523C258.281 232.05 258.4 231.649 258.638 231.318C258.875 230.987 259.22 230.821 259.671 230.821C260.086 230.821 260.429 230.97 260.7 231.268C260.974 231.563 261.111 231.998 261.111 232.572C261.111 233.132 260.972 233.564 260.696 233.868C260.422 234.168 260.083 234.319 259.68 234.319C259.28 234.319 258.946 234.17 258.678 233.872C258.413 233.574 258.281 233.124 258.281 232.523ZM259.694 231.381C259.492 231.381 259.324 231.468 259.188 231.643C259.056 231.817 258.99 232.138 258.99 232.604C258.99 233.028 259.057 233.327 259.193 233.502C259.328 233.673 259.495 233.759 259.694 233.759C259.898 233.759 260.067 233.672 260.199 233.497C260.334 233.323 260.402 233.004 260.402 232.541C260.402 232.113 260.334 231.814 260.199 231.643C260.064 231.468 259.895 231.381 259.694 231.381ZM259.698 237.794L263.318 230.821H263.976L260.371 237.794H259.698ZM262.559 235.998C262.559 235.522 262.678 235.121 262.916 234.793C263.154 234.462 263.5 234.296 263.954 234.296C264.369 234.296 264.712 234.445 264.983 234.743C265.257 235.038 265.393 235.473 265.393 236.047C265.393 236.607 265.255 237.039 264.978 237.342C264.705 237.643 264.365 237.794 263.958 237.794C263.558 237.794 263.224 237.645 262.956 237.347C262.692 237.046 262.559 236.596 262.559 235.998ZM263.976 234.856C263.772 234.856 263.602 234.943 263.466 235.118C263.334 235.292 263.268 235.613 263.268 236.079C263.268 236.5 263.336 236.798 263.471 236.972C263.606 237.147 263.773 237.234 263.972 237.234C264.18 237.234 264.349 237.147 264.482 236.972C264.617 236.798 264.685 236.479 264.685 236.016C264.685 235.588 264.617 235.289 264.482 235.118C264.346 234.943 264.178 234.856 263.976 234.856Z" fill="#00B30C"/>
<path d="M34.704 241.55L32.1407 234.934H33.0884L34.8078 239.74C34.9462 240.125 35.062 240.486 35.1553 240.823C35.2576 240.462 35.3764 240.101 35.5118 239.74L37.2989 234.934H38.1925L35.6021 241.55H34.704ZM38.0571 239.153C38.0571 238.266 38.3038 237.609 38.7972 237.181C39.2094 236.826 39.7118 236.649 40.3045 236.649C40.9634 236.649 41.502 236.865 41.9202 237.299C42.3384 237.729 42.5475 238.325 42.5475 239.086C42.5475 239.703 42.4542 240.188 42.2677 240.543C42.0841 240.895 41.8149 241.169 41.4598 241.365C41.1078 241.56 40.7227 241.658 40.3045 241.658C39.6336 241.658 39.0906 241.443 38.6754 241.013C38.2632 240.583 38.0571 239.963 38.0571 239.153ZM38.892 239.153C38.892 239.767 39.0259 240.228 39.2936 240.534C39.5614 240.838 39.8984 240.99 40.3045 240.99C40.7077 240.99 41.0431 240.837 41.3109 240.53C41.5787 240.223 41.7126 239.755 41.7126 239.126C41.7126 238.534 41.5772 238.085 41.3064 237.782C41.0386 237.475 40.7047 237.321 40.3045 237.321C39.8984 237.321 39.5614 237.473 39.2936 237.777C39.0259 238.081 38.892 238.54 38.892 239.153ZM43.4861 241.55V234.934H44.2985V241.55H43.4861ZM48.7031 241.55V240.846C48.33 241.387 47.8231 241.658 47.1822 241.658C46.8994 241.658 46.6347 241.604 46.388 241.496C46.1443 241.387 45.9622 241.252 45.8419 241.089C45.7246 240.924 45.6418 240.722 45.5937 240.485C45.5606 240.325 45.544 240.073 45.544 239.727V236.757H46.3564V239.415C46.3564 239.839 46.3729 240.125 46.406 240.273C46.4572 240.486 46.5655 240.655 46.7309 240.778C46.8964 240.898 47.101 240.959 47.3447 240.959C47.5884 240.959 47.817 240.897 48.0307 240.774C48.2443 240.647 48.3947 240.477 48.482 240.264C48.5722 240.047 48.6173 239.734 48.6173 239.325V236.757H49.4297V241.55H48.7031ZM50.7068 241.55V236.757H51.4334V237.43C51.5838 237.195 51.7839 237.007 52.0336 236.865C52.2833 236.721 52.5677 236.649 52.8866 236.649C53.2416 236.649 53.5319 236.722 53.7576 236.87C53.9862 237.017 54.1472 237.223 54.2404 237.488C54.6195 236.929 55.1129 236.649 55.7207 236.649C56.196 236.649 56.5616 236.781 56.8173 237.046C57.0731 237.308 57.2009 237.712 57.2009 238.26V241.55H56.3931V238.531C56.3931 238.206 56.366 237.973 56.3119 237.831C56.2607 237.687 56.166 237.571 56.0276 237.484C55.8892 237.396 55.7267 237.353 55.5402 237.353C55.2032 237.353 54.9234 237.466 54.7008 237.691C54.4781 237.914 54.3668 238.272 54.3668 238.765V241.55H53.5545V238.436C53.5545 238.075 53.4883 237.804 53.3559 237.624C53.2235 237.443 53.0069 237.353 52.706 237.353C52.4774 237.353 52.2653 237.413 52.0697 237.533C51.8772 237.654 51.7373 237.83 51.65 238.061C51.5628 238.293 51.5191 238.627 51.5191 239.063V241.55H50.7068ZM61.6868 240.006L62.5262 240.11C62.3938 240.601 62.1486 240.981 61.7906 241.252C61.4325 241.523 60.9752 241.658 60.4186 241.658C59.7176 241.658 59.161 241.443 58.7489 241.013C58.3397 240.58 58.1351 239.973 58.1351 239.194C58.1351 238.388 58.3427 237.762 58.7579 237.317C59.1731 236.871 59.7116 236.649 60.3735 236.649C61.0143 236.649 61.5378 236.867 61.944 237.303C62.3502 237.739 62.5532 238.353 62.5532 239.144C62.5532 239.193 62.5517 239.265 62.5487 239.361H58.9745C59.0046 239.888 59.1535 240.291 59.4213 240.571C59.689 240.85 60.023 240.99 60.4231 240.99C60.721 240.99 60.9752 240.912 61.1858 240.756C61.3964 240.599 61.5634 240.349 61.6868 240.006ZM59.0196 238.693H61.6958C61.6597 238.29 61.5574 237.988 61.3889 237.786C61.1302 237.473 60.7947 237.317 60.3825 237.317C60.0095 237.317 59.6951 237.442 59.4393 237.691C59.1866 237.941 59.0467 238.275 59.0196 238.693ZM63.7763 237.682V236.757H64.7014V237.682H63.7763ZM63.7763 241.55V240.625H64.7014V241.55H63.7763ZM70.4012 240.48V238.666H68.6006V237.908H70.4012V236.107H71.1684V237.908H72.9691V238.666H71.1684V240.48H70.4012ZM78.1364 240.769V241.55H73.7634C73.7573 241.354 73.7889 241.166 73.8581 240.986C73.9694 240.688 74.147 240.394 74.3906 240.106C74.6374 239.817 74.9924 239.483 75.4557 239.104C76.1748 238.514 76.6606 238.048 76.9134 237.705C77.1661 237.359 77.2925 237.032 77.2925 236.725C77.2925 236.404 77.1766 236.133 76.945 235.913C76.7163 235.691 76.417 235.579 76.0469 235.579C75.6558 235.579 75.3429 235.697 75.1082 235.931C74.8735 236.166 74.7547 236.491 74.7517 236.906L73.9168 236.82C73.974 236.197 74.1891 235.724 74.5621 235.399C74.9352 235.071 75.4361 234.907 76.0649 234.907C76.6998 234.907 77.2022 235.083 77.5723 235.435C77.9423 235.787 78.1274 236.223 78.1274 236.744C78.1274 237.008 78.0732 237.269 77.9649 237.524C77.8566 237.78 77.6761 238.049 77.4233 238.332C77.1736 238.615 76.7569 239.003 76.1733 239.496C75.6859 239.906 75.373 240.184 75.2346 240.331C75.0962 240.476 74.9818 240.622 74.8916 240.769H78.1364ZM79.0119 239.817L79.8648 239.745C79.928 240.16 80.0739 240.473 80.3026 240.683C80.5342 240.891 80.8125 240.995 81.1375 240.995C81.5286 240.995 81.8595 240.847 82.1303 240.552C82.4011 240.258 82.5365 239.866 82.5365 239.379C82.5365 238.916 82.4056 238.55 82.1439 238.282C81.8851 238.015 81.5451 237.881 81.1239 237.881C80.8622 237.881 80.626 237.941 80.4154 238.061C80.2048 238.179 80.0393 238.332 79.919 238.522L79.1563 238.422L79.7971 235.024H83.0871V235.8H80.447L80.0905 237.578C80.4876 237.302 80.9043 237.163 81.3406 237.163C81.9182 237.163 82.4056 237.363 82.8027 237.763C83.1999 238.164 83.3984 238.678 83.3984 239.307C83.3984 239.906 83.2239 240.423 82.8749 240.859C82.4507 241.395 81.8716 241.663 81.1375 241.663C80.5357 241.663 80.0438 241.494 79.6617 241.157C79.2827 240.82 79.066 240.373 79.0119 239.817ZM84.45 241.55V234.934H85.3255V238.215L88.6109 234.934H89.7978L87.0223 237.615L89.9196 241.55H88.7643L86.4086 238.201L85.3255 239.257V241.55H84.45Z" fill="#00B30C"/>
<path d="M25 137.717C42.1331 116.404 59.2669 95.0907 76.4 88.8949C93.5331 82.699 110.667 91.6208 127.8 116.793C144.933 141.966 162.067 184.289 179.2 184.975C196.333 185.661 213.467 144.712 230.6 128.28C247.733 111.85 264.867 119.039 282 126.229V214.026C264.867 214.026 247.733 214.026 230.6 214.026C213.467 214.026 196.333 214.026 179.2 214.026C162.067 214.026 144.933 214.026 127.8 214.026C110.667 214.026 93.5331 214.026 76.4 214.026C59.2669 214.026 42.1331 214.026 25 214.026V137.717Z" fill="url(#paint0_linear_557_308)" fill-opacity="0.4"/>
<path d="M25 137.717C42.1331 116.404 59.2669 95.0907 76.4 88.8949C93.5331 82.699 110.667 91.6208 127.8 116.793C144.933 141.966 162.067 184.289 179.2 184.975C196.333 185.661 213.467 144.712 230.6 128.28C247.733 111.85 264.867 119.039 282 126.229V214.026C264.867 214.026 247.733 214.026 230.6 214.026C213.467 214.026 196.333 214.026 179.2 214.026C162.067 214.026 144.933 214.026 127.8 214.026C110.667 214.026 93.5331 214.026 76.4 214.026C59.2669 214.026 42.1331 214.026 25 214.026V137.717Z" fill="url(#paint1_linear_557_308)" fill-opacity="0.4"/>
<path d="M25 137.717C42.1331 116.404 59.2669 95.0907 76.4 88.8949C93.5331 82.699 110.667 91.6208 127.8 116.793C144.933 141.966 162.067 184.289 179.2 184.975C196.333 185.661 213.467 144.712 230.6 128.28C247.733 111.85 264.867 119.039 282 126.229V214.026C264.867 214.026 247.733 214.026 230.6 214.026C213.467 214.026 196.333 214.026 179.2 214.026C162.067 214.026 144.933 214.026 127.8 214.026C110.667 214.026 93.5331 214.026 76.4 214.026C59.2669 214.026 42.1331 214.026 25 214.026V137.717Z" stroke="#2563EB" stroke-width="0.795666"/>
</g>
<defs>
<linearGradient id="paint0_linear_557_308" x1="153.5" y1="87" x2="153.5" y2="214.026" gradientUnits="userSpaceOnUse">
<stop offset="0.125373" stop-color="#2563EB"/>
<stop offset="1" stop-color="#2563EB" stop-opacity="0.3"/>
</linearGradient>
<linearGradient id="paint1_linear_557_308" x1="153.5" y1="87" x2="153.5" y2="214.026" gradientUnits="userSpaceOnUse">
<stop offset="0.125373" stop-color="#2563EB"/>
<stop offset="1" stop-color="#2563EB" stop-opacity="0.3"/>
</linearGradient>
<clipPath id="clip0_557_308">
<rect width="300" height="260" fill="white"/>
</clipPath>
</defs>
</svg>
