<svg width="303" height="200" viewBox="0 0 303 200" fill="none" xmlns="http://www.w3.org/2000/svg">
<g clip-path="url(#clip0_500_129)">
<path d="M15.9529 183.795H287.047" stroke="#01012E" stroke-opacity="0.08" stroke-width="1.14872"/>
<path d="M15.9529 139.282H287.047" stroke="#01012E" stroke-opacity="0.08" stroke-width="1.14872"/>
<path d="M15.9529 94.7692H287.047" stroke="#01012E" stroke-opacity="0.08" stroke-width="1.14872"/>
<path d="M15.9529 50.2564H287.047" stroke="#01012E" stroke-opacity="0.08" stroke-width="1.14872"/>
<path d="M15.9529 5.74353H287.047" stroke="#01012E" stroke-opacity="0.08" stroke-width="1.14872"/>
<path d="M29.1615 89.1872C29.1615 86.7499 30.1297 84.4125 31.8531 82.6891C33.5766 80.9656 35.914 79.9974 38.3513 79.9974H70.5154C72.9526 79.9974 75.2901 80.9656 77.0135 82.6891C78.7369 84.4125 79.7051 86.7499 79.7051 89.1872V174.3C79.7051 176.737 78.7369 179.075 77.0135 180.798C75.2901 182.522 72.9526 183.49 70.5154 183.49H38.3513C35.914 183.49 33.5766 182.522 31.8531 180.798C30.1297 179.075 29.1615 176.737 29.1615 174.3V89.1872Z" fill="#ACCFFF"/>
<path d="M93.6812 22.9744C93.6812 20.5371 94.6494 18.1997 96.3728 16.4763C98.0962 14.7529 100.434 13.7847 102.871 13.7847H135.035C137.472 13.7847 139.81 14.7529 141.533 16.4763C143.257 18.1997 144.225 20.5371 144.225 22.9744V174.3C144.225 176.737 143.257 179.075 141.533 180.798C139.81 182.522 137.472 183.49 135.035 183.49H102.871C100.434 183.49 98.0962 182.522 96.3728 180.798C94.6494 179.075 93.6812 176.737 93.6812 174.3V22.9744Z" fill="#ACCFFF"/>
<path d="M158.201 60.8102C158.201 58.373 159.169 56.0355 160.892 54.3121C162.616 52.5887 164.953 51.6205 167.391 51.6205H199.555C201.992 51.6205 204.329 52.5887 206.053 54.3121C207.776 56.0355 208.744 58.373 208.744 60.8102V174.3C208.744 176.737 207.776 179.075 206.053 180.798C204.329 182.522 201.992 183.49 199.555 183.49H167.391C164.953 183.49 162.616 182.522 160.892 180.798C159.169 179.075 158.201 176.737 158.201 174.3V60.8102Z" fill="#3985ED"/>
<path d="M223.735 73.2013C223.735 70.7641 224.704 68.4266 226.427 66.7032C228.15 64.9798 230.488 64.0116 232.925 64.0116H265.089C267.526 64.0116 269.864 64.9798 271.587 66.7032C273.311 68.4266 274.279 70.7641 274.279 73.2013V173.894C274.279 176.331 273.311 178.668 271.587 180.392C269.864 182.115 267.526 183.083 265.089 183.083H232.925C230.488 183.083 228.15 182.115 226.427 180.392C224.704 178.668 223.735 176.331 223.735 173.894V73.2013Z" fill="#ACCFFF"/>
<path d="M53.627 119.468C61.8044 119.468 68.4234 112.604 68.4234 104.149C68.4234 95.6948 61.8044 88.8307 53.627 88.8307C45.4497 88.8307 38.8307 95.6948 38.8307 104.149C38.8307 112.604 45.4497 119.468 53.627 119.468Z" fill="white" stroke="#B8B8B8" stroke-width="0.338655"/>
<path d="M48.3108 106.422C48.4302 105.433 48.8357 104.88 49.5998 104.312C50.6933 103.544 52.059 103.978 52.059 103.978V101.399C52.3911 101.391 52.7233 101.41 53.0517 101.458V104.777C53.0517 104.777 51.6863 104.342 50.5929 105.111C49.8292 105.678 49.4228 106.232 49.3038 107.221C49.3001 107.758 49.4008 108.46 49.8648 109.067C49.7501 109.008 49.6332 108.941 49.514 108.866C48.492 108.179 48.3058 107.15 48.3108 106.422ZM58.6911 96.6305C57.939 95.8063 57.6545 94.9741 57.5517 94.3895H58.4979C58.4979 94.3895 58.3092 95.9223 59.6841 97.4296L59.7032 97.4499C59.3326 97.2168 58.9928 96.9417 58.6911 96.6305ZM63.2491 98.9672V102.219C63.2491 102.219 62.0418 102.172 61.1483 101.945C59.9006 101.627 59.0987 101.139 59.0987 101.139C59.0987 101.139 58.5447 100.792 58.4999 100.767V107.483C58.4999 107.857 58.3975 108.791 58.0853 109.57C57.6777 110.589 57.0488 111.258 56.9331 111.395C56.9331 111.395 56.1681 112.299 54.8184 112.908C53.6019 113.457 52.5338 113.443 52.2145 113.457C52.2145 113.457 50.3682 113.53 48.7067 112.45C48.3475 112.212 48.0121 111.943 47.705 111.645L47.7133 111.651C49.3751 112.731 51.2211 112.658 51.2211 112.658C51.5408 112.644 52.6088 112.658 53.825 112.108C55.1734 111.5 55.9396 110.595 55.9396 110.595C56.0541 110.459 56.6859 109.79 57.0919 108.771C57.4032 107.992 57.5065 107.058 57.5065 106.684V99.9687C57.5513 99.9933 58.1048 100.341 58.1048 100.341C58.1048 100.341 58.9072 100.829 60.1548 101.147C61.0487 101.374 62.2557 101.421 62.2557 101.421V98.8726C62.6687 98.9652 63.0207 98.9902 63.2491 98.9672Z" fill="#EE1D52"/>
<path d="M62.2564 98.8726V101.42C62.2564 101.42 61.0493 101.373 60.1554 101.146C58.9078 100.828 58.1054 100.34 58.1054 100.34C58.1054 100.34 57.5519 99.9925 57.5071 99.9678V106.685C57.5071 107.059 57.4047 107.993 57.0925 108.771C56.6849 109.791 56.0559 110.46 55.9402 110.596C55.9402 110.596 55.1749 111.5 53.8256 112.109C52.6095 112.658 51.5414 112.644 51.2217 112.658C51.2217 112.658 49.3758 112.732 47.7139 111.652L47.7056 111.646C47.5302 111.476 47.365 111.297 47.211 111.109C46.6807 110.462 46.3556 109.697 46.2739 109.479V109.476C46.1425 109.097 45.8663 108.187 45.9041 107.305C45.9708 105.749 46.5181 104.794 46.6628 104.555C47.0461 103.903 47.5445 103.319 48.136 102.83C48.658 102.408 49.2496 102.072 49.8866 101.836C50.5752 101.56 51.3126 101.411 52.0593 101.399V103.978C52.0593 103.978 50.6934 103.545 49.6005 104.312C48.8363 104.88 48.4308 105.433 48.3114 106.422C48.3064 107.15 48.4926 108.179 49.5138 108.866C49.633 108.941 49.7499 109.009 49.8647 109.067C50.043 109.299 50.2602 109.501 50.5073 109.665C51.5049 110.297 52.3408 110.341 53.4098 109.931C54.1225 109.656 54.659 109.038 54.9078 108.354C55.0641 107.926 55.0621 107.496 55.0621 107.051V94.3895H57.5498C57.6527 94.9741 57.9371 95.8063 58.6893 96.6305C58.9909 96.9417 59.3308 97.2168 59.7014 97.4499C59.8109 97.5632 60.3706 98.1231 61.0891 98.4668C61.4607 98.6445 61.8524 98.7807 62.2564 98.8726Z" fill="black"/>
<path d="M49.8863 101.837C49.2493 102.072 48.6576 102.408 48.1357 102.83C47.544 103.32 47.0457 103.905 46.6629 104.559C46.5182 104.797 45.9709 105.753 45.9041 107.309C45.8664 108.191 46.1426 109.101 46.274 109.48V109.483C46.3569 109.699 46.6807 110.464 47.2111 111.112C47.3651 111.3 47.5303 111.48 47.7057 111.65C47.1436 111.277 46.6422 110.826 46.218 110.313C45.6923 109.672 45.368 108.915 45.2834 108.692C45.2833 108.69 45.2833 108.689 45.2834 108.687V108.684C45.1516 108.305 44.8746 107.395 44.9132 106.512C44.9799 104.956 45.5272 104.001 45.6719 103.762C46.0546 103.108 46.5529 102.523 47.1447 102.033C47.6666 101.611 48.2582 101.275 48.8953 101.039C49.2927 100.881 49.7067 100.765 50.1301 100.692C50.7682 100.585 51.4199 100.576 52.061 100.664V101.399C51.3137 101.411 50.5755 101.56 49.8863 101.837Z" fill="#69C9D0"/>
<path d="M57.5515 94.3898H55.0637V107.051C55.0637 107.496 55.0637 107.926 54.9094 108.354C54.6582 109.039 54.1237 109.657 53.4113 109.931C52.3421 110.343 51.5062 110.297 50.509 109.665C50.2614 109.502 50.0437 109.301 49.8646 109.069C50.7142 109.504 51.4746 109.496 52.4166 109.134C53.1286 108.859 53.6639 108.242 53.9143 107.557C54.071 107.129 54.069 106.699 54.069 106.254V93.5902H57.5042C57.5042 93.5902 57.4657 93.9049 57.5515 94.3898ZM62.2559 98.1682V98.8728C61.8526 98.7808 61.4617 98.6446 61.0908 98.4671C60.3723 98.1233 59.8124 97.5634 59.703 97.4501C59.83 97.5301 59.9618 97.6028 60.0977 97.6679C60.9714 98.086 61.8317 98.2108 62.2559 98.1682Z" fill="#69C9D0"/>
<circle cx="119.096" cy="39.0959" r="14.9233" fill="white" stroke="#B8B8B8" stroke-width="0.345048"/>
<path fill-rule="evenodd" clip-rule="evenodd" d="M119.717 39.9791C119.455 40.5036 119.004 40.8413 118.517 40.9551C118.443 40.9551 118.33 40.9921 118.217 40.9921C117.394 40.9921 116.906 40.3548 116.906 39.4177C116.906 38.2169 117.618 37.6555 118.517 37.3918C119.004 37.2799 119.567 37.2419 120.13 37.2419V37.6925C120.13 38.5546 120.167 39.2289 119.717 39.9791ZM120.13 35.5187C119.642 35.5557 119.079 35.5926 118.517 35.6666C117.655 35.7804 116.794 35.9303 116.083 36.2679C114.696 36.8304 113.758 38.0301 113.758 39.7913C113.758 42.0051 115.182 43.1289 116.982 43.1289C117.581 43.1289 118.069 43.053 118.517 42.9421C119.231 42.7163 119.829 42.3038 120.541 41.5535C120.953 42.1159 121.067 42.3797 121.778 42.9791C121.966 43.053 122.154 43.053 122.302 42.9421C122.753 42.5665 123.54 41.8912 123.952 41.5166C124.14 41.3667 124.103 41.1409 123.989 40.9551C123.577 40.4297 123.164 39.9791 123.164 38.9672V35.5926C123.164 34.1681 123.278 32.8554 122.228 31.8814C121.367 31.0952 120.017 30.7946 118.967 30.7946H118.517C116.607 30.9054 114.584 31.7306 114.133 34.0932C114.058 34.3939 114.283 34.5057 114.433 34.5427L116.532 34.8054C116.757 34.7675 116.869 34.5797 116.906 34.3939C117.093 33.5687 117.768 33.1561 118.517 33.0802H118.668C119.118 33.0802 119.605 33.268 119.867 33.6436C120.167 34.0932 120.13 34.6936 120.13 35.219V35.5187Z" fill="#343B45"/>
<path fill-rule="evenodd" clip-rule="evenodd" d="M127.71 43.5125V43.5115C127.702 43.3347 127.665 43.1998 127.591 43.088L127.583 43.077L127.574 43.066C127.5 42.9841 127.428 42.9531 127.35 42.9191C127.117 42.8292 126.779 42.7813 126.371 42.7803C126.079 42.7803 125.756 42.8082 125.432 42.8792L125.431 42.8572L125.104 42.9661L125.098 42.9691L124.913 43.029V43.037C124.697 43.1269 124.5 43.2388 124.317 43.3717C124.204 43.4566 124.11 43.5695 124.105 43.7423C124.102 43.8362 124.15 43.9441 124.228 44.008C124.307 44.0719 124.399 44.0939 124.48 44.0939C124.499 44.0939 124.517 44.0929 124.533 44.0899L124.549 44.0889L124.561 44.0869C124.721 44.053 124.953 44.03 125.226 43.992C125.46 43.9661 125.707 43.9471 125.922 43.9471C126.074 43.9461 126.211 43.9571 126.304 43.977C126.351 43.987 126.386 43.999 126.405 44.009C126.412 44.011 126.417 44.014 126.42 44.016C126.424 44.029 126.43 44.063 126.429 44.1099C126.431 44.2897 126.355 44.6234 126.25 44.949C126.149 45.2747 126.025 45.6014 125.943 45.8182C125.923 45.8681 125.91 45.923 125.91 45.983C125.908 46.0699 125.944 46.1758 126.02 46.2457C126.094 46.3156 126.19 46.3436 126.269 46.3436H126.273C126.393 46.3426 126.495 46.2947 126.583 46.2257C127.412 45.4805 127.7 44.2897 127.712 43.6194L127.71 43.5125ZM125.253 44.5455C125.168 44.5445 125.081 44.5644 125 44.6024C124.909 44.6384 124.817 44.6803 124.729 44.7173L124.6 44.7712L124.432 44.8382V44.8402C122.61 45.5794 120.696 46.013 118.924 46.0509C118.86 46.0529 118.794 46.0529 118.731 46.0529C115.945 46.0549 113.672 44.7622 111.38 43.4885C111.3 43.4466 111.217 43.4246 111.137 43.4246C111.034 43.4246 110.928 43.4636 110.852 43.5355C110.775 43.6084 110.729 43.7133 110.73 43.8202C110.729 43.9591 110.804 44.0869 110.908 44.1698C113.06 46.0389 115.419 47.7752 118.591 47.7771C118.653 47.7771 118.716 47.7751 118.779 47.7742C120.797 47.7292 123.078 47.0469 124.85 45.934L124.861 45.927C125.092 45.7882 125.324 45.6304 125.543 45.4555C125.678 45.3546 125.772 45.1968 125.772 45.033C125.766 44.7423 125.52 44.5455 125.253 44.5455Z" fill="#FF9A00"/>
<path d="M182.627 93.4682C190.804 93.4682 197.423 86.6041 197.423 78.1494C197.423 69.6948 190.804 62.8307 182.627 62.8307C174.45 62.8307 167.831 69.6948 167.831 78.1494C167.831 86.6041 174.45 93.4682 182.627 93.4682Z" fill="white" stroke="#B8B8B8" stroke-width="0.338655"/>
<path d="M185.724 82.6751C184.731 82.7445 184.827 82.2133 185.417 81.4418C186.762 79.6479 189.253 77.2107 189.365 75.4301C189.52 73.1184 187.194 72.403 184.8 72.403C183.134 72.4457 181.41 72.9075 180.235 73.3266C176.188 74.7548 173.652 76.9971 172.042 79.5198C170.377 82.0131 170.895 84.4103 174.493 84.4797C177.211 84.3676 179.045 83.6121 180.892 82.6591C180.905 82.6591 175.753 84.13 173.847 83.0515C173.636 82.9394 173.428 82.7846 173.372 82.3521C173.372 81.4685 174.829 80.5449 175.684 80.2512V78.7376C177.405 79.3409 179.437 79.1728 181.175 77.8834C181.231 78.0382 181.287 78.2331 181.274 78.444H181.567C181.637 77.8407 181.231 77.2534 180.558 77.2107C180.753 77.3655 180.894 77.491 180.964 77.6031L180.937 77.6298L180.924 77.6431C178.684 79.2128 176.511 78.484 176.303 78.4413L177.55 77.2214L177.2 76.3378C179.68 75.4702 181.725 74.8375 185.126 74.2369L184.365 73.6229L184.757 73.3853C186.773 73.9459 188.131 74.365 188.062 75.4301C188.035 75.6117 187.963 75.8226 187.851 76.0468C187.25 77.2374 185.486 79.1567 184.771 79.9843C184.309 80.5315 183.847 81.036 183.524 81.5406C183.161 82.0585 182.977 82.5363 182.963 82.9688C183.033 86.4871 193.412 81.3163 195.456 79.9549C192.475 81.2309 189.239 82.4509 185.724 82.6751ZM187.993 74.5893C188.067 74.7281 188.102 74.8989 188.102 75.0991C188.099 74.9176 188.065 74.7441 187.993 74.5893Z" fill="#F35325"/>
<circle cx="248.904" cy="87.9041" r="14.7338" fill="white" stroke="#B8B8B8" stroke-width="0.340666"/>
<path d="M253.528 79.8135H244.281C242.366 79.8135 240.813 81.3659 240.813 83.281V92.5276C240.813 94.4427 242.366 95.9951 244.281 95.9951H253.528C255.443 95.9951 256.995 94.4427 256.995 92.5276V83.281C256.995 81.3659 255.443 79.8135 253.528 79.8135Z" fill="url(#paint0_radial_500_129)"/>
<path d="M253.528 79.8135H244.281C242.366 79.8135 240.813 81.3659 240.813 83.281V92.5276C240.813 94.4427 242.366 95.9951 244.281 95.9951H253.528C255.443 95.9951 256.995 94.4427 256.995 92.5276V83.281C256.995 81.3659 255.443 79.8135 253.528 79.8135Z" fill="url(#paint1_radial_500_129)"/>
<path d="M253.528 79.8135H244.281C242.366 79.8135 240.813 81.3659 240.813 83.281V92.5276C240.813 94.4427 242.366 95.9951 244.281 95.9951H253.528C255.443 95.9951 256.995 94.4427 256.995 92.5276V83.281C256.995 81.3659 255.443 79.8135 253.528 79.8135Z" fill="url(#paint2_radial_500_129)"/>
<path fill-rule="evenodd" clip-rule="evenodd" d="M248.904 90.7936C250.5 90.7936 251.794 89.4999 251.794 87.904C251.794 86.3082 250.5 85.0145 248.904 85.0145C247.308 85.0145 246.015 86.3082 246.015 87.904C246.015 89.4999 247.308 90.7936 248.904 90.7936ZM248.904 89.6378C249.862 89.6378 250.638 88.8616 250.638 87.904C250.638 86.9465 249.862 86.1703 248.904 86.1703C247.947 86.1703 247.17 86.9465 247.17 87.904C247.17 88.8616 247.947 89.6378 248.904 89.6378Z" fill="white"/>
<path fill-rule="evenodd" clip-rule="evenodd" d="M243.125 87.673C243.125 85.731 243.125 84.76 243.503 84.0183C243.836 83.3658 244.366 82.8354 245.019 82.5029C245.76 82.125 246.731 82.125 248.673 82.125H249.136C251.078 82.125 252.049 82.125 252.79 82.5029C253.443 82.8354 253.973 83.3658 254.306 84.0183C254.684 84.76 254.684 85.731 254.684 87.673V88.1353C254.684 90.0773 254.684 91.0483 254.306 91.79C253.973 92.4425 253.443 92.9729 252.79 93.3054C252.049 93.6833 251.078 93.6833 249.136 93.6833H248.673C246.731 93.6833 245.76 93.6833 245.019 93.3054C244.366 92.9729 243.836 92.4425 243.503 91.79C243.125 91.0483 243.125 90.0773 243.125 88.1353V87.673ZM248.673 83.2808H249.136C250.126 83.2808 250.799 83.2817 251.319 83.3242C251.826 83.3656 252.085 83.4407 252.266 83.5328C252.701 83.7544 253.054 84.1081 253.276 84.543C253.368 84.7238 253.443 84.9829 253.484 85.4897C253.527 86.0099 253.528 86.6829 253.528 87.673V88.1353C253.528 89.1254 253.527 89.7984 253.484 90.3186C253.443 90.8254 253.368 91.0845 253.276 91.2653C253.054 91.7003 252.701 92.0539 252.266 92.2755C252.085 92.3676 251.826 92.4427 251.319 92.4841C250.799 92.5266 250.126 92.5275 249.136 92.5275H248.673C247.683 92.5275 247.01 92.5266 246.49 92.4841C245.983 92.4427 245.724 92.3676 245.543 92.2755C245.108 92.0539 244.755 91.7003 244.533 91.2653C244.441 91.0845 244.366 90.8254 244.325 90.3186C244.282 89.7984 244.281 89.1254 244.281 88.1353V87.673C244.281 86.6829 244.282 86.0099 244.325 85.4897C244.366 84.9829 244.441 84.7238 244.533 84.543C244.755 84.1081 245.108 83.7544 245.543 83.5328C245.724 83.4407 245.983 83.3656 246.49 83.3242C247.01 83.2817 247.683 83.2808 248.673 83.2808Z" fill="white"/>
</g>
<defs>
<radialGradient id="paint0_radial_500_129" cx="0" cy="0" r="1" gradientUnits="userSpaceOnUse" gradientTransform="translate(246.593 91.9497) rotate(-55.3758) scale(14.7482)">
<stop stop-color="#B13589"/>
<stop offset="0.79309" stop-color="#C62F94"/>
<stop offset="1" stop-color="#8A3AC8"/>
</radialGradient>
<radialGradient id="paint1_radial_500_129" cx="0" cy="0" r="1" gradientUnits="userSpaceOnUse" gradientTransform="translate(246.015 96.573) rotate(-65.1363) scale(13.0575)">
<stop stop-color="#E0E8B7"/>
<stop offset="0.444662" stop-color="#FB8A2E"/>
<stop offset="0.71474" stop-color="#E2425C"/>
<stop offset="1" stop-color="#E2425C" stop-opacity="0"/>
</radialGradient>
<radialGradient id="paint2_radial_500_129" cx="0" cy="0" r="1" gradientUnits="userSpaceOnUse" gradientTransform="translate(239.947 80.3914) rotate(-8.1301) scale(22.4757 4.80731)">
<stop offset="0.156701" stop-color="#406ADC"/>
<stop offset="0.467799" stop-color="#6A45BE"/>
<stop offset="1" stop-color="#6A45BE" stop-opacity="0"/>
</radialGradient>
<clipPath id="clip0_500_129">
<rect width="303" height="200" fill="white"/>
</clipPath>
</defs>
</svg>
