<svg width="150" height="100" viewBox="0 0 150 100" fill="none" xmlns="http://www.w3.org/2000/svg">
<path d="M26.0311 28.585H27.1866C31.1983 28.6722 35.1446 30.2856 37.9789 33.1417C36.9324 34.21 35.864 35.2347 34.8393 36.3031C33.2477 34.8641 31.3291 33.7522 29.2361 33.3597C26.1401 32.7056 22.8043 33.2943 20.2098 35.0603C17.3754 36.9135 15.4568 40.0531 15.0426 43.4107C14.5847 46.7247 15.5222 50.2131 17.6807 52.7858C19.7519 55.2931 22.9133 56.8629 26.1837 56.9719C29.2361 57.1463 32.4192 56.2088 34.6431 54.0722C36.3873 52.5678 37.194 50.2785 37.4556 48.0547C33.8364 48.0547 30.2172 48.0765 26.5979 48.0547V43.5633H41.8379C42.6228 48.3817 41.4891 53.8105 37.8263 57.2554C35.3844 59.6972 32.005 61.1362 28.5602 61.4197C25.2244 61.7467 21.7796 61.1144 18.8144 59.501C15.2606 57.6042 12.4263 54.3992 11.0309 50.6274C9.72274 47.1608 9.70094 43.2363 10.9219 39.7479C12.0338 36.5647 14.1705 33.7522 16.9176 31.7899C19.5557 29.8495 22.7607 28.7812 26.0311 28.585Z" fill="#7F7E7E"/>
<path d="M113.461 29.7183H118.127V60.8524C116.579 60.8524 115.009 60.8742 113.461 60.8305C113.483 50.4743 113.461 40.0963 113.461 29.7183Z" fill="#7F7E7E"/>
<path d="M52.2143 40.5098C55.0922 39.9647 58.21 40.5752 60.5865 42.2976C62.7449 43.8238 64.2493 46.2221 64.7072 48.8384C65.2959 51.869 64.5546 55.1829 62.5923 57.5812C60.4775 60.263 57.0109 61.7019 53.6315 61.4839C50.5355 61.3095 47.5267 59.7615 45.6953 57.2324C43.6241 54.4417 43.1226 50.6044 44.2564 47.334C45.3901 43.8238 48.5951 41.1421 52.2143 40.5098ZM52.8684 44.6523C51.691 44.9575 50.6009 45.6334 49.816 46.5927C47.7012 49.1218 47.832 53.2425 50.1649 55.5972C51.4948 56.949 53.5007 57.5812 55.3539 57.2106C57.0763 56.9054 58.5807 55.7498 59.4092 54.2236C60.8481 51.6291 60.4339 48.0535 58.2318 46.0259C56.8146 44.7177 54.7434 44.1726 52.8684 44.6523Z" fill="#7F7E7E"/>
<path d="M75.3285 40.5104C78.6207 39.8782 82.2182 40.7939 84.6819 43.1049C88.6935 46.7024 89.1296 53.4394 85.7066 57.5819C83.6353 60.1982 80.2777 61.6371 76.9637 61.4845C73.8024 61.3973 70.6846 59.8275 68.8096 57.233C66.6947 54.3769 66.2369 50.4524 67.436 47.1166C68.6351 43.7154 71.7747 41.1209 75.3285 40.5104ZM75.9826 44.6529C74.8053 44.9582 73.7152 45.634 72.9303 46.5716C70.8372 49.0571 70.9244 53.1123 73.1701 55.4888C74.5 56.906 76.5713 57.6037 78.4899 57.2112C80.1905 56.8842 81.7167 55.7504 82.5452 54.2243C83.9624 51.608 83.5481 48.0323 81.3243 46.0047C79.9071 44.6965 77.8358 44.1733 75.9826 44.6529Z" fill="#7F7E7E"/>
<path d="M94.9228 41.7747C97.4301 40.2049 100.766 39.7689 103.469 41.1206C104.32 41.4913 105.017 42.1235 105.693 42.7558C105.715 42.1671 105.693 41.5567 105.715 40.9462C107.176 40.968 108.637 40.9462 110.119 40.968V60.1979C110.097 63.0976 109.356 66.1718 107.263 68.2866C104.974 70.6195 101.464 71.339 98.3022 70.8593C94.9228 70.3579 91.9794 67.8942 90.6713 64.7764C91.9794 64.1441 93.353 63.6427 94.7047 63.054C95.4678 64.8418 97.0158 66.368 98.9562 66.7168C100.897 67.0657 103.142 66.586 104.407 64.9726C105.759 63.3156 105.759 61.0482 105.693 59.0205C104.69 60.0017 103.535 60.8738 102.139 61.2008C99.1089 62.0511 95.7731 61.0046 93.4402 58.9551C91.0855 56.9057 89.6901 53.7443 89.821 50.6047C89.8864 47.0509 91.8922 43.6279 94.9228 41.7747ZM99.4359 44.5654C98.1059 44.7834 96.8632 45.5247 96.0129 46.5495C93.9634 48.9913 93.9634 52.894 96.0347 55.2923C97.212 56.7095 99.1089 57.4944 100.94 57.2981C102.663 57.1237 104.254 56.0336 105.105 54.5292C106.544 51.9783 106.304 48.5117 104.363 46.2878C103.164 44.9143 101.246 44.2384 99.4359 44.5654Z" fill="#7F7E7E"/>
<path d="M123.728 42.8866C126.344 40.4447 130.377 39.6162 133.735 40.9025C136.918 42.1017 138.946 45.1322 139.971 48.25C135.239 50.2122 130.53 52.1527 125.799 54.1149C126.453 55.3576 127.456 56.4914 128.808 56.9492C130.704 57.6251 132.972 57.3853 134.563 56.1207C135.196 55.6411 135.697 55.0088 136.177 54.3983C137.376 55.205 138.575 55.9899 139.774 56.7966C138.074 59.3475 135.218 61.1353 132.143 61.4188C128.742 61.833 125.123 60.5249 122.921 57.8649C119.302 53.6788 119.651 46.6584 123.728 42.8866ZM126.06 46.92C125.319 47.9884 125.014 49.2965 125.036 50.5829C128.197 49.2747 131.358 47.9666 134.52 46.6366C133.997 45.4157 132.732 44.6744 131.446 44.4781C129.374 44.1075 127.216 45.2194 126.06 46.92Z" fill="#7F7E7E"/>
</svg>
