<svg width="150" height="100" viewBox="0 0 150 100" fill="none" xmlns="http://www.w3.org/2000/svg">
<path d="M143.371 49.0145V46.6098H140.384V42.8715L140.284 42.9025L137.479 43.7606L137.424 43.7774V46.61H132.997V45.032C132.997 44.2972 133.161 43.735 133.485 43.36C133.807 42.9895 134.267 42.8011 134.853 42.8011C135.275 42.8011 135.711 42.9005 136.151 43.0964L136.261 43.1456V40.6132L136.209 40.5941C135.799 40.4468 135.242 40.3726 134.551 40.3726C133.68 40.3726 132.888 40.5621 132.198 40.9377C131.508 41.3139 130.964 41.8509 130.584 42.5337C130.205 43.2157 130.012 44.0033 130.012 44.875V46.6098H127.933V49.0145H130.012V59.1448H132.997V49.0145H137.424V55.4521C137.424 58.1035 138.675 59.4471 141.141 59.4471C141.546 59.4471 141.973 59.3996 142.408 59.3066C142.852 59.2111 143.154 59.1157 143.331 59.0139L143.371 58.9906V56.5637L143.249 56.644C143.087 56.7519 142.886 56.8402 142.649 56.9058C142.412 56.9726 142.213 57.006 142.059 57.006C141.482 57.006 141.054 56.8503 140.789 56.5431C140.521 56.2331 140.385 55.6909 140.385 54.9325V49.0145H143.371ZM121.267 57.0064C120.184 57.0064 119.329 56.6472 118.727 55.9395C118.122 55.2283 117.815 54.2144 117.815 52.9261C117.815 51.5969 118.122 50.5566 118.728 49.8328C119.33 49.1138 120.176 48.7489 121.243 48.7489C122.278 48.7489 123.102 49.0974 123.692 49.7853C124.285 50.4768 124.586 51.5088 124.586 52.8534C124.586 54.2146 124.303 55.2602 123.745 55.9596C123.19 56.6538 122.357 57.0064 121.267 57.0064ZM121.4 46.3079C119.333 46.3079 117.691 46.9135 116.52 48.108C115.351 49.3027 114.758 50.9559 114.758 53.0222C114.758 54.9848 115.336 56.5635 116.478 57.7135C117.62 58.864 119.175 59.4468 121.097 59.4468C123.101 59.4468 124.71 58.8327 125.88 57.6216C127.05 56.4119 127.643 54.7743 127.643 52.7562C127.643 50.7629 127.087 49.1725 125.989 48.0301C124.891 46.8872 123.347 46.3079 121.4 46.3079ZM109.945 46.3079C108.539 46.3079 107.376 46.6675 106.487 47.3766C105.594 48.0899 105.14 49.0255 105.14 50.1575C105.14 50.746 105.238 51.2687 105.431 51.7121C105.624 52.1569 105.924 52.5486 106.323 52.8773C106.718 53.2033 107.328 53.5448 108.137 53.8923C108.817 54.172 109.324 54.4087 109.646 54.5952C109.961 54.778 110.184 54.9617 110.31 55.1406C110.433 55.3158 110.495 55.5554 110.495 55.8512C110.495 56.6933 109.864 57.1031 108.567 57.1031C108.085 57.1031 107.536 57.0026 106.935 56.8045C106.338 56.6093 105.774 56.3235 105.264 55.9571L105.14 55.8683V58.7421L105.185 58.7632C105.608 58.9582 106.14 59.1226 106.768 59.252C107.394 59.3814 107.963 59.4473 108.458 59.4473C109.984 59.4473 111.212 59.086 112.109 58.3726C113.011 57.6544 113.468 56.6968 113.468 55.5255C113.468 54.6806 113.222 53.956 112.737 53.3717C112.255 52.7921 111.419 52.26 110.252 51.7896C109.323 51.4166 108.728 51.107 108.482 50.8693C108.245 50.6397 108.125 50.3149 108.125 49.9037C108.125 49.5392 108.273 49.2471 108.578 49.0106C108.885 48.773 109.312 48.6521 109.848 48.6521C110.346 48.6521 110.854 48.7306 111.36 48.8846C111.866 49.0386 112.31 49.2448 112.681 49.497L112.803 49.5803V46.8543L112.756 46.8342C112.414 46.6875 111.963 46.5619 111.415 46.4601C110.87 46.3589 110.375 46.3079 109.945 46.3079ZM97.3586 57.0064C96.2755 57.0064 95.421 56.6472 94.8192 55.9395C94.2134 55.2283 93.9071 54.2146 93.9071 52.9261C93.9071 51.5969 94.2138 50.5566 94.8199 49.8328C95.4217 49.1138 96.2675 48.7489 97.3347 48.7489C98.3693 48.7489 99.1932 49.0974 99.7835 49.7853C100.377 50.4768 100.678 51.5088 100.678 52.8534C100.678 54.2146 100.394 55.2602 99.8363 55.9596C99.2819 56.6538 98.4488 57.0064 97.3586 57.0064ZM97.4917 46.3079C95.4242 46.3079 93.7823 46.9135 92.6124 48.108C91.4426 49.3027 90.8491 50.9559 90.8491 53.0222C90.8491 54.9856 91.4285 56.5635 92.5705 57.7135C93.7125 58.864 95.2665 59.4468 97.1893 59.4468C99.1927 59.4468 100.802 58.8327 101.972 57.6216C103.142 56.4119 103.735 54.7743 103.735 52.7562C103.735 50.7629 103.178 49.1725 102.081 48.0301C100.983 46.8872 99.4384 46.3079 97.4917 46.3079ZM86.3181 48.7806V46.6098H83.3696V59.1446H86.3181V52.7326C86.3181 51.6423 86.5654 50.7465 87.0532 50.07C87.5347 49.4015 88.1765 49.0628 88.9601 49.0628C89.2257 49.0628 89.5238 49.1065 89.8467 49.1932C90.1662 49.2793 90.3977 49.3728 90.5342 49.4712L90.6581 49.561V46.5884L90.6104 46.5679C90.3358 46.4512 89.9473 46.3924 89.4558 46.3924C88.7148 46.3924 88.0518 46.6305 87.4838 47.0992C86.9853 47.5112 86.625 48.0762 86.3495 48.7806H86.3181ZM78.0893 46.3079C76.7366 46.3079 75.53 46.5979 74.5038 47.1697C73.4754 47.7428 72.68 48.5611 72.1389 49.6015C71.6002 50.6394 71.3267 51.8518 71.3267 53.2038C71.3267 54.3882 71.5919 55.475 72.116 56.4329C72.6405 57.3924 73.3828 58.143 74.3224 58.6636C75.2607 59.1836 76.3452 59.4472 77.5459 59.4472C78.9472 59.4472 80.1436 59.167 81.1028 58.6146L81.1415 58.5923V55.891L81.0176 55.9815C80.5831 56.298 80.0975 56.5506 79.5751 56.7326C79.0539 56.9145 78.5788 57.0064 78.1622 57.0064C77.0052 57.0064 76.0764 56.6444 75.4023 55.9307C74.7266 55.216 74.384 54.2125 74.384 52.9497C74.384 51.679 74.7413 50.6497 75.4454 49.8902C76.1473 49.133 77.0778 48.7489 78.2108 48.7489C79.18 48.7489 80.1244 49.077 81.0179 49.7252L81.1415 49.815V46.9687L81.1016 46.9462C80.7654 46.758 80.3068 46.6026 79.7375 46.4847C79.1706 46.3671 78.6161 46.3079 78.0893 46.3079ZM69.2959 46.61H66.3474V59.1446H69.2959V46.61ZM67.8518 41.2701C67.3665 41.2701 66.9433 41.4353 66.5955 41.7627C66.2463 42.091 66.0692 42.5043 66.0692 42.9921C66.0692 43.4723 66.2442 43.8781 66.5901 44.1976C66.9337 44.5163 67.3583 44.6778 67.852 44.6778C68.3454 44.6778 68.7716 44.5163 69.1194 44.1982C69.4693 43.8781 69.6468 43.4724 69.6468 42.9921C69.6468 42.5214 69.4741 42.1123 69.1338 41.7759C68.7937 41.4402 68.3622 41.2701 67.8518 41.2701ZM60.495 45.6851V59.1446H63.5041V41.6538H59.3394L54.0457 54.6454L48.9085 41.6538H44.5742V59.1444H47.402V45.6838H47.4991L52.9238 59.1446H55.0578L60.3979 45.6851H60.495Z" fill="#7F7E7E"/>
<path d="M20.5036 49.6799H6.63281V35.8091H20.5036V49.6799Z" fill="#7F7E7E"/>
<path d="M35.8158 49.6799H21.9453V35.8091H35.8158V49.6799Z" fill="#7F7E7E"/>
<path d="M20.5032 65H6.63281V51.1294H20.5032V65Z" fill="#7F7E7E"/>
<path d="M35.8158 65H21.9453V51.1294H35.8158V65Z" fill="#7F7E7E"/>
</svg>
