<svg width="150" height="100" viewBox="0 0 150 100" fill="none" xmlns="http://www.w3.org/2000/svg">
<path d="M39.8677 92.8033V87.1235C39.8677 84.9454 38.5421 83.526 36.3662 83.526C35.2234 83.526 34.0006 83.9054 33.148 85.1259C32.4852 84.0837 31.5481 83.526 30.1196 83.526C29.5885 83.503 29.06 83.6121 28.5813 83.8435C28.1027 84.0748 27.6889 84.4212 27.3769 84.8516V83.7088H25.5781V92.7964H27.3769V87.5967C27.3769 85.9967 28.3231 85.2311 29.6488 85.2311C30.9744 85.2311 31.731 86.0836 31.731 87.5967V92.8033H33.5297V87.5967C33.5297 85.9967 34.476 85.2311 35.8016 85.2311C37.1273 85.2311 37.8838 86.0836 37.8838 87.5967V92.8033H39.8677ZM69.4023 83.8094H66.0882V81.0667H64.294V83.8094H62.4015V85.4093H64.294V89.6788C64.294 91.761 65.0505 92.993 67.3224 92.993C68.1831 92.975 69.0265 92.7475 69.7794 92.3301L69.2103 90.7302C68.6996 91.0494 68.1074 91.2138 67.5052 91.2033C66.559 91.2033 66.0859 90.6342 66.0859 89.688V85.3362H69.4V83.8208L69.4023 83.8094ZM86.2518 83.526C85.7618 83.5151 85.2774 83.6315 84.846 83.8639C84.4145 84.0962 84.0507 84.4366 83.7902 84.8516V83.7088H81.9914V92.7964H83.7902V87.6927C83.7902 86.1773 84.5467 85.2311 85.7786 85.2311C86.1944 85.2479 86.6068 85.3116 87.0083 85.4208L87.5774 83.7157C87.1434 83.6063 86.6991 83.5427 86.2518 83.526ZM60.7879 84.4722C59.8416 83.8094 58.516 83.526 57.0966 83.526C54.8247 83.526 53.4053 84.5682 53.4053 86.367C53.4053 87.8824 54.4476 88.7326 56.4338 89.0183L57.38 89.112C58.4223 89.3017 59.0851 89.6811 59.0851 90.1542C59.0851 90.8171 58.3285 91.297 56.9069 91.297C55.8214 91.3194 54.7582 90.9872 53.8785 90.3508L52.9322 91.7702C54.2579 92.7164 55.8669 92.913 56.8178 92.913C59.4691 92.913 60.8884 91.6833 60.8884 89.9783C60.8884 88.3783 59.7456 87.6127 57.764 87.327L56.8178 87.2332C55.9652 87.1395 55.2178 86.8538 55.2178 86.287C55.2178 85.6242 55.9744 85.1442 57.0166 85.1442C58.1594 85.1442 59.2885 85.6173 59.8576 85.9007L60.7879 84.4722ZM88.2402 88.2595C88.2402 91.0022 90.039 92.993 92.9737 92.993C94.2994 92.993 95.2456 92.7096 96.1919 91.9507L95.2456 90.5314C94.5757 91.0739 93.7421 91.3744 92.88 91.3839C91.2801 91.3839 90.039 90.1542 90.039 88.3555C90.039 86.5567 91.2641 85.3362 92.88 85.3362C93.7421 85.3457 94.5757 85.6462 95.2456 86.1887L96.1919 84.7694C95.2456 84.0128 94.2994 83.7271 92.9737 83.7271C90.1327 83.5374 88.2402 85.5259 88.2402 88.2709V88.2595ZM75.5551 83.526C72.9038 83.526 71.1051 85.4185 71.1051 88.2595C71.1051 91.1005 72.9975 92.993 75.7426 92.993C77.078 93.0212 78.3821 92.5867 79.4338 91.7633L78.4876 90.4377C77.727 91.0271 76.7982 91.3585 75.8363 91.3839C74.6066 91.3839 73.281 90.6274 73.0935 89.0183H79.8155V88.2618C79.8155 85.4208 78.1104 83.5283 75.5551 83.5283V83.526ZM75.4614 85.2311C76.7871 85.2311 77.7333 86.0836 77.827 87.5029H72.9061C73.1895 86.1773 74.0489 85.2311 75.4614 85.2311ZM50.9438 88.2595V83.7157H49.145V84.8585C48.4822 84.006 47.5451 83.5328 46.2103 83.5328C43.655 83.5328 41.7602 85.5213 41.7602 88.2663C41.7602 91.0114 43.6527 92.9998 46.2103 92.9998C47.5359 92.9998 48.4822 92.5267 49.145 91.6742V92.817H50.9438V88.2595ZM43.655 88.2595C43.655 86.5544 44.6972 85.2311 46.496 85.2311C48.201 85.2311 49.2387 86.5567 49.2387 88.2595C49.2387 90.0583 48.0959 91.2879 46.496 91.2879C44.6972 91.3816 43.655 89.9623 43.655 88.2595ZM113.613 83.526C113.123 83.5151 112.638 83.6315 112.207 83.8639C111.775 84.0962 111.412 84.4366 111.151 84.8516V83.7088H109.352V92.7964H111.149V87.6927C111.149 86.1773 111.905 85.2311 113.137 85.2311C113.553 85.2479 113.966 85.3116 114.367 85.4208L114.936 83.7157C114.502 83.6063 114.058 83.5427 113.61 83.526H113.613ZM106.607 88.2595V83.7157H104.809V84.8585C104.146 84.006 103.209 83.5328 101.874 83.5328C99.3186 83.5328 97.4238 85.5213 97.4238 88.2663C97.4238 91.0114 99.3163 92.9998 101.874 92.9998C103.2 92.9998 104.146 92.5267 104.809 91.6742V92.817H106.607V88.2595ZM99.3186 88.2595C99.3186 86.5544 100.361 85.2311 102.16 85.2311C103.865 85.2311 104.902 86.5567 104.902 88.2595C104.902 90.0583 103.759 91.2879 102.16 91.2879C100.361 91.3816 99.3186 89.9623 99.3186 88.2595ZM124.878 88.2595V80.1182H123.08V84.8516C122.417 83.9991 121.48 83.526 120.145 83.526C117.59 83.526 115.695 85.5145 115.695 88.2595C115.695 91.0045 117.587 92.993 120.145 92.993C121.471 92.993 122.417 92.5199 123.08 91.6673V92.8101H124.878V88.2595ZM117.59 88.2595C117.59 86.5544 118.632 85.2311 120.431 85.2311C122.136 85.2311 123.173 86.5567 123.173 88.2595C123.173 90.0583 122.031 91.2879 120.431 91.2879C118.63 91.3839 117.587 89.9645 117.587 88.2595H117.59Z" fill="#7F7E7E"/>
<path d="M91.5557 14.7993H58.707V68.3784H91.5557V14.7993Z" fill="#686868"/>
<path d="M62.0206 41.5896C62.0217 36.4353 63.1889 31.348 65.4347 26.7086C67.6806 22.0693 70.9469 17.9981 74.9891 14.8C69.9621 10.8476 63.9244 8.3893 57.5662 7.70623C51.208 7.02315 44.786 8.14283 39.0341 10.9373C33.2822 13.7317 28.4327 18.0882 25.0398 23.5087C21.6469 28.9291 19.8477 35.1948 19.8477 41.5896C19.8477 47.9844 21.6469 54.2501 25.0398 59.6706C28.4327 65.091 33.2822 69.4475 39.0341 72.2419C44.786 75.0364 51.208 76.1561 57.5662 75.473C63.9244 74.7899 69.9621 72.3316 74.9891 68.3792C70.9469 65.1811 67.6806 61.1099 65.4347 56.4706C63.1889 51.8313 62.0217 46.744 62.0206 41.5896Z" fill="#7F7E7E"/>
<path d="M130.181 41.5898C130.185 47.9799 128.391 54.2423 125.004 59.6607C121.617 65.0792 116.773 69.4349 111.026 72.2297C105.28 75.0245 98.8627 76.1456 92.509 75.4647C86.1553 74.7838 80.1215 72.3284 75.0977 68.3793C79.1408 65.182 82.4078 61.1111 84.6538 56.4716C86.8998 51.8321 88.0665 46.7443 88.0665 41.5898C88.0665 36.4352 86.8998 31.3475 84.6538 26.7079C82.4078 22.0684 79.1408 17.9975 75.0977 14.8002C80.1215 10.8511 86.1553 8.39576 92.509 7.71484C98.8627 7.03393 105.28 8.15499 111.026 10.9498C116.773 13.7446 121.617 18.1003 125.004 23.5188C128.391 28.9372 130.185 35.1997 130.181 41.5898Z" fill="#7F7E7E"/>
</svg>
