<svg width="303" height="100" viewBox="0 0 303 100" fill="none" xmlns="http://www.w3.org/2000/svg">
<circle cx="43.37" cy="51.687" r="32.5408" fill="white" stroke="#878787" stroke-width="1.65849"/>
<circle cx="94.9358" cy="50.181" r="33.2461" fill="white" stroke="#878787" stroke-width="1.65849"/>
<circle cx="146.902" cy="50.181" r="33.799" fill="white" stroke="#878787" stroke-width="1.65849"/>
<path d="M28.2463 65.9885H32.5884C33.1874 65.9885 33.673 65.5029 33.673 64.9039V45.9249C33.673 45.3258 33.1874 44.8403 32.5884 44.8403H28.2463C27.6472 44.8403 27.1617 45.3258 27.1617 45.9249V64.9039C27.1617 65.5029 27.6472 65.9885 28.2463 65.9885Z" fill="#3985ED"/>
<path d="M28.2463 41.5036H32.5883C33.1873 41.5036 33.6729 41.018 33.6729 40.419V36.5632C33.6729 35.9642 33.1873 35.4786 32.5883 35.4786H28.2463C27.6472 35.4786 27.1617 35.9642 27.1617 36.5632V40.419C27.1617 41.018 27.6472 41.5036 28.2463 41.5036Z" fill="#3985ED"/>
<path d="M58.9278 47.0416C58.3177 46.2384 57.418 45.578 56.2284 45.0602C55.0388 44.5429 53.7257 44.2841 52.289 44.2841C49.3725 44.2841 46.9012 45.3971 44.8752 47.6236C44.4721 48.0666 44.179 47.9698 44.179 47.3707V45.9248C44.179 45.3257 43.6933 44.8402 43.0943 44.8402H39.2156C38.6166 44.8402 38.1311 45.3257 38.1311 45.9248V64.9038C38.1311 65.5028 38.6166 65.9885 39.2156 65.9885H43.5577C44.1568 65.9885 44.6423 65.5028 44.6423 64.9038V58.3034C44.6423 55.5537 44.8083 53.6689 45.1404 52.6494C45.4724 51.6299 46.0866 50.8112 46.9826 50.1933C47.8786 49.5753 48.8904 49.2662 50.0182 49.2662C50.8987 49.2662 51.6519 49.4825 52.2776 49.9152C52.9033 50.3478 53.3552 50.9539 53.6332 51.7342C53.9114 52.5144 54.0504 54.2329 54.0504 56.8901V64.9037C54.0504 65.5028 54.5359 65.9884 55.1349 65.9884H59.477C60.076 65.9884 60.5615 65.5028 60.5615 64.9037V54.1556C60.5615 52.2556 60.4417 50.7957 60.2025 49.7762C59.9633 48.7567 59.5384 47.8451 58.9278 47.0416Z" fill="#3985ED"/>
<path d="M104.527 33.3961H85.3445C81.3716 33.3961 78.1509 36.6167 78.1509 40.5896V59.7725C78.1509 63.7454 81.3716 66.9661 85.3445 66.9661H104.527C108.5 66.9661 111.721 63.7454 111.721 59.7725V40.5896C111.721 36.6167 108.5 33.3961 104.527 33.3961Z" fill="url(#paint0_radial_499_43)"/>
<path d="M104.527 33.3961H85.3445C81.3716 33.3961 78.1509 36.6167 78.1509 40.5896V59.7725C78.1509 63.7454 81.3716 66.9661 85.3445 66.9661H104.527C108.5 66.9661 111.721 63.7454 111.721 59.7725V40.5896C111.721 36.6167 108.5 33.3961 104.527 33.3961Z" fill="url(#paint1_radial_499_43)"/>
<path d="M104.527 33.3961H85.3445C81.3716 33.3961 78.1509 36.6167 78.1509 40.5896V59.7725C78.1509 63.7454 81.3716 66.9661 85.3445 66.9661H104.527C108.5 66.9661 111.721 63.7454 111.721 59.7725V40.5896C111.721 36.6167 108.5 33.3961 104.527 33.3961Z" fill="url(#paint2_radial_499_43)"/>
<path fill-rule="evenodd" clip-rule="evenodd" d="M94.9358 56.1758C98.2466 56.1758 100.93 53.4919 100.93 50.1812C100.93 46.8704 98.2466 44.1865 94.9358 44.1865C91.6251 44.1865 88.9412 46.8704 88.9412 50.1812C88.9412 53.4919 91.6251 56.1758 94.9358 56.1758ZM94.9358 53.778C96.9223 53.778 98.5326 52.1677 98.5326 50.1812C98.5326 48.1947 96.9223 46.5844 94.9358 46.5844C92.9493 46.5844 91.3391 48.1947 91.3391 50.1812C91.3391 52.1677 92.9493 53.778 94.9358 53.778Z" fill="white"/>
<path fill-rule="evenodd" clip-rule="evenodd" d="M82.9468 49.7016C82.9468 45.6728 82.9468 43.6584 83.7309 42.1196C84.4205 40.766 85.521 39.6656 86.8746 38.9759C88.4133 38.1918 90.4278 38.1918 94.4565 38.1918H95.4157C99.4444 38.1918 101.459 38.1918 102.998 38.9759C104.351 39.6656 105.452 40.766 106.141 42.1196C106.925 43.6584 106.925 45.6728 106.925 49.7016V50.6607C106.925 54.6895 106.925 56.7039 106.141 58.2426C105.452 59.5962 104.351 60.6967 102.998 61.3863C101.459 62.1704 99.4444 62.1704 95.4157 62.1704H94.4565C90.4278 62.1704 88.4133 62.1704 86.8746 61.3863C85.521 60.6967 84.4205 59.5962 83.7309 58.2426C82.9468 56.7039 82.9468 54.6895 82.9468 50.6607V49.7016ZM94.4565 40.5897H95.4157C97.4697 40.5897 98.8658 40.5916 99.9451 40.6797C100.996 40.7656 101.534 40.9213 101.909 41.1124C102.811 41.5722 103.545 42.3058 104.005 43.2082C104.196 43.5832 104.352 44.1208 104.438 45.1721C104.526 46.2514 104.528 47.6476 104.528 49.7016V50.6607C104.528 52.7147 104.526 54.1109 104.438 55.1901C104.352 56.2415 104.196 56.7791 104.005 57.1541C103.545 58.0564 102.811 58.79 101.909 59.2498C101.534 59.4409 100.996 59.5967 99.9451 59.6825C98.8658 59.7706 97.4697 59.7726 95.4157 59.7726H94.4565C92.4025 59.7726 91.0064 59.7706 89.9271 59.6825C88.8758 59.5967 88.3382 59.4409 87.9631 59.2498C87.0608 58.79 86.3272 58.0564 85.8674 57.1541C85.6763 56.7791 85.5206 56.2415 85.4347 55.1901C85.3465 54.1109 85.3447 52.7147 85.3447 50.6607V49.7016C85.3447 47.6476 85.3465 46.2514 85.4347 45.1721C85.5206 44.1208 85.6763 43.5832 85.8674 43.2082C86.3272 42.3058 87.0608 41.5722 87.9631 41.1124C88.3382 40.9213 88.8758 40.7656 89.9271 40.6797C91.0064 40.5916 92.4025 40.5897 94.4565 40.5897Z" fill="white"/>
<path d="M163.687 51.0387C163.687 46.4657 161.882 42.0801 158.67 38.8465C155.457 35.6129 151.1 33.7963 146.557 33.7963C142.244 33.7923 138.088 35.4264 134.919 38.3723C131.75 41.3181 129.802 45.3588 129.464 49.6873C129.126 54.0157 130.423 58.3132 133.095 61.7213C135.768 65.1294 139.619 67.3973 143.88 68.0718V56.0218H139.534V51.0387H143.883V47.2405C143.883 42.92 146.44 40.5307 150.353 40.5307C152.227 40.5307 154.187 40.8681 154.187 40.8681V45.1122H152.027C149.898 45.1122 149.237 46.4424 149.237 47.8045V51.0387H153.987L153.228 56.0218H149.234V68.0718C153.264 67.4296 156.933 65.3612 159.582 62.2388C162.232 59.1164 163.687 55.1449 163.687 51.0387Z" fill="#1877F2"/>
<circle cx="203.291" cy="51.2867" r="33.799" fill="white" stroke="#878787" stroke-width="1.65849"/>
<circle cx="259.68" cy="50.181" r="36.0103" fill="white" stroke="#878787" stroke-width="1.65849"/>
<path fill-rule="evenodd" clip-rule="evenodd" d="M200.56 55.1728L200.559 45.8429L209.467 50.5239L200.56 55.1728ZM220.12 44.2262C220.12 44.2262 219.798 41.9381 218.81 40.9305C217.556 39.6074 216.15 39.6012 215.506 39.5244C210.892 39.1882 203.971 39.1882 203.971 39.1882H203.957C203.957 39.1882 197.036 39.1882 192.422 39.5244C191.777 39.6012 190.372 39.6074 189.117 40.9305C188.129 41.9381 187.808 44.2262 187.808 44.2262C187.808 44.2262 187.478 46.9138 187.478 49.6004V52.1199C187.478 54.8075 187.808 57.4941 187.808 57.4941C187.808 57.4941 188.129 59.7822 189.117 60.7898C190.372 62.1128 192.02 62.0713 192.753 62.2093C195.391 62.4646 203.964 62.5435 203.964 62.5435C203.964 62.5435 210.892 62.5331 215.506 62.1969C216.15 62.119 217.556 62.1128 218.81 60.7898C219.798 59.7822 220.12 57.4941 220.12 57.4941C220.12 57.4941 220.45 54.8075 220.45 52.1199V49.6004C220.45 46.9138 220.12 44.2262 220.12 44.2262Z" fill="#CE1312"/>
<path d="M249.534 55.0823C249.755 53.2569 250.504 52.235 251.914 51.1874C253.933 49.7684 256.454 50.571 256.454 50.571V45.8095C257.068 45.7937 257.681 45.8301 258.287 45.918V52.0457C258.287 52.0457 255.766 51.2431 253.748 52.6627C252.338 53.7096 251.587 54.7324 251.368 56.5578C251.361 57.549 251.547 58.8447 252.404 59.9649C252.192 59.8563 251.976 59.7326 251.756 59.5938C249.869 58.3266 249.525 56.4258 249.534 55.0823ZM268.699 37.0054C267.31 35.4838 266.785 33.9475 266.595 32.8682H268.342C268.342 32.8682 267.993 35.698 270.532 38.4808L270.567 38.5182C269.883 38.0879 269.255 37.5799 268.699 37.0054ZM277.113 41.3194V47.3237C277.113 47.3237 274.884 47.2365 273.235 46.8168C270.931 46.2298 269.451 45.3296 269.451 45.3296C269.451 45.3296 268.428 44.6877 268.346 44.643V57.042C268.346 57.7324 268.156 59.4565 267.58 60.8945C266.828 62.7757 265.666 64.0104 265.453 64.2628C265.453 64.2628 264.04 65.9319 261.549 67.056C259.303 68.0699 257.331 68.0442 256.741 68.0699C256.741 68.0699 253.333 68.2049 250.265 66.2115C249.602 65.7721 248.983 65.2745 248.416 64.725L248.431 64.736C251.499 66.7294 254.907 66.5944 254.907 66.5944C255.498 66.5687 257.469 66.5944 259.715 65.5805C262.204 64.4565 263.619 62.7874 263.619 62.7874C263.83 62.5351 264.997 61.3002 265.746 59.4184C266.321 57.9811 266.511 56.2562 266.511 55.5659V43.1683C266.594 43.2137 267.616 43.8556 267.616 43.8556C267.616 43.8556 269.097 44.7567 271.401 45.3429C273.051 45.7626 275.279 45.8499 275.279 45.8499V41.1448C276.042 41.3157 276.692 41.362 277.113 41.3194Z" fill="#EE1D52"/>
<path d="M275.281 41.1448V45.8483C275.281 45.8483 273.052 45.761 271.402 45.3415C269.099 44.7544 267.617 43.8542 267.617 43.8542C267.617 43.8542 266.595 43.2123 266.513 43.1668V55.5673C266.513 56.2578 266.324 57.9825 265.747 59.4198C264.995 61.3018 263.834 62.5365 263.62 62.7889C263.62 62.7889 262.207 64.4579 259.716 65.582C257.471 66.5959 255.499 66.5703 254.909 66.5959C254.909 66.5959 251.501 66.7309 248.433 64.7375L248.417 64.7265C248.093 64.4128 247.788 64.0817 247.504 63.7346C246.525 62.5408 245.925 61.1292 245.774 60.7265V60.7214C245.531 60.0215 245.022 58.3406 245.091 56.7126C245.214 53.8403 246.225 52.0773 246.492 51.6355C247.2 50.4312 248.12 49.3535 249.212 48.4508C250.176 47.6716 251.268 47.0517 252.444 46.6165C253.715 46.1055 255.077 45.8315 256.455 45.8095V50.571C256.455 50.571 253.933 49.7714 251.916 51.1874C250.505 52.235 249.756 53.2569 249.536 55.0823C249.526 56.4258 249.87 58.3266 251.756 59.5945C251.976 59.7339 252.191 59.8576 252.403 59.9656C252.733 60.3938 253.133 60.767 253.59 61.0698C255.431 62.2357 256.975 62.3171 258.948 61.5599C260.264 61.0538 261.254 59.9129 261.714 58.6487C262.002 57.8594 261.999 57.0647 261.999 56.2431V32.8682H266.592C266.781 33.9475 267.307 35.4838 268.695 37.0054C269.252 37.5799 269.88 38.0879 270.564 38.5182C270.766 38.7273 271.799 39.7611 273.126 40.3957C273.812 40.7237 274.535 40.9751 275.281 41.1448Z" fill="black"/>
<path d="M252.443 46.6164C251.267 47.0518 250.175 47.6716 249.211 48.4507C248.119 49.3555 247.199 50.4355 246.492 51.6421C246.225 52.0824 245.215 53.8468 245.092 56.7191C245.022 58.3471 245.532 60.028 245.774 60.7279V60.733C245.927 61.1322 246.525 62.5437 247.504 63.7412C247.789 64.0882 248.094 64.4195 248.418 64.7331C247.38 64.045 246.454 63.2134 245.671 62.2649C244.7 61.0816 244.102 59.6847 243.946 59.2723C243.945 59.2693 243.945 59.2664 243.946 59.2636V59.2583C243.702 58.5592 243.191 56.8775 243.262 55.2474C243.385 52.3751 244.396 50.6121 244.663 50.1704C245.369 48.9635 246.289 47.8835 247.382 46.979C248.345 46.1995 249.438 45.5796 250.614 45.1447C251.347 44.8529 252.112 44.6378 252.893 44.5028C254.071 44.3057 255.275 44.2885 256.458 44.4522V45.8094C255.079 45.831 253.716 46.105 252.443 46.6164Z" fill="#69C9D0"/>
<path d="M266.594 32.8682H262.001V56.2438C262.001 57.0654 262.001 57.8578 261.717 58.6494C261.253 59.9129 260.266 61.0536 258.951 61.56C256.977 62.3201 255.433 62.2357 253.592 61.0699C253.135 60.7682 252.733 60.3964 252.403 59.9693C253.971 60.7712 255.375 60.7572 257.114 60.0882C258.429 59.5819 259.417 58.441 259.879 57.177C260.169 56.3875 260.165 55.593 260.165 54.772V31.392H266.507C266.507 31.392 266.436 31.9731 266.594 32.8682ZM275.279 39.8439V41.1447C274.535 40.9748 273.813 40.7234 273.128 40.3957C271.802 39.761 270.768 38.7273 270.566 38.5182C270.801 38.6658 271.044 38.8 271.295 38.9202C272.908 39.6921 274.496 39.9224 275.279 39.8439Z" fill="#69C9D0"/>
<defs>
<radialGradient id="paint0_radial_499_43" cx="0" cy="0" r="1" gradientUnits="userSpaceOnUse" gradientTransform="translate(90.1402 58.5736) rotate(-55.3758) scale(30.5962)">
<stop stop-color="#B13589"/>
<stop offset="0.79309" stop-color="#C62F94"/>
<stop offset="1" stop-color="#8A3AC8"/>
</radialGradient>
<radialGradient id="paint1_radial_499_43" cx="0" cy="0" r="1" gradientUnits="userSpaceOnUse" gradientTransform="translate(88.9413 68.165) rotate(-65.1363) scale(27.0889)">
<stop stop-color="#E0E8B7"/>
<stop offset="0.444662" stop-color="#FB8A2E"/>
<stop offset="0.71474" stop-color="#E2425C"/>
<stop offset="1" stop-color="#E2425C" stop-opacity="0"/>
</radialGradient>
<radialGradient id="paint2_radial_499_43" cx="0" cy="0" r="1" gradientUnits="userSpaceOnUse" gradientTransform="translate(76.3525 34.595) rotate(-8.1301) scale(46.6275 9.97313)">
<stop offset="0.156701" stop-color="#406ADC"/>
<stop offset="0.467799" stop-color="#6A45BE"/>
<stop offset="1" stop-color="#6A45BE" stop-opacity="0"/>
</radialGradient>
</defs>
</svg>
