<svg width="300" height="250" viewBox="0 0 300 250" fill="none" xmlns="http://www.w3.org/2000/svg">
<g clip-path="url(#clip0_395_2)">
<path d="M44.5 69C44.5 65.9624 46.9624 63.5 50 63.5H284C287.038 63.5 289.5 65.9624 289.5 69V255.5H44.5V69Z" fill="white" stroke="#D9D9D9"/>
<path d="M5.5 9C5.5 7.067 7.067 5.5 9 5.5H186C187.933 5.5 189.5 7.067 189.5 9V50C189.5 51.933 187.933 53.5 186 53.5H9C7.06701 53.5 5.5 51.933 5.5 50V9Z" fill="#F9FAFB" stroke="#D9D9D9"/>
<path d="M55.2 105C55.2 104.006 56.0059 103.2 57 103.2H278C278.994 103.2 279.8 104.006 279.8 105V126C279.8 126.994 278.994 127.8 278 127.8H57C56.0059 127.8 55.2 126.994 55.2 126V105Z" fill="white" stroke="#D9D9D9" stroke-width="0.4"/>
<path d="M55.2 165C55.2 164.006 56.0059 163.2 57 163.2H278C278.994 163.2 279.8 164.006 279.8 165V186C279.8 186.994 278.994 187.8 278 187.8H57C56.0059 187.8 55.2 186.994 55.2 186V165Z" fill="white" stroke="#D9D9D9" stroke-width="0.4"/>
<path d="M55.2 135C55.2 134.006 56.0059 133.2 57 133.2H278C278.994 133.2 279.8 134.006 279.8 135V156C279.8 156.994 278.994 157.8 278 157.8H57C56.0059 157.8 55.2 156.994 55.2 156V135Z" fill="white" stroke="#D9D9D9" stroke-width="0.4"/>
<path d="M55.2 195C55.2 194.006 56.0059 193.2 57 193.2H278C278.994 193.2 279.8 194.006 279.8 195V216C279.8 216.994 278.994 217.8 278 217.8H57C56.0059 217.8 55.2 216.994 55.2 216V195Z" fill="white" stroke="#D9D9D9" stroke-width="0.4"/>
<path d="M55.2 225C55.2 224.006 56.0059 223.2 57 223.2H278C278.994 223.2 279.8 224.006 279.8 225V246C279.8 246.994 278.994 247.8 278 247.8H57C56.0059 247.8 55.2 246.994 55.2 246V225Z" fill="white" stroke="#D9D9D9" stroke-width="0.4"/>
<path d="M32.3782 21.109C32.5052 20.9717 32.7179 20.9628 32.8553 21.0898C32.9927 21.2169 33.0015 21.4296 32.8745 21.5669L30.1094 24.5595L30.1049 24.5655C29.7667 24.9746 29.5348 25.3527 29.4314 25.6984C29.3398 26.0041 29.3531 26.2818 29.489 26.5241C29.5613 26.6541 29.5377 26.8136 29.4417 26.9185L28.1286 28.3394C28.0001 28.1991 27.8981 28.0854 27.8302 28.0115C27.7992 27.9702 27.7637 27.9303 27.7268 27.8919L27.7238 27.8948C27.7061 27.8756 27.6869 27.8579 27.6677 27.8402L28.7903 26.6245C28.6588 26.273 28.6603 25.8993 28.7814 25.5019C28.9114 25.0706 29.1876 24.6112 29.585 24.1327C29.5938 24.1208 29.6012 24.109 29.6116 24.0987L32.3752 21.1061L32.3782 21.109ZM26.4388 29.1253C26.3147 28.9864 26.3265 28.7722 26.4653 28.6482C26.6042 28.5241 26.8184 28.5359 26.9424 28.6747C28.3324 30.2316 32.6293 34.8387 33.8198 36.561C35.39 38.784 32.9587 39.4842 32.1522 38.6747C30.1374 36.7264 25.8597 31.7589 23.9794 29.6526C23.3029 29.9391 22.6456 29.9835 21.9853 29.7944C21.2748 29.592 20.5791 29.1179 19.873 28.3897L19.8642 28.3808C19.3265 27.8136 18.9055 27.2538 18.6012 26.6999C18.2896 26.1297 18.099 25.5654 18.0311 25.0056C17.9587 24.403 18.0148 23.8417 18.1773 23.3439C18.3679 22.759 18.7061 22.2641 19.1493 21.8963C19.5953 21.5271 20.1433 21.2878 20.7549 21.2139C21.263 21.1533 21.8169 21.205 22.39 21.3926C23.1832 21.6511 24.1079 22.2937 24.8745 23.1179C25.4402 23.725 25.9247 24.4355 26.2128 25.1666C26.5126 25.9288 26.6042 26.7176 26.3634 27.4561C26.2216 27.8934 25.9646 28.304 25.5658 28.6747C25.4284 28.8018 25.2157 28.7929 25.0887 28.657C24.9617 28.5197 24.9705 28.307 25.1064 28.1799C25.4151 27.8919 25.6131 27.5773 25.7209 27.2449C25.907 26.6733 25.8287 26.0396 25.5835 25.4163C25.3265 24.7634 24.8908 24.1253 24.3797 23.5773C23.6884 22.8358 22.8686 22.2612 22.1773 22.0352C21.7032 21.8816 21.2497 21.8372 20.8346 21.8875C20.3531 21.9465 19.9218 22.1312 19.5776 22.4192C19.232 22.7073 18.9676 23.0957 18.8154 23.5581C18.684 23.9613 18.6382 24.4251 18.6987 24.9259C18.7563 25.3985 18.9203 25.8815 19.1891 26.3749C19.4713 26.8815 19.8583 27.3941 20.356 27.9185L20.359 27.9229C20.9823 28.5654 21.5806 28.979 22.1729 29.1474C22.7327 29.3069 23.3029 29.2449 23.8981 28.948C24.034 28.8697 24.2098 28.8963 24.3176 29.0174C26.1522 31.0721 30.6145 36.2434 32.5909 38.1592C33.4491 38.5093 33.9247 38.078 33.5141 37.3173C32.8745 36.1297 27.3797 30.1829 26.4388 29.1253ZM24.6574 32.0957L20.3501 36.756C20.3413 36.7648 20.3339 36.7737 20.3235 36.7826C19.6943 37.462 20.808 38.4517 21.4993 37.7899L25.6825 33.2626L26.1315 33.7722L21.9809 38.2641C21.972 38.2744 21.9631 38.2833 21.9513 38.2936C21.7032 38.5019 21.4535 38.6378 21.2009 38.6939C20.941 38.753 20.6854 38.7264 20.4402 38.6112C20.3989 38.595 20.3605 38.5743 20.3265 38.5433L19.7312 37.9923C19.7224 37.9834 19.7135 37.9761 19.7046 37.9657C19.4742 37.6998 19.3649 37.4162 19.3945 37.1164C19.4225 36.8328 19.5732 36.5566 19.8583 36.2907L24.2069 31.5846L24.6574 32.0957ZM29.1714 29.4872L29.4269 29.2109C29.554 29.0736 29.7681 29.0647 29.904 29.1917C30.0399 29.3188 30.0503 29.5315 29.9232 29.6688L29.6278 29.9879L29.1714 29.4872ZM33.4284 22.0972C33.5554 21.9598 33.7681 21.951 33.9055 22.078C34.0429 22.205 34.0517 22.4177 33.9247 22.5551L31.5008 25.1799C31.3738 25.3173 31.161 25.3262 31.0237 25.1991C30.8863 25.0721 30.8774 24.8594 31.0045 24.722L33.4284 22.0972ZM34.4771 23.0677C34.6042 22.9303 34.8169 22.9214 34.9542 23.0485C35.0916 23.1755 35.1005 23.3882 34.9735 23.5256L32.551 26.1489C32.424 26.2863 32.2113 26.2951 32.0739 26.1681C31.9365 26.0411 31.9277 25.8284 32.0547 25.691L34.4771 23.0677ZM35.5643 24.0765C35.6913 23.9392 35.904 23.9303 36.0414 24.0573C36.1788 24.1844 36.1876 24.3985 36.0606 24.5344L33.2955 27.5285C33.2851 27.5389 33.2748 27.5477 33.2644 27.5581C32.6352 28.1637 32.034 28.5137 31.4594 28.6127C30.8361 28.7205 30.2644 28.5433 29.7401 28.0854C29.5998 27.9628 29.5865 27.7486 29.7076 27.6098C29.8302 27.4694 30.0444 27.4561 30.1832 27.5773C30.5451 27.8934 30.9321 28.0174 31.3413 27.9451C31.7814 27.8697 32.2659 27.5787 32.7947 27.0691L32.7977 27.0662L35.5613 24.0751L35.5643 24.0765Z" fill="black"/>
<path d="M48.3614 36V24.1204H56.3756V25.5223H49.9334V29.2013H55.5086V30.6031H49.9334V36H48.3614ZM57.6965 31.6971C57.6965 30.1034 58.1395 28.923 59.0254 28.1559C59.7655 27.5185 60.6677 27.1997 61.732 27.1997C62.9151 27.1997 63.8821 27.5887 64.633 28.3666C65.3839 29.1391 65.7594 30.2088 65.7594 31.5755C65.7594 32.683 65.5919 33.5555 65.2569 34.1929C64.9274 34.825 64.4439 35.3166 63.8064 35.6678C63.1744 36.0189 62.4829 36.1945 61.732 36.1945C60.5273 36.1945 59.5522 35.8082 58.8066 35.0357C58.0665 34.2632 57.6965 33.1503 57.6965 31.6971ZM59.1956 31.6971C59.1956 32.7992 59.436 33.6257 59.9168 34.1767C60.3976 34.7224 61.0027 34.9952 61.732 34.9952C62.4559 34.9952 63.0582 34.7197 63.539 34.1686C64.0198 33.6176 64.2602 32.7776 64.2602 31.6485C64.2602 30.5842 64.0171 29.7793 63.5309 29.2337C63.0501 28.6826 62.4505 28.4071 61.732 28.4071C61.0027 28.4071 60.3976 28.6799 59.9168 29.2256C59.436 29.7712 59.1956 30.595 59.1956 31.6971ZM66.9343 31.6971C66.9343 30.1034 67.3773 28.923 68.2633 28.1559C69.0034 27.5185 69.9056 27.1997 70.9698 27.1997C72.1529 27.1997 73.1199 27.5887 73.8708 28.3666C74.6218 29.1391 74.9972 30.2088 74.9972 31.5755C74.9972 32.683 74.8297 33.5555 74.4948 34.1929C74.1653 34.825 73.6818 35.3166 73.0443 35.6678C72.4122 36.0189 71.7207 36.1945 70.9698 36.1945C69.7651 36.1945 68.79 35.8082 68.0445 35.0357C67.3044 34.2632 66.9343 33.1503 66.9343 31.6971ZM68.4335 31.6971C68.4335 32.7992 68.6739 33.6257 69.1547 34.1767C69.6355 34.7224 70.2405 34.9952 70.9698 34.9952C71.6937 34.9952 72.2961 34.7197 72.7769 34.1686C73.2577 33.6176 73.4981 32.7776 73.4981 31.6485C73.4981 30.5842 73.255 29.7793 72.7688 29.2337C72.288 28.6826 71.6883 28.4071 70.9698 28.4071C70.2405 28.4071 69.6355 28.6799 69.1547 29.2256C68.6739 29.7712 68.4335 30.595 68.4335 31.6971ZM82.2984 36V34.9141C81.7527 35.7677 80.9505 36.1945 79.8917 36.1945C79.2056 36.1945 78.5735 36.0054 77.9955 35.6272C77.4228 35.2491 76.9771 34.7224 76.6584 34.0471C76.3451 33.3664 76.1884 32.5858 76.1884 31.7052C76.1884 30.8462 76.3316 30.0683 76.6179 29.3714C76.9042 28.6691 77.3337 28.1316 77.9063 27.7589C78.479 27.3861 79.1191 27.1997 79.8268 27.1997C80.3455 27.1997 80.8073 27.3105 81.2125 27.532C81.6177 27.748 81.9472 28.0317 82.2011 28.3828V24.1204H83.6516V36H82.2984ZM77.6875 31.7052C77.6875 32.8073 77.9198 33.6311 78.3844 34.1767C78.849 34.7224 79.3974 34.9952 80.0294 34.9952C80.6669 34.9952 81.2071 34.7359 81.6501 34.2173C82.0985 33.6932 82.3227 32.8964 82.3227 31.8268C82.3227 30.6491 82.0958 29.7847 81.642 29.2337C81.1882 28.6826 80.6291 28.4071 79.9646 28.4071C79.3163 28.4071 78.7734 28.6718 78.3358 29.2013C77.9036 29.7307 77.6875 30.5653 77.6875 31.7052ZM97.3626 34.5981C96.8818 35.1329 96.3578 35.5354 95.7905 35.8055C95.2233 36.0702 94.6101 36.2026 93.951 36.2026C92.7355 36.2026 91.7712 35.792 91.0581 34.9709C90.4801 34.301 90.1911 33.5528 90.1911 32.7262C90.1911 31.9915 90.4261 31.3297 90.8961 30.7409C91.3715 30.1467 92.0792 29.6253 93.0192 29.1769C92.4843 28.5611 92.1278 28.0614 91.9495 27.6778C91.7712 27.2943 91.6821 26.9242 91.6821 26.5677C91.6821 25.8546 91.9603 25.236 92.5167 24.712C93.0786 24.1826 93.7836 23.9178 94.6317 23.9178C95.4421 23.9178 96.1038 24.1663 96.6171 24.6634C97.1357 25.1604 97.395 25.7573 97.395 26.4542C97.395 27.5833 96.6468 28.5476 95.1503 29.3471L97.2815 32.0618C97.5246 31.5864 97.7137 31.0353 97.8488 30.4087L99.3641 30.7328C99.1048 31.77 98.7537 32.6236 98.3107 33.2935C98.8563 34.0174 99.4749 34.6251 100.166 35.1167L99.1858 36.2755C98.597 35.8974 97.9892 35.3382 97.3626 34.5981ZM94.3967 28.4071C95.0288 28.0344 95.4367 27.7075 95.6203 27.4266C95.8094 27.1457 95.904 26.8351 95.904 26.4947C95.904 26.0896 95.7743 25.76 95.515 25.5061C95.2611 25.2468 94.9424 25.1171 94.5588 25.1171C94.1644 25.1171 93.8349 25.2441 93.5702 25.498C93.3109 25.7519 93.1812 26.0625 93.1812 26.4299C93.1812 26.6136 93.2271 26.8081 93.319 27.0133C93.4162 27.2132 93.5594 27.4266 93.7485 27.6535L94.3967 28.4071ZM96.4469 33.4474L93.7728 30.1331C92.984 30.6031 92.4519 31.0407 92.1764 31.4459C91.9009 31.8457 91.7631 32.2427 91.7631 32.6371C91.7631 33.1179 91.9549 33.6176 92.3385 34.1362C92.722 34.6548 93.265 34.9141 93.9673 34.9141C94.4048 34.9141 94.8559 34.7791 95.3205 34.509C95.7905 34.2335 96.166 33.8796 96.4469 33.4474ZM106.382 36V24.1204H110.839C111.746 24.1204 112.473 24.242 113.018 24.4851C113.569 24.7228 113.999 25.0928 114.307 25.5952C114.62 26.0923 114.777 26.6136 114.777 27.1592C114.777 27.667 114.639 28.1451 114.363 28.5935C114.088 29.0419 113.672 29.4038 113.116 29.6794C113.834 29.89 114.385 30.2493 114.769 30.7571C115.158 31.2649 115.352 31.8646 115.352 32.5561C115.352 33.1125 115.233 33.6311 114.996 34.1119C114.763 34.5873 114.474 34.9547 114.128 35.214C113.783 35.4733 113.348 35.6705 112.824 35.8055C112.305 35.9352 111.668 36 110.911 36H106.382ZM107.954 29.1121H110.522C111.219 29.1121 111.719 29.0662 112.022 28.9744C112.421 28.8555 112.721 28.6583 112.921 28.3828C113.126 28.1073 113.229 27.7616 113.229 27.3456C113.229 26.9512 113.134 26.6055 112.945 26.3083C112.756 26.0058 112.486 25.8005 112.135 25.6925C111.784 25.579 111.182 25.5223 110.328 25.5223H107.954V29.1121ZM107.954 34.5981H110.911C111.419 34.5981 111.776 34.5792 111.981 34.5414C112.343 34.4766 112.646 34.3685 112.889 34.2173C113.132 34.066 113.332 33.8472 113.488 33.5609C113.645 33.2692 113.723 32.9342 113.723 32.5561C113.723 32.1131 113.61 31.7295 113.383 31.4054C113.156 31.0758 112.84 30.8462 112.435 30.7166C112.035 30.5815 111.457 30.514 110.701 30.514H107.954V34.5981ZM123.22 33.2286L124.728 33.415C124.49 34.2956 124.05 34.979 123.407 35.4652C122.764 35.9514 121.943 36.1945 120.943 36.1945C119.685 36.1945 118.685 35.8082 117.945 35.0357C117.21 34.2578 116.843 33.1692 116.843 31.77C116.843 30.3222 117.216 29.1986 117.961 28.399C118.707 27.5995 119.674 27.1997 120.862 27.1997C122.013 27.1997 122.953 27.5914 123.682 28.3747C124.412 29.158 124.776 30.2601 124.776 31.6809C124.776 31.7673 124.774 31.897 124.768 32.0699H118.35C118.404 33.0153 118.672 33.7392 119.153 34.2416C119.633 34.744 120.233 34.9952 120.952 34.9952C121.486 34.9952 121.943 34.8547 122.321 34.5738C122.699 34.2929 122.999 33.8445 123.22 33.2286ZM118.431 30.8706H123.237C123.172 30.1467 122.988 29.6037 122.686 29.2418C122.221 28.6799 121.619 28.399 120.879 28.399C120.209 28.399 119.644 28.6232 119.185 29.0716C118.731 29.52 118.48 30.1196 118.431 30.8706ZM128.958 36L125.684 27.3942H127.224L129.071 32.548C129.271 33.1044 129.455 33.6824 129.622 34.2821C129.752 33.8283 129.933 33.2827 130.165 32.6452L132.077 27.3942H133.577L130.319 36H128.958ZM140.756 33.2286L142.263 33.415C142.026 34.2956 141.585 34.979 140.943 35.4652C140.3 35.9514 139.479 36.1945 138.479 36.1945C137.22 36.1945 136.221 35.8082 135.481 35.0357C134.746 34.2578 134.379 33.1692 134.379 31.77C134.379 30.3222 134.752 29.1986 135.497 28.399C136.243 27.5995 137.21 27.1997 138.398 27.1997C139.549 27.1997 140.489 27.5914 141.218 28.3747C141.947 29.158 142.312 30.2601 142.312 31.6809C142.312 31.7673 142.309 31.897 142.304 32.0699H135.886C135.94 33.0153 136.208 33.7392 136.688 34.2416C137.169 34.744 137.769 34.9952 138.487 34.9952C139.022 34.9952 139.479 34.8547 139.857 34.5738C140.235 34.2929 140.535 33.8445 140.756 33.2286ZM135.967 30.8706H140.772C140.708 30.1467 140.524 29.6037 140.221 29.2418C139.757 28.6799 139.154 28.399 138.414 28.399C137.744 28.399 137.18 28.6232 136.721 29.0716C136.267 29.52 136.016 30.1196 135.967 30.8706ZM144.087 36V27.3942H145.399V28.6988C145.734 28.0884 146.042 27.6859 146.323 27.4914C146.61 27.297 146.923 27.1997 147.263 27.1997C147.755 27.1997 148.255 27.3564 148.762 27.6697L148.26 29.023C147.903 28.8123 147.547 28.7069 147.19 28.7069C146.872 28.7069 146.585 28.8042 146.331 28.9987C146.077 29.1877 145.896 29.4525 145.788 29.7928C145.626 30.3114 145.545 30.8787 145.545 31.4945V36H144.087ZM155.245 34.9385C154.705 35.3976 154.184 35.7218 153.681 35.9109C153.184 36.0999 152.649 36.1945 152.077 36.1945C151.131 36.1945 150.405 35.9649 149.897 35.5057C149.389 35.0411 149.135 34.4496 149.135 33.7311C149.135 33.3097 149.23 32.9261 149.419 32.5804C149.613 32.2292 149.864 31.9483 150.172 31.7376C150.486 31.5269 150.837 31.3676 151.226 31.2595C151.512 31.1839 151.944 31.111 152.522 31.0407C153.7 30.9003 154.567 30.7328 155.124 30.5383C155.129 30.3384 155.132 30.2115 155.132 30.1575C155.132 29.5632 154.994 29.1445 154.718 28.9014C154.346 28.5719 153.792 28.4071 153.057 28.4071C152.371 28.4071 151.863 28.5287 151.534 28.7718C151.21 29.0095 150.969 29.4336 150.813 30.044L149.386 29.8495C149.516 29.2391 149.729 28.7475 150.027 28.3747C150.324 27.9966 150.753 27.7075 151.315 27.5076C151.877 27.3024 152.528 27.1997 153.268 27.1997C154.003 27.1997 154.6 27.2862 155.059 27.459C155.518 27.6319 155.856 27.8507 156.072 28.1154C156.288 28.3747 156.439 28.7042 156.525 29.104C156.574 29.3525 156.598 29.8009 156.598 30.4492V32.394C156.598 33.75 156.628 34.6089 156.687 34.9709C156.752 35.3274 156.877 35.6705 157.06 36H155.537C155.386 35.6975 155.288 35.3436 155.245 34.9385ZM155.124 31.6809C154.594 31.897 153.8 32.0807 152.741 32.2319C152.141 32.3184 151.717 32.4156 151.469 32.5236C151.22 32.6317 151.029 32.7911 150.894 33.0017C150.759 33.207 150.691 33.4366 150.691 33.6905C150.691 34.0795 150.837 34.4036 151.129 34.6629C151.426 34.9222 151.858 35.0519 152.425 35.0519C152.987 35.0519 153.487 34.9304 153.924 34.6873C154.362 34.4387 154.683 34.1011 154.889 33.6743C155.045 33.3448 155.124 32.8586 155.124 32.2157V31.6809ZM158.6 36.7131L160.018 36.9238C160.077 37.3614 160.242 37.6801 160.512 37.88C160.874 38.1501 161.369 38.2852 161.995 38.2852C162.671 38.2852 163.192 38.1501 163.559 37.88C163.927 37.6099 164.175 37.2317 164.305 36.7455C164.38 36.4484 164.415 35.8244 164.41 34.8736C163.773 35.6245 162.978 36 162.028 36C160.845 36 159.929 35.5732 159.281 34.7197C158.632 33.8661 158.308 32.8424 158.308 31.6485C158.308 30.8273 158.457 30.071 158.754 29.3795C159.051 28.6826 159.48 28.1451 160.042 27.767C160.61 27.3888 161.274 27.1997 162.036 27.1997C163.051 27.1997 163.889 27.6103 164.548 28.4314V27.3942H165.893V34.8331C165.893 36.1729 165.755 37.121 165.48 37.6774C165.21 38.2392 164.777 38.6822 164.183 39.0064C163.594 39.3305 162.868 39.4926 162.003 39.4926C160.977 39.4926 160.148 39.2603 159.516 38.7957C158.884 38.3365 158.578 37.6423 158.6 36.7131ZM159.807 31.5431C159.807 32.6722 160.031 33.4961 160.48 34.0147C160.928 34.5333 161.49 34.7926 162.165 34.7926C162.835 34.7926 163.397 34.536 163.851 34.0228C164.305 33.5042 164.532 32.6938 164.532 31.5918C164.532 30.5383 164.297 29.7442 163.827 29.2094C163.362 28.6745 162.8 28.4071 162.141 28.4071C161.493 28.4071 160.942 28.6718 160.488 29.2013C160.034 29.7253 159.807 30.5059 159.807 31.5431ZM173.996 33.2286L175.504 33.415C175.266 34.2956 174.826 34.979 174.183 35.4652C173.54 35.9514 172.719 36.1945 171.719 36.1945C170.461 36.1945 169.461 35.8082 168.721 35.0357C167.986 34.2578 167.619 33.1692 167.619 31.77C167.619 30.3222 167.992 29.1986 168.737 28.399C169.483 27.5995 170.45 27.1997 171.638 27.1997C172.789 27.1997 173.729 27.5914 174.458 28.3747C175.188 29.158 175.552 30.2601 175.552 31.6809C175.552 31.7673 175.549 31.897 175.544 32.0699H169.126C169.18 33.0153 169.448 33.7392 169.928 34.2416C170.409 34.744 171.009 34.9952 171.727 34.9952C172.262 34.9952 172.719 34.8547 173.097 34.5738C173.475 34.2929 173.775 33.8445 173.996 33.2286ZM169.207 30.8706H174.013C173.948 30.1467 173.764 29.6037 173.462 29.2418C172.997 28.6799 172.395 28.399 171.654 28.399C170.985 28.399 170.42 28.6232 169.961 29.0716C169.507 29.52 169.256 30.1196 169.207 30.8706Z" fill="#393939"/>
<path d="M51.5391 80.2402L52.6113 80.1465C52.6621 80.5762 52.7793 80.9297 52.9629 81.207C53.1504 81.4805 53.4395 81.7031 53.8301 81.875C54.2207 82.043 54.6602 82.127 55.1484 82.127C55.582 82.127 55.9648 82.0625 56.2969 81.9336C56.6289 81.8047 56.875 81.6289 57.0352 81.4062C57.1992 81.1797 57.2812 80.9336 57.2812 80.668C57.2812 80.3984 57.2031 80.1641 57.0469 79.9648C56.8906 79.7617 56.6328 79.5918 56.2734 79.4551C56.043 79.3652 55.5332 79.2266 54.7441 79.0391C53.9551 78.8477 53.4023 78.668 53.0859 78.5C52.6758 78.2852 52.3691 78.0195 52.166 77.7031C51.9668 77.3828 51.8672 77.0254 51.8672 76.6309C51.8672 76.1973 51.9902 75.793 52.2363 75.418C52.4824 75.0391 52.8418 74.752 53.3145 74.5566C53.7871 74.3613 54.3125 74.2637 54.8906 74.2637C55.5273 74.2637 56.0879 74.3672 56.5723 74.5742C57.0605 74.7773 57.4355 75.0781 57.6973 75.4766C57.959 75.875 58.0996 76.3262 58.1191 76.8301L57.0293 76.9121C56.9707 76.3691 56.7715 75.959 56.4316 75.6816C56.0957 75.4043 55.5977 75.2656 54.9375 75.2656C54.25 75.2656 53.748 75.3926 53.4316 75.6465C53.1191 75.8965 52.9629 76.1992 52.9629 76.5547C52.9629 76.8633 53.0742 77.1172 53.2969 77.3164C53.5156 77.5156 54.0859 77.7207 55.0078 77.9316C55.9336 78.1387 56.5684 78.3203 56.9121 78.4766C57.4121 78.707 57.7812 79 58.0195 79.3555C58.2578 79.707 58.377 80.1133 58.377 80.5742C58.377 81.0312 58.2461 81.4629 57.9844 81.8691C57.7227 82.2715 57.3457 82.5859 56.8535 82.8125C56.3652 83.0352 55.8145 83.1465 55.2012 83.1465C54.4238 83.1465 53.7715 83.0332 53.2441 82.8066C52.7207 82.5801 52.3086 82.2402 52.0078 81.7871C51.7109 81.3301 51.5547 80.8145 51.5391 80.2402ZM63.873 83V82.0859C63.3887 82.7891 62.7305 83.1406 61.8984 83.1406C61.5312 83.1406 61.1875 83.0703 60.8672 82.9297C60.5508 82.7891 60.3145 82.6133 60.1582 82.4023C60.0059 82.1875 59.8984 81.9258 59.8359 81.6172C59.793 81.4102 59.7715 81.082 59.7715 80.6328V76.7773H60.8262V80.2285C60.8262 80.7793 60.8477 81.1504 60.8906 81.3418C60.957 81.6191 61.0977 81.8379 61.3125 81.998C61.5273 82.1543 61.793 82.2324 62.1094 82.2324C62.4258 82.2324 62.7227 82.1523 63 81.9922C63.2773 81.8281 63.4727 81.6074 63.5859 81.3301C63.7031 81.0488 63.7617 80.6426 63.7617 80.1113V76.7773H64.8164V83H63.873ZM67.4473 83H66.4688V74.4102H67.5234V77.4746C67.9688 76.916 68.5371 76.6367 69.2285 76.6367C69.6113 76.6367 69.9727 76.7148 70.3125 76.8711C70.6562 77.0234 70.9375 77.2402 71.1562 77.5215C71.3789 77.7988 71.5527 78.1348 71.6777 78.5293C71.8027 78.9238 71.8652 79.3457 71.8652 79.7949C71.8652 80.8613 71.6016 81.6855 71.0742 82.2676C70.5469 82.8496 69.9141 83.1406 69.1758 83.1406C68.4414 83.1406 67.8652 82.834 67.4473 82.2207V83ZM67.4355 79.8418C67.4355 80.5879 67.5371 81.127 67.7402 81.459C68.0723 82.002 68.5215 82.2734 69.0879 82.2734C69.5488 82.2734 69.9473 82.0742 70.2832 81.6758C70.6191 81.2734 70.7871 80.6758 70.7871 79.8828C70.7871 79.0703 70.625 78.4707 70.3008 78.084C69.9805 77.6973 69.5918 77.5039 69.1348 77.5039C68.6738 77.5039 68.2754 77.7051 67.9395 78.1074C67.6035 78.5059 67.4355 79.084 67.4355 79.8418ZM77.2148 80.7207L78.252 80.8555C78.1387 81.5703 77.8477 82.1309 77.3789 82.5371C76.9141 82.9395 76.3418 83.1406 75.6621 83.1406C74.8105 83.1406 74.125 82.8633 73.6055 82.3086C73.0898 81.75 72.832 80.9512 72.832 79.9121C72.832 79.2402 72.9434 78.6523 73.166 78.1484C73.3887 77.6445 73.7266 77.2676 74.1797 77.0176C74.6367 76.7637 75.1328 76.6367 75.668 76.6367C76.3438 76.6367 76.8965 76.8086 77.3262 77.1523C77.7559 77.4922 78.0312 77.9766 78.1523 78.6055L77.127 78.7637C77.0293 78.3457 76.8555 78.0312 76.6055 77.8203C76.3594 77.6094 76.0605 77.5039 75.709 77.5039C75.1777 77.5039 74.7461 77.6953 74.4141 78.0781C74.082 78.457 73.916 79.0586 73.916 79.8828C73.916 80.7188 74.0762 81.3262 74.3965 81.7051C74.7168 82.084 75.1348 82.2734 75.6504 82.2734C76.0645 82.2734 76.4102 82.1465 76.6875 81.8926C76.9648 81.6387 77.1406 81.248 77.2148 80.7207ZM83.2148 82.2324C82.8242 82.5645 82.4473 82.7988 82.084 82.9355C81.7246 83.0723 81.3379 83.1406 80.9238 83.1406C80.2402 83.1406 79.7148 82.9746 79.3477 82.6426C78.9805 82.3066 78.7969 81.8789 78.7969 81.3594C78.7969 81.0547 78.8652 80.7773 79.002 80.5273C79.1426 80.2734 79.3242 80.0703 79.5469 79.918C79.7734 79.7656 80.0273 79.6504 80.3086 79.5723C80.5156 79.5176 80.8281 79.4648 81.2461 79.4141C82.0977 79.3125 82.7246 79.1914 83.127 79.0508C83.1309 78.9062 83.1328 78.8145 83.1328 78.7754C83.1328 78.3457 83.0332 78.043 82.834 77.8672C82.5645 77.6289 82.1641 77.5098 81.6328 77.5098C81.1367 77.5098 80.7695 77.5977 80.5312 77.7734C80.2969 77.9453 80.123 78.252 80.0098 78.6934L78.9785 78.5527C79.0723 78.1113 79.2266 77.7559 79.4414 77.4863C79.6562 77.2129 79.9668 77.0039 80.373 76.8594C80.7793 76.7109 81.25 76.6367 81.7852 76.6367C82.3164 76.6367 82.748 76.6992 83.0801 76.8242C83.4121 76.9492 83.6562 77.1074 83.8125 77.2988C83.9688 77.4863 84.0781 77.7246 84.1406 78.0137C84.1758 78.1934 84.1934 78.5176 84.1934 78.9863V80.3926C84.1934 81.373 84.2148 81.9941 84.2578 82.2559C84.3047 82.5137 84.3945 82.7617 84.5273 83H83.4258C83.3164 82.7812 83.2461 82.5254 83.2148 82.2324ZM83.127 79.877C82.7441 80.0332 82.1699 80.166 81.4043 80.2754C80.9707 80.3379 80.6641 80.4082 80.4844 80.4863C80.3047 80.5645 80.166 80.6797 80.0684 80.832C79.9707 80.9805 79.9219 81.1465 79.9219 81.3301C79.9219 81.6113 80.0273 81.8457 80.2383 82.0332C80.4531 82.2207 80.7656 82.3145 81.1758 82.3145C81.582 82.3145 81.9434 82.2266 82.2598 82.0508C82.5762 81.8711 82.8086 81.627 82.957 81.3184C83.0703 81.0801 83.127 80.7285 83.127 80.2637V79.877ZM88.1367 82.0566L88.2891 82.9883C87.9922 83.0508 87.7266 83.082 87.4922 83.082C87.1094 83.082 86.8125 83.0215 86.6016 82.9004C86.3906 82.7793 86.2422 82.6211 86.1562 82.4258C86.0703 82.2266 86.0273 81.8105 86.0273 81.1777V77.5977H85.2539V76.7773H86.0273V75.2363L87.0762 74.6035V76.7773H88.1367V77.5977H87.0762V81.2363C87.0762 81.5371 87.0938 81.7305 87.1289 81.8164C87.168 81.9023 87.2285 81.9707 87.3105 82.0215C87.3965 82.0723 87.5176 82.0977 87.6738 82.0977C87.791 82.0977 87.9453 82.084 88.1367 82.0566ZM93.4336 80.9961L94.5234 81.1309C94.3516 81.7676 94.0332 82.2617 93.5684 82.6133C93.1035 82.9648 92.5098 83.1406 91.7871 83.1406C90.877 83.1406 90.1543 82.8613 89.6191 82.3027C89.0879 81.7402 88.8223 80.9531 88.8223 79.9414C88.8223 78.8945 89.0918 78.082 89.6309 77.5039C90.1699 76.9258 90.8691 76.6367 91.7285 76.6367C92.5605 76.6367 93.2402 76.9199 93.7676 77.4863C94.2949 78.0527 94.5586 78.8496 94.5586 79.877C94.5586 79.9395 94.5566 80.0332 94.5527 80.1582H89.9121C89.9512 80.8418 90.1445 81.3652 90.4922 81.7285C90.8398 82.0918 91.2734 82.2734 91.793 82.2734C92.1797 82.2734 92.5098 82.1719 92.7832 81.9688C93.0566 81.7656 93.2734 81.4414 93.4336 80.9961ZM89.9707 79.291H93.4453C93.3984 78.7676 93.2656 78.375 93.0469 78.1133C92.7109 77.707 92.2754 77.5039 91.7402 77.5039C91.2559 77.5039 90.8477 77.666 90.5156 77.9902C90.1875 78.3145 90.0059 78.748 89.9707 79.291ZM95.6602 83.5156L96.6855 83.668C96.7285 83.9844 96.8477 84.2148 97.043 84.3594C97.3047 84.5547 97.6621 84.6523 98.1152 84.6523C98.6035 84.6523 98.9805 84.5547 99.2461 84.3594C99.5117 84.1641 99.6914 83.8906 99.7852 83.5391C99.8398 83.3242 99.8652 82.873 99.8613 82.1855C99.4004 82.7285 98.8262 83 98.1387 83C97.2832 83 96.6211 82.6914 96.1523 82.0742C95.6836 81.457 95.4492 80.7168 95.4492 79.8535C95.4492 79.2598 95.5566 78.7129 95.7715 78.2129C95.9863 77.709 96.2969 77.3203 96.7031 77.0469C97.1133 76.7734 97.5938 76.6367 98.1445 76.6367C98.8789 76.6367 99.4844 76.9336 99.9609 77.5273V76.7773H100.934V82.1562C100.934 83.125 100.834 83.8105 100.635 84.2129C100.439 84.6191 100.127 84.9395 99.6973 85.1738C99.2715 85.4082 98.7461 85.5254 98.1211 85.5254C97.3789 85.5254 96.7793 85.3574 96.3223 85.0215C95.8652 84.6895 95.6445 84.1875 95.6602 83.5156ZM96.5332 79.7773C96.5332 80.5938 96.6953 81.1895 97.0195 81.5645C97.3438 81.9395 97.75 82.127 98.2383 82.127C98.7227 82.127 99.1289 81.9414 99.457 81.5703C99.7852 81.1953 99.9492 80.6094 99.9492 79.8125C99.9492 79.0508 99.7793 78.4766 99.4395 78.0898C99.1035 77.7031 98.6973 77.5098 98.2207 77.5098C97.752 77.5098 97.3535 77.7012 97.0254 78.084C96.6973 78.4629 96.5332 79.0273 96.5332 79.7773ZM102.141 79.8887C102.141 78.7363 102.461 77.8828 103.102 77.3281C103.637 76.8672 104.289 76.6367 105.059 76.6367C105.914 76.6367 106.613 76.918 107.156 77.4805C107.699 78.0391 107.971 78.8125 107.971 79.8008C107.971 80.6016 107.85 81.2324 107.607 81.6934C107.369 82.1504 107.02 82.5059 106.559 82.7598C106.102 83.0137 105.602 83.1406 105.059 83.1406C104.188 83.1406 103.482 82.8613 102.943 82.3027C102.408 81.7441 102.141 80.9395 102.141 79.8887ZM103.225 79.8887C103.225 80.6855 103.398 81.2832 103.746 81.6816C104.094 82.0762 104.531 82.2734 105.059 82.2734C105.582 82.2734 106.018 82.0742 106.365 81.6758C106.713 81.2773 106.887 80.6699 106.887 79.8535C106.887 79.084 106.711 78.502 106.359 78.1074C106.012 77.709 105.578 77.5098 105.059 77.5098C104.531 77.5098 104.094 77.707 103.746 78.1016C103.398 78.4961 103.225 79.0918 103.225 79.8887ZM109.201 83V76.7773H110.15V77.7207C110.393 77.2793 110.615 76.9883 110.818 76.8477C111.025 76.707 111.252 76.6367 111.498 76.6367C111.854 76.6367 112.215 76.75 112.582 76.9766L112.219 77.9551C111.961 77.8027 111.703 77.7266 111.445 77.7266C111.215 77.7266 111.008 77.7969 110.824 77.9375C110.641 78.0742 110.51 78.2656 110.432 78.5117C110.314 78.8867 110.256 79.2969 110.256 79.7422V83H109.201ZM113.162 85.3965L113.045 84.4062C113.275 84.4688 113.477 84.5 113.648 84.5C113.883 84.5 114.07 84.4609 114.211 84.3828C114.352 84.3047 114.467 84.1953 114.557 84.0547C114.623 83.9492 114.73 83.6875 114.879 83.2695C114.898 83.2109 114.93 83.125 114.973 83.0117L112.611 76.7773H113.748L115.043 80.3809C115.211 80.8379 115.361 81.3184 115.494 81.8223C115.615 81.3379 115.76 80.8652 115.928 80.4043L117.258 76.7773H118.312L115.945 83.1055C115.691 83.7891 115.494 84.2598 115.354 84.5176C115.166 84.8652 114.951 85.1191 114.709 85.2793C114.467 85.4434 114.178 85.5254 113.842 85.5254C113.639 85.5254 113.412 85.4824 113.162 85.3965ZM122.156 79.8887C122.156 78.7363 122.477 77.8828 123.117 77.3281C123.652 76.8672 124.305 76.6367 125.074 76.6367C125.93 76.6367 126.629 76.918 127.172 77.4805C127.715 78.0391 127.986 78.8125 127.986 79.8008C127.986 80.6016 127.865 81.2324 127.623 81.6934C127.385 82.1504 127.035 82.5059 126.574 82.7598C126.117 83.0137 125.617 83.1406 125.074 83.1406C124.203 83.1406 123.498 82.8613 122.959 82.3027C122.424 81.7441 122.156 80.9395 122.156 79.8887ZM123.24 79.8887C123.24 80.6855 123.414 81.2832 123.762 81.6816C124.109 82.0762 124.547 82.2734 125.074 82.2734C125.598 82.2734 126.033 82.0742 126.381 81.6758C126.729 81.2773 126.902 80.6699 126.902 79.8535C126.902 79.084 126.727 78.502 126.375 78.1074C126.027 77.709 125.594 77.5098 125.074 77.5098C124.547 77.5098 124.109 77.707 123.762 78.1016C123.414 78.4961 123.24 79.0918 123.24 79.8887ZM129.48 83V77.5977H128.549V76.7773H129.48V76.1152C129.48 75.6973 129.518 75.3867 129.592 75.1836C129.693 74.9102 129.871 74.6895 130.125 74.5215C130.383 74.3496 130.742 74.2637 131.203 74.2637C131.5 74.2637 131.828 74.2988 132.188 74.3691L132.029 75.2891C131.811 75.25 131.604 75.2305 131.408 75.2305C131.088 75.2305 130.861 75.2988 130.729 75.4355C130.596 75.5723 130.529 75.8281 130.529 76.2031V76.7773H131.742V77.5977H130.529V83H129.48ZM136.102 83V74.4102H141.896V75.4238H137.238V78.084H141.27V79.0977H137.238V83H136.102ZM142.852 79.8887C142.852 78.7363 143.172 77.8828 143.812 77.3281C144.348 76.8672 145 76.6367 145.77 76.6367C146.625 76.6367 147.324 76.918 147.867 77.4805C148.41 78.0391 148.682 78.8125 148.682 79.8008C148.682 80.6016 148.561 81.2324 148.318 81.6934C148.08 82.1504 147.73 82.5059 147.27 82.7598C146.812 83.0137 146.312 83.1406 145.77 83.1406C144.898 83.1406 144.193 82.8613 143.654 82.3027C143.119 81.7441 142.852 80.9395 142.852 79.8887ZM143.936 79.8887C143.936 80.6855 144.109 81.2832 144.457 81.6816C144.805 82.0762 145.242 82.2734 145.77 82.2734C146.293 82.2734 146.729 82.0742 147.076 81.6758C147.424 81.2773 147.598 80.6699 147.598 79.8535C147.598 79.084 147.422 78.502 147.07 78.1074C146.723 77.709 146.289 77.5098 145.77 77.5098C145.242 77.5098 144.805 77.707 144.457 78.1016C144.109 78.4961 143.936 79.0918 143.936 79.8887ZM149.531 79.8887C149.531 78.7363 149.852 77.8828 150.492 77.3281C151.027 76.8672 151.68 76.6367 152.449 76.6367C153.305 76.6367 154.004 76.918 154.547 77.4805C155.09 78.0391 155.361 78.8125 155.361 79.8008C155.361 80.6016 155.24 81.2324 154.998 81.6934C154.76 82.1504 154.41 82.5059 153.949 82.7598C153.492 83.0137 152.992 83.1406 152.449 83.1406C151.578 83.1406 150.873 82.8613 150.334 82.3027C149.799 81.7441 149.531 80.9395 149.531 79.8887ZM150.615 79.8887C150.615 80.6855 150.789 81.2832 151.137 81.6816C151.484 82.0762 151.922 82.2734 152.449 82.2734C152.973 82.2734 153.408 82.0742 153.756 81.6758C154.104 81.2773 154.277 80.6699 154.277 79.8535C154.277 79.084 154.102 78.502 153.75 78.1074C153.402 77.709 152.969 77.5098 152.449 77.5098C151.922 77.5098 151.484 77.707 151.137 78.1016C150.789 78.4961 150.615 79.0918 150.615 79.8887ZM160.641 83V82.2148C160.246 82.832 159.666 83.1406 158.9 83.1406C158.404 83.1406 157.947 83.0039 157.529 82.7305C157.115 82.457 156.793 82.0762 156.562 81.5879C156.336 81.0957 156.223 80.5312 156.223 79.8945C156.223 79.2734 156.326 78.7109 156.533 78.207C156.74 77.6992 157.051 77.3105 157.465 77.041C157.879 76.7715 158.342 76.6367 158.854 76.6367C159.229 76.6367 159.562 76.7168 159.855 76.877C160.148 77.0332 160.387 77.2383 160.57 77.4922V74.4102H161.619V83H160.641ZM157.307 79.8945C157.307 80.6914 157.475 81.2871 157.811 81.6816C158.146 82.0762 158.543 82.2734 159 82.2734C159.461 82.2734 159.852 82.0859 160.172 81.7109C160.496 81.332 160.658 80.7559 160.658 79.9824C160.658 79.1309 160.494 78.5059 160.166 78.1074C159.838 77.709 159.434 77.5098 158.953 77.5098C158.484 77.5098 158.092 77.7012 157.775 78.084C157.463 78.4668 157.307 79.0703 157.307 79.8945ZM171.533 81.9863C171.186 82.373 170.807 82.6641 170.396 82.8594C169.986 83.0508 169.543 83.1465 169.066 83.1465C168.188 83.1465 167.49 82.8496 166.975 82.2559C166.557 81.7715 166.348 81.2305 166.348 80.6328C166.348 80.1016 166.518 79.623 166.857 79.1973C167.201 78.7676 167.713 78.3906 168.393 78.0664C168.006 77.6211 167.748 77.2598 167.619 76.9824C167.49 76.7051 167.426 76.4375 167.426 76.1797C167.426 75.6641 167.627 75.2168 168.029 74.8379C168.436 74.4551 168.945 74.2637 169.559 74.2637C170.145 74.2637 170.623 74.4434 170.994 74.8027C171.369 75.1621 171.557 75.5938 171.557 76.0977C171.557 76.9141 171.016 77.6113 169.934 78.1895L171.475 80.1523C171.65 79.8086 171.787 79.4102 171.885 78.957L172.98 79.1914C172.793 79.9414 172.539 80.5586 172.219 81.043C172.613 81.5664 173.061 82.0059 173.561 82.3613L172.852 83.1992C172.426 82.9258 171.986 82.5215 171.533 81.9863ZM169.389 77.5098C169.846 77.2402 170.141 77.0039 170.273 76.8008C170.41 76.5977 170.479 76.373 170.479 76.127C170.479 75.834 170.385 75.5957 170.197 75.4121C170.014 75.2246 169.783 75.1309 169.506 75.1309C169.221 75.1309 168.982 75.2227 168.791 75.4062C168.604 75.5898 168.51 75.8145 168.51 76.0801C168.51 76.2129 168.543 76.3535 168.609 76.502C168.68 76.6465 168.783 76.8008 168.92 76.9648L169.389 77.5098ZM170.871 81.1543L168.938 78.7578C168.367 79.0977 167.982 79.4141 167.783 79.707C167.584 79.9961 167.484 80.2832 167.484 80.5684C167.484 80.916 167.623 81.2773 167.9 81.6523C168.178 82.0273 168.57 82.2148 169.078 82.2148C169.395 82.2148 169.721 82.1172 170.057 81.9219C170.396 81.7227 170.668 81.4668 170.871 81.1543ZM178.055 83V74.4102H181.277C181.934 74.4102 182.459 74.498 182.854 74.6738C183.252 74.8457 183.562 75.1133 183.785 75.4766C184.012 75.8359 184.125 76.2129 184.125 76.6074C184.125 76.9746 184.025 77.3203 183.826 77.6445C183.627 77.9688 183.326 78.2305 182.924 78.4297C183.443 78.582 183.842 78.8418 184.119 79.209C184.4 79.5762 184.541 80.0098 184.541 80.5098C184.541 80.9121 184.455 81.2871 184.283 81.6348C184.115 81.9785 183.906 82.2441 183.656 82.4316C183.406 82.6191 183.092 82.7617 182.713 82.8594C182.338 82.9531 181.877 83 181.33 83H178.055ZM179.191 78.0195H181.049C181.553 78.0195 181.914 77.9863 182.133 77.9199C182.422 77.834 182.639 77.6914 182.783 77.4922C182.932 77.293 183.006 77.043 183.006 76.7422C183.006 76.457 182.938 76.207 182.801 75.9922C182.664 75.7734 182.469 75.625 182.215 75.5469C181.961 75.4648 181.525 75.4238 180.908 75.4238H179.191V78.0195ZM179.191 81.9863H181.33C181.697 81.9863 181.955 81.9727 182.104 81.9453C182.365 81.8984 182.584 81.8203 182.76 81.7109C182.936 81.6016 183.08 81.4434 183.193 81.2363C183.307 81.0254 183.363 80.7832 183.363 80.5098C183.363 80.1895 183.281 79.9121 183.117 79.6777C182.953 79.4395 182.725 79.2734 182.432 79.1797C182.143 79.082 181.725 79.0332 181.178 79.0332H179.191V81.9863ZM190.23 80.9961L191.32 81.1309C191.148 81.7676 190.83 82.2617 190.365 82.6133C189.9 82.9648 189.307 83.1406 188.584 83.1406C187.674 83.1406 186.951 82.8613 186.416 82.3027C185.885 81.7402 185.619 80.9531 185.619 79.9414C185.619 78.8945 185.889 78.082 186.428 77.5039C186.967 76.9258 187.666 76.6367 188.525 76.6367C189.357 76.6367 190.037 76.9199 190.564 77.4863C191.092 78.0527 191.355 78.8496 191.355 79.877C191.355 79.9395 191.354 80.0332 191.35 80.1582H186.709C186.748 80.8418 186.941 81.3652 187.289 81.7285C187.637 82.0918 188.07 82.2734 188.59 82.2734C188.977 82.2734 189.307 82.1719 189.58 81.9688C189.854 81.7656 190.07 81.4414 190.23 80.9961ZM186.768 79.291H190.242C190.195 78.7676 190.062 78.375 189.844 78.1133C189.508 77.707 189.072 77.5039 188.537 77.5039C188.053 77.5039 187.645 77.666 187.312 77.9902C186.984 78.3145 186.803 78.748 186.768 79.291ZM194.379 83L192.012 76.7773H193.125L194.461 80.5039C194.605 80.9062 194.738 81.3242 194.859 81.7578C194.953 81.4297 195.084 81.0352 195.252 80.5742L196.635 76.7773H197.719L195.363 83H194.379ZM202.91 80.9961L204 81.1309C203.828 81.7676 203.51 82.2617 203.045 82.6133C202.58 82.9648 201.986 83.1406 201.264 83.1406C200.354 83.1406 199.631 82.8613 199.096 82.3027C198.564 81.7402 198.299 80.9531 198.299 79.9414C198.299 78.8945 198.568 78.082 199.107 77.5039C199.646 76.9258 200.346 76.6367 201.205 76.6367C202.037 76.6367 202.717 76.9199 203.244 77.4863C203.771 78.0527 204.035 78.8496 204.035 79.877C204.035 79.9395 204.033 80.0332 204.029 80.1582H199.389C199.428 80.8418 199.621 81.3652 199.969 81.7285C200.316 82.0918 200.75 82.2734 201.27 82.2734C201.656 82.2734 201.986 82.1719 202.26 81.9688C202.533 81.7656 202.75 81.4414 202.91 80.9961ZM199.447 79.291H202.922C202.875 78.7676 202.742 78.375 202.523 78.1133C202.188 77.707 201.752 77.5039 201.217 77.5039C200.732 77.5039 200.324 77.666 199.992 77.9902C199.664 78.3145 199.482 78.748 199.447 79.291ZM205.318 83V76.7773H206.268V77.7207C206.51 77.2793 206.732 76.9883 206.936 76.8477C207.143 76.707 207.369 76.6367 207.615 76.6367C207.971 76.6367 208.332 76.75 208.699 76.9766L208.336 77.9551C208.078 77.8027 207.82 77.7266 207.562 77.7266C207.332 77.7266 207.125 77.7969 206.941 77.9375C206.758 78.0742 206.627 78.2656 206.549 78.5117C206.432 78.8867 206.373 79.2969 206.373 79.7422V83H205.318ZM213.387 82.2324C212.996 82.5645 212.619 82.7988 212.256 82.9355C211.896 83.0723 211.51 83.1406 211.096 83.1406C210.412 83.1406 209.887 82.9746 209.52 82.6426C209.152 82.3066 208.969 81.8789 208.969 81.3594C208.969 81.0547 209.037 80.7773 209.174 80.5273C209.314 80.2734 209.496 80.0703 209.719 79.918C209.945 79.7656 210.199 79.6504 210.48 79.5723C210.688 79.5176 211 79.4648 211.418 79.4141C212.27 79.3125 212.896 79.1914 213.299 79.0508C213.303 78.9062 213.305 78.8145 213.305 78.7754C213.305 78.3457 213.205 78.043 213.006 77.8672C212.736 77.6289 212.336 77.5098 211.805 77.5098C211.309 77.5098 210.941 77.5977 210.703 77.7734C210.469 77.9453 210.295 78.252 210.182 78.6934L209.15 78.5527C209.244 78.1113 209.398 77.7559 209.613 77.4863C209.828 77.2129 210.139 77.0039 210.545 76.8594C210.951 76.7109 211.422 76.6367 211.957 76.6367C212.488 76.6367 212.92 76.6992 213.252 76.8242C213.584 76.9492 213.828 77.1074 213.984 77.2988C214.141 77.4863 214.25 77.7246 214.312 78.0137C214.348 78.1934 214.365 78.5176 214.365 78.9863V80.3926C214.365 81.373 214.387 81.9941 214.43 82.2559C214.477 82.5137 214.566 82.7617 214.699 83H213.598C213.488 82.7812 213.418 82.5254 213.387 82.2324ZM213.299 79.877C212.916 80.0332 212.342 80.166 211.576 80.2754C211.143 80.3379 210.836 80.4082 210.656 80.4863C210.477 80.5645 210.338 80.6797 210.24 80.832C210.143 80.9805 210.094 81.1465 210.094 81.3301C210.094 81.6113 210.199 81.8457 210.41 82.0332C210.625 82.2207 210.938 82.3145 211.348 82.3145C211.754 82.3145 212.115 82.2266 212.432 82.0508C212.748 81.8711 212.98 81.627 213.129 81.3184C213.242 81.0801 213.299 80.7285 213.299 80.2637V79.877ZM215.812 83.5156L216.838 83.668C216.881 83.9844 217 84.2148 217.195 84.3594C217.457 84.5547 217.814 84.6523 218.268 84.6523C218.756 84.6523 219.133 84.5547 219.398 84.3594C219.664 84.1641 219.844 83.8906 219.938 83.5391C219.992 83.3242 220.018 82.873 220.014 82.1855C219.553 82.7285 218.979 83 218.291 83C217.436 83 216.773 82.6914 216.305 82.0742C215.836 81.457 215.602 80.7168 215.602 79.8535C215.602 79.2598 215.709 78.7129 215.924 78.2129C216.139 77.709 216.449 77.3203 216.855 77.0469C217.266 76.7734 217.746 76.6367 218.297 76.6367C219.031 76.6367 219.637 76.9336 220.113 77.5273V76.7773H221.086V82.1562C221.086 83.125 220.986 83.8105 220.787 84.2129C220.592 84.6191 220.279 84.9395 219.85 85.1738C219.424 85.4082 218.898 85.5254 218.273 85.5254C217.531 85.5254 216.932 85.3574 216.475 85.0215C216.018 84.6895 215.797 84.1875 215.812 83.5156ZM216.686 79.7773C216.686 80.5938 216.848 81.1895 217.172 81.5645C217.496 81.9395 217.902 82.127 218.391 82.127C218.875 82.127 219.281 81.9414 219.609 81.5703C219.938 81.1953 220.102 80.6094 220.102 79.8125C220.102 79.0508 219.932 78.4766 219.592 78.0898C219.256 77.7031 218.85 77.5098 218.373 77.5098C217.904 77.5098 217.506 77.7012 217.178 78.084C216.85 78.4629 216.686 79.0273 216.686 79.7773ZM226.945 80.9961L228.035 81.1309C227.863 81.7676 227.545 82.2617 227.08 82.6133C226.615 82.9648 226.021 83.1406 225.299 83.1406C224.389 83.1406 223.666 82.8613 223.131 82.3027C222.6 81.7402 222.334 80.9531 222.334 79.9414C222.334 78.8945 222.604 78.082 223.143 77.5039C223.682 76.9258 224.381 76.6367 225.24 76.6367C226.072 76.6367 226.752 76.9199 227.279 77.4863C227.807 78.0527 228.07 78.8496 228.07 79.877C228.07 79.9395 228.068 80.0332 228.064 80.1582H223.424C223.463 80.8418 223.656 81.3652 224.004 81.7285C224.352 82.0918 224.785 82.2734 225.305 82.2734C225.691 82.2734 226.021 82.1719 226.295 81.9688C226.568 81.7656 226.785 81.4414 226.945 80.9961ZM223.482 79.291H226.957C226.91 78.7676 226.777 78.375 226.559 78.1133C226.223 77.707 225.787 77.5039 225.252 77.5039C224.768 77.5039 224.359 77.666 224.027 77.9902C223.699 78.3145 223.518 78.748 223.482 79.291ZM228.943 81.1426L229.986 80.9785C230.045 81.3965 230.207 81.7168 230.473 81.9395C230.742 82.1621 231.117 82.2734 231.598 82.2734C232.082 82.2734 232.441 82.1758 232.676 81.9805C232.91 81.7812 233.027 81.5488 233.027 81.2832C233.027 81.0449 232.924 80.8574 232.717 80.7207C232.572 80.627 232.213 80.5078 231.639 80.3633C230.865 80.168 230.328 80 230.027 79.8594C229.73 79.7148 229.504 79.5176 229.348 79.2676C229.195 79.0137 229.119 78.7344 229.119 78.4297C229.119 78.1523 229.182 77.8965 229.307 77.6621C229.436 77.4238 229.609 77.2266 229.828 77.0703C229.992 76.9492 230.215 76.8477 230.496 76.7656C230.781 76.6797 231.086 76.6367 231.41 76.6367C231.898 76.6367 232.326 76.707 232.693 76.8477C233.064 76.9883 233.338 77.1797 233.514 77.4219C233.689 77.6602 233.811 77.9805 233.877 78.3828L232.846 78.5234C232.799 78.2031 232.662 77.9531 232.436 77.7734C232.213 77.5938 231.896 77.5039 231.486 77.5039C231.002 77.5039 230.656 77.584 230.449 77.7441C230.242 77.9043 230.139 78.0918 230.139 78.3066C230.139 78.4434 230.182 78.5664 230.268 78.6758C230.354 78.7891 230.488 78.8828 230.672 78.957C230.777 78.9961 231.088 79.0859 231.604 79.2266C232.35 79.4258 232.869 79.5898 233.162 79.7188C233.459 79.8438 233.691 80.0273 233.859 80.2695C234.027 80.5117 234.111 80.8125 234.111 81.1719C234.111 81.5234 234.008 81.8555 233.801 82.168C233.598 82.4766 233.303 82.7168 232.916 82.8887C232.529 83.0566 232.092 83.1406 231.604 83.1406C230.795 83.1406 230.178 82.9727 229.752 82.6367C229.33 82.3008 229.061 81.8027 228.943 81.1426ZM235.658 77.9785V76.7773H236.859V77.9785H235.658ZM235.658 83V81.7988H236.859V83H235.658Z" fill="#393939"/>
<path d="M64.7861 119V111.842H67.96C68.598 111.842 69.083 111.907 69.415 112.037C69.7471 112.164 70.0124 112.39 70.2109 112.716C70.4095 113.041 70.5088 113.401 70.5088 113.795C70.5088 114.303 70.3444 114.731 70.0156 115.079C69.6868 115.427 69.179 115.649 68.4922 115.743C68.7428 115.864 68.9333 115.982 69.0635 116.1C69.3402 116.354 69.6022 116.671 69.8496 117.052L71.0947 119H69.9033L68.9561 117.511C68.6794 117.081 68.4515 116.752 68.2725 116.524C68.0934 116.297 67.9323 116.137 67.7891 116.046C67.6491 115.955 67.5059 115.891 67.3594 115.855C67.252 115.833 67.0762 115.821 66.832 115.821H65.7334V119H64.7861ZM65.7334 115.001H67.7695C68.2025 115.001 68.541 114.957 68.7852 114.869C69.0293 114.778 69.2148 114.635 69.3418 114.439C69.4688 114.241 69.5322 114.026 69.5322 113.795C69.5322 113.456 69.4085 113.178 69.1611 112.96C68.917 112.742 68.5296 112.633 67.999 112.633H65.7334V115.001ZM75.4355 117.33L76.3438 117.442C76.2005 117.973 75.9352 118.385 75.5479 118.678C75.1605 118.971 74.6657 119.117 74.0635 119.117C73.305 119.117 72.7028 118.884 72.2568 118.419C71.8141 117.95 71.5928 117.294 71.5928 116.451C71.5928 115.579 71.8174 114.902 72.2666 114.42C72.7158 113.938 73.2985 113.697 74.0146 113.697C74.708 113.697 75.2744 113.933 75.7139 114.405C76.1533 114.877 76.373 115.541 76.373 116.397C76.373 116.45 76.3714 116.528 76.3682 116.632H72.501C72.5335 117.201 72.6947 117.638 72.9844 117.94C73.2741 118.243 73.6354 118.395 74.0684 118.395C74.3906 118.395 74.6657 118.31 74.8936 118.141C75.1214 117.971 75.3021 117.701 75.4355 117.33ZM72.5498 115.909H75.4453C75.4062 115.473 75.2956 115.146 75.1133 114.928C74.8333 114.589 74.4704 114.42 74.0244 114.42C73.6208 114.42 73.2806 114.555 73.0039 114.825C72.7305 115.095 72.5791 115.457 72.5498 115.909ZM77.1006 117.452L77.9697 117.315C78.0186 117.664 78.1536 117.931 78.375 118.116C78.5996 118.302 78.9121 118.395 79.3125 118.395C79.7161 118.395 80.0156 118.313 80.2109 118.15C80.4062 117.984 80.5039 117.791 80.5039 117.569C80.5039 117.371 80.4176 117.215 80.2451 117.101C80.1247 117.022 79.8252 116.923 79.3467 116.803C78.7021 116.64 78.2546 116.5 78.0039 116.383C77.7565 116.262 77.5677 116.098 77.4375 115.89C77.3105 115.678 77.2471 115.445 77.2471 115.191C77.2471 114.96 77.2992 114.747 77.4033 114.552C77.5107 114.353 77.6556 114.189 77.8379 114.059C77.9746 113.958 78.1602 113.873 78.3945 113.805C78.6322 113.733 78.8861 113.697 79.1562 113.697C79.5632 113.697 79.9196 113.756 80.2256 113.873C80.5348 113.99 80.7627 114.15 80.9092 114.352C81.0557 114.55 81.1566 114.817 81.2119 115.152L80.3525 115.27C80.3135 115.003 80.1995 114.794 80.0107 114.645C79.8252 114.495 79.5615 114.42 79.2197 114.42C78.8161 114.42 78.528 114.487 78.3555 114.62C78.1829 114.754 78.0967 114.91 78.0967 115.089C78.0967 115.203 78.1325 115.305 78.2041 115.396C78.2757 115.491 78.388 115.569 78.541 115.631C78.6289 115.663 78.8877 115.738 79.3174 115.855C79.9391 116.021 80.3721 116.158 80.6162 116.266C80.8636 116.37 81.0573 116.523 81.1973 116.725C81.3372 116.926 81.4072 117.177 81.4072 117.477C81.4072 117.77 81.321 118.046 81.1484 118.307C80.9792 118.564 80.7334 118.764 80.4111 118.907C80.0889 119.047 79.7243 119.117 79.3174 119.117C78.6436 119.117 78.1292 118.977 77.7744 118.697C77.4229 118.417 77.1982 118.002 77.1006 117.452ZM84.3711 118.214L84.498 118.99C84.2507 119.042 84.0293 119.068 83.834 119.068C83.515 119.068 83.2676 119.018 83.0918 118.917C82.916 118.816 82.7923 118.684 82.7207 118.521C82.6491 118.355 82.6133 118.009 82.6133 117.481V114.498H81.9688V113.814H82.6133V112.53L83.4873 112.003V113.814H84.3711V114.498H83.4873V117.53C83.4873 117.781 83.502 117.942 83.5312 118.014C83.5638 118.085 83.6143 118.142 83.6826 118.185C83.7542 118.227 83.8551 118.248 83.9854 118.248C84.083 118.248 84.2116 118.237 84.3711 118.214ZM88.6191 118.36C88.2936 118.637 87.9795 118.832 87.6768 118.946C87.3773 119.06 87.055 119.117 86.71 119.117C86.1403 119.117 85.7025 118.979 85.3965 118.702C85.0905 118.422 84.9375 118.066 84.9375 117.633C84.9375 117.379 84.9945 117.148 85.1084 116.939C85.2256 116.728 85.377 116.559 85.5625 116.432C85.7513 116.305 85.9629 116.209 86.1973 116.144C86.3698 116.098 86.6302 116.054 86.9785 116.012C87.6882 115.927 88.2106 115.826 88.5459 115.709C88.5492 115.589 88.5508 115.512 88.5508 115.479C88.5508 115.121 88.4678 114.869 88.3018 114.723C88.0771 114.524 87.7435 114.425 87.3008 114.425C86.8874 114.425 86.5814 114.498 86.3828 114.645C86.1875 114.788 86.0426 115.043 85.9482 115.411L85.0889 115.294C85.167 114.926 85.2956 114.63 85.4746 114.405C85.6536 114.177 85.9124 114.003 86.251 113.883C86.5895 113.759 86.9818 113.697 87.4277 113.697C87.8704 113.697 88.2301 113.749 88.5068 113.854C88.7835 113.958 88.987 114.09 89.1172 114.249C89.2474 114.405 89.3385 114.604 89.3906 114.845C89.4199 114.994 89.4346 115.265 89.4346 115.655V116.827C89.4346 117.644 89.4525 118.162 89.4883 118.38C89.5273 118.595 89.6022 118.801 89.7129 119H88.7949C88.7038 118.818 88.6452 118.604 88.6191 118.36ZM88.5459 116.397C88.2269 116.528 87.7484 116.638 87.1104 116.729C86.749 116.782 86.4935 116.84 86.3438 116.905C86.194 116.97 86.0785 117.066 85.9971 117.193C85.9157 117.317 85.875 117.455 85.875 117.608C85.875 117.843 85.9629 118.038 86.1387 118.194C86.3177 118.351 86.5781 118.429 86.9199 118.429C87.2585 118.429 87.5596 118.355 87.8232 118.209C88.0869 118.059 88.2806 117.856 88.4043 117.599C88.4987 117.4 88.5459 117.107 88.5459 116.72V116.397ZM94.2002 119V118.238C93.7965 118.824 93.248 119.117 92.5547 119.117C92.2487 119.117 91.9622 119.059 91.6953 118.941C91.4316 118.824 91.2347 118.678 91.1045 118.502C90.9775 118.323 90.888 118.105 90.8359 117.848C90.8001 117.675 90.7822 117.402 90.7822 117.027V113.814H91.6611V116.69C91.6611 117.149 91.679 117.459 91.7148 117.618C91.7702 117.849 91.8874 118.032 92.0664 118.165C92.2454 118.295 92.4668 118.36 92.7305 118.36C92.9941 118.36 93.2415 118.294 93.4727 118.16C93.7038 118.023 93.8665 117.84 93.9609 117.608C94.0586 117.374 94.1074 117.035 94.1074 116.593V113.814H94.9863V119H94.2002ZM96.3584 119V113.814H97.1494V114.601C97.3512 114.233 97.5368 113.99 97.7061 113.873C97.8786 113.756 98.0674 113.697 98.2725 113.697C98.5687 113.697 98.8698 113.792 99.1758 113.98L98.873 114.796C98.6582 114.669 98.4434 114.605 98.2285 114.605C98.0365 114.605 97.8639 114.664 97.7109 114.781C97.5579 114.895 97.4489 115.055 97.3838 115.26C97.2861 115.572 97.2373 115.914 97.2373 116.285V119H96.3584ZM103.082 118.36C102.757 118.637 102.442 118.832 102.14 118.946C101.84 119.06 101.518 119.117 101.173 119.117C100.603 119.117 100.165 118.979 99.8594 118.702C99.5534 118.422 99.4004 118.066 99.4004 117.633C99.4004 117.379 99.4574 117.148 99.5713 116.939C99.6885 116.728 99.8398 116.559 100.025 116.432C100.214 116.305 100.426 116.209 100.66 116.144C100.833 116.098 101.093 116.054 101.441 116.012C102.151 115.927 102.674 115.826 103.009 115.709C103.012 115.589 103.014 115.512 103.014 115.479C103.014 115.121 102.931 114.869 102.765 114.723C102.54 114.524 102.206 114.425 101.764 114.425C101.35 114.425 101.044 114.498 100.846 114.645C100.65 114.788 100.506 115.043 100.411 115.411L99.5518 115.294C99.6299 114.926 99.7585 114.63 99.9375 114.405C100.117 114.177 100.375 114.003 100.714 113.883C101.052 113.759 101.445 113.697 101.891 113.697C102.333 113.697 102.693 113.749 102.97 113.854C103.246 113.958 103.45 114.09 103.58 114.249C103.71 114.405 103.801 114.604 103.854 114.845C103.883 114.994 103.897 115.265 103.897 115.655V116.827C103.897 117.644 103.915 118.162 103.951 118.38C103.99 118.595 104.065 118.801 104.176 119H103.258C103.167 118.818 103.108 118.604 103.082 118.36ZM103.009 116.397C102.69 116.528 102.211 116.638 101.573 116.729C101.212 116.782 100.956 116.84 100.807 116.905C100.657 116.97 100.541 117.066 100.46 117.193C100.379 117.317 100.338 117.455 100.338 117.608C100.338 117.843 100.426 118.038 100.602 118.194C100.781 118.351 101.041 118.429 101.383 118.429C101.721 118.429 102.022 118.355 102.286 118.209C102.55 118.059 102.743 117.856 102.867 117.599C102.962 117.4 103.009 117.107 103.009 116.72V116.397ZM105.265 119V113.814H106.056V114.552C106.437 113.982 106.987 113.697 107.706 113.697C108.019 113.697 108.305 113.754 108.565 113.868C108.829 113.979 109.026 114.125 109.156 114.308C109.286 114.49 109.378 114.706 109.43 114.957C109.462 115.12 109.479 115.405 109.479 115.812V119H108.6V115.846C108.6 115.488 108.565 115.221 108.497 115.045C108.429 114.866 108.307 114.724 108.131 114.62C107.958 114.513 107.755 114.459 107.521 114.459C107.146 114.459 106.822 114.578 106.549 114.815C106.279 115.053 106.144 115.504 106.144 116.168V119H105.265ZM112.75 118.214L112.877 118.99C112.63 119.042 112.408 119.068 112.213 119.068C111.894 119.068 111.646 119.018 111.471 118.917C111.295 118.816 111.171 118.684 111.1 118.521C111.028 118.355 110.992 118.009 110.992 117.481V114.498H110.348V113.814H110.992V112.53L111.866 112.003V113.814H112.75V114.498H111.866V117.53C111.866 117.781 111.881 117.942 111.91 118.014C111.943 118.085 111.993 118.142 112.062 118.185C112.133 118.227 112.234 118.248 112.364 118.248C112.462 118.248 112.59 118.237 112.75 118.214ZM113.263 117.452L114.132 117.315C114.181 117.664 114.316 117.931 114.537 118.116C114.762 118.302 115.074 118.395 115.475 118.395C115.878 118.395 116.178 118.313 116.373 118.15C116.568 117.984 116.666 117.791 116.666 117.569C116.666 117.371 116.58 117.215 116.407 117.101C116.287 117.022 115.987 116.923 115.509 116.803C114.864 116.64 114.417 116.5 114.166 116.383C113.919 116.262 113.73 116.098 113.6 115.89C113.473 115.678 113.409 115.445 113.409 115.191C113.409 114.96 113.461 114.747 113.565 114.552C113.673 114.353 113.818 114.189 114 114.059C114.137 113.958 114.322 113.873 114.557 113.805C114.794 113.733 115.048 113.697 115.318 113.697C115.725 113.697 116.082 113.756 116.388 113.873C116.697 113.99 116.925 114.15 117.071 114.352C117.218 114.55 117.319 114.817 117.374 115.152L116.515 115.27C116.476 115.003 116.362 114.794 116.173 114.645C115.987 114.495 115.724 114.42 115.382 114.42C114.978 114.42 114.69 114.487 114.518 114.62C114.345 114.754 114.259 114.91 114.259 115.089C114.259 115.203 114.295 115.305 114.366 115.396C114.438 115.491 114.55 115.569 114.703 115.631C114.791 115.663 115.05 115.738 115.479 115.855C116.101 116.021 116.534 116.158 116.778 116.266C117.026 116.37 117.219 116.523 117.359 116.725C117.499 116.926 117.569 117.177 117.569 117.477C117.569 117.77 117.483 118.046 117.311 118.307C117.141 118.564 116.896 118.764 116.573 118.907C116.251 119.047 115.886 119.117 115.479 119.117C114.806 119.117 114.291 118.977 113.937 118.697C113.585 118.417 113.36 118.002 113.263 117.452Z" fill="#393939"/>
<path d="M66.8174 149L64.0439 141.842H65.0693L66.9297 147.042C67.0794 147.459 67.2048 147.849 67.3057 148.214C67.4163 147.823 67.5449 147.433 67.6914 147.042L69.625 141.842H70.5918L67.7891 149H66.8174ZM74.3223 147.33L75.2305 147.442C75.0872 147.973 74.8219 148.385 74.4346 148.678C74.0472 148.971 73.5524 149.117 72.9502 149.117C72.1917 149.117 71.5895 148.884 71.1436 148.419C70.7008 147.95 70.4795 147.294 70.4795 146.451C70.4795 145.579 70.7041 144.902 71.1533 144.42C71.6025 143.938 72.1852 143.697 72.9014 143.697C73.5947 143.697 74.1611 143.933 74.6006 144.405C75.04 144.877 75.2598 145.541 75.2598 146.397C75.2598 146.45 75.2581 146.528 75.2549 146.632H71.3877C71.4202 147.201 71.5814 147.638 71.8711 147.94C72.1608 148.243 72.5221 148.395 72.9551 148.395C73.2773 148.395 73.5524 148.31 73.7803 148.141C74.0081 147.971 74.1888 147.701 74.3223 147.33ZM71.4365 145.909H74.332C74.293 145.473 74.1823 145.146 74 144.928C73.7201 144.589 73.3571 144.42 72.9111 144.42C72.5075 144.42 72.1673 144.555 71.8906 144.825C71.6172 145.095 71.4658 145.457 71.4365 145.909ZM76.1777 149.43L77.0322 149.557C77.068 149.82 77.1673 150.012 77.3301 150.133C77.5482 150.296 77.846 150.377 78.2236 150.377C78.6305 150.377 78.9447 150.296 79.166 150.133C79.3874 149.97 79.5371 149.742 79.6152 149.449C79.6608 149.27 79.682 148.894 79.6787 148.321C79.2946 148.774 78.8161 149 78.2432 149C77.5303 149 76.9785 148.743 76.5879 148.229C76.1973 147.714 76.002 147.097 76.002 146.378C76.002 145.883 76.0915 145.427 76.2705 145.011C76.4495 144.591 76.7083 144.267 77.0469 144.039C77.3887 143.811 77.7891 143.697 78.248 143.697C78.86 143.697 79.3646 143.945 79.7617 144.439V143.814H80.5723V148.297C80.5723 149.104 80.4893 149.675 80.3232 150.011C80.1605 150.349 79.9001 150.616 79.542 150.812C79.1872 151.007 78.7493 151.104 78.2285 151.104C77.61 151.104 77.1104 150.965 76.7295 150.685C76.3486 150.408 76.1647 149.99 76.1777 149.43ZM76.9053 146.314C76.9053 146.995 77.0404 147.491 77.3105 147.804C77.5807 148.116 77.9193 148.272 78.3262 148.272C78.7298 148.272 79.0684 148.118 79.3418 147.809C79.6152 147.496 79.752 147.008 79.752 146.344C79.752 145.709 79.6104 145.23 79.3271 144.908C79.0472 144.586 78.7087 144.425 78.3115 144.425C77.9209 144.425 77.5889 144.584 77.3154 144.903C77.042 145.219 76.9053 145.689 76.9053 146.314ZM85.2891 148.36C84.9635 148.637 84.6494 148.832 84.3467 148.946C84.0472 149.06 83.7249 149.117 83.3799 149.117C82.8102 149.117 82.3724 148.979 82.0664 148.702C81.7604 148.422 81.6074 148.066 81.6074 147.633C81.6074 147.379 81.6644 147.148 81.7783 146.939C81.8955 146.728 82.0469 146.559 82.2324 146.432C82.4212 146.305 82.6328 146.209 82.8672 146.144C83.0397 146.098 83.3001 146.054 83.6484 146.012C84.3581 145.927 84.8805 145.826 85.2158 145.709C85.2191 145.589 85.2207 145.512 85.2207 145.479C85.2207 145.121 85.1377 144.869 84.9717 144.723C84.7471 144.524 84.4134 144.425 83.9707 144.425C83.5573 144.425 83.2513 144.498 83.0527 144.645C82.8574 144.788 82.7126 145.043 82.6182 145.411L81.7588 145.294C81.8369 144.926 81.9655 144.63 82.1445 144.405C82.3236 144.177 82.5824 144.003 82.9209 143.883C83.2594 143.759 83.6517 143.697 84.0977 143.697C84.5404 143.697 84.9001 143.749 85.1768 143.854C85.4535 143.958 85.6569 144.09 85.7871 144.249C85.9173 144.405 86.0085 144.604 86.0605 144.845C86.0898 144.994 86.1045 145.265 86.1045 145.655V146.827C86.1045 147.644 86.1224 148.162 86.1582 148.38C86.1973 148.595 86.2721 148.801 86.3828 149H85.4648C85.3737 148.818 85.3151 148.604 85.2891 148.36ZM85.2158 146.397C84.8968 146.528 84.4183 146.638 83.7803 146.729C83.4189 146.782 83.1634 146.84 83.0137 146.905C82.8639 146.97 82.7484 147.066 82.667 147.193C82.5856 147.317 82.5449 147.455 82.5449 147.608C82.5449 147.843 82.6328 148.038 82.8086 148.194C82.9876 148.351 83.248 148.429 83.5898 148.429C83.9284 148.429 84.2295 148.355 84.4932 148.209C84.7568 148.059 84.9505 147.856 85.0742 147.599C85.1686 147.4 85.2158 147.107 85.2158 146.72V146.397ZM87.4717 149V143.814H88.2627V144.552C88.6436 143.982 89.1937 143.697 89.9131 143.697C90.2256 143.697 90.512 143.754 90.7725 143.868C91.0361 143.979 91.2331 144.125 91.3633 144.308C91.4935 144.49 91.5846 144.706 91.6367 144.957C91.6693 145.12 91.6855 145.405 91.6855 145.812V149H90.8066V145.846C90.8066 145.488 90.7725 145.221 90.7041 145.045C90.6357 144.866 90.5137 144.724 90.3379 144.62C90.1654 144.513 89.9619 144.459 89.7275 144.459C89.3532 144.459 89.0293 144.578 88.7559 144.815C88.4857 145.053 88.3506 145.504 88.3506 146.168V149H87.4717ZM95.9824 149V141.842H100.812V142.687H96.9297V144.903H100.289V145.748H96.9297V149H95.9824ZM101.607 146.407C101.607 145.447 101.874 144.736 102.408 144.273C102.854 143.889 103.398 143.697 104.039 143.697C104.752 143.697 105.335 143.932 105.787 144.4C106.24 144.866 106.466 145.51 106.466 146.334C106.466 147.001 106.365 147.527 106.163 147.911C105.965 148.292 105.673 148.588 105.289 148.8C104.908 149.011 104.492 149.117 104.039 149.117C103.313 149.117 102.726 148.884 102.276 148.419C101.83 147.953 101.607 147.283 101.607 146.407ZM102.511 146.407C102.511 147.071 102.656 147.569 102.945 147.901C103.235 148.23 103.6 148.395 104.039 148.395C104.475 148.395 104.838 148.229 105.128 147.896C105.418 147.564 105.562 147.058 105.562 146.378C105.562 145.737 105.416 145.252 105.123 144.923C104.833 144.591 104.472 144.425 104.039 144.425C103.6 144.425 103.235 144.589 102.945 144.918C102.656 145.247 102.511 145.743 102.511 146.407ZM107.174 146.407C107.174 145.447 107.441 144.736 107.975 144.273C108.421 143.889 108.964 143.697 109.605 143.697C110.318 143.697 110.901 143.932 111.354 144.4C111.806 144.866 112.032 145.51 112.032 146.334C112.032 147.001 111.931 147.527 111.729 147.911C111.531 148.292 111.24 148.588 110.855 148.8C110.475 149.011 110.058 149.117 109.605 149.117C108.88 149.117 108.292 148.884 107.843 148.419C107.397 147.953 107.174 147.283 107.174 146.407ZM108.077 146.407C108.077 147.071 108.222 147.569 108.512 147.901C108.801 148.23 109.166 148.395 109.605 148.395C110.042 148.395 110.405 148.229 110.694 147.896C110.984 147.564 111.129 147.058 111.129 146.378C111.129 145.737 110.982 145.252 110.689 144.923C110.4 144.591 110.038 144.425 109.605 144.425C109.166 144.425 108.801 144.589 108.512 144.918C108.222 145.247 108.077 145.743 108.077 146.407ZM116.432 149V148.346C116.103 148.86 115.619 149.117 114.981 149.117C114.568 149.117 114.187 149.003 113.839 148.775C113.494 148.548 113.225 148.23 113.033 147.823C112.844 147.413 112.75 146.943 112.75 146.412C112.75 145.895 112.836 145.426 113.009 145.006C113.181 144.583 113.44 144.259 113.785 144.034C114.13 143.81 114.516 143.697 114.942 143.697C115.255 143.697 115.533 143.764 115.777 143.897C116.021 144.028 116.22 144.199 116.373 144.41V141.842H117.247V149H116.432ZM113.653 146.412C113.653 147.076 113.793 147.573 114.073 147.901C114.353 148.23 114.684 148.395 115.064 148.395C115.449 148.395 115.774 148.238 116.041 147.926C116.311 147.61 116.446 147.13 116.446 146.485C116.446 145.776 116.31 145.255 116.036 144.923C115.763 144.591 115.426 144.425 115.025 144.425C114.635 144.425 114.308 144.584 114.044 144.903C113.784 145.222 113.653 145.725 113.653 146.412Z" fill="#393939"/>
<path d="M69.8789 176.49L70.8262 176.729C70.6276 177.507 70.2695 178.102 69.752 178.512C69.2376 178.919 68.6077 179.122 67.8623 179.122C67.0908 179.122 66.4626 178.966 65.9775 178.653C65.4958 178.338 65.1279 177.882 64.874 177.286C64.6234 176.69 64.498 176.051 64.498 175.367C64.498 174.622 64.6396 173.972 64.9229 173.419C65.2093 172.862 65.6146 172.441 66.1387 172.154C66.666 171.865 67.2454 171.72 67.877 171.72C68.5931 171.72 69.1953 171.902 69.6836 172.267C70.1719 172.631 70.512 173.144 70.7041 173.805L69.7715 174.024C69.6055 173.504 69.3646 173.124 69.0488 172.887C68.7331 172.649 68.3359 172.53 67.8574 172.53C67.3073 172.53 66.8467 172.662 66.4756 172.926C66.1077 173.189 65.849 173.544 65.6992 173.99C65.5495 174.433 65.4746 174.89 65.4746 175.362C65.4746 175.971 65.5625 176.503 65.7383 176.959C65.9173 177.411 66.194 177.75 66.5684 177.975C66.9427 178.199 67.348 178.312 67.7842 178.312C68.3148 178.312 68.764 178.159 69.1318 177.853C69.4997 177.547 69.7487 177.092 69.8789 176.49ZM71.5586 176.407C71.5586 175.447 71.8255 174.736 72.3594 174.273C72.8053 173.889 73.349 173.697 73.9902 173.697C74.7031 173.697 75.2858 173.932 75.7383 174.4C76.1908 174.866 76.417 175.51 76.417 176.334C76.417 177.001 76.3161 177.527 76.1143 177.911C75.9157 178.292 75.6243 178.588 75.2402 178.8C74.8594 179.011 74.4427 179.117 73.9902 179.117C73.2643 179.117 72.6768 178.884 72.2275 178.419C71.7816 177.953 71.5586 177.283 71.5586 176.407ZM72.4619 176.407C72.4619 177.071 72.6068 177.569 72.8965 177.901C73.1862 178.23 73.5508 178.395 73.9902 178.395C74.4264 178.395 74.7894 178.229 75.0791 177.896C75.3688 177.564 75.5137 177.058 75.5137 176.378C75.5137 175.737 75.3672 175.252 75.0742 174.923C74.7845 174.591 74.4232 174.425 73.9902 174.425C73.5508 174.425 73.1862 174.589 72.8965 174.918C72.6068 175.247 72.4619 175.743 72.4619 176.407ZM77.6621 179V174.498H76.8857V173.814H77.6621V173.263C77.6621 172.914 77.693 172.656 77.7549 172.486C77.8395 172.258 77.9876 172.075 78.1992 171.935C78.4141 171.791 78.7135 171.72 79.0977 171.72C79.3451 171.72 79.6185 171.749 79.918 171.808L79.7861 172.574C79.6038 172.542 79.4313 172.525 79.2686 172.525C79.0016 172.525 78.8128 172.582 78.7021 172.696C78.5915 172.81 78.5361 173.023 78.5361 173.336V173.814H79.5469V174.498H78.5361V179H77.6621ZM80.2598 179V174.498H79.4834V173.814H80.2598V173.263C80.2598 172.914 80.2907 172.656 80.3525 172.486C80.4372 172.258 80.5853 172.075 80.7969 171.935C81.0117 171.791 81.3112 171.72 81.6953 171.72C81.9427 171.72 82.2161 171.749 82.5156 171.808L82.3838 172.574C82.2015 172.542 82.029 172.525 81.8662 172.525C81.5993 172.525 81.4105 172.582 81.2998 172.696C81.1891 172.81 81.1338 173.023 81.1338 173.336V173.814H82.1445V174.498H81.1338V179H80.2598ZM86.3828 177.33L87.291 177.442C87.1478 177.973 86.8825 178.385 86.4951 178.678C86.1077 178.971 85.613 179.117 85.0107 179.117C84.2523 179.117 83.6501 178.884 83.2041 178.419C82.7614 177.95 82.54 177.294 82.54 176.451C82.54 175.579 82.7646 174.902 83.2139 174.42C83.6631 173.938 84.2458 173.697 84.9619 173.697C85.6553 173.697 86.2217 173.933 86.6611 174.405C87.1006 174.877 87.3203 175.541 87.3203 176.397C87.3203 176.45 87.3187 176.528 87.3154 176.632H83.4482C83.4808 177.201 83.6419 177.638 83.9316 177.94C84.2214 178.243 84.5827 178.395 85.0156 178.395C85.3379 178.395 85.613 178.31 85.8408 178.141C86.0687 177.971 86.2493 177.701 86.3828 177.33ZM83.4971 175.909H86.3926C86.3535 175.473 86.2428 175.146 86.0605 174.928C85.7806 174.589 85.4176 174.42 84.9717 174.42C84.568 174.42 84.2279 174.555 83.9512 174.825C83.6777 175.095 83.5264 175.457 83.4971 175.909ZM91.9492 177.33L92.8574 177.442C92.7142 177.973 92.4489 178.385 92.0615 178.678C91.6742 178.971 91.1794 179.117 90.5771 179.117C89.8187 179.117 89.2165 178.884 88.7705 178.419C88.3278 177.95 88.1064 177.294 88.1064 176.451C88.1064 175.579 88.3311 174.902 88.7803 174.42C89.2295 173.938 89.8122 173.697 90.5283 173.697C91.2217 173.697 91.7881 173.933 92.2275 174.405C92.667 174.877 92.8867 175.541 92.8867 176.397C92.8867 176.45 92.8851 176.528 92.8818 176.632H89.0146C89.0472 177.201 89.2083 177.638 89.498 177.94C89.7878 178.243 90.1491 178.395 90.582 178.395C90.9043 178.395 91.1794 178.31 91.4072 178.141C91.6351 177.971 91.8158 177.701 91.9492 177.33ZM89.0635 175.909H91.959C91.9199 175.473 91.8092 175.146 91.627 174.928C91.347 174.589 90.984 174.42 90.5381 174.42C90.1344 174.42 89.7943 174.555 89.5176 174.825C89.2441 175.095 89.0928 175.457 89.0635 175.909ZM100.841 178.155C100.551 178.478 100.235 178.72 99.8936 178.883C99.5518 179.042 99.1823 179.122 98.7852 179.122C98.0527 179.122 97.4717 178.875 97.042 178.38C96.6937 177.976 96.5195 177.525 96.5195 177.027C96.5195 176.585 96.6611 176.186 96.9443 175.831C97.2308 175.473 97.6572 175.159 98.2236 174.889C97.9014 174.518 97.6865 174.216 97.5791 173.985C97.4717 173.754 97.418 173.531 97.418 173.316C97.418 172.887 97.5856 172.514 97.9209 172.198C98.2594 171.879 98.6842 171.72 99.1953 171.72C99.6836 171.72 100.082 171.869 100.392 172.169C100.704 172.468 100.86 172.828 100.86 173.248C100.86 173.928 100.41 174.509 99.5078 174.991L100.792 176.627C100.938 176.34 101.052 176.008 101.134 175.631L102.047 175.826C101.891 176.451 101.679 176.965 101.412 177.369C101.741 177.805 102.114 178.172 102.53 178.468L101.939 179.166C101.585 178.938 101.218 178.601 100.841 178.155ZM99.0537 174.425C99.4346 174.2 99.6803 174.003 99.791 173.834C99.9049 173.665 99.9619 173.478 99.9619 173.272C99.9619 173.028 99.8838 172.83 99.7275 172.677C99.5745 172.521 99.3825 172.442 99.1514 172.442C98.9137 172.442 98.7152 172.519 98.5557 172.672C98.3994 172.825 98.3213 173.012 98.3213 173.233C98.3213 173.344 98.349 173.461 98.4043 173.585C98.4629 173.705 98.5492 173.834 98.6631 173.971L99.0537 174.425ZM100.289 177.462L98.6777 175.465C98.2025 175.748 97.8818 176.012 97.7158 176.256C97.5498 176.497 97.4668 176.736 97.4668 176.974C97.4668 177.263 97.5824 177.564 97.8135 177.877C98.0446 178.189 98.3717 178.346 98.7949 178.346C99.0586 178.346 99.3304 178.264 99.6104 178.102C99.8936 177.936 100.12 177.722 100.289 177.462ZM107.95 179V172.687H105.592V171.842H111.266V172.687H108.897V179H107.95ZM114.566 177.33L115.475 177.442C115.331 177.973 115.066 178.385 114.679 178.678C114.291 178.971 113.797 179.117 113.194 179.117C112.436 179.117 111.834 178.884 111.388 178.419C110.945 177.95 110.724 177.294 110.724 176.451C110.724 175.579 110.948 174.902 111.397 174.42C111.847 173.938 112.429 173.697 113.146 173.697C113.839 173.697 114.405 173.933 114.845 174.405C115.284 174.877 115.504 175.541 115.504 176.397C115.504 176.45 115.502 176.528 115.499 176.632H111.632C111.664 177.201 111.826 177.638 112.115 177.94C112.405 178.243 112.766 178.395 113.199 178.395C113.521 178.395 113.797 178.31 114.024 178.141C114.252 177.971 114.433 177.701 114.566 177.33ZM111.681 175.909H114.576C114.537 175.473 114.426 175.146 114.244 174.928C113.964 174.589 113.601 174.42 113.155 174.42C112.752 174.42 112.411 174.555 112.135 174.825C111.861 175.095 111.71 175.457 111.681 175.909ZM119.967 178.36C119.641 178.637 119.327 178.832 119.024 178.946C118.725 179.06 118.403 179.117 118.058 179.117C117.488 179.117 117.05 178.979 116.744 178.702C116.438 178.422 116.285 178.066 116.285 177.633C116.285 177.379 116.342 177.148 116.456 176.939C116.573 176.728 116.725 176.559 116.91 176.432C117.099 176.305 117.311 176.209 117.545 176.144C117.717 176.098 117.978 176.054 118.326 176.012C119.036 175.927 119.558 175.826 119.894 175.709C119.897 175.589 119.898 175.512 119.898 175.479C119.898 175.121 119.815 174.869 119.649 174.723C119.425 174.524 119.091 174.425 118.648 174.425C118.235 174.425 117.929 174.498 117.73 174.645C117.535 174.788 117.39 175.043 117.296 175.411L116.437 175.294C116.515 174.926 116.643 174.63 116.822 174.405C117.001 174.177 117.26 174.003 117.599 173.883C117.937 173.759 118.329 173.697 118.775 173.697C119.218 173.697 119.578 173.749 119.854 173.854C120.131 173.958 120.335 174.09 120.465 174.249C120.595 174.405 120.686 174.604 120.738 174.845C120.768 174.994 120.782 175.265 120.782 175.655V176.827C120.782 177.644 120.8 178.162 120.836 178.38C120.875 178.595 120.95 178.801 121.061 179H120.143C120.051 178.818 119.993 178.604 119.967 178.36ZM119.894 176.397C119.575 176.528 119.096 176.638 118.458 176.729C118.097 176.782 117.841 176.84 117.691 176.905C117.542 176.97 117.426 177.066 117.345 177.193C117.263 177.317 117.223 177.455 117.223 177.608C117.223 177.843 117.311 178.038 117.486 178.194C117.665 178.351 117.926 178.429 118.268 178.429C118.606 178.429 118.907 178.355 119.171 178.209C119.435 178.059 119.628 177.856 119.752 177.599C119.846 177.4 119.894 177.107 119.894 176.72V176.397Z" fill="#393939"/>
<path d="M64.7324 209V201.842H67.418C67.9648 201.842 68.4027 201.915 68.7314 202.062C69.0635 202.205 69.3223 202.428 69.5078 202.73C69.6966 203.03 69.791 203.344 69.791 203.673C69.791 203.979 69.708 204.267 69.542 204.537C69.376 204.807 69.1253 205.025 68.79 205.191C69.223 205.318 69.555 205.535 69.7861 205.841C70.0205 206.147 70.1377 206.508 70.1377 206.925C70.1377 207.26 70.0661 207.573 69.9229 207.862C69.7829 208.149 69.6087 208.37 69.4004 208.526C69.1921 208.683 68.93 208.801 68.6143 208.883C68.3018 208.961 67.9176 209 67.4619 209H64.7324ZM65.6797 204.85H67.2275C67.6475 204.85 67.9486 204.822 68.1309 204.767C68.3717 204.695 68.5524 204.576 68.6729 204.41C68.7965 204.244 68.8584 204.036 68.8584 203.785C68.8584 203.548 68.8014 203.339 68.6875 203.16C68.5736 202.978 68.4108 202.854 68.1992 202.789C67.9876 202.721 67.6247 202.687 67.1104 202.687H65.6797V204.85ZM65.6797 208.155H67.4619C67.7679 208.155 67.9827 208.144 68.1064 208.121C68.3245 208.082 68.5068 208.017 68.6533 207.926C68.7998 207.835 68.9202 207.703 69.0146 207.53C69.109 207.354 69.1562 207.153 69.1562 206.925C69.1562 206.658 69.0879 206.427 68.9512 206.231C68.8145 206.033 68.624 205.895 68.3799 205.816C68.139 205.735 67.7907 205.694 67.335 205.694H65.6797V208.155ZM74.7129 208.36C74.3874 208.637 74.0732 208.832 73.7705 208.946C73.471 209.06 73.1488 209.117 72.8037 209.117C72.234 209.117 71.7962 208.979 71.4902 208.702C71.1842 208.422 71.0312 208.066 71.0312 207.633C71.0312 207.379 71.0882 207.148 71.2021 206.939C71.3193 206.728 71.4707 206.559 71.6562 206.432C71.8451 206.305 72.0566 206.209 72.291 206.144C72.4635 206.098 72.724 206.054 73.0723 206.012C73.7819 205.927 74.3044 205.826 74.6396 205.709C74.6429 205.589 74.6445 205.512 74.6445 205.479C74.6445 205.121 74.5615 204.869 74.3955 204.723C74.1709 204.524 73.8372 204.425 73.3945 204.425C72.9811 204.425 72.6751 204.498 72.4766 204.645C72.2812 204.788 72.1364 205.043 72.042 205.411L71.1826 205.294C71.2607 204.926 71.3893 204.63 71.5684 204.405C71.7474 204.177 72.0062 204.003 72.3447 203.883C72.6833 203.759 73.0755 203.697 73.5215 203.697C73.9642 203.697 74.3239 203.749 74.6006 203.854C74.8773 203.958 75.0807 204.09 75.2109 204.249C75.3411 204.405 75.4323 204.604 75.4844 204.845C75.5137 204.994 75.5283 205.265 75.5283 205.655V206.827C75.5283 207.644 75.5462 208.162 75.582 208.38C75.6211 208.595 75.696 208.801 75.8066 209H74.8887C74.7975 208.818 74.7389 208.604 74.7129 208.36ZM74.6396 206.397C74.3206 206.528 73.8421 206.638 73.2041 206.729C72.8428 206.782 72.5872 206.84 72.4375 206.905C72.2878 206.97 72.1722 207.066 72.0908 207.193C72.0094 207.317 71.9688 207.455 71.9688 207.608C71.9688 207.843 72.0566 208.038 72.2324 208.194C72.4115 208.351 72.6719 208.429 73.0137 208.429C73.3522 208.429 73.6533 208.355 73.917 208.209C74.1807 208.059 74.3743 207.856 74.498 207.599C74.5924 207.4 74.6396 207.107 74.6396 206.72V206.397ZM76.9004 209V201.842H77.7793V205.924L79.8594 203.814H80.9971L79.0146 205.738L81.1973 209H80.1133L78.3994 206.349L77.7793 206.944V209H76.9004ZM81.9004 202.853V201.842H82.7793V202.853H81.9004ZM81.9004 209V203.814H82.7793V209H81.9004ZM84.1221 209V203.814H84.9131V204.552C85.2939 203.982 85.8441 203.697 86.5635 203.697C86.876 203.697 87.1624 203.754 87.4229 203.868C87.6865 203.979 87.8835 204.125 88.0137 204.308C88.1439 204.49 88.235 204.706 88.2871 204.957C88.3197 205.12 88.3359 205.405 88.3359 205.812V209H87.457V205.846C87.457 205.488 87.4229 205.221 87.3545 205.045C87.2861 204.866 87.1641 204.724 86.9883 204.62C86.8158 204.513 86.6123 204.459 86.3779 204.459C86.0036 204.459 85.6797 204.578 85.4062 204.815C85.1361 205.053 85.001 205.504 85.001 206.168V209H84.1221ZM89.5273 209.43L90.3818 209.557C90.4176 209.82 90.5169 210.012 90.6797 210.133C90.8978 210.296 91.1956 210.377 91.5732 210.377C91.9801 210.377 92.2943 210.296 92.5156 210.133C92.737 209.97 92.8867 209.742 92.9648 209.449C93.0104 209.27 93.0316 208.894 93.0283 208.321C92.6442 208.774 92.1657 209 91.5928 209C90.8799 209 90.3281 208.743 89.9375 208.229C89.5469 207.714 89.3516 207.097 89.3516 206.378C89.3516 205.883 89.4411 205.427 89.6201 205.011C89.7992 204.591 90.0579 204.267 90.3965 204.039C90.7383 203.811 91.1387 203.697 91.5977 203.697C92.2096 203.697 92.7142 203.945 93.1113 204.439V203.814H93.9219V208.297C93.9219 209.104 93.8389 209.675 93.6729 210.011C93.5101 210.349 93.2497 210.616 92.8916 210.812C92.5368 211.007 92.099 211.104 91.5781 211.104C90.9596 211.104 90.46 210.965 90.0791 210.685C89.6982 210.408 89.5143 209.99 89.5273 209.43ZM90.2549 206.314C90.2549 206.995 90.39 207.491 90.6602 207.804C90.9303 208.116 91.2689 208.272 91.6758 208.272C92.0794 208.272 92.418 208.118 92.6914 207.809C92.9648 207.496 93.1016 207.008 93.1016 206.344C93.1016 205.709 92.96 205.23 92.6768 204.908C92.3968 204.586 92.0583 204.425 91.6611 204.425C91.2705 204.425 90.9385 204.584 90.665 204.903C90.3916 205.219 90.2549 205.689 90.2549 206.314Z" fill="#393939"/>
<path d="M64.7324 238V230.842H67.418C67.9648 230.842 68.4027 230.915 68.7314 231.062C69.0635 231.205 69.3223 231.428 69.5078 231.73C69.6966 232.03 69.791 232.344 69.791 232.673C69.791 232.979 69.708 233.267 69.542 233.537C69.376 233.807 69.1253 234.025 68.79 234.191C69.223 234.318 69.555 234.535 69.7861 234.841C70.0205 235.147 70.1377 235.508 70.1377 235.925C70.1377 236.26 70.0661 236.573 69.9229 236.862C69.7829 237.149 69.6087 237.37 69.4004 237.526C69.1921 237.683 68.93 237.801 68.6143 237.883C68.3018 237.961 67.9176 238 67.4619 238H64.7324ZM65.6797 233.85H67.2275C67.6475 233.85 67.9486 233.822 68.1309 233.767C68.3717 233.695 68.5524 233.576 68.6729 233.41C68.7965 233.244 68.8584 233.036 68.8584 232.785C68.8584 232.548 68.8014 232.339 68.6875 232.16C68.5736 231.978 68.4108 231.854 68.1992 231.789C67.9876 231.721 67.6247 231.687 67.1104 231.687H65.6797V233.85ZM65.6797 237.155H67.4619C67.7679 237.155 67.9827 237.144 68.1064 237.121C68.3245 237.082 68.5068 237.017 68.6533 236.926C68.7998 236.835 68.9202 236.703 69.0146 236.53C69.109 236.354 69.1562 236.153 69.1562 235.925C69.1562 235.658 69.0879 235.427 68.9512 235.231C68.8145 235.033 68.624 234.895 68.3799 234.816C68.139 234.735 67.7907 234.694 67.335 234.694H65.6797V237.155ZM74.8789 236.33L75.7871 236.442C75.6439 236.973 75.3786 237.385 74.9912 237.678C74.6038 237.971 74.109 238.117 73.5068 238.117C72.7484 238.117 72.1462 237.884 71.7002 237.419C71.2575 236.95 71.0361 236.294 71.0361 235.451C71.0361 234.579 71.2607 233.902 71.71 233.42C72.1592 232.938 72.7419 232.697 73.458 232.697C74.1514 232.697 74.7178 232.933 75.1572 233.405C75.5967 233.877 75.8164 234.541 75.8164 235.397C75.8164 235.45 75.8148 235.528 75.8115 235.632H71.9443C71.9769 236.201 72.138 236.638 72.4277 236.94C72.7174 237.243 73.0788 237.395 73.5117 237.395C73.834 237.395 74.109 237.31 74.3369 237.141C74.5648 236.971 74.7454 236.701 74.8789 236.33ZM71.9932 234.909H74.8887C74.8496 234.473 74.7389 234.146 74.5566 233.928C74.2767 233.589 73.9137 233.42 73.4678 233.42C73.0641 233.42 72.724 233.555 72.4473 233.825C72.1738 234.095 72.0225 234.457 71.9932 234.909ZM78.3359 238L76.3633 232.814H77.291L78.4043 235.92C78.5247 236.255 78.6354 236.604 78.7363 236.965C78.8145 236.691 78.9235 236.363 79.0635 235.979L80.2158 232.814H81.1191L79.1562 238H78.3359ZM85.4453 236.33L86.3535 236.442C86.2103 236.973 85.945 237.385 85.5576 237.678C85.1702 237.971 84.6755 238.117 84.0732 238.117C83.3148 238.117 82.7126 237.884 82.2666 237.419C81.8239 236.95 81.6025 236.294 81.6025 235.451C81.6025 234.579 81.8271 233.902 82.2764 233.42C82.7256 232.938 83.3083 232.697 84.0244 232.697C84.7178 232.697 85.2842 232.933 85.7236 233.405C86.1631 233.877 86.3828 234.541 86.3828 235.397C86.3828 235.45 86.3812 235.528 86.3779 235.632H82.5107C82.5433 236.201 82.7044 236.638 82.9941 236.94C83.2839 237.243 83.6452 237.395 84.0781 237.395C84.4004 237.395 84.6755 237.31 84.9033 237.141C85.1312 236.971 85.3118 236.701 85.4453 236.33ZM82.5596 234.909H85.4551C85.416 234.473 85.3053 234.146 85.123 233.928C84.8431 233.589 84.4801 233.42 84.0342 233.42C83.6305 233.42 83.2904 233.555 83.0137 233.825C82.7402 234.095 82.5889 234.457 82.5596 234.909ZM87.4521 238V232.814H88.2432V233.601C88.445 233.233 88.6305 232.99 88.7998 232.873C88.9723 232.756 89.1611 232.697 89.3662 232.697C89.6624 232.697 89.9635 232.792 90.2695 232.98L89.9668 233.796C89.752 233.669 89.5371 233.605 89.3223 233.605C89.1302 233.605 88.9577 233.664 88.8047 233.781C88.6517 233.895 88.5426 234.055 88.4775 234.26C88.3799 234.572 88.3311 234.914 88.3311 235.285V238H87.4521ZM94.1758 237.36C93.8503 237.637 93.5361 237.832 93.2334 237.946C92.9339 238.06 92.6117 238.117 92.2666 238.117C91.6969 238.117 91.2591 237.979 90.9531 237.702C90.6471 237.422 90.4941 237.066 90.4941 236.633C90.4941 236.379 90.5511 236.148 90.665 235.939C90.7822 235.728 90.9336 235.559 91.1191 235.432C91.3079 235.305 91.5195 235.209 91.7539 235.144C91.9264 235.098 92.1868 235.054 92.5352 235.012C93.2448 234.927 93.7673 234.826 94.1025 234.709C94.1058 234.589 94.1074 234.512 94.1074 234.479C94.1074 234.121 94.0244 233.869 93.8584 233.723C93.6338 233.524 93.3001 233.425 92.8574 233.425C92.444 233.425 92.138 233.498 91.9395 233.645C91.7441 233.788 91.5993 234.043 91.5049 234.411L90.6455 234.294C90.7236 233.926 90.8522 233.63 91.0312 233.405C91.2103 233.177 91.4691 233.003 91.8076 232.883C92.1462 232.759 92.5384 232.697 92.9844 232.697C93.4271 232.697 93.7868 232.749 94.0635 232.854C94.3402 232.958 94.5436 233.09 94.6738 233.249C94.804 233.405 94.8952 233.604 94.9473 233.845C94.9766 233.994 94.9912 234.265 94.9912 234.655V235.827C94.9912 236.644 95.0091 237.162 95.0449 237.38C95.084 237.595 95.1589 237.801 95.2695 238H94.3516C94.2604 237.818 94.2018 237.604 94.1758 237.36ZM94.1025 235.397C93.7835 235.528 93.305 235.638 92.667 235.729C92.3057 235.782 92.0501 235.84 91.9004 235.905C91.7507 235.97 91.6351 236.066 91.5537 236.193C91.4723 236.317 91.4316 236.455 91.4316 236.608C91.4316 236.843 91.5195 237.038 91.6953 237.194C91.8743 237.351 92.1348 237.429 92.4766 237.429C92.8151 237.429 93.1162 237.355 93.3799 237.209C93.6436 237.059 93.8372 236.856 93.9609 236.599C94.0553 236.4 94.1025 236.107 94.1025 235.72V235.397ZM96.1973 238.43L97.0518 238.557C97.0876 238.82 97.1868 239.012 97.3496 239.133C97.5677 239.296 97.8656 239.377 98.2432 239.377C98.6501 239.377 98.9642 239.296 99.1855 239.133C99.4069 238.97 99.5566 238.742 99.6348 238.449C99.6803 238.27 99.7015 237.894 99.6982 237.321C99.3141 237.774 98.8356 238 98.2627 238C97.5498 238 96.998 237.743 96.6074 237.229C96.2168 236.714 96.0215 236.097 96.0215 235.378C96.0215 234.883 96.111 234.427 96.29 234.011C96.4691 233.591 96.7279 233.267 97.0664 233.039C97.4082 232.811 97.8086 232.697 98.2676 232.697C98.8796 232.697 99.3841 232.945 99.7812 233.439V232.814H100.592V237.297C100.592 238.104 100.509 238.675 100.343 239.011C100.18 239.349 99.9196 239.616 99.5615 239.812C99.2067 240.007 98.7689 240.104 98.248 240.104C97.6296 240.104 97.1299 239.965 96.749 239.685C96.3682 239.408 96.1842 238.99 96.1973 238.43ZM96.9248 235.314C96.9248 235.995 97.0599 236.491 97.3301 236.804C97.6003 237.116 97.9388 237.272 98.3457 237.272C98.7493 237.272 99.0879 237.118 99.3613 236.809C99.6348 236.496 99.7715 236.008 99.7715 235.344C99.7715 234.709 99.6299 234.23 99.3467 233.908C99.0667 233.586 98.7282 233.425 98.3311 233.425C97.9404 233.425 97.6084 233.584 97.335 233.903C97.0615 234.219 96.9248 234.689 96.9248 235.314ZM105.475 236.33L106.383 236.442C106.24 236.973 105.974 237.385 105.587 237.678C105.2 237.971 104.705 238.117 104.103 238.117C103.344 238.117 102.742 237.884 102.296 237.419C101.853 236.95 101.632 236.294 101.632 235.451C101.632 234.579 101.856 233.902 102.306 233.42C102.755 232.938 103.338 232.697 104.054 232.697C104.747 232.697 105.313 232.933 105.753 233.405C106.192 233.877 106.412 234.541 106.412 235.397C106.412 235.45 106.41 235.528 106.407 235.632H102.54C102.573 236.201 102.734 236.638 103.023 236.94C103.313 237.243 103.674 237.395 104.107 237.395C104.43 237.395 104.705 237.31 104.933 237.141C105.16 236.971 105.341 236.701 105.475 236.33ZM102.589 234.909H105.484C105.445 234.473 105.335 234.146 105.152 233.928C104.872 233.589 104.509 233.42 104.063 233.42C103.66 233.42 103.32 233.555 103.043 233.825C102.77 234.095 102.618 234.457 102.589 234.909ZM107.14 236.452L108.009 236.315C108.058 236.664 108.193 236.931 108.414 237.116C108.639 237.302 108.951 237.395 109.352 237.395C109.755 237.395 110.055 237.313 110.25 237.15C110.445 236.984 110.543 236.791 110.543 236.569C110.543 236.371 110.457 236.215 110.284 236.101C110.164 236.022 109.864 235.923 109.386 235.803C108.741 235.64 108.294 235.5 108.043 235.383C107.796 235.262 107.607 235.098 107.477 234.89C107.35 234.678 107.286 234.445 107.286 234.191C107.286 233.96 107.338 233.747 107.442 233.552C107.55 233.353 107.695 233.189 107.877 233.059C108.014 232.958 108.199 232.873 108.434 232.805C108.671 232.733 108.925 232.697 109.195 232.697C109.602 232.697 109.959 232.756 110.265 232.873C110.574 232.99 110.802 233.15 110.948 233.352C111.095 233.55 111.196 233.817 111.251 234.152L110.392 234.27C110.353 234.003 110.239 233.794 110.05 233.645C109.864 233.495 109.601 233.42 109.259 233.42C108.855 233.42 108.567 233.487 108.395 233.62C108.222 233.754 108.136 233.91 108.136 234.089C108.136 234.203 108.172 234.305 108.243 234.396C108.315 234.491 108.427 234.569 108.58 234.631C108.668 234.663 108.927 234.738 109.356 234.855C109.978 235.021 110.411 235.158 110.655 235.266C110.903 235.37 111.096 235.523 111.236 235.725C111.376 235.926 111.446 236.177 111.446 236.477C111.446 236.77 111.36 237.046 111.188 237.307C111.018 237.564 110.772 237.764 110.45 237.907C110.128 238.047 109.763 238.117 109.356 238.117C108.683 238.117 108.168 237.977 107.813 237.697C107.462 237.417 107.237 237.002 107.14 236.452Z" fill="#393939"/>
<path d="M52 93H284" stroke="#ADADAD" stroke-width="0.395941" stroke-linecap="round" stroke-dasharray="3.17 3.17"/>
<path d="M52 94H284" stroke="#ADADAD" stroke-width="0.395941" stroke-linecap="round" stroke-dasharray="3.17 3.17"/>
<path d="M222.485 63.0579C222.717 63.2083 223.026 63.1425 223.177 62.9109L225.628 59.1368C225.778 58.9052 225.712 58.5955 225.48 58.4451C225.249 58.2947 224.939 58.3606 224.789 58.5922L222.61 61.9469L219.256 59.7685C219.024 59.6181 218.714 59.6839 218.564 59.9155C218.414 60.1471 218.479 60.4568 218.711 60.6071L222.485 63.0579ZM220.812 53.4857L220.323 53.5897L220.812 53.4857ZM223.246 62.5346L221.301 53.3817L220.323 53.5897L222.268 62.7425L223.246 62.5346ZM221.301 53.3817C218.195 38.7722 204.881 28.6238 189.971 29.5009L190.029 30.4991C204.446 29.6511 217.32 39.4636 220.323 53.5897L221.301 53.3817Z" fill="#B2B2B2"/>
</g>
<defs>
<clipPath id="clip0_395_2">
<rect width="300" height="250" fill="white"/>
</clipPath>
</defs>
</svg>
