<svg width="300" height="180" viewBox="0 0 300 180" fill="none" xmlns="http://www.w3.org/2000/svg">
<g clip-path="url(#clip0_410_2)">
<path d="M9.5 14C9.5 10.9624 11.9624 8.5 15 8.5H285C288.038 8.5 290.5 10.9624 290.5 14V255.5H9.5V14Z" fill="white" stroke="#D9D9D9"/>
<path d="M25.334 158H276.626" stroke="#01012E" stroke-opacity="0.08" stroke-width="0.775758"/>
<path d="M25.334 126H276.626" stroke="#01012E" stroke-opacity="0.08" stroke-width="0.775758"/>
<path d="M25.334 93.9998H276.626" stroke="#01012E" stroke-opacity="0.08" stroke-width="0.775758"/>
<path d="M25.334 62H276.626" stroke="#01012E" stroke-opacity="0.08" stroke-width="0.775758"/>
<path d="M25.334 115.6C42.0865 94.8208 58.8398 74.0406 75.5923 67.9998C92.3449 61.959 109.098 70.6575 125.851 95.2002C142.603 119.743 159.357 160.131 176.109 160.8C192.862 161.469 209.615 122.42 226.367 106.4C243.12 90.3804 259.873 97.3901 276.626 104.4" stroke="#3985ED" stroke-width="1.55152"/>
<path d="M25.334 117.927C26.623 117.927 27.668 116.885 27.668 115.6C27.668 114.314 26.623 113.272 25.334 113.272C24.045 113.272 23 114.314 23 115.6C23 116.885 24.045 117.927 25.334 117.927Z" fill="#3985ED" stroke="#3985ED" stroke-width="1.55152"/>
<path d="M75.5923 70.3272C76.8813 70.3272 77.9263 69.2852 77.9263 67.9999C77.9263 66.7146 76.8813 65.6726 75.5923 65.6726C74.3033 65.6726 73.2583 66.7146 73.2583 67.9999C73.2583 69.2852 74.3033 70.3272 75.5923 70.3272Z" fill="#3985ED" stroke="#3985ED" stroke-width="1.55152"/>
<path d="M125.851 97.5271C127.14 97.5271 128.185 96.4851 128.185 95.1998C128.185 93.9145 127.14 92.8726 125.851 92.8726C124.562 92.8726 123.517 93.9145 123.517 95.1998C123.517 96.4851 124.562 97.5271 125.851 97.5271Z" fill="#3985ED" stroke="#3985ED" stroke-width="1.55152"/>
<path d="M176.109 163.127C177.398 163.127 178.443 162.085 178.443 160.8C178.443 159.514 177.398 158.472 176.109 158.472C174.82 158.472 173.775 159.514 173.775 160.8C173.775 162.085 174.82 163.127 176.109 163.127Z" fill="#3985ED" stroke="#3985ED" stroke-width="1.55152"/>
<path d="M226.367 108.727C227.656 108.727 228.701 107.685 228.701 106.4C228.701 105.114 227.656 104.073 226.367 104.073C225.078 104.073 224.033 105.114 224.033 106.4C224.033 107.685 225.078 108.727 226.367 108.727Z" fill="#3985ED" stroke="#3985ED" stroke-width="1.55152"/>
<path d="M29 23.5H86C87.933 23.5 89.5 25.067 89.5 27V43C89.5 44.933 87.933 46.5 86 46.5H29C27.067 46.5 25.5 44.933 25.5 43V27C25.5 25.067 27.067 23.5 29 23.5Z" fill="white" stroke="#D9D9D9"/>
<path d="M261 26.25H267C269.071 26.25 270.75 27.9289 270.75 30V36C270.75 38.0711 269.071 39.75 267 39.75H261C258.929 39.75 257.25 38.0711 257.25 36V30C257.25 27.9289 258.929 26.25 261 26.25Z" fill="white" stroke="#D9D9D9" stroke-width="0.5"/>
<path d="M35.7256 38H34.8467V32.3994C34.6351 32.6012 34.3568 32.8031 34.0117 33.0049C33.6699 33.2067 33.3623 33.3581 33.0889 33.459V32.6094C33.5804 32.3783 34.0101 32.0983 34.3779 31.7695C34.7458 31.4408 35.0062 31.1217 35.1592 30.8125H35.7256V38ZM40.9697 39.9971L40.8721 39.1719C41.0641 39.224 41.2318 39.25 41.375 39.25C41.5703 39.25 41.7266 39.2174 41.8438 39.1523C41.9609 39.0872 42.057 38.9961 42.1318 38.8789C42.1872 38.791 42.2767 38.5729 42.4004 38.2246C42.4167 38.1758 42.4427 38.1042 42.4785 38.0098L40.5107 32.8145H41.458L42.5371 35.8174C42.6771 36.1982 42.8024 36.5986 42.9131 37.0186C43.014 36.6149 43.1344 36.221 43.2744 35.8369L44.3828 32.8145H45.2617L43.2891 38.0879C43.0775 38.6576 42.9131 39.0498 42.7959 39.2646C42.6396 39.5544 42.4606 39.766 42.2588 39.8994C42.057 40.0361 41.8161 40.1045 41.5361 40.1045C41.3669 40.1045 41.1781 40.0687 40.9697 39.9971ZM49.5586 36.3301L50.4668 36.4424C50.3236 36.973 50.0583 37.3848 49.6709 37.6777C49.2835 37.9707 48.7887 38.1172 48.1865 38.1172C47.4281 38.1172 46.8258 37.8844 46.3799 37.4189C45.9372 36.9502 45.7158 36.2943 45.7158 35.4512C45.7158 34.5788 45.9404 33.9017 46.3896 33.4199C46.8389 32.9382 47.4215 32.6973 48.1377 32.6973C48.8311 32.6973 49.3975 32.9333 49.8369 33.4053C50.2764 33.8773 50.4961 34.5413 50.4961 35.3975C50.4961 35.4495 50.4945 35.5277 50.4912 35.6318H46.624C46.6566 36.2015 46.8177 36.6377 47.1074 36.9404C47.3971 37.2432 47.7585 37.3945 48.1914 37.3945C48.5137 37.3945 48.7887 37.3099 49.0166 37.1406C49.2445 36.9714 49.4251 36.7012 49.5586 36.3301ZM46.6729 34.9092H49.5684C49.5293 34.473 49.4186 34.1458 49.2363 33.9277C48.9564 33.5892 48.5934 33.4199 48.1475 33.4199C47.7438 33.4199 47.4036 33.555 47.127 33.8252C46.8535 34.0954 46.7021 34.4567 46.6729 34.9092ZM54.959 37.3604C54.6335 37.637 54.3193 37.8324 54.0166 37.9463C53.7171 38.0602 53.3949 38.1172 53.0498 38.1172C52.4801 38.1172 52.0423 37.9788 51.7363 37.7021C51.4303 37.4222 51.2773 37.0658 51.2773 36.6328C51.2773 36.3789 51.3343 36.1478 51.4482 35.9395C51.5654 35.7279 51.7168 35.5586 51.9023 35.4316C52.0911 35.3047 52.3027 35.2087 52.5371 35.1436C52.7096 35.098 52.9701 35.054 53.3184 35.0117C54.028 34.9271 54.5505 34.8262 54.8857 34.709C54.889 34.5885 54.8906 34.512 54.8906 34.4795C54.8906 34.1214 54.8076 33.8691 54.6416 33.7227C54.417 33.5241 54.0833 33.4248 53.6406 33.4248C53.2272 33.4248 52.9212 33.498 52.7227 33.6445C52.5273 33.7878 52.3825 34.0433 52.2881 34.4111L51.4287 34.2939C51.5068 33.9261 51.6354 33.6299 51.8145 33.4053C51.9935 33.1774 52.2523 33.0033 52.5908 32.8828C52.9294 32.7591 53.3216 32.6973 53.7676 32.6973C54.2103 32.6973 54.57 32.7493 54.8467 32.8535C55.1234 32.9577 55.3268 33.0895 55.457 33.249C55.5872 33.4053 55.6784 33.6038 55.7305 33.8447C55.7598 33.9945 55.7744 34.2646 55.7744 34.6553V35.8271C55.7744 36.6442 55.7923 37.1618 55.8281 37.3799C55.8672 37.5947 55.9421 37.8014 56.0527 38H55.1348C55.0436 37.8177 54.985 37.6045 54.959 37.3604ZM54.8857 35.3975C54.5667 35.5277 54.0882 35.6383 53.4502 35.7295C53.0889 35.7816 52.8333 35.8402 52.6836 35.9053C52.5339 35.9704 52.4183 36.0664 52.3369 36.1934C52.2555 36.3171 52.2148 36.4554 52.2148 36.6084C52.2148 36.8428 52.3027 37.0381 52.4785 37.1943C52.6576 37.3506 52.918 37.4287 53.2598 37.4287C53.5983 37.4287 53.8994 37.3555 54.1631 37.209C54.4268 37.0592 54.6204 36.8558 54.7441 36.5986C54.8385 36.4001 54.8857 36.1071 54.8857 35.7197V35.3975ZM57.1318 38V32.8145H57.9229V33.6006C58.1247 33.2327 58.3102 32.9902 58.4795 32.873C58.652 32.7559 58.8408 32.6973 59.0459 32.6973C59.3421 32.6973 59.6432 32.7917 59.9492 32.9805L59.6465 33.7959C59.4316 33.6689 59.2168 33.6055 59.002 33.6055C58.8099 33.6055 58.6374 33.6641 58.4844 33.7812C58.3314 33.8952 58.2223 34.0547 58.1572 34.2598C58.0596 34.5723 58.0107 34.9141 58.0107 35.2852V38H57.1318Z" fill="#393939"/>
<path d="M212.82 37V29.8418H217.649V30.6865H213.768V32.9033H217.127V33.748H213.768V37H212.82ZM218.445 34.4072C218.445 33.4469 218.712 32.7357 219.246 32.2734C219.692 31.8893 220.236 31.6973 220.877 31.6973C221.59 31.6973 222.173 31.9316 222.625 32.4004C223.077 32.8659 223.304 33.5104 223.304 34.334C223.304 35.0013 223.203 35.527 223.001 35.9111C222.802 36.292 222.511 36.5882 222.127 36.7998C221.746 37.0114 221.329 37.1172 220.877 37.1172C220.151 37.1172 219.563 36.8844 219.114 36.4189C218.668 35.9535 218.445 35.2829 218.445 34.4072ZM219.349 34.4072C219.349 35.0713 219.493 35.5693 219.783 35.9014C220.073 36.2301 220.438 36.3945 220.877 36.3945C221.313 36.3945 221.676 36.2285 221.966 35.8965C222.256 35.5645 222.4 35.0583 222.4 34.3779C222.4 33.7367 222.254 33.2516 221.961 32.9229C221.671 32.5908 221.31 32.4248 220.877 32.4248C220.438 32.4248 220.073 32.5892 219.783 32.918C219.493 33.2467 219.349 33.7432 219.349 34.4072ZM224.329 37V31.8145H225.12V32.6006C225.322 32.2327 225.507 31.9902 225.677 31.873C225.849 31.7559 226.038 31.6973 226.243 31.6973C226.539 31.6973 226.84 31.7917 227.146 31.9805L226.844 32.7959C226.629 32.6689 226.414 32.6055 226.199 32.6055C226.007 32.6055 225.835 32.6641 225.682 32.7812C225.529 32.8952 225.42 33.0547 225.354 33.2598C225.257 33.5723 225.208 33.9141 225.208 34.2852V37H224.329ZM231.219 35.3301L232.127 35.4424C231.984 35.973 231.718 36.3848 231.331 36.6777C230.944 36.9707 230.449 37.1172 229.847 37.1172C229.088 37.1172 228.486 36.8844 228.04 36.4189C227.597 35.9502 227.376 35.2943 227.376 34.4512C227.376 33.5788 227.601 32.9017 228.05 32.4199C228.499 31.9382 229.082 31.6973 229.798 31.6973C230.491 31.6973 231.058 31.9333 231.497 32.4053C231.937 32.8773 232.156 33.5413 232.156 34.3975C232.156 34.4495 232.155 34.5277 232.151 34.6318H228.284C228.317 35.2015 228.478 35.6377 228.768 35.9404C229.057 36.2432 229.419 36.3945 229.852 36.3945C230.174 36.3945 230.449 36.3099 230.677 36.1406C230.905 35.9714 231.085 35.7012 231.219 35.3301ZM228.333 33.9092H231.229C231.189 33.473 231.079 33.1458 230.896 32.9277C230.617 32.5892 230.254 32.4199 229.808 32.4199C229.404 32.4199 229.064 32.555 228.787 32.8252C228.514 33.0954 228.362 33.4567 228.333 33.9092ZM236.619 35.1006L237.483 35.2129C237.389 35.8086 237.146 36.2757 236.756 36.6143C236.368 36.9495 235.892 37.1172 235.325 37.1172C234.616 37.1172 234.044 36.8861 233.611 36.4238C233.182 35.9583 232.967 35.2926 232.967 34.4268C232.967 33.8669 233.06 33.377 233.245 32.957C233.431 32.5371 233.712 32.223 234.09 32.0146C234.471 31.8031 234.884 31.6973 235.33 31.6973C235.893 31.6973 236.354 31.8405 236.712 32.127C237.07 32.4102 237.299 32.8138 237.4 33.3379L236.546 33.4697C236.465 33.1214 236.32 32.8594 236.111 32.6836C235.906 32.5078 235.657 32.4199 235.364 32.4199C234.922 32.4199 234.562 32.5794 234.285 32.8984C234.008 33.2142 233.87 33.7155 233.87 34.4023C233.87 35.099 234.004 35.6051 234.271 35.9209C234.537 36.2367 234.886 36.3945 235.315 36.3945C235.66 36.3945 235.949 36.2887 236.18 36.0771C236.411 35.8656 236.557 35.54 236.619 35.1006ZM241.619 36.3604C241.294 36.637 240.979 36.8324 240.677 36.9463C240.377 37.0602 240.055 37.1172 239.71 37.1172C239.14 37.1172 238.702 36.9788 238.396 36.7021C238.09 36.4222 237.938 36.0658 237.938 35.6328C237.938 35.3789 237.994 35.1478 238.108 34.9395C238.226 34.7279 238.377 34.5586 238.562 34.4316C238.751 34.3047 238.963 34.2087 239.197 34.1436C239.37 34.098 239.63 34.054 239.979 34.0117C240.688 33.9271 241.211 33.8262 241.546 33.709C241.549 33.5885 241.551 33.512 241.551 33.4795C241.551 33.1214 241.468 32.8691 241.302 32.7227C241.077 32.5241 240.743 32.4248 240.301 32.4248C239.887 32.4248 239.581 32.498 239.383 32.6445C239.188 32.7878 239.043 33.0433 238.948 33.4111L238.089 33.2939C238.167 32.9261 238.296 32.6299 238.475 32.4053C238.654 32.1774 238.912 32.0033 239.251 31.8828C239.59 31.7591 239.982 31.6973 240.428 31.6973C240.87 31.6973 241.23 31.7493 241.507 31.8535C241.784 31.9577 241.987 32.0895 242.117 32.249C242.247 32.4053 242.339 32.6038 242.391 32.8447C242.42 32.9945 242.435 33.2646 242.435 33.6553V34.8271C242.435 35.6442 242.452 36.1618 242.488 36.3799C242.527 36.5947 242.602 36.8014 242.713 37H241.795C241.704 36.8177 241.645 36.6045 241.619 36.3604ZM241.546 34.3975C241.227 34.5277 240.748 34.6383 240.11 34.7295C239.749 34.7816 239.493 34.8402 239.344 34.9053C239.194 34.9704 239.078 35.0664 238.997 35.1934C238.916 35.3171 238.875 35.4554 238.875 35.6084C238.875 35.8428 238.963 36.0381 239.139 36.1943C239.318 36.3506 239.578 36.4287 239.92 36.4287C240.258 36.4287 240.56 36.3555 240.823 36.209C241.087 36.0592 241.281 35.8558 241.404 35.5986C241.499 35.4001 241.546 35.1071 241.546 34.7197V34.3975ZM243.45 35.4521L244.319 35.3154C244.368 35.6637 244.503 35.9307 244.725 36.1162C244.949 36.3018 245.262 36.3945 245.662 36.3945C246.066 36.3945 246.365 36.3132 246.561 36.1504C246.756 35.9844 246.854 35.7907 246.854 35.5693C246.854 35.3708 246.767 35.2145 246.595 35.1006C246.474 35.0225 246.175 34.9232 245.696 34.8027C245.052 34.64 244.604 34.5 244.354 34.3828C244.106 34.2624 243.917 34.098 243.787 33.8896C243.66 33.6781 243.597 33.4453 243.597 33.1914C243.597 32.9603 243.649 32.7471 243.753 32.5518C243.86 32.3532 244.005 32.1888 244.188 32.0586C244.324 31.9577 244.51 31.873 244.744 31.8047C244.982 31.7331 245.236 31.6973 245.506 31.6973C245.913 31.6973 246.269 31.7559 246.575 31.873C246.884 31.9902 247.112 32.1497 247.259 32.3516C247.405 32.5501 247.506 32.8171 247.562 33.1523L246.702 33.2695C246.663 33.0026 246.549 32.7943 246.36 32.6445C246.175 32.4948 245.911 32.4199 245.569 32.4199C245.166 32.4199 244.878 32.4867 244.705 32.6201C244.533 32.7536 244.446 32.9098 244.446 33.0889C244.446 33.2028 244.482 33.3053 244.554 33.3965C244.625 33.4909 244.738 33.569 244.891 33.6309C244.979 33.6634 245.237 33.7383 245.667 33.8555C246.289 34.0215 246.722 34.1582 246.966 34.2656C247.213 34.3698 247.407 34.5228 247.547 34.7246C247.687 34.9264 247.757 35.1771 247.757 35.4766C247.757 35.7695 247.671 36.0462 247.498 36.3066C247.329 36.5638 247.083 36.764 246.761 36.9072C246.438 37.0472 246.074 37.1172 245.667 37.1172C244.993 37.1172 244.479 36.9772 244.124 36.6973C243.772 36.4173 243.548 36.0023 243.45 35.4521ZM250.721 36.2139L250.848 36.9902C250.6 37.0423 250.379 37.0684 250.184 37.0684C249.865 37.0684 249.617 37.0179 249.441 36.917C249.266 36.8161 249.142 36.6842 249.07 36.5215C248.999 36.3555 248.963 36.0088 248.963 35.4814V32.498H248.318V31.8145H248.963V30.5303L249.837 30.0029V31.8145H250.721V32.498H249.837V35.5303C249.837 35.7809 249.852 35.9421 249.881 36.0137C249.913 36.0853 249.964 36.1423 250.032 36.1846C250.104 36.2269 250.205 36.248 250.335 36.248C250.433 36.248 250.561 36.2367 250.721 36.2139Z" fill="#393939"/>
<path d="M111.498 35.75L112.605 35.6562C112.688 36.1953 112.877 36.6016 113.174 36.875C113.475 37.1445 113.836 37.2793 114.258 37.2793C114.766 37.2793 115.195 37.0879 115.547 36.7051C115.898 36.3223 116.074 35.8145 116.074 35.1816C116.074 34.5801 115.904 34.1055 115.564 33.7578C115.229 33.4102 114.787 33.2363 114.24 33.2363C113.9 33.2363 113.594 33.3145 113.32 33.4707C113.047 33.623 112.832 33.8223 112.676 34.0684L111.686 33.9395L112.518 29.5273H116.789V30.5352H113.361L112.898 32.8438C113.414 32.4844 113.955 32.3047 114.521 32.3047C115.271 32.3047 115.904 32.5645 116.42 33.084C116.936 33.6035 117.193 34.2715 117.193 35.0879C117.193 35.8652 116.967 36.5371 116.514 37.1035C115.963 37.7988 115.211 38.1465 114.258 38.1465C113.477 38.1465 112.838 37.9277 112.342 37.4902C111.85 37.0527 111.568 36.4727 111.498 35.75ZM118.77 38V36.7988H119.971V38H118.77ZM121.518 35.75L122.625 35.6562C122.707 36.1953 122.896 36.6016 123.193 36.875C123.494 37.1445 123.855 37.2793 124.277 37.2793C124.785 37.2793 125.215 37.0879 125.566 36.7051C125.918 36.3223 126.094 35.8145 126.094 35.1816C126.094 34.5801 125.924 34.1055 125.584 33.7578C125.248 33.4102 124.807 33.2363 124.26 33.2363C123.92 33.2363 123.613 33.3145 123.34 33.4707C123.066 33.623 122.852 33.8223 122.695 34.0684L121.705 33.9395L122.537 29.5273H126.809V30.5352H123.381L122.918 32.8438C123.434 32.4844 123.975 32.3047 124.541 32.3047C125.291 32.3047 125.924 32.5645 126.439 33.084C126.955 33.6035 127.213 34.2715 127.213 35.0879C127.213 35.8652 126.986 36.5371 126.533 37.1035C125.982 37.7988 125.23 38.1465 124.277 38.1465C123.496 38.1465 122.857 37.9277 122.361 37.4902C121.869 37.0527 121.588 36.4727 121.518 35.75ZM128.578 38V29.4102H129.715V33.6699L133.98 29.4102H135.521L131.918 32.8906L135.68 38H134.18L131.121 33.6523L129.715 35.0234V38H128.578Z" fill="#009D0A"/>
<path d="M162.006 36.6113V34.2559H159.668V33.2715H162.006V30.9336H163.002V33.2715H165.34V34.2559H163.002V36.6113H162.006ZM170.479 38H169.424V31.2793C169.17 31.5215 168.836 31.7637 168.422 32.0059C168.012 32.248 167.643 32.4297 167.314 32.5508V31.5312C167.904 31.2539 168.42 30.918 168.861 30.5234C169.303 30.1289 169.615 29.7461 169.799 29.375H170.479V38ZM173.186 35.75L174.293 35.6562C174.375 36.1953 174.564 36.6016 174.861 36.875C175.162 37.1445 175.523 37.2793 175.945 37.2793C176.453 37.2793 176.883 37.0879 177.234 36.7051C177.586 36.3223 177.762 35.8145 177.762 35.1816C177.762 34.5801 177.592 34.1055 177.252 33.7578C176.916 33.4102 176.475 33.2363 175.928 33.2363C175.588 33.2363 175.281 33.3145 175.008 33.4707C174.734 33.623 174.52 33.8223 174.363 34.0684L173.373 33.9395L174.205 29.5273H178.477V30.5352H175.049L174.586 32.8438C175.102 32.4844 175.643 32.3047 176.209 32.3047C176.959 32.3047 177.592 32.5645 178.107 33.084C178.623 33.6035 178.881 34.2715 178.881 35.0879C178.881 35.8652 178.654 36.5371 178.201 37.1035C177.65 37.7988 176.898 38.1465 175.945 38.1465C175.164 38.1465 174.525 37.9277 174.029 37.4902C173.537 37.0527 173.256 36.4727 173.186 35.75ZM180.064 31.4727C180.064 30.8594 180.219 30.3379 180.527 29.9082C180.836 29.4785 181.283 29.2637 181.869 29.2637C182.408 29.2637 182.854 29.457 183.205 29.8438C183.561 30.2266 183.738 30.791 183.738 31.5371C183.738 32.2637 183.559 32.8242 183.199 33.2188C182.844 33.6094 182.404 33.8047 181.881 33.8047C181.361 33.8047 180.928 33.6113 180.58 33.2246C180.236 32.8379 180.064 32.2539 180.064 31.4727ZM181.898 29.9902C181.637 29.9902 181.418 30.1035 181.242 30.3301C181.07 30.5566 180.984 30.9727 180.984 31.5781C180.984 32.1289 181.072 32.5176 181.248 32.7441C181.424 32.9668 181.641 33.0781 181.898 33.0781C182.164 33.0781 182.383 32.9648 182.555 32.7383C182.73 32.5117 182.818 32.0977 182.818 31.4961C182.818 30.9414 182.73 30.5527 182.555 30.3301C182.379 30.1035 182.16 29.9902 181.898 29.9902ZM181.904 38.3164L186.604 29.2637H187.459L182.777 38.3164H181.904ZM185.619 35.9844C185.619 35.3672 185.773 34.8457 186.082 34.4199C186.391 33.9902 186.84 33.7754 187.43 33.7754C187.969 33.7754 188.414 33.9688 188.766 34.3555C189.121 34.7383 189.299 35.3027 189.299 36.0488C189.299 36.7754 189.119 37.3359 188.76 37.7305C188.404 38.1211 187.963 38.3164 187.436 38.3164C186.916 38.3164 186.482 38.123 186.135 37.7363C185.791 37.3457 185.619 36.7617 185.619 35.9844ZM187.459 34.502C187.193 34.502 186.973 34.6152 186.797 34.8418C186.625 35.0684 186.539 35.4844 186.539 36.0898C186.539 36.6367 186.627 37.0234 186.803 37.25C186.979 37.4766 187.195 37.5898 187.453 37.5898C187.723 37.5898 187.943 37.4766 188.115 37.25C188.291 37.0234 188.379 36.6094 188.379 36.0078C188.379 35.4531 188.291 35.0645 188.115 34.8418C187.939 34.6152 187.721 34.502 187.459 34.502Z" fill="#009D0A"/>
<path fill-rule="evenodd" clip-rule="evenodd" d="M78.1464 33.1464C78.3417 32.9512 78.6583 32.9512 78.8536 33.1464L82 36.2929L85.1465 33.1464C85.3417 32.9512 85.6583 32.9512 85.8536 33.1464C86.0488 33.3417 86.0488 33.6583 85.8536 33.8536L82.3536 37.3536C82.1583 37.5488 81.8417 37.5488 81.6465 37.3536L78.1464 33.8536C77.9512 33.6583 77.9512 33.3417 78.1464 33.1464Z" fill="black"/>
</g>
<defs>
<clipPath id="clip0_410_2">
<rect width="300" height="180" fill="white"/>
</clipPath>
</defs>
</svg>
